<svg width="45" height="73" viewBox="0 0 45 73" fill="none" xmlns="http://www.w3.org/2000/svg">
<g clip-path="url(#clip0_1064_2844)">
<path d="M39.4393 60.5997L26.1462 52.8596C22.922 50.9811 19.241 50.2332 15.6548 50.5985C12.0686 50.2332 8.38756 50.9724 5.16342 52.8596L4.10308 53.4771L2.09446 54.8077C-0.707267 56.4339 -0.707267 60.5127 2.09446 62.1477L15.3876 69.8877C18.3186 71.5923 22.6548 72.3663 26.8789 72.2185C30.1462 72.3663 33.4393 71.5923 36.3703 69.8877L38.741 68.3484L39.4393 67.9397C42.241 66.3134 42.241 62.2346 39.4393 60.5997Z" fill="#F5F2E8"/>
<path d="M19.4569 38.023C18.7414 37.6056 18.3018 36.8403 18.3018 36.0054V8.92384C18.3018 1.14899 23.7673 -1.99922 30.4828 1.9143L32.819 3.27968C39.5345 7.1932 45 16.6987 45 24.4822V39.2492L42.6811 37.9013V23.1256C42.6811 16.8291 38.2587 9.13256 32.819 5.95827L30.4828 4.59289C25.0431 1.42729 20.6207 3.96672 20.6207 10.2631V37.336C20.6207 37.936 19.9742 38.3187 19.4569 38.0143V38.023Z" fill="#393F42"/>
<path d="M43.9314 26.9434L30.2935 34.3095C30.2935 34.3095 31.0435 25.3954 24.4401 18.0206C17.8366 10.6458 14.2332 10.1762 14.2332 10.1762L7.87109 9.21082L21.5349 1.25334C21.5349 1.25334 27.9056 1.31422 31.4228 3.50579C34.9401 5.69736 41.509 9.77611 42.7159 18.3598C43.6728 20.4731 43.9228 26.9434 43.9228 26.9434H43.9314Z" fill="#393F42"/>
<path d="M6.17242 46.1544L20.2931 37.9708L20.6121 22.9603L20.6293 12.9069L12.8276 9.71524C12.8276 9.71524 6.80173 10.7241 5.80173 13.881C4.80173 17.0292 6.17242 46.1544 6.17242 46.1544Z" fill="#393F42"/>
<path d="M42.6808 37.8926V50.3202C42.6808 54.4772 40.7498 56.9818 37.8705 57.3036C37.2153 58.2255 36.6205 59.1473 35.9395 60.0083C41.1463 61.4345 44.9998 58.1907 44.9998 51.6681V39.2406L42.6808 37.8926Z" fill="#393F42"/>
<path d="M33.4394 56.3209C33.2325 56.2165 33.0256 56.1208 32.8187 55.9991C27.3791 52.8335 22.9567 45.1282 22.9567 38.8318V19.5338C22.9567 19.1338 22.7411 18.7598 22.3963 18.5511L22.3187 18.5076C21.5687 18.0728 20.6377 18.612 20.6377 19.4903V37.4838C20.6377 44.8934 25.5946 53.8597 31.8705 58.0776C32.4739 57.5993 32.9825 56.9905 33.4394 56.3296V56.3209Z" fill="#393F42"/>
<path d="M27.0518 67.8875L41.6724 59.4082L43.7156 50.2419L30.2931 57.0514L27.0518 67.8875Z" fill="#393F42"/>
<path d="M21.4396 18.4032L7.44824 26.5347L8.48272 48.6765C8.48272 48.6765 10.9741 59.1386 14.4396 62.2955C17.9051 65.4437 23.8189 67.8092 25.4913 66.8004C27.1638 65.7916 30.2845 57.0688 30.2845 57.0688L25.431 49.5287C25.431 49.5287 22.862 47.0502 22.362 40.919C21.862 34.7878 21.431 18.4206 21.431 18.4206L21.4396 18.4032Z" fill="#393F42"/>
<path d="M31.1814 47.2937V59.7213C31.1814 60.3127 31.1469 60.8432 31.0952 61.3302C31.0607 61.652 31.009 61.9389 30.9659 62.2172C30.94 62.3738 30.9055 62.5303 30.8797 62.6782C30.8107 62.9999 30.7331 63.2869 30.6642 63.5304C30.6297 63.6348 30.6038 63.7305 30.578 63.8174C30.5349 63.9392 30.4831 64.0609 30.44 64.1827C30.4228 64.2349 30.3969 64.2871 30.3797 64.3218C30.3624 64.374 30.3366 64.4262 30.3107 64.4697C30.3107 64.4871 30.2935 64.5045 30.2935 64.5045C28.4831 68.6093 24.1038 69.7138 19.0004 66.7395C12.2849 62.826 6.81934 53.3205 6.81934 45.537V27.5435C6.81934 26.6738 7.75037 26.1259 8.50037 26.5608L8.57796 26.6042C8.92278 26.8043 9.1383 27.1782 9.1383 27.587V46.885C9.1383 53.1814 13.5607 60.878 19.0004 64.0436C22.9573 66.3482 26.3797 65.635 27.9486 62.6434C28.5348 61.5215 28.8624 60.0865 28.8624 58.3733V45.9457L31.1814 47.2937Z" fill="#D0CECE"/>
<path d="M31.1807 32.3875V47.285L28.8617 45.937V31.17C28.8617 29.6394 28.6031 28.0131 28.1204 26.4042C26.6462 21.3862 23.1117 16.403 18.9997 14.0114L16.6635 12.646C11.2238 9.48042 6.80139 12.0286 6.80139 18.325V45.3891C6.80139 45.9892 6.15484 46.3718 5.63759 46.0674C4.92208 45.65 4.48242 44.876 4.48242 44.0498V16.977C4.48242 9.20212 9.94794 6.05392 16.6721 9.96743L19.0083 11.3328C23.81 14.1245 27.9566 19.7686 29.9479 25.5954C30.6548 27.6826 31.0945 29.7872 31.1807 31.7962C31.1807 31.9962 31.1979 32.2049 31.1979 32.3962L31.1807 32.3875Z" fill="#D0CECE"/>
<path d="M6.02601 41.3799C5.49152 41.3799 4.96566 41.2756 4.46566 41.0669C3.25014 40.5538 2.35359 39.4493 1.9829 38.0317C1.28463 35.3096 2.62946 32.0658 5.06049 30.6569L18.2243 22.9951C19.5001 22.2559 20.9312 22.1254 22.1467 22.6385C23.3622 23.1517 24.2674 24.2561 24.6295 25.6737C25.3277 28.3958 23.9743 31.6396 21.5519 33.0485L8.38808 40.7103C7.62945 41.1538 6.81049 41.3799 6.01739 41.3799H6.02601ZM20.5864 25.0214C20.2588 25.0214 19.9139 25.1258 19.5605 25.3258L6.3967 32.9876C5.03463 33.7877 4.17256 35.8227 4.56911 37.3447C4.72428 37.9534 5.05187 38.3883 5.49152 38.5709C5.9398 38.7622 6.49152 38.684 7.04325 38.3709L20.207 30.7004C21.5777 29.909 22.4312 27.8653 22.0346 26.3433C21.8795 25.7433 21.5519 25.2997 21.1122 25.1171C20.9484 25.0475 20.7674 25.0127 20.5864 25.0127V25.0214Z" fill="#D0CECE"/>
<path d="M22.9567 21.5515V27.0043C21.9308 32.8746 9.1377 33.7008 9.1377 33.7008V27.9174C9.1377 27.9174 21.267 18.7163 22.9567 21.5428V21.5515Z" fill="#393F42"/>
<path d="M44.7505 21.2731C44.4229 19.1251 42.035 18.0119 40.2074 19.1599C37.9143 20.5948 34.9229 22.4733 32.7591 23.83C31.2074 24.804 30.3971 26.639 30.7678 28.4479C31.0005 29.5698 31.1902 30.97 31.1902 32.5354V59.73C31.1902 59.73 31.1902 60.1996 31.1126 60.9214C30.9746 62.2781 30.6815 64.8262 33.1643 63.3913L41.6471 58.3211C43.1815 57.4079 44.6643 54.9729 44.9057 53.1987C44.9746 52.703 45.0091 52.1899 45.0091 51.6855V24.4822C45.0091 24.4822 45.0436 23.1082 44.7591 21.2818L44.7505 21.2731Z" fill="#393F42"/>
<path d="M31.8536 59.7213V32.5267C31.8536 31.1265 31.707 29.7003 31.4226 28.3001C31.1122 26.7956 31.7932 25.2215 33.1122 24.3953L40.5605 19.7252C40.9312 19.4903 41.3536 19.3686 41.776 19.3686C42.776 19.3686 43.8881 20.0556 44.0863 21.3688C44.3536 23.1082 44.3277 24.4388 44.3277 24.4562V51.6681C44.3277 52.103 44.2932 52.5813 44.2243 53.0944C44.0174 54.6685 43.5432 57.4862 40.2932 59.4082L31.7329 64.548C31.3881 64.7567 30.9829 64.4088 31.1294 64.0349C31.4829 63.1217 31.8363 61.7041 31.8363 59.7213H31.8536Z" fill="#3A3F47"/>
<path d="M35.2158 56.1643C35.2158 58.2863 36.3882 59.3212 37.8451 58.4776C39.2934 57.6341 40.4744 55.2251 40.4744 53.1118C40.4744 50.9985 39.302 49.9549 37.8451 50.7985C36.3969 51.642 35.2158 54.051 35.2158 56.1643Z" fill="#262C35"/>
<path d="M35.5605 55.8773C35.5605 57.5993 36.5174 58.4429 37.6899 57.7558C38.8709 57.0688 39.8192 55.1207 39.8192 53.3988C39.8192 51.6768 38.8623 50.8332 37.6899 51.5203C36.5088 52.2073 35.5605 54.1554 35.5605 55.8773Z" fill="#333941"/>
<path d="M37.0177 55.4425C36.5004 56.2513 36.4401 57.1471 36.897 57.4427C37.3452 57.7384 38.1297 57.321 38.6556 56.5122C39.1728 55.7034 39.2332 54.8076 38.7763 54.512C38.328 54.2163 37.5435 54.6337 37.0177 55.4425Z" fill="#43484F"/>
<path d="M43.9309 23.169C43.9309 23.169 43.7929 21.1166 43.4567 20.6644C42.9309 20.0208 42.1722 20.0208 42.1722 20.0208C42.1722 20.0208 42.4222 20.9253 42.0084 21.2036C41.586 21.4819 31.8015 27.3608 31.8015 27.3608C31.8015 27.3608 31.7757 28.2653 32.0257 29.1872L32.2757 30.1177L43.9309 23.169Z" fill="#474C55"/>
<path d="M6.81934 27.5435C6.81934 27.5435 7.50037 22.769 13.2504 18.8555C18.7676 15.0985 22.9573 16.8291 22.9573 19.5338C22.9573 22.2385 14.8193 25.9955 14.8193 25.9955L9.1383 28.1088L6.81934 27.5435Z" fill="#393F42"/>
<path d="M9.22451 28.074C9.50037 26.5086 11.1038 22.8386 15.6986 19.7078C18.3711 17.8901 20.8624 17.9249 22.5176 18.125C21.3797 16.5508 17.6642 15.8551 13.2504 18.8555C7.50899 22.769 6.81934 27.5435 6.81934 27.5435L9.1383 28.1088L9.22451 28.074Z" fill="#D0CECE"/>
<path d="M41.836 31.5005V30.7004L41.1118 31.1178V30.1177L39.198 31.2309V32.2397L38.4739 32.6572V33.4573L37.7929 33.8573V33.0485L37.0687 33.4746V32.4745L35.1463 33.5877V34.5878L34.4222 35.014V35.8141L33.8877 36.1271V38.1274L34.4222 37.8143V39.1623L35.1463 38.7448V39.4232L35.7929 39.0405V39.7189L36.5515 39.2753V40.1189L37.1722 39.7537V40.5972L39.0946 39.4754V38.6405L39.7153 38.2752V37.4316L40.4653 36.9968V36.3185L41.1118 35.9445V35.2749L41.836 34.8487V33.5007L42.3705 33.1877V31.1874L41.836 31.5005Z" fill="#FF8E8C"/>
<path d="M35.1035 36.5011L35.6983 36.1532V34.7792L35.1035 35.127V36.5011Z" fill="#F4F4F5"/>
<path d="M35.6982 34.0834V34.7792L36.2931 34.4313V33.7442L35.6982 34.0834Z" fill="#F4F4F5"/>
<path d="M36.8364 43.4237C36.9915 43.3367 37.0691 43.4237 37.0691 43.5541V45.0934C37.2157 45.0065 37.3191 45.0065 37.4053 45.0499C37.4915 45.0934 37.526 45.1978 37.526 45.363V46.6327C37.526 46.9545 37.3536 47.2676 37.0691 47.4328L35.7157 48.2242C35.4312 48.3895 35.2588 48.2851 35.2588 47.9633V46.6936C35.2588 46.5284 35.3019 46.3718 35.3795 46.2327C35.4657 46.0936 35.5691 45.9718 35.7157 45.8848V44.3455C35.7157 44.2064 35.7933 44.0324 35.9484 43.9455L36.845 43.4237H36.8364ZM37.0691 46.911V45.6326L35.7157 46.424V47.7024L37.0691 46.911ZM36.6122 45.3717V44.0933L36.1812 44.3455V45.6239L36.6122 45.3717Z" fill="#C3C4C7"/>
<path d="M40.3883 43.2584L38.8021 44.1803C38.6728 44.2585 38.5693 44.1803 38.5693 44.0498V42.6844C38.5693 42.5453 38.6728 42.3627 38.8021 42.2844L40.6124 41.2321C40.7417 41.1538 40.8452 41.2321 40.8452 41.3625V44.9804C40.8452 45.1282 40.7504 45.3022 40.6124 45.3804L40.3797 45.5109C40.2417 45.5891 40.1469 45.5196 40.1469 45.3804C40.1469 45.2239 40.2417 45.0586 40.3797 44.9804V43.2584H40.3883ZM40.3883 42.7279V41.893L39.0349 42.6844V43.5193L40.3883 42.7279Z" fill="#C3C4C7"/>
</g>
<defs>
<clipPath id="clip0_1064_2844">
<rect width="45" height="72" fill="white" transform="translate(0 0.23584)"/>
</clipPath>
</defs>
</svg>
