<svg width="72" height="68" viewBox="0 0 72 68" fill="none" xmlns="http://www.w3.org/2000/svg">
<g clip-path="url(#clip0_1064_1365)">
<path d="M25.955 30.5581L33.5614 2.16214C33.6989 1.65313 33.9878 1.28664 34.3385 1.1034L34.3042 0.940513L34.8956 0.893005C35.0882 0.906579 35.2876 0.960873 35.4871 1.07625L70.5134 21.0294C71.3249 21.4909 71.7582 22.6922 71.49 23.717L63.8905 52.1129C63.7323 52.6898 63.3266 53.0291 62.8727 53.0224H62.8658L62.3087 53.0699L62.35 52.9138L26.7047 32.6077C26.0857 32.2548 25.7556 31.3453 25.9619 30.5649L25.955 30.5581Z" fill="url(#paint0_linear_1064_1365)"/>
<path d="M34.9578 1.11695L69.9841 21.0769C70.7956 21.5384 71.2289 22.7397 70.9607 23.7645L63.3612 52.1604C63.1549 52.9341 62.4878 53.2802 61.8688 52.9273L26.1341 32.5669C25.5152 32.214 25.185 31.3046 25.3914 30.5241L32.9908 2.13497C33.2659 1.11695 34.1462 0.662234 34.9509 1.12374L34.9578 1.11695Z" fill="#494855"/>
<path d="M34.002 1.88391L70.3281 22.5836L62.9075 50.3212L26.5744 29.6215L34.002 1.88391Z" fill="#393F42"/>
<path d="M62.9144 29.5333L64.1592 30.2391C64.2486 30.2866 64.3449 30.273 64.393 30.1916L64.4274 30.1373C64.4756 30.0626 64.5718 30.0423 64.6612 30.0898L65.7823 30.7277C65.8717 30.782 65.9404 30.8974 65.9404 31.006V31.2164C65.9404 31.2164 65.9404 31.2639 65.9404 31.2843L65.4246 33.4085C65.404 33.5035 65.3146 33.5375 65.2321 33.49L62.3092 31.8204C62.2267 31.7729 62.1716 31.6575 62.1991 31.5625L62.6668 29.6351C62.6943 29.5061 62.8181 29.4586 62.9281 29.5265L62.9144 29.5333Z" fill="#FFE568"/>
<path d="M62.8115 29.7097L65.7344 31.3793C65.8169 31.4268 65.8719 31.5422 65.8444 31.6372L65.4111 33.4153C65.3905 33.5103 65.3011 33.5443 65.2186 33.4968L62.2957 31.8272C62.2132 31.7797 62.1581 31.6643 62.1857 31.5693L62.6189 29.7912C62.6396 29.6962 62.729 29.6622 62.8115 29.7097Z" fill="#FFEC8B"/>
<path d="M64.4339 24.5789L65.6787 25.2847C65.7681 25.3322 65.8644 25.3187 65.9126 25.2372L65.9469 25.1829C65.9951 25.1083 66.0914 25.0879 66.1808 25.1354L67.3018 25.7734C67.3912 25.8277 67.46 25.9431 67.46 26.0516V26.262C67.46 26.262 67.46 26.3095 67.46 26.3299L66.9442 28.4542C66.9235 28.5492 66.8341 28.5831 66.7516 28.5356L63.8287 26.8661C63.7462 26.8186 63.6912 26.7032 63.7187 26.6082L64.1863 24.6807C64.2139 24.5518 64.3376 24.5043 64.4477 24.5721L64.4339 24.5789Z" fill="#FFE568"/>
<path d="M64.331 24.7554L67.2539 26.4249C67.3364 26.4724 67.3914 26.5878 67.3639 26.6828L66.9307 28.461C66.91 28.556 66.8206 28.5899 66.7381 28.5424L63.8152 26.8729C63.7327 26.8254 63.6777 26.71 63.7052 26.615L64.1385 24.8368C64.1591 24.7418 64.2485 24.7079 64.331 24.7554Z" fill="#FFEC8B"/>
<path d="M34.7718 6.6007L36.0166 7.30653C36.106 7.35404 36.2023 7.34046 36.2504 7.25902L36.2848 7.20473C36.333 7.13007 36.4293 7.10971 36.5187 7.15722L37.6397 7.79518C37.7291 7.84947 37.7979 7.96485 37.7979 8.07344V8.28383C37.7979 8.28383 37.7979 8.33133 37.7979 8.3517L37.2821 10.476C37.2614 10.571 37.172 10.6049 37.0895 10.5574L34.1666 8.88785C34.0841 8.84034 34.0291 8.72497 34.0566 8.62995L34.5242 6.7025C34.5517 6.57356 34.6755 6.52605 34.7856 6.59392L34.7718 6.6007Z" fill="#FFE568"/>
<path d="M34.6689 6.77034L37.5918 8.43989C37.6743 8.4874 37.7293 8.60278 37.7018 8.69779L37.2686 10.4759C37.2479 10.5709 37.1585 10.6049 37.076 10.5574L34.1531 8.88782C34.0706 8.84031 34.0156 8.72494 34.0431 8.62992L34.4763 6.85178C34.497 6.75677 34.5864 6.72284 34.6689 6.77034Z" fill="#FFEC8B"/>
<path d="M26.8974 28.4135L63.2305 49.1132L62.9072 50.3212L26.5742 29.6215L26.8974 28.4135Z" fill="#C4C8D8"/>
<path d="M34.1939 29.574L56.112 42.0617L60.8023 24.5246L61.5176 21.8642L39.5995 9.37653L38.8911 12.0369L34.1939 29.574Z" fill="#EFF0F5"/>
<path d="M38.8911 12.0369L60.8023 24.5246L61.5176 21.8642L39.5995 9.37653L38.8911 12.0369Z" fill="#C4C8D8"/>
<path d="M60.2863 23.5202L58.8421 22.699L59.1378 21.5928L60.582 22.414L60.2863 23.5202Z" fill="#FC797E"/>
<g style="mix-blend-mode:screen">
<path d="M41.7933 5.01941V39.4488L56.9854 48.102V13.6726L41.7933 5.01941Z" fill="#323333"/>
</g>
<path d="M0.852904 46.4935V45.1633L1.95328 45.2922L23.727 32.886C24.4216 32.4924 25.5426 32.4924 26.2303 32.886L59.6749 52.0655L61.9651 52.3369V53.7622C61.9788 54.0336 61.8069 54.3051 61.4424 54.5155L39.2904 67.1389C38.3414 67.6819 36.8077 67.6819 35.8586 67.1389L1.5544 47.4708C1.10049 47.2061 0.866659 46.8668 0.852904 46.5207V46.4935Z" fill="url(#paint1_linear_1064_1365)"/>
<path d="M1.56879 44.1928L23.7207 31.5693C24.4154 31.1757 25.5364 31.1757 26.2241 31.5693L61.4499 51.7668C62.1376 52.1605 62.1376 52.8052 61.443 53.1988L39.2911 65.8223C38.342 66.3652 36.8083 66.3652 35.8593 65.8223L1.55504 46.1542C0.612844 45.6112 0.619719 44.7357 1.56879 44.1928Z" fill="#EFF0F5"/>
<path d="M10.7493 39.8967L23.8163 32.4516C24.277 32.1937 25.0129 32.1937 25.4737 32.4516L59.9086 52.2012C60.3625 52.4659 60.3625 52.8866 59.9086 53.1445L46.8416 60.5896C46.3808 60.8475 45.645 60.8475 45.1842 60.5896L10.7493 40.8401C10.2954 40.5822 10.2954 40.1546 10.7493 39.8967Z" fill="#E1E3EB"/>
<path d="M12.414 50.6334L18.9131 46.9278C19.2913 46.7107 19.9103 46.7107 20.2885 46.9278L34.5659 55.1127C34.9442 55.3299 34.9442 55.6828 34.5659 55.9L28.0668 59.6056C27.6886 59.8227 27.0696 59.8227 26.6913 59.6056L12.414 51.4207C12.0357 51.2035 12.0357 50.8506 12.414 50.6334Z" fill="#D9DBE6"/>
<path d="M34.5653 55.3095L20.2879 47.1247C19.9096 46.9075 19.2976 46.9075 18.9124 47.1247L12.4133 50.8302C12.2689 50.9117 12.1795 51.0203 12.1451 51.1289C12.0901 50.9524 12.1795 50.7692 12.4133 50.6334L18.9124 46.9278C19.2907 46.7107 19.9096 46.7107 20.2879 46.9278L34.5653 55.1127C34.7991 55.2484 34.8816 55.4249 34.8335 55.6014C34.7991 55.4928 34.7097 55.391 34.5653 55.3095Z" fill="#C5C9D8"/>
<path d="M54.056 53.4228V53.2395H54.2073L55.7753 52.3505C55.9335 52.2555 56.1948 52.2622 56.353 52.3505L57.921 53.2531H58.0586V53.4296V53.4432C58.0586 53.4974 58.0173 53.5517 57.9417 53.5993L56.3461 54.5087C56.188 54.6037 55.9266 54.6037 55.7684 54.5087L54.1798 53.5993C54.0972 53.5517 54.0629 53.4907 54.0629 53.4364L54.056 53.4228Z" fill="#393842"/>
<path d="M43.9671 59.1712V58.988H44.1184L45.6864 58.0989C45.8446 58.0107 46.106 58.0107 46.2641 58.0989L47.8322 59.0015H47.9697V59.178V59.1916C47.9697 59.2459 47.9285 59.3001 47.8528 59.3477L46.2573 60.2571C46.0991 60.3521 45.8377 60.3521 45.6796 60.2571L44.0909 59.3477C44.0084 59.3001 43.974 59.2391 43.974 59.1848L43.9671 59.1712Z" fill="#393842"/>
<path d="M41.4769 57.746V57.5627H41.6282L43.1962 56.6737C43.3544 56.5786 43.6157 56.5854 43.7739 56.6737L45.3419 57.5763H45.4795V57.7528V57.7663C45.4795 57.8206 45.4382 57.8749 45.3626 57.9224L43.767 58.8319C43.6089 58.9269 43.3475 58.9269 43.1893 58.8319L41.6007 57.9224C41.5181 57.8749 41.4838 57.8138 41.4838 57.7595L41.4769 57.746Z" fill="#393842"/>
<path d="M38.9876 56.314V56.1307H39.1389L40.707 55.2417C40.8651 55.1466 41.1265 55.1534 41.2847 55.2417L42.8527 56.1443H42.9902V56.3207V56.3343C42.9902 56.3886 42.949 56.4429 42.8733 56.4904L41.2778 57.3999C41.1196 57.4949 40.8583 57.4949 40.7001 57.3999L39.1114 56.4904C39.0289 56.4429 38.9945 56.3818 38.9945 56.3275L38.9876 56.314Z" fill="#393842"/>
<path d="M36.4984 54.8887V54.7055H36.6497L38.2177 53.8164C38.3759 53.7214 38.6372 53.7282 38.7954 53.8164L40.3634 54.7191H40.501V54.8955V54.9091C40.501 54.9634 40.4597 55.0177 40.3841 55.0652L38.7885 55.9746C38.6303 56.0696 38.369 56.0696 38.2108 55.9746L36.6222 55.0652C36.5396 55.0177 36.5052 54.9566 36.5052 54.9023L36.4984 54.8887Z" fill="#393842"/>
<path d="M51.5667 51.9976V51.8143H51.718L53.2861 50.9252C53.4442 50.8302 53.7056 50.837 53.8638 50.9252L55.4318 51.8279H55.5693V52.0043V52.0179C55.5693 52.0722 55.5281 52.1265 55.4524 52.174L53.8569 53.0834C53.6987 53.1785 53.4374 53.1785 53.2792 53.0834L51.6905 52.174C51.608 52.1265 51.5736 52.0654 51.5736 52.0111L51.5667 51.9976Z" fill="#393842"/>
<path d="M47.6536 52.6152V52.4319H47.8049L49.373 51.5429C49.5311 51.4478 49.7925 51.4546 49.9507 51.5429L51.5187 52.4455H51.6562V52.622V52.6355C51.6562 52.6898 51.615 52.7441 51.5393 52.7916L49.9438 53.7011C49.7856 53.7961 49.5243 53.7961 49.3661 53.7011L47.7774 52.7916C47.6949 52.7441 47.6605 52.683 47.6605 52.6288L47.6536 52.6152Z" fill="#393842"/>
<path d="M45.1634 51.1899V51.0067H45.3147L46.8827 50.1176C47.0409 50.0226 47.3023 50.0294 47.4604 50.1176L49.0285 51.0203H49.166V51.1967V51.2103C49.166 51.2646 49.1248 51.3189 49.0491 51.3664L47.4536 52.2758C47.2954 52.3708 47.034 52.3708 46.8759 52.2758L45.2872 51.3664C45.2047 51.3189 45.1703 51.2578 45.1703 51.2035L45.1634 51.1899Z" fill="#393842"/>
<path d="M43.8704 53.3481V53.1649H44.0217L45.5898 52.2758C45.7479 52.1876 46.0093 52.1876 46.1675 52.2758L47.7355 53.1785H47.873V53.3549V53.3685C47.873 53.4228 47.8318 53.4771 47.7561 53.5246L46.1606 54.434C46.0024 54.529 45.7411 54.529 45.5829 54.434L43.9942 53.5246C43.9117 53.4771 43.8773 53.416 43.8773 53.3617L43.8704 53.3481Z" fill="#393842"/>
<path d="M41.3333 54.7938V54.6105H41.4846L43.0527 53.7214C43.2108 53.6332 43.4722 53.6332 43.6304 53.7214L45.1984 54.6241H45.3359V54.8005V54.8141C45.3359 54.8684 45.2947 54.9227 45.219 54.9702L43.6235 55.8796C43.4653 55.9747 43.204 55.9747 43.0458 55.8796L41.4571 54.9702C41.3746 54.9227 41.3402 54.8616 41.3402 54.8073L41.3333 54.7938Z" fill="#393842"/>
<path d="M38.8431 53.3685V53.1853H38.9944L40.5624 52.2962C40.7206 52.208 40.9819 52.208 41.1401 52.2962L42.7082 53.1989H42.8457V53.3753V53.3889C42.8457 53.4432 42.8044 53.4975 42.7288 53.545L41.1332 54.4544C40.9751 54.5494 40.7137 54.5494 40.5555 54.4544L38.9669 53.545C38.8843 53.4975 38.85 53.4364 38.85 53.3821L38.8431 53.3685Z" fill="#393842"/>
<path d="M36.3538 51.9433V51.76H36.5051L38.0732 50.871C38.2313 50.7828 38.4927 50.7828 38.6509 50.871L40.2189 51.7736H40.3564V51.9501V51.9637C40.3564 52.0179 40.3152 52.0722 40.2395 52.1198L38.644 53.0292C38.4858 53.1242 38.2245 53.1242 38.0663 53.0292L36.4776 52.1198C36.3951 52.0722 36.3607 52.0112 36.3607 51.9569L36.3538 51.9433Z" fill="#393842"/>
<path d="M33.8636 50.5113V50.328H34.0149L35.5829 49.439C35.7411 49.3507 36.0025 49.3507 36.1606 49.439L37.7287 50.3416H37.8662V50.5181V50.5316C37.8662 50.5859 37.8249 50.6402 37.7493 50.6877L36.1538 51.5972C35.9956 51.6922 35.7342 51.6922 35.5761 51.5972L33.9874 50.6877C33.9049 50.6402 33.8705 50.5792 33.8705 50.5249L33.8636 50.5113Z" fill="#393842"/>
<path d="M31.3743 49.0861V48.9028H31.5256L33.0937 48.0137C33.2518 47.9187 33.5132 47.9255 33.6714 48.0137L35.2394 48.9164H35.377V49.0928V49.1064C35.377 49.1607 35.3357 49.215 35.26 49.2625L33.6645 50.1719C33.5063 50.2602 33.245 50.2602 33.0868 50.1719L31.4981 49.2625C31.4156 49.215 31.3812 49.1539 31.3812 49.0996L31.3743 49.0861Z" fill="#393842"/>
<path d="M28.8851 47.6608V47.4776H29.0364L30.6044 46.5885C30.7626 46.4935 31.0239 46.5003 31.1821 46.5885L32.7501 47.4912H32.8877V47.6676V47.6812C32.8877 47.7355 32.8464 47.7898 32.7708 47.8373L31.1752 48.7467C31.0171 48.8349 30.7557 48.8349 30.5975 48.7467L29.0089 47.8373C28.9263 47.7898 28.892 47.7287 28.892 47.6744L28.8851 47.6608Z" fill="#393842"/>
<path d="M26.3948 46.2288V46.0456H26.5461L28.1142 45.1565C28.2724 45.0615 28.5337 45.0683 28.6919 45.1565L30.2599 46.0592H30.3975V46.2356V46.2492C30.3975 46.3035 30.3562 46.3578 30.2805 46.4053L28.685 47.3147C28.5268 47.4097 28.2655 47.4097 28.1073 47.3147L26.5186 46.4053C26.4361 46.3578 26.4017 46.2967 26.4017 46.2424L26.3948 46.2288Z" fill="#393842"/>
<path d="M23.9056 44.8036V44.6203H24.0569L25.6249 43.7313C25.7831 43.6363 26.0444 43.643 26.2026 43.7313L27.7707 44.6339H27.9082V44.8104V44.824C27.9082 44.8782 27.8669 44.9325 27.7913 44.98L26.1957 45.8895C26.0376 45.9845 25.7762 45.9845 25.618 45.8895L24.0294 44.98C23.9468 44.9325 23.9125 44.8715 23.9125 44.8172L23.9056 44.8036Z" fill="#393842"/>
<path d="M21.4163 43.3784V43.1951H21.5676L23.1357 42.306C23.2938 42.211 23.5552 42.2178 23.7134 42.306L25.2814 43.2087H25.4189V43.3851V43.3987C25.4189 43.453 25.3777 43.5073 25.302 43.5548L23.7065 44.4642C23.5483 44.5593 23.287 44.5593 23.1288 44.4642L21.5401 43.5548C21.4576 43.5073 21.4232 43.4462 21.4232 43.3919L21.4163 43.3784Z" fill="#393842"/>
<path d="M18.7542 44.7086V44.5253H18.9055L20.4736 43.6362C20.6317 43.5412 20.8931 43.548 21.0513 43.6362L22.6193 44.5389H22.7568V44.7153V44.7289C22.7568 44.7832 22.7156 44.8375 22.6399 44.885L21.0444 45.7944C20.8862 45.8895 20.6249 45.8895 20.4667 45.7944L18.878 44.885C18.7955 44.8375 18.7611 44.7764 18.7611 44.7221L18.7542 44.7086Z" fill="#393842"/>
<path d="M16.265 43.2833V43.1001H16.4163L17.9843 42.211C18.1425 42.116 18.4038 42.1228 18.562 42.211L20.13 43.1137H20.2676V43.2901V43.3037C20.2676 43.358 20.2263 43.4123 20.1507 43.4598L18.5551 44.3692C18.3969 44.4642 18.1356 44.4642 17.9774 44.3692L16.3888 43.4598C16.3062 43.4123 16.2718 43.3512 16.2718 43.2969L16.265 43.2833Z" fill="#393842"/>
<path d="M11.2239 40.3922V40.2089H11.3752L12.9433 39.3198C13.1015 39.2248 13.3628 39.2316 13.521 39.3198L15.089 40.2225H15.2266V40.3989V40.4125C15.2266 40.4668 15.1853 40.5211 15.1096 40.5686L13.5141 41.478C13.3559 41.5731 13.0946 41.5731 12.9364 41.478L11.3477 40.5686C11.2652 40.5211 11.2308 40.46 11.2308 40.4057L11.2239 40.3922Z" fill="#393842"/>
<path d="M13.8856 38.7837L15.4537 37.8878C15.6119 37.7928 15.8732 37.7996 16.0314 37.8878L16.2514 38.0168L17.5994 38.7905H17.737V38.8719L17.8195 38.9194H17.957V39.0959V39.1095C17.957 39.1638 17.9158 39.218 17.8401 39.2656L16.2446 40.175C16.0864 40.27 15.8251 40.27 15.6669 40.175L13.8581 39.1366C13.7756 39.0891 13.7412 39.028 13.7412 38.9737V38.7905H13.8925L13.8856 38.7837Z" fill="#393842"/>
<path d="M18.9261 41.9464V41.7631H19.0774L20.6454 40.874C20.8036 40.779 21.065 40.7858 21.2231 40.874L22.7912 41.7767H22.9287V41.9531V41.9667C22.9287 42.021 22.8874 42.0753 22.8118 42.1228L21.2163 43.0322C21.0581 43.1273 20.7967 43.1273 20.6386 43.0322L19.0499 42.1228C18.9674 42.0753 18.933 42.0142 18.933 41.9599L18.9261 41.9464Z" fill="#393842"/>
<path d="M16.4437 40.5211V40.3379H16.595L18.163 39.4488C18.3212 39.3538 18.5825 39.3606 18.7407 39.4488L20.3087 40.3514H20.4463V40.5279V40.5415C20.4463 40.5958 20.405 40.6501 20.3294 40.6976L18.7338 41.607C18.5757 41.702 18.3143 41.702 18.1561 41.607L16.5675 40.6976C16.4849 40.6501 16.4505 40.589 16.4505 40.5347L16.4437 40.5211Z" fill="#393842"/>
<path d="M41.3812 51.9229V51.7397H41.5325L43.1005 50.8506C43.2587 50.7624 43.52 50.7624 43.6782 50.8506L45.2462 51.7532H45.3838V51.9297V51.9433C45.3838 51.9976 45.3425 52.0519 45.2669 52.0994L43.6713 53.0088C43.5132 53.1038 43.2518 53.1038 43.0936 53.0088L41.505 52.0994C41.4224 52.0519 41.388 51.9908 41.388 51.9365L41.3812 51.9229Z" fill="#393842"/>
<path d="M38.8909 50.4909V50.3077H39.0422L40.6103 49.4186C40.7685 49.3236 41.0298 49.3304 41.188 49.4186L42.756 50.3212H42.8936V50.4977V50.5113C42.8936 50.5656 42.8523 50.6199 42.7766 50.6674L41.1811 51.5768C41.0229 51.6718 40.7616 51.6718 40.6034 51.5768L39.0147 50.6674C38.9322 50.6199 38.8978 50.5588 38.8978 50.5045L38.8909 50.4909Z" fill="#393842"/>
<path d="M36.4017 49.0657V48.8824H36.553L38.121 47.9934C38.2792 47.8983 38.5405 47.9051 38.6987 47.9934L40.2667 48.896H40.4043V49.0725V49.086C40.4043 49.1403 40.363 49.1946 40.2874 49.2421L38.6918 50.1516C38.5337 50.2466 38.2723 50.2466 38.1141 50.1516L36.5255 49.2421C36.4429 49.1946 36.4086 49.1335 36.4086 49.0792L36.4017 49.0657Z" fill="#393842"/>
<path d="M33.9124 47.6404V47.4572H34.0637L35.6318 46.5681C35.7899 46.4731 36.0513 46.4799 36.2095 46.5681L37.7775 47.4708H37.915V47.6472V47.6608C37.915 47.7151 37.8738 47.7694 37.7981 47.8169L36.2026 48.7263C36.0444 48.8213 35.7831 48.8213 35.6249 48.7263L34.0362 47.8169C33.9537 47.7694 33.9193 47.7083 33.9193 47.654L33.9124 47.6404Z" fill="#393842"/>
<path d="M31.4222 46.2084V46.0252H31.5735L33.1415 45.1361C33.2997 45.0411 33.561 45.0479 33.7192 45.1361L35.2873 46.0388H35.4248V46.2152V46.2288C35.4248 46.2831 35.3835 46.3374 35.3079 46.3849L33.7123 47.2943C33.5542 47.3893 33.2928 47.3893 33.1346 47.2943L31.546 46.3849C31.4634 46.3374 31.4291 46.2763 31.4291 46.222L31.4222 46.2084Z" fill="#393842"/>
<path d="M28.9398 44.7832V44.6H29.0911L30.6591 43.7109C30.8173 43.6159 31.0786 43.6227 31.2368 43.7109L32.8048 44.6135H32.9424V44.79V44.8036C32.9424 44.8579 32.9011 44.9122 32.8255 44.9597L31.2299 45.8691C31.0717 45.9641 30.8104 45.9641 30.6522 45.8691L29.0636 44.9597C28.981 44.9122 28.9466 44.8511 28.9466 44.7968L28.9398 44.7832Z" fill="#393842"/>
<path d="M26.4505 43.358V43.1747H26.6018L28.1698 42.2857C28.328 42.1906 28.5894 42.1974 28.7475 42.2857L30.3156 43.1883H30.4531V43.3648V43.3783C30.4531 43.4326 30.4119 43.4869 30.3362 43.5344L28.7407 44.4439C28.5825 44.5389 28.3211 44.5389 28.163 44.4439L26.5743 43.5344C26.4918 43.4869 26.4574 43.4258 26.4574 43.3715L26.4505 43.358Z" fill="#393842"/>
<path d="M23.9603 41.926V41.7427H24.1116L25.6796 40.8537C25.8378 40.7586 26.0991 40.7654 26.2573 40.8537L27.8253 41.7563H27.9629V41.9328V41.9463C27.9629 42.0006 27.9216 42.0549 27.846 42.1024L26.2504 43.0119C26.0923 43.1069 25.8309 43.1069 25.6727 43.0119L24.0841 42.1024C24.0015 42.0549 23.9672 41.9938 23.9672 41.9395L23.9603 41.926Z" fill="#393842"/>
<path d="M21.471 40.5007V40.3175H21.6223L23.1904 39.4284C23.3485 39.3334 23.6099 39.3402 23.768 39.4284L25.3361 40.3311H25.4736V40.5075V40.5211C25.4736 40.5754 25.4324 40.6297 25.3567 40.6772L23.7612 41.5866C23.603 41.6816 23.3417 41.6816 23.1835 41.5866L21.5948 40.6772C21.5123 40.6297 21.4779 40.5686 21.4779 40.5143L21.471 40.5007Z" fill="#393842"/>
<path d="M42.6741 49.7647V49.5815H42.8254L44.3935 48.6924C44.5517 48.5974 44.813 48.6042 44.9712 48.6924L46.5392 49.595H46.6768V49.7715V49.7851C46.6768 49.8394 46.6355 49.8937 46.5598 49.9412L44.9643 50.8506C44.8061 50.9456 44.5448 50.9456 44.3866 50.8506L42.7979 49.9412C42.7154 49.8937 42.681 49.8326 42.681 49.7783L42.6741 49.7647Z" fill="#393842"/>
<path d="M40.1839 48.3327V48.1495H40.3352L41.9032 47.2604C42.0614 47.1654 42.3228 47.1722 42.4809 47.2604L44.049 48.163H44.1865V48.3395V48.3531C44.1865 48.4074 44.1453 48.4617 44.0696 48.5092L42.4741 49.4186C42.3159 49.5136 42.0545 49.5136 41.8964 49.4186L40.3077 48.5092C40.2252 48.4617 40.1908 48.4006 40.1908 48.3463L40.1839 48.3327Z" fill="#393842"/>
<path d="M37.6946 46.9075V46.7242H37.8459L39.414 45.8352C39.5722 45.7401 39.8335 45.7469 39.9917 45.8352L41.5597 46.7378H41.6973V46.9143V46.9278C41.6973 46.9821 41.656 47.0364 41.5804 47.0839L39.9848 47.9934C39.8266 48.0884 39.5653 48.0884 39.4071 47.9934L37.8184 47.0839C37.7359 47.0364 37.7015 46.9753 37.7015 46.921L37.6946 46.9075Z" fill="#393842"/>
<path d="M35.2054 45.4822V45.299H35.3567L36.9247 44.4099C37.0829 44.3149 37.3442 44.3217 37.5024 44.4099L39.0705 45.3126H39.208V45.489V45.5026C39.208 45.5569 39.1667 45.6112 39.0911 45.6587L37.4955 46.5681C37.3374 46.6631 37.076 46.6631 36.9179 46.5681L35.3292 45.6587C35.2467 45.6112 35.2123 45.5501 35.2123 45.4958L35.2054 45.4822Z" fill="#393842"/>
<path d="M32.722 44.0502V43.867H32.8733L34.4413 42.9779C34.5995 42.8829 34.8608 42.8897 35.019 42.9779L36.5871 43.8806H36.7246V44.057V44.0706C36.7246 44.1249 36.6833 44.1792 36.6077 44.2267L35.0121 45.1361C34.854 45.2311 34.5926 45.2311 34.4344 45.1361L32.8458 44.2267C32.7633 44.1792 32.7289 44.1181 32.7289 44.0638L32.722 44.0502Z" fill="#393842"/>
<path d="M30.2327 42.625V42.4418H30.384L31.9521 41.5527C32.1103 41.4577 32.3716 41.4645 32.5298 41.5527L34.0978 42.4553H34.2354V42.6318V42.6454C34.2354 42.6997 34.1941 42.7539 34.1184 42.8015L32.5229 43.7109C32.3647 43.8059 32.1034 43.8059 31.9452 43.7109L30.3565 42.8015C30.274 42.7539 30.2396 42.6929 30.2396 42.6386L30.2327 42.625Z" fill="#393842"/>
<path d="M27.7435 41.1998V41.0165H27.8948L29.4628 40.1275C29.621 40.0324 29.8823 40.0392 30.0405 40.1275L31.6085 41.0301H31.7461V41.2066V41.2201C31.7461 41.2744 31.7048 41.3287 31.6292 41.3762L30.0336 42.2857C29.8755 42.3807 29.6141 42.3807 29.4559 42.2857L27.8673 41.3762C27.7847 41.3287 27.7504 41.2676 27.7504 41.2133L27.7435 41.1998Z" fill="#393842"/>
<path d="M25.2532 39.7678V39.5845H25.4045L26.9726 38.6954C27.1308 38.6004 27.3921 38.6072 27.5503 38.6954L29.1183 39.5981H29.2559V39.7745V39.7881C29.2559 39.8424 29.2146 39.8967 29.1389 39.9442L27.5434 40.8536C27.3852 40.9487 27.1239 40.9487 26.9657 40.8536L25.377 39.9442C25.2945 39.8967 25.2601 39.8356 25.2601 39.7813L25.2532 39.7678Z" fill="#393842"/>
<path d="M22.764 38.3425V38.1593H22.9153L24.4833 37.2702C24.6415 37.182 24.9028 37.182 25.061 37.2702L26.6291 38.1729H26.7666V38.3493V38.3629C26.7666 38.4172 26.7253 38.4715 26.6497 38.519L25.0541 39.4284C24.896 39.5234 24.6346 39.5234 24.4764 39.4284L22.8878 38.519C22.8052 38.4715 22.7709 38.4104 22.7709 38.3561L22.764 38.3425Z" fill="#393842"/>
<path d="M49.0765 50.5655V50.3823H49.2278L50.7958 49.4932C50.954 49.405 51.2153 49.405 51.3735 49.4932L52.9416 50.3959H53.0791V50.5723V50.5859C53.0791 50.6402 53.0378 50.6945 52.9622 50.742L51.3666 51.6514C51.2085 51.7464 50.9471 51.7464 50.7889 51.6514L49.2003 50.742C49.1177 50.6945 49.0834 50.6334 49.0834 50.5791L49.0765 50.5655Z" fill="#393842"/>
<path d="M46.5872 49.1403V48.9571H46.7385L48.3066 48.068C48.4647 47.9798 48.7261 47.9798 48.8843 48.068L50.4523 48.9706H50.5898V49.1471V49.1607C50.5898 49.215 50.5486 49.2693 50.4729 49.3168L48.8774 50.2262C48.7192 50.3212 48.4579 50.3212 48.2997 50.2262L46.711 49.3168C46.6285 49.2693 46.5941 49.2082 46.5941 49.1539L46.5872 49.1403Z" fill="#393842"/>
<path d="M44.098 47.7151V47.5319H44.2493L45.8173 46.6428C45.9755 46.5546 46.2368 46.5546 46.395 46.6428L47.963 47.5455H48.1006V47.7219V47.7355C48.1006 47.7898 48.0593 47.8441 47.9837 47.8916L46.3881 48.801C46.2299 48.896 45.9686 48.896 45.8104 48.801L44.2218 47.8916C44.1392 47.8441 44.1048 47.783 44.1048 47.7287L44.098 47.7151Z" fill="#393842"/>
<path d="M41.6077 46.2831V46.0998H41.759L43.3271 45.2108C43.4853 45.1225 43.7466 45.1225 43.9048 45.2108L45.4728 46.1134H45.6104V46.2899V46.3034C45.6104 46.3577 45.5691 46.412 45.4934 46.4595L43.8979 47.369C43.7397 47.464 43.4784 47.464 43.3202 47.369L41.7315 46.4595C41.649 46.412 41.6146 46.3509 41.6146 46.2966L41.6077 46.2831Z" fill="#393842"/>
<path d="M39.1185 44.8578V44.6746H39.2698L40.8378 43.7855C40.996 43.6973 41.2573 43.6973 41.4155 43.7855L42.9835 44.6882H43.1211V44.8646V44.8782C43.1211 44.9325 43.0798 44.9868 43.0042 45.0343L41.4086 45.9437C41.2505 46.0387 40.9891 46.0387 40.8309 45.9437L39.2423 45.0343C39.1597 44.9868 39.1254 44.9257 39.1254 44.8714L39.1185 44.8578Z" fill="#393842"/>
<path d="M36.6292 43.4327V43.2494H36.7805L38.3486 42.3604C38.5067 42.2721 38.7681 42.2721 38.9263 42.3604L40.4943 43.263H40.6318V43.4395V43.453C40.6318 43.5073 40.5906 43.5616 40.5149 43.6091L38.9194 44.5186C38.7612 44.6136 38.4999 44.6136 38.3417 44.5186L36.753 43.6091C36.6705 43.5616 36.6361 43.5005 36.6361 43.4462L36.6292 43.4327Z" fill="#393842"/>
<path d="M34.139 42.0006V41.8174H34.2903L35.8583 40.9283C36.0165 40.8401 36.2778 40.8401 36.436 40.9283L38.0041 41.8309H38.1416V42.0074V42.021C38.1416 42.0753 38.1003 42.1296 38.0247 42.1771L36.4291 43.0865C36.271 43.1815 36.0096 43.1815 35.8514 43.0865L34.2628 42.1771C34.1802 42.1296 34.1459 42.0685 34.1459 42.0142L34.139 42.0006Z" fill="#393842"/>
<path d="M31.6566 40.5754V40.3921H31.8079L33.3759 39.5031C33.5341 39.4081 33.7954 39.4148 33.9536 39.5031L35.5216 40.4057H35.6592V40.5822V40.5957C35.6592 40.65 35.6179 40.7043 35.5423 40.7518L33.9467 41.6613C33.7885 41.7563 33.5272 41.7563 33.369 41.6613L31.7804 40.7518C31.6978 40.7043 31.6634 40.6432 31.6634 40.589L31.6566 40.5754Z" fill="#393842"/>
<path d="M29.1673 39.1502V38.967H29.3186L30.8866 38.0779C31.0448 37.9829 31.3062 37.9897 31.4643 38.0779L33.0324 38.9805H33.1699V39.157V39.1706C33.1699 39.2249 33.1287 39.2792 33.053 39.3267L31.4575 40.2361C31.2993 40.3311 31.0379 40.3311 30.8798 40.2361L29.2911 39.3267C29.2086 39.2792 29.1742 39.2181 29.1742 39.1638L29.1673 39.1502Z" fill="#393842"/>
<path d="M26.6771 37.7181V37.5349H26.8284L28.3964 36.6458C28.5546 36.5508 28.8159 36.5576 28.9741 36.6458L30.5421 37.5485H30.6797V37.7249V37.7385C30.6797 37.7928 30.6384 37.8471 30.5628 37.8946L28.9672 38.804C28.809 38.899 28.5477 38.899 28.3895 38.804L26.8009 37.8946C26.7183 37.8471 26.6839 37.786 26.6839 37.7317L26.6771 37.7181Z" fill="#393842"/>
<path d="M24.1878 36.293V36.1097H24.3391L25.9071 35.2207C26.0653 35.1256 26.3267 35.1324 26.4848 35.2207L28.0529 36.1233H28.1904V36.2998V36.3133C28.1904 36.3676 28.1492 36.4219 28.0735 36.4694L26.478 37.3789C26.3198 37.4739 26.0584 37.4739 25.9003 37.3789L24.3116 36.4694C24.2291 36.4219 24.1947 36.3608 24.1947 36.3065L24.1878 36.293Z" fill="#393842"/>
<path d="M21.3124 34.4537H21.4706L23.0318 33.5714C23.19 33.4832 23.4513 33.4832 23.6095 33.5714L25.542 34.6777H25.7002V34.8541C25.7002 34.8609 25.7002 34.8677 25.7002 34.8745V34.8813C25.6933 34.9356 25.6521 34.9831 25.5833 35.0238L23.9877 35.9332C23.8296 36.0282 23.5682 36.0282 23.41 35.9332L21.4362 34.7998C21.3537 34.7523 21.3124 34.6912 21.3193 34.6234V34.4401L21.3124 34.4537Z" fill="#393842"/>
<path d="M21.2437 46.1338V45.9573H21.395L22.9631 45.0614C23.08 44.9936 23.2588 44.9732 23.4101 45.0139C23.4582 45.0275 23.5064 45.0411 23.5476 45.0682L25.1157 45.9709H25.2532V46.0523L36.312 52.398L37.88 53.3006H38.0176V53.4771V53.4906C38.0176 53.5042 38.0176 53.511 38.0107 53.5246C38.0107 53.5246 38.0107 53.5246 38.0107 53.5314C38.0107 53.5449 38.0038 53.5517 37.9901 53.5653C37.9901 53.5653 37.9763 53.5789 37.9763 53.5857C37.9763 53.5924 37.9626 53.5992 37.9557 53.606C37.9419 53.6196 37.9282 53.6264 37.9075 53.6399L36.312 54.5494C36.2707 54.5697 36.2226 54.5901 36.1744 54.6037C36.1263 54.6172 36.0713 54.624 36.0231 54.624C35.92 54.624 35.8168 54.6037 35.7343 54.5562L34.1456 53.6467L21.3744 46.3238C21.2919 46.2763 21.2506 46.2152 21.2575 46.1541L21.2437 46.1338Z" fill="#393842"/>
<path d="M53.685 50.3483V50.1719L53.7882 50.199C53.7882 50.199 53.802 50.1922 53.8088 50.1855L54.2421 49.9411C54.4003 49.8461 54.6616 49.8461 54.8198 49.9411L56.2916 50.7827L56.5254 50.837V51.027C56.5254 51.0813 56.4772 51.1424 56.4016 51.1831L55.9683 51.4274C55.8101 51.5225 55.5488 51.5225 55.3906 51.4274L53.802 50.518C53.7263 50.4705 53.685 50.4162 53.685 50.3551V50.3483Z" fill="#393842"/>
<path d="M51.2016 48.9232V48.7467L51.3048 48.7739C51.3048 48.7739 51.3186 48.7671 51.3254 48.7603L51.7587 48.516C51.9169 48.4209 52.1782 48.4209 52.3364 48.516L53.8082 49.3575L54.042 49.4118V49.6018C54.042 49.6561 53.9939 49.7172 53.9182 49.7579L53.4849 50.0023C53.3267 50.0973 53.0654 50.0973 52.9072 50.0023L51.3186 49.0928C51.2429 49.0453 51.2016 48.991 51.2016 48.93V48.9232Z" fill="#393842"/>
<path d="M48.7124 47.4979V47.3215L48.8155 47.3486C48.8155 47.3486 48.8293 47.3418 48.8362 47.3351L49.2695 47.0907C49.4276 46.9957 49.689 46.9957 49.8472 47.0907L51.3189 47.9323L51.5527 47.9866V48.1766C51.5527 48.2309 51.5046 48.292 51.4289 48.3327L50.9957 48.577C50.8375 48.6721 50.5761 48.6721 50.418 48.577L48.8293 47.6676C48.7537 47.6201 48.7124 47.5658 48.7124 47.5047V47.4979Z" fill="#393842"/>
<path d="M46.2231 46.0659V45.8895L46.3263 45.9166C46.3263 45.9166 46.34 45.9098 46.3469 45.903L46.7802 45.6587C46.9384 45.5637 47.1997 45.5637 47.3579 45.6587L48.8296 46.5003L49.0635 46.5546V46.7446C49.0635 46.7989 49.0153 46.86 48.9397 46.9007L48.5064 47.145C48.3482 47.24 48.0869 47.24 47.9287 47.145L46.34 46.2356C46.2644 46.1881 46.2231 46.1338 46.2231 46.0727V46.0659Z" fill="#393842"/>
<path d="M43.7329 44.6407V44.4642L43.8361 44.4914C43.8361 44.4914 43.8498 44.4846 43.8567 44.4778L44.29 44.2335C44.4481 44.1385 44.7095 44.1385 44.8677 44.2335L46.3394 45.0751L46.5732 45.1293V45.3194C46.5732 45.3737 46.5251 45.4348 46.4494 45.4755L46.0162 45.7198C45.858 45.8148 45.5967 45.8148 45.4385 45.7198L43.8498 44.8104C43.7742 44.7629 43.7329 44.7086 43.7329 44.6475V44.6407Z" fill="#393842"/>
<path d="M41.2436 43.2155V43.039L41.3468 43.0662C41.3468 43.0662 41.3606 43.0594 41.3674 43.0526L41.8007 42.8083C41.9589 42.7132 42.2202 42.7132 42.3784 42.8083L43.8502 43.6498L44.084 43.7041V43.8941C44.084 43.9484 44.0358 44.0095 43.9602 44.0502L43.5269 44.2946C43.3687 44.3896 43.1074 44.3896 42.9492 44.2946L41.3606 43.3851C41.2849 43.3376 41.2436 43.2833 41.2436 43.2223V43.2155Z" fill="#393842"/>
<path d="M38.7534 41.7835V41.607L38.8566 41.6342C38.8566 41.6342 38.8703 41.6274 38.8772 41.6206L39.3105 41.3763C39.4686 41.2812 39.73 41.2812 39.8882 41.3763L41.3599 42.2178L41.5938 42.2721V42.4621C41.5938 42.5164 41.5456 42.5775 41.47 42.6182L41.0367 42.8626C40.8785 42.9576 40.6172 42.9576 40.459 42.8626L38.8703 41.9531C38.7947 41.9056 38.7534 41.8513 38.7534 41.7902V41.7835Z" fill="#393842"/>
<path d="M36.2641 40.3582V40.1818L36.3673 40.2089C36.3673 40.2089 36.3811 40.2021 36.3879 40.1953L36.8212 39.951C36.9794 39.856 37.2407 39.856 37.3989 39.951L38.8707 40.7926L39.1045 40.8469V41.0369C39.1045 41.0912 39.0564 41.1523 38.9807 41.193L38.5474 41.4373C38.3892 41.5323 38.1279 41.5323 37.9697 41.4373L36.3811 40.5279C36.3054 40.4804 36.2641 40.4261 36.2641 40.365V40.3582Z" fill="#393842"/>
<path d="M33.7749 38.933V38.7565L33.8781 38.7837C33.8781 38.7837 33.8918 38.7769 33.8987 38.7701L34.332 38.5258C34.4901 38.4308 34.7515 38.4308 34.9097 38.5258L36.3814 39.3674L36.6152 39.4216V39.6117C36.6152 39.666 36.5671 39.7271 36.4914 39.7678L36.0582 40.0121C35.9 40.1071 35.6386 40.1071 35.4805 40.0121L33.8918 39.1027C33.8162 39.0552 33.7749 39.0009 33.7749 38.9398V38.933Z" fill="#393842"/>
<path d="M31.2847 37.501V37.3245L31.3878 37.3517C31.3878 37.3517 31.4016 37.3449 31.4084 37.3381L31.8417 37.0938C31.9999 36.9988 32.2612 36.9988 32.4194 37.0938L33.8912 37.9353L34.125 37.9896V38.1797C34.125 38.234 34.0769 38.295 34.0012 38.3358L33.5679 38.5801C33.4098 38.6751 33.1484 38.6751 32.9902 38.5801L31.4016 37.6707C31.3259 37.6232 31.2847 37.5689 31.2847 37.5078V37.501Z" fill="#393842"/>
<path d="M28.7954 36.0758V35.8993L28.8986 35.9264C28.8986 35.9264 28.9123 35.9197 28.9192 35.9129L29.3525 35.6686C29.5106 35.5735 29.772 35.5735 29.9302 35.6686L31.4019 36.5101L31.6357 36.5644V36.7544C31.6357 36.8087 31.5876 36.8698 31.5119 36.9105L31.0787 37.1549C30.9205 37.2499 30.6592 37.2499 30.501 37.1549L28.9123 36.2454C28.8367 36.1979 28.7954 36.1436 28.7954 36.0825V36.0758Z" fill="#393842"/>
<path d="M26.3061 34.6505V34.4741L26.4093 34.5012C26.4093 34.5012 26.4231 34.4944 26.4299 34.4876L26.8632 34.2433C27.0214 34.1483 27.2827 34.1483 27.4409 34.2433L28.9127 35.0849L29.1465 35.1392V35.3292C29.1465 35.3835 29.0983 35.4446 29.0227 35.4853L28.5894 35.7296C28.4312 35.8246 28.1699 35.8246 28.0117 35.7296L26.4231 34.8202C26.3474 34.7727 26.3061 34.7184 26.3061 34.6573V34.6505Z" fill="#393842"/>
<path d="M23.8159 33.2185V33.0421L23.9191 33.0692C23.9191 33.0692 23.9328 33.0624 23.9397 33.0556L24.373 32.8113C24.5311 32.7163 24.7925 32.7163 24.9507 32.8113L26.4224 33.6529L26.6562 33.7072V33.8972C26.6562 33.9515 26.6081 34.0126 26.5325 34.0533L26.0992 34.2976C25.941 34.3926 25.6797 34.3926 25.5215 34.2976L23.9328 33.3882C23.8572 33.3407 23.8159 33.2864 23.8159 33.2253V33.2185Z" fill="#393842"/>
<path d="M50.1286 53.8775L50.2386 53.8978C50.2386 53.8978 50.2386 53.8978 50.2455 53.8978L51.8479 52.9884C52.0061 52.9002 52.2674 52.9002 52.4256 52.9884L55.376 54.6783L55.5342 54.7055V54.8684V54.8819C55.5342 54.9362 55.4929 54.9973 55.4173 55.038L53.8148 55.9475C53.6567 56.0357 53.3953 56.0357 53.2371 55.9475L50.2386 54.2304C50.1561 54.1829 50.1217 54.1218 50.1217 54.0675V53.8911L50.1286 53.8775Z" fill="#393842"/>
<path d="M46.3603 54.5969L46.4703 54.6241C46.4703 54.6241 46.4703 54.6241 46.4841 54.6173L48.0796 53.7079C48.2378 53.6128 48.4992 53.6128 48.6573 53.7079L52.8044 56.0832L53.0176 56.1307V56.3072C53.0176 56.3683 52.9763 56.4226 52.8938 56.4701L51.2982 57.3795C51.1401 57.4745 50.8787 57.4677 50.7205 57.3795L46.4772 54.9498C46.3947 54.9023 46.3603 54.8413 46.3603 54.7802V54.5969Z" fill="#393842"/>
<path d="M43.8222 56.0425L43.9323 56.0696C43.9323 56.0696 43.9323 56.0696 43.946 56.0628L45.5416 55.1534C45.6997 55.0584 45.9611 55.0584 46.1193 55.1534L50.2663 57.5288L50.4795 57.5763V57.7528C50.4795 57.8138 50.4382 57.8681 50.3557 57.9156L48.7602 58.8251C48.602 58.9201 48.3406 58.9133 48.1825 58.8251L43.9391 56.3954C43.8566 56.3479 43.8222 56.2868 43.8222 56.2257V56.0425Z" fill="#393842"/>
<path d="M18.7893 35.8993L18.9062 35.9197L20.5086 35.0103C20.6668 34.922 20.9282 34.922 21.0863 35.0103L24.0917 36.7341L24.2637 36.7613V36.9309V36.9445C24.2637 36.9988 24.2224 37.0599 24.1468 37.1006L22.5443 38.01C22.3862 38.0983 22.1248 38.0983 21.9666 38.01L18.9131 36.259C18.8306 36.2115 18.7962 36.1504 18.7962 36.0894V35.9129L18.7893 35.8993Z" fill="#393842"/>
<path d="M16.3883 37.3517L17.9838 36.4422C18.142 36.3472 18.4034 36.3472 18.5615 36.4422L22.8599 38.9058C23.0181 39.0009 23.0181 39.1434 22.8599 39.2384L21.2643 40.1478C21.1062 40.236 20.8448 40.236 20.6866 40.1478L16.3883 37.6842C16.2301 37.596 16.2301 37.4467 16.3883 37.3517Z" fill="#393842"/>
<path d="M14.9448 41.193V41.0166L15.048 41.0437C15.048 41.0437 15.0617 41.0369 15.0686 41.0301L15.5019 40.7858C15.6601 40.6908 15.9214 40.6908 16.0796 40.7858L17.5513 41.6274L17.7852 41.6817V41.8717C17.7852 41.926 17.737 41.9871 17.6614 42.0278L17.2281 42.2721C17.0699 42.3671 16.8086 42.3671 16.6504 42.2721L15.0617 41.3627C14.9861 41.3152 14.9448 41.2609 14.9448 41.1998V41.193Z" fill="#393842"/>
<path d="M13.7749 41.8581V41.6817L13.8781 41.7088C13.8781 41.7088 13.8918 41.702 13.8987 41.6952L14.332 41.4509C14.4901 41.3559 14.7515 41.3559 14.9097 41.4509L16.3814 42.2925L16.6152 42.3468V42.5368C16.6152 42.5911 16.5671 42.6522 16.4914 42.6929L16.0582 42.9372C15.9 43.0254 15.6387 43.0322 15.4805 42.9372L13.8918 42.0278C13.8162 41.9803 13.7749 41.926 13.7749 41.8649V41.8581Z" fill="#393842"/>
<path d="M41.4495 54.6308L43.0451 53.7214C43.2033 53.6264 43.4646 53.6264 43.6228 53.7214L45.2114 54.6308C45.3696 54.7191 45.3696 54.8684 45.2114 54.9634L43.6159 55.8728C43.4577 55.9611 43.1964 55.9611 43.0382 55.8728L41.4495 54.9634C41.2914 54.8684 41.2914 54.7259 41.4495 54.6308Z" fill="#393842"/>
<path d="M56.1808 51.7664V51.5763L56.2977 51.6103L56.731 51.3659C56.8892 51.2709 57.1505 51.2709 57.3087 51.3659L59.1381 52.4179L59.3994 52.4925V52.6826C59.3925 52.7369 59.3513 52.7844 59.2825 52.8319L58.8492 53.0762C58.691 53.1712 58.4297 53.1712 58.2715 53.0762L56.2977 51.9428C56.2152 51.8953 56.1739 51.8342 56.1808 51.7731V51.7664Z" fill="#393842"/>
<path d="M54.18 53.0835L55.7755 52.174C55.9337 52.079 56.1951 52.0858 56.3532 52.174L57.9419 53.0835C58.1001 53.1717 58.1001 53.321 57.9419 53.416L56.3464 54.3254C56.1882 54.4205 55.9268 54.4205 55.7687 54.3254L54.18 53.416C54.0218 53.3278 54.0218 53.1785 54.18 53.0835Z" fill="#57565E"/>
<path d="M51.6898 51.6582L53.2853 50.7488C53.4435 50.6538 53.7048 50.6606 53.863 50.7488L55.4517 51.6582C55.6099 51.7465 55.6099 51.8958 55.4517 51.9908L53.8561 52.9002C53.698 52.9952 53.4366 52.9952 53.2784 52.9002L51.6898 51.9908C51.5316 51.9025 51.5316 51.7532 51.6898 51.6582Z" fill="#57565E"/>
<path d="M49.2005 50.2262L50.7961 49.3168C50.9542 49.2218 51.2156 49.2286 51.3738 49.3168L52.9624 50.2262C53.1206 50.3144 53.1206 50.4638 52.9624 50.5588L51.3669 51.4682C51.2087 51.5632 50.9474 51.5632 50.7892 51.4682L49.2005 50.5588C49.0423 50.4705 49.0423 50.3212 49.2005 50.2262Z" fill="#57565E"/>
<path d="M46.7112 48.801L48.3068 47.8916C48.465 47.7965 48.7263 47.8033 48.8845 47.8916L50.4732 48.801C50.6313 48.8892 50.6313 49.0385 50.4732 49.1335L48.8776 50.043C48.7194 50.138 48.4581 50.138 48.2999 50.043L46.7112 49.1335C46.5531 49.0385 46.5531 48.896 46.7112 48.801Z" fill="#57565E"/>
<path d="M44.221 47.3758L45.8166 46.4663C45.9747 46.3713 46.2361 46.3781 46.3943 46.4663L47.9829 47.3758C48.1411 47.464 48.1411 47.6133 47.9829 47.7083L46.3874 48.6177C46.2292 48.7128 45.9679 48.7128 45.8097 48.6177L44.221 47.7083C44.0628 47.6133 44.0628 47.4708 44.221 47.3758Z" fill="#57565E"/>
<path d="M41.7318 45.9437L43.3273 45.0343C43.4855 44.9393 43.7468 44.9461 43.905 45.0343L45.4937 45.9437C45.6518 46.032 45.6518 46.1813 45.4937 46.2763L43.8981 47.1857C43.7399 47.2807 43.4786 47.2807 43.3204 47.1857L41.7318 46.2763C41.5736 46.1813 41.5736 46.0388 41.7318 45.9437Z" fill="#57565E"/>
<path d="M39.2425 44.5185L40.838 43.6091C40.9962 43.5141 41.2576 43.5209 41.4157 43.6091L43.0044 44.5185C43.1626 44.6067 43.1626 44.7561 43.0044 44.8511L41.4089 45.7605C41.2507 45.8555 40.9893 45.8555 40.8312 45.7605L39.2425 44.8511C39.0843 44.7561 39.0843 44.6135 39.2425 44.5185Z" fill="#57565E"/>
<path d="M36.7523 43.0933L38.3478 42.1839C38.506 42.0889 38.7673 42.0889 38.9255 42.1839L40.5142 43.0933C40.6724 43.1883 40.6724 43.3308 40.5142 43.4259L38.9186 44.3353C38.7605 44.4235 38.4991 44.4303 38.3409 44.3353L36.7523 43.4259C36.5941 43.3376 36.5941 43.1883 36.7523 43.0933Z" fill="#57565E"/>
<path d="M34.263 41.6613L35.8586 40.7519C36.0167 40.6568 36.2781 40.6568 36.4362 40.7519L38.0249 41.6613C38.1831 41.7563 38.1831 41.8988 38.0249 41.9938L36.4294 42.9033C36.2712 42.9983 36.0099 42.9983 35.8517 42.9033L34.263 41.9938C34.1048 41.9056 34.1048 41.7563 34.263 41.6613Z" fill="#57565E"/>
<path d="M31.7737 40.2361L33.3693 39.3266C33.5275 39.2316 33.7888 39.2316 33.947 39.3266L35.5357 40.2361C35.6938 40.3311 35.6938 40.4736 35.5357 40.5686L33.9401 41.478C33.7819 41.5663 33.5206 41.5731 33.3624 41.478L31.7737 40.5686C31.6156 40.4804 31.6156 40.3311 31.7737 40.2361Z" fill="#57565E"/>
<path d="M29.2835 38.8108L30.8791 37.9014C31.0372 37.8064 31.2986 37.8064 31.4568 37.9014L33.0454 38.8108C33.2036 38.9058 33.2036 39.0484 33.0454 39.1434L31.4499 40.0528C31.2917 40.141 31.0304 40.1478 30.8722 40.0528L29.2835 39.1434C29.1253 39.0552 29.1253 38.9058 29.2835 38.8108Z" fill="#57565E"/>
<path d="M45.2874 50.8506L46.883 49.9412C47.0411 49.8462 47.3025 49.8529 47.4607 49.9412L49.0493 50.8506C49.2075 50.9388 49.2075 51.0881 49.0493 51.1832L47.4538 52.0926C47.2956 52.1876 47.0343 52.1876 46.8761 52.0926L45.2874 51.1832C45.1292 51.0949 45.1292 50.9456 45.2874 50.8506Z" fill="#57565E"/>
<path d="M42.7982 49.4186L44.3937 48.5092C44.5519 48.4142 44.8132 48.4209 44.9714 48.5092L46.5601 49.4186C46.7183 49.5068 46.7183 49.6561 46.5601 49.7511L44.9645 50.6606C44.8064 50.7556 44.545 50.7556 44.3868 50.6606L42.7982 49.7511C42.64 49.6629 42.64 49.5136 42.7982 49.4186Z" fill="#57565E"/>
<path d="M40.3079 47.9934L41.9035 47.0839C42.0617 46.9889 42.323 46.9957 42.4812 47.0839L44.0698 47.9934C44.228 48.0816 44.228 48.2309 44.0698 48.3259L42.4743 49.2354C42.3161 49.3304 42.0548 49.3304 41.8966 49.2354L40.3079 48.3259C40.1498 48.2377 40.1498 48.0884 40.3079 47.9934Z" fill="#57565E"/>
<path d="M37.8187 46.5681L39.4142 45.6587C39.5724 45.5637 39.8337 45.5705 39.9919 45.6587L41.5806 46.5681C41.7388 46.6564 41.7388 46.8057 41.5806 46.9007L39.985 47.8101C39.8269 47.9051 39.5655 47.9051 39.4073 47.8101L37.8187 46.9007C37.6605 46.8057 37.6605 46.6632 37.8187 46.5681Z" fill="#57565E"/>
<path d="M35.3284 45.1361L36.924 44.2267C37.0822 44.1317 37.3435 44.1385 37.5017 44.2267L39.0904 45.1361C39.2485 45.2311 39.2485 45.3737 39.0904 45.4687L37.4948 46.3781C37.3366 46.4731 37.0753 46.4731 36.9171 46.3781L35.3284 45.4687C35.1703 45.3737 35.1703 45.2311 35.3284 45.1361Z" fill="#57565E"/>
<path d="M32.8392 43.7109L34.4347 42.8015C34.5929 42.7065 34.8542 42.7132 35.0124 42.8015L36.6011 43.7109C36.7593 43.8059 36.7593 43.9484 36.6011 44.0435L35.0055 44.9529C34.8474 45.0411 34.586 45.0479 34.4278 44.9529L32.8392 44.0435C32.681 43.9484 32.681 43.8059 32.8392 43.7109Z" fill="#57565E"/>
<path d="M30.3499 42.2857L31.9455 41.3762C32.1036 41.288 32.365 41.288 32.5232 41.3762L34.1118 42.2857C34.27 42.3807 34.27 42.5232 34.1118 42.6182L32.5163 43.5276C32.3581 43.6159 32.0968 43.6227 31.9386 43.5276L30.3499 42.6182C30.1917 42.5232 30.1917 42.3807 30.3499 42.2857Z" fill="#57565E"/>
<path d="M27.8597 40.8537L29.4552 39.9442C29.6134 39.856 29.8748 39.856 30.0329 39.9442L31.6216 40.8537C31.7798 40.9487 31.7798 41.0912 31.6216 41.1862L30.0261 42.0956C29.8679 42.1839 29.6065 42.1907 29.4484 42.0956L27.8597 41.1862C27.7015 41.0912 27.7015 40.9487 27.8597 40.8537Z" fill="#57565E"/>
<path d="M25.3704 39.4284L26.966 38.519C27.1242 38.4308 27.3855 38.4308 27.5437 38.519L29.1323 39.4284C29.2905 39.5234 29.2905 39.666 29.1323 39.761L27.5368 40.6704C27.3786 40.7586 27.1173 40.7654 26.9591 40.6704L25.3704 39.761C25.2123 39.666 25.2123 39.5234 25.3704 39.4284Z" fill="#57565E"/>
<path d="M22.888 38.0032L24.4836 37.0938C24.6417 36.9988 24.9031 36.9988 25.0613 37.0938L26.6499 38.0032C26.8081 38.0982 26.8081 38.2407 26.6499 38.3358L25.0544 39.2452C24.8962 39.3334 24.6349 39.3402 24.4767 39.2452L22.888 38.3358C22.7298 38.2407 22.7298 38.0982 22.888 38.0032Z" fill="#57565E"/>
<path d="M26.7943 37.3788L28.3898 36.4694C28.548 36.3811 28.8093 36.3811 28.9675 36.4694L30.5562 37.3788C30.7143 37.467 30.7143 37.6163 30.5562 37.7114L28.9606 38.6208C28.8024 38.7158 28.5411 38.7158 28.3829 38.6208L26.7943 37.7114C26.6361 37.6163 26.6361 37.4738 26.7943 37.3788Z" fill="#57565E"/>
<path d="M24.305 35.9536L25.9005 35.0441C26.0587 34.9559 26.3201 34.9559 26.4782 35.0441L28.0669 35.9536C28.2251 36.0486 28.2251 36.1911 28.0669 36.2861L26.4714 37.1956C26.3132 37.2906 26.0519 37.2906 25.8937 37.1956L24.305 36.2861C24.1468 36.1979 24.1468 36.0486 24.305 35.9536Z" fill="#57565E"/>
<path d="M44.0911 58.8319L45.6867 57.9224C45.8449 57.8342 46.1062 57.8342 46.2644 57.9224L47.853 58.8319C48.0112 58.9201 48.0112 59.0694 47.853 59.1644L46.2575 60.0738C46.0993 60.1621 45.838 60.1621 45.6798 60.0738L44.0911 59.1644C43.933 59.0762 43.933 58.9269 44.0911 58.8319Z" fill="#57565E"/>
<path d="M41.6009 57.4066L43.1964 56.4972C43.3546 56.409 43.616 56.409 43.7741 56.4972L45.3628 57.4066C45.521 57.4949 45.521 57.6442 45.3628 57.7392L43.7673 58.6486C43.6091 58.7368 43.3477 58.7368 43.1896 58.6486L41.6009 57.7392C41.4427 57.651 41.4427 57.5016 41.6009 57.4066Z" fill="#57565E"/>
<path d="M39.1116 55.9746L40.7072 55.0652C40.8654 54.977 41.1267 54.977 41.2849 55.0652L42.8736 55.9746C43.0317 56.0629 43.0317 56.2122 42.8736 56.3072L41.278 57.2166C41.1198 57.3048 40.8585 57.3048 40.7003 57.2166L39.1116 56.3072C38.9535 56.219 38.9535 56.0696 39.1116 55.9746Z" fill="#57565E"/>
<path d="M36.6214 54.5494L38.217 53.64C38.3751 53.5517 38.6365 53.5517 38.7947 53.64L40.3833 54.5494C40.5415 54.6376 40.5415 54.7869 40.3833 54.8819L38.7878 55.7914C38.6296 55.8796 38.3683 55.8796 38.2101 55.7914L36.6214 54.8819C36.4632 54.7869 36.4632 54.6444 36.6214 54.5494Z" fill="#57565E"/>
<path d="M47.7767 52.2758L49.3722 51.3664C49.5304 51.2714 49.7917 51.2782 49.9499 51.3664L51.5386 52.2758C51.6968 52.3641 51.6968 52.5134 51.5386 52.6084L49.943 53.5178C49.7849 53.6128 49.5235 53.6128 49.3653 53.5178L47.7767 52.6084C47.6185 52.5202 47.6185 52.3709 47.7767 52.2758Z" fill="#57565E"/>
<path d="M21.4296 34.3044L23.0252 33.395C23.1834 33.3 23.4447 33.3067 23.6029 33.395L25.5767 34.5284C25.7349 34.6234 25.7349 34.7659 25.5767 34.8609L23.9811 35.7704C23.8229 35.8654 23.5616 35.8654 23.4034 35.7704L21.4296 34.637C21.2715 34.5419 21.2715 34.3994 21.4296 34.3044Z" fill="#57565E"/>
<path d="M21.3609 45.7945L22.9564 44.885C23.1146 44.7968 23.376 44.7968 23.5342 44.885L37.8941 53.1174C38.0522 53.2056 38.0522 53.3549 37.8941 53.45L36.2985 54.3594C36.1403 54.4476 35.879 54.4476 35.7208 54.3594L21.3609 46.127C21.2027 46.032 21.2027 45.8895 21.3609 45.7945Z" fill="#57565E"/>
<path d="M53.8081 50.009L54.2414 49.7647C54.3995 49.6697 54.6609 49.6697 54.8191 49.7647L56.4077 50.6741C56.5659 50.7691 56.5659 50.9116 56.4077 51.0067L55.9745 51.251C55.8163 51.346 55.5549 51.346 55.3968 51.251L53.8081 50.3416C53.6499 50.2533 53.6499 50.104 53.8081 50.009Z" fill="#57565E"/>
<path d="M51.3188 48.577L51.7521 48.3327C51.9103 48.2377 52.1716 48.2377 52.3298 48.3327L53.9185 49.2421C54.0767 49.3371 54.0767 49.4796 53.9185 49.5747L53.4852 49.819C53.327 49.914 53.0657 49.914 52.9075 49.819L51.3188 48.9096C51.1607 48.8145 51.1607 48.672 51.3188 48.577Z" fill="#57565E"/>
<path d="M48.8296 47.1518L49.2629 46.9074C49.421 46.8124 49.6824 46.8124 49.8405 46.9074L51.4292 47.8169C51.5874 47.9119 51.5874 48.0544 51.4292 48.1494L50.9959 48.3937C50.8378 48.4888 50.5764 48.4888 50.4182 48.3937L48.8296 47.4843C48.6714 47.3893 48.6714 47.2468 48.8296 47.1518Z" fill="#57565E"/>
<path d="M46.3393 45.7265L46.7726 45.4822C46.9308 45.3872 47.1921 45.3872 47.3503 45.4822L48.939 46.3916C49.0972 46.4867 49.0972 46.6292 48.939 46.7242L48.5057 46.9685C48.3475 47.0635 48.0862 47.0635 47.928 46.9685L46.3393 46.0591C46.1812 45.9641 46.1812 45.8216 46.3393 45.7265Z" fill="#57565E"/>
<path d="M43.8501 44.2945L44.2834 44.0502C44.4415 43.9552 44.7029 43.9552 44.8611 44.0502L46.4497 44.9596C46.6079 45.0546 46.6079 45.1972 46.4497 45.2922L46.0165 45.5365C45.8583 45.6315 45.5969 45.6315 45.4388 45.5365L43.8501 44.6271C43.6919 44.5389 43.6919 44.3895 43.8501 44.2945Z" fill="#57565E"/>
<path d="M41.3608 42.8693L41.7941 42.625C41.9523 42.53 42.2136 42.53 42.3718 42.625L43.9605 43.5344C44.1186 43.6294 44.1186 43.7719 43.9605 43.867L43.5272 44.1113C43.369 44.2063 43.1077 44.2063 42.9495 44.1113L41.3608 43.2018C41.2026 43.1136 41.2026 42.9643 41.3608 42.8693Z" fill="#57565E"/>
<path d="M38.8706 41.4441L39.3039 41.1997C39.462 41.1047 39.7234 41.1047 39.8816 41.1997L41.4702 42.1092C41.6284 42.2042 41.6284 42.3467 41.4702 42.4417L41.037 42.686C40.8788 42.7811 40.6174 42.7811 40.4593 42.686L38.8706 41.7766C38.7124 41.6884 38.7124 41.5391 38.8706 41.4441Z" fill="#57565E"/>
<path d="M36.3813 40.0121L36.8146 39.7677C36.9728 39.6727 37.2341 39.6727 37.3923 39.7677L38.981 40.6772C39.1392 40.7654 39.1392 40.9147 38.981 41.0097L38.5477 41.254C38.3895 41.3491 38.1282 41.3491 37.97 41.254L36.3813 40.3446C36.2232 40.2564 36.2232 40.1071 36.3813 40.0121Z" fill="#57565E"/>
<path d="M33.8989 38.5868L34.3322 38.3425C34.4904 38.2475 34.7517 38.2475 34.9099 38.3425L36.4986 39.2519C36.6567 39.3402 36.6567 39.4895 36.4986 39.5845L36.0653 39.8288C35.9071 39.9238 35.6458 39.9238 35.4876 39.8288L33.8989 38.9194C33.7407 38.8311 33.7407 38.6818 33.8989 38.5868Z" fill="#57565E"/>
<path d="M31.4087 37.1616L31.842 36.9173C32.0001 36.8291 32.2615 36.8291 32.4197 36.9173L34.0083 37.8267C34.1665 37.915 34.1665 38.0643 34.0083 38.1593L33.575 38.4036C33.4169 38.4986 33.1555 38.4986 32.9973 38.4036L31.4087 37.4942C31.2505 37.406 31.2505 37.2566 31.4087 37.1616Z" fill="#57565E"/>
<path d="M28.9194 35.7296L29.3527 35.4853C29.5109 35.3971 29.7722 35.3971 29.9304 35.4853L31.5191 36.3947C31.6772 36.483 31.6772 36.6323 31.5191 36.7273L31.0858 36.9716C30.9276 37.0666 30.6663 37.0666 30.5081 36.9716L28.9194 36.0622C28.7612 35.9739 28.7612 35.8246 28.9194 35.7296Z" fill="#57565E"/>
<path d="M26.4292 34.3044L26.8625 34.0601C27.0206 33.9718 27.282 33.9718 27.4402 34.0601L29.0288 34.9695C29.187 35.0577 29.187 35.207 29.0288 35.3021L28.5956 35.5464C28.4374 35.6414 28.176 35.6414 28.0179 35.5464L26.4292 34.6369C26.271 34.5487 26.271 34.3994 26.4292 34.3044Z" fill="#57565E"/>
<path d="M23.9399 32.8792L24.3732 32.6348C24.5314 32.5466 24.7927 32.5466 24.9509 32.6348L26.5396 33.5443C26.6977 33.6325 26.6977 33.7818 26.5396 33.8768L26.1063 34.1211C25.9481 34.2162 25.6868 34.2162 25.5286 34.1211L23.9399 33.2117C23.7818 33.1167 23.7818 32.9742 23.9399 32.8792Z" fill="#57565E"/>
<path d="M56.298 51.4342L56.7312 51.1899C56.8894 51.0949 57.1508 51.0949 57.3089 51.1899L59.2827 52.3233C59.4409 52.4115 59.4409 52.5608 59.2827 52.6559L58.8495 52.9002C58.6913 52.9952 58.4299 52.9884 58.2718 52.9002L56.298 51.7668C56.1398 51.6718 56.1398 51.5293 56.298 51.4342Z" fill="#57565E"/>
<path d="M50.2457 53.7146L51.8481 52.8052C52.0063 52.717 52.2676 52.717 52.4258 52.8052L55.4243 54.5222C55.5825 54.6105 55.5825 54.7598 55.4243 54.8548L53.8219 55.7642C53.6637 55.8525 53.4024 55.8525 53.2442 55.7642L50.2457 54.0472C50.0875 53.9589 50.0875 53.8096 50.2457 53.7146Z" fill="#57565E"/>
<path d="M46.4843 54.434L48.0799 53.5246C48.2381 53.4296 48.4994 53.4296 48.6576 53.5246L52.9009 55.9542C53.0591 56.0425 53.0591 56.1918 52.9009 56.2868L51.3054 57.1962C51.1472 57.2912 50.8858 57.2844 50.7277 57.1962L46.4843 54.7665C46.3261 54.6783 46.3261 54.529 46.4843 54.434Z" fill="#57565E"/>
<path d="M43.9394 55.8864L45.5418 54.9769C45.7 54.8887 45.9613 54.8887 46.1195 54.9769L50.3628 57.4066C50.521 57.4948 50.521 57.6441 50.3628 57.7392L48.7604 58.6486C48.6022 58.7368 48.3409 58.7368 48.1827 58.6486L43.9394 56.2189C43.7812 56.1307 43.7812 55.9814 43.9394 55.8864Z" fill="#57565E"/>
<path d="M18.9123 35.7432L20.5148 34.8337C20.673 34.7455 20.9343 34.7455 21.0925 34.8337L24.146 36.5847C24.3042 36.6798 24.3042 36.8223 24.146 36.9173L22.5436 37.8267C22.3854 37.915 22.1241 37.9217 21.9659 37.8267L18.9123 36.0757C18.7542 35.9807 18.7542 35.8382 18.9123 35.7432Z" fill="#57565E"/>
<path d="M16.3883 37.182L17.9838 36.2726C18.142 36.1775 18.4034 36.1775 18.5615 36.2726L22.8599 38.7362C23.0181 38.8312 23.0181 38.9737 22.8599 39.0687L21.2643 39.9781C21.1062 40.0664 20.8448 40.0664 20.6866 39.9781L16.3883 37.5145C16.2301 37.4195 16.2301 37.277 16.3883 37.182Z" fill="#57565E"/>
<path d="M15.061 40.8537L15.4943 40.6093C15.6525 40.5211 15.9138 40.5143 16.072 40.6093L17.6607 41.5188C17.8188 41.6138 17.8188 41.7563 17.6607 41.8513L17.2274 42.0956C17.0692 42.1839 16.8079 42.1839 16.6497 42.0956L15.061 41.1862C14.9028 41.0912 14.9028 40.9487 15.061 40.8537Z" fill="#57565E"/>
<path d="M13.8921 41.5188L14.3254 41.2744C14.4835 41.1794 14.7449 41.1794 14.9031 41.2744L16.4917 42.1839C16.6499 42.2789 16.6499 42.4214 16.4917 42.5164L16.0584 42.7608C15.9003 42.8558 15.6389 42.8558 15.4808 42.7608L13.8921 41.8513C13.7339 41.7631 13.7339 41.6138 13.8921 41.5188Z" fill="#57565E"/>
<path d="M24.0775 41.5866L25.673 40.6772C25.8312 40.5821 26.0925 40.5821 26.2507 40.6772L27.8394 41.5866C27.9976 41.6816 27.9976 41.8241 27.8394 41.9191L26.2438 42.8286C26.0856 42.9168 25.8243 42.9168 25.6661 42.8286L24.0775 41.9191C23.9193 41.8309 23.9193 41.6816 24.0775 41.5866Z" fill="#57565E"/>
<path d="M21.5882 40.1614L23.1837 39.252C23.3419 39.157 23.6033 39.157 23.7614 39.252L25.3501 40.1614C25.5083 40.2564 25.5083 40.399 25.3501 40.494L23.7546 41.4034C23.5964 41.4984 23.335 41.4984 23.1769 41.4034L21.5882 40.494C21.43 40.4057 21.43 40.2564 21.5882 40.1614Z" fill="#57565E"/>
<path d="M21.5403 43.039L23.1427 42.1295C23.3009 42.0413 23.5623 42.0413 23.7204 42.1295L25.3091 43.039C25.4673 43.134 25.4673 43.2765 25.3091 43.3715L23.7067 44.2809C23.5485 44.3692 23.2872 44.376 23.129 44.2809L21.5403 43.3715C21.3821 43.2833 21.3821 43.134 21.5403 43.039Z" fill="#57565E"/>
<path d="M19.0501 41.6069L20.6525 40.6975C20.8107 40.6093 21.072 40.6093 21.2302 40.6975L22.8189 41.6069C22.977 41.702 22.977 41.8445 22.8189 41.9395L21.2164 42.8489C21.0583 42.9372 20.7969 42.9439 20.6387 42.8489L19.0501 41.9395C18.8919 41.8445 18.8919 41.702 19.0501 41.6069Z" fill="#57565E"/>
<path d="M16.5608 40.1818L18.1632 39.2723C18.3214 39.1841 18.5828 39.1841 18.7409 39.2723L20.3296 40.1818C20.4878 40.2768 20.4878 40.4193 20.3296 40.5143L18.7272 41.4238C18.569 41.512 18.3077 41.5188 18.1495 41.4238L16.5608 40.5143C16.4026 40.4193 16.4026 40.2768 16.5608 40.1818Z" fill="#57565E"/>
<path d="M13.8505 38.6276L15.4529 37.7181C15.6111 37.6299 15.8724 37.6299 16.0306 37.7181L17.8394 38.7565C17.9976 38.8515 17.9976 38.9941 17.8394 39.0891L16.2369 39.9985C16.0788 40.0867 15.8174 40.0935 15.6592 39.9985L13.8505 38.9601C13.6923 38.8719 13.6923 38.7226 13.8505 38.6276Z" fill="#57565E"/>
<path d="M29.057 44.4438L30.6525 43.5344C30.8107 43.4394 31.072 43.4394 31.2302 43.5344L32.8189 44.4438C32.977 44.5388 32.977 44.6814 32.8189 44.7764L31.2233 45.6858C31.0651 45.7808 30.8038 45.7808 30.6456 45.6858L29.057 44.7764C28.8988 44.6882 28.8988 44.5388 29.057 44.4438Z" fill="#57565E"/>
<path d="M26.5667 43.0187L28.1623 42.1092C28.3204 42.0142 28.5818 42.0142 28.74 42.1092L30.3286 43.0187C30.4868 43.1137 30.4868 43.2562 30.3286 43.3512L28.7331 44.2606C28.5749 44.3557 28.3136 44.3557 28.1554 44.2606L26.5667 43.3512C26.4085 43.2562 26.4085 43.1137 26.5667 43.0187Z" fill="#57565E"/>
<path d="M26.5188 45.8894L28.1212 44.98C28.2794 44.8918 28.5408 44.885 28.6989 44.98L30.2876 45.8894C30.4458 45.9844 30.4458 46.127 30.2876 46.222L28.6852 47.1314C28.527 47.2196 28.2657 47.2264 28.1075 47.1314L26.5188 46.222C26.3606 46.127 26.3606 45.9844 26.5188 45.8894Z" fill="#57565E"/>
<path d="M24.0296 44.4642L25.632 43.5548C25.7902 43.4665 26.0515 43.4665 26.2097 43.5548L27.7984 44.4642C27.9565 44.5592 27.9565 44.7017 27.7984 44.7967L26.1959 45.7062C26.0378 45.7944 25.7764 45.8012 25.6182 45.7062L24.0296 44.7967C23.8714 44.7017 23.8714 44.5592 24.0296 44.4642Z" fill="#57565E"/>
<path d="M34.0364 47.3011L35.632 46.3917C35.7902 46.2967 36.0515 46.2967 36.2097 46.3917L37.7984 47.3011C37.9565 47.3894 37.9565 47.5387 37.7984 47.6337L36.2028 48.5431C36.0446 48.6381 35.7833 48.6381 35.6251 48.5431L34.0364 47.6337C33.8783 47.5387 33.8783 47.3961 34.0364 47.3011Z" fill="#57565E"/>
<path d="M31.5462 45.8691L33.1418 44.9596C33.2999 44.8646 33.5613 44.8646 33.7195 44.9596L35.3081 45.8691C35.4663 45.9641 35.4663 46.1066 35.3081 46.2016L33.7126 47.111C33.5544 47.2061 33.2931 47.2061 33.1349 47.111L31.5462 46.2016C31.388 46.1066 31.388 45.9641 31.5462 45.8691Z" fill="#57565E"/>
<path d="M31.4983 48.7467L33.1007 47.8372C33.2589 47.749 33.5203 47.749 33.6784 47.8372L35.2671 48.7467C35.4253 48.8417 35.4253 48.9842 35.2671 49.0792L33.6647 49.9886C33.5065 50.0769 33.2452 50.0837 33.087 49.9886L31.4983 49.0792C31.3401 48.9842 31.3401 48.8417 31.4983 48.7467Z" fill="#57565E"/>
<path d="M29.0091 47.3214L30.6115 46.412C30.7697 46.3238 31.031 46.3238 31.1892 46.412L32.7779 47.3214C32.936 47.4164 32.936 47.559 32.7779 47.654L31.1754 48.5634C31.0173 48.6516 30.7559 48.6584 30.5977 48.5634L29.0091 47.654C28.8509 47.559 28.8509 47.4164 29.0091 47.3214Z" fill="#57565E"/>
<path d="M39.015 50.1515L40.6105 49.2421C40.7687 49.1471 41.03 49.1471 41.1882 49.2421L42.7769 50.1515C42.9351 50.2398 42.9351 50.3891 42.7769 50.4841L41.1813 51.3935C41.0231 51.4885 40.7618 51.4885 40.6036 51.3935L39.015 50.4841C38.8568 50.3891 38.8568 50.2465 39.015 50.1515Z" fill="#57565E"/>
<path d="M36.5257 48.7263L38.1213 47.8169C38.2794 47.7219 38.5408 47.7219 38.6989 47.8169L40.2876 48.7263C40.4458 48.8145 40.4458 48.9638 40.2876 49.0589L38.6921 49.9683C38.5339 50.0633 38.2726 50.0633 38.1144 49.9683L36.5257 49.0589C36.3675 48.9638 36.3675 48.8213 36.5257 48.7263Z" fill="#57565E"/>
<path d="M36.4778 51.6039L38.0802 50.6945C38.2384 50.6062 38.4998 50.6062 38.6579 50.6945L40.2466 51.6039C40.4048 51.6921 40.4048 51.8414 40.2466 51.9365L38.6442 52.8459C38.486 52.9341 38.2247 52.9341 38.0665 52.8459L36.4778 51.9365C36.3196 51.8414 36.3196 51.6989 36.4778 51.6039Z" fill="#57565E"/>
<path d="M33.9876 50.1719L35.59 49.2625C35.7482 49.1742 36.0095 49.1742 36.1677 49.2625L37.7564 50.1719C37.9145 50.2669 37.9145 50.4094 37.7564 50.5044L36.1539 51.4139C35.9958 51.5021 35.7344 51.5089 35.5762 51.4139L33.9876 50.5044C33.8294 50.4094 33.8294 50.2669 33.9876 50.1719Z" fill="#57565E"/>
<path d="M43.9945 53.0088L45.59 52.0993C45.7482 52.0043 46.0095 52.0043 46.1677 52.0993L47.7564 53.0088C47.9145 53.097 47.9145 53.2463 47.7564 53.3413L46.1608 54.2508C46.0026 54.339 45.7413 54.339 45.5831 54.2508L43.9945 53.3413C43.8363 53.2463 43.8363 53.1038 43.9945 53.0088Z" fill="#57565E"/>
<path d="M41.5052 51.5836L43.1007 50.6742C43.2589 50.5792 43.5203 50.5792 43.6784 50.6742L45.2671 51.5836C45.4253 51.6786 45.4253 51.8211 45.2671 51.9162L43.6716 52.8256C43.5134 52.9206 43.252 52.9206 43.0939 52.8256L41.5052 51.9162C41.347 51.8211 41.347 51.6786 41.5052 51.5836Z" fill="#57565E"/>
<path d="M41.4495 54.4544L43.0519 53.5449C43.2101 53.4567 43.4714 53.4567 43.6296 53.5449L45.2183 54.4544C45.3765 54.5426 45.3765 54.6919 45.2183 54.7869L43.6159 55.6963C43.4577 55.7846 43.1963 55.7846 43.0382 55.6963L41.4495 54.7869C41.2913 54.6919 41.2913 54.5494 41.4495 54.4544Z" fill="#57565E"/>
<path d="M38.9671 53.0291L40.5695 52.1197C40.7277 52.0315 40.989 52.0315 41.1472 52.1197L42.7359 53.0291C42.894 53.1174 42.894 53.2667 42.7359 53.3617L41.1334 54.2711C40.9753 54.3593 40.7139 54.3593 40.5557 54.2711L38.9671 53.3617C38.8089 53.2667 38.8089 53.1241 38.9671 53.0291Z" fill="#57565E"/>
<path d="M18.8714 44.3692L20.467 43.4598C20.6251 43.3716 20.8865 43.3716 21.0447 43.4598L22.6333 44.3692C22.7915 44.4642 22.7915 44.6068 22.6333 44.7018L21.0378 45.6112C20.8796 45.7062 20.6183 45.7062 20.4601 45.6112L18.8714 44.7018C18.7132 44.6135 18.7132 44.4642 18.8714 44.3692Z" fill="#57565E"/>
<path d="M16.3821 42.944L17.9777 42.0346C18.1359 41.9463 18.3972 41.9395 18.5554 42.0346L20.1441 42.944C20.3022 43.039 20.3022 43.1815 20.1441 43.2765L18.5485 44.186C18.3903 44.281 18.129 44.281 17.9708 44.186L16.3821 43.2765C16.224 43.1883 16.224 43.039 16.3821 42.944Z" fill="#57565E"/>
<path d="M11.348 40.0528L12.9435 39.1434C13.1017 39.0552 13.363 39.0552 13.5212 39.1434L15.1099 40.0528C15.2681 40.141 15.2681 40.2903 15.1099 40.3854L13.5143 41.2948C13.3562 41.3898 13.0948 41.3898 12.9366 41.2948L11.348 40.3854C11.1898 40.2903 11.1898 40.1478 11.348 40.0528Z" fill="#57565E"/>
</g>
<defs>
<linearGradient id="paint0_linear_1064_1365" x1="57.2883" y1="48.801" x2="39.3987" y2="1.98884" gradientUnits="userSpaceOnUse">
<stop offset="0.01" stop-color="#A0A6C0"/>
<stop offset="0.38" stop-color="#A0A6C0"/>
<stop offset="0.39" stop-color="#C6C9D9"/>
<stop offset="0.4" stop-color="#D8D9E6"/>
<stop offset="0.41" stop-color="#E3E3ED"/>
<stop offset="0.42" stop-color="#E7E7F0"/>
</linearGradient>
<linearGradient id="paint1_linear_1064_1365" x1="61.9651" y1="50.0634" x2="0.852903" y2="50.0634" gradientUnits="userSpaceOnUse">
<stop offset="0.01" stop-color="#A0A6C0"/>
<stop offset="0.38" stop-color="#A3A9C2"/>
<stop offset="0.4" stop-color="#B5BACE"/>
<stop offset="0.42" stop-color="#C0C4D5"/>
<stop offset="0.43" stop-color="#C4C8D8"/>
<stop offset="0.94" stop-color="#C4C8D8"/>
<stop offset="0.98" stop-color="#C4C8D8"/>
<stop offset="1" stop-color="#C4C8D8"/>
</linearGradient>
<clipPath id="clip0_1064_1365">
<rect width="71.0357" height="67.3929" fill="white" transform="matrix(-1 0 0 1 71.6074 0.214417)"/>
</clipPath>
</defs>
</svg>
