<svg width="65" height="71" viewBox="0 0 65 71" fill="none" xmlns="http://www.w3.org/2000/svg">
<g clip-path="url(#clip0_1064_2282)">
<path d="M54.348 55.3534L44.7594 49.8432C44.4333 49.653 43.9046 49.653 43.5784 49.8432L19.2273 63.9011L17.917 64.22V64.8577C17.917 64.9808 17.9957 65.1038 18.1644 65.1989L28.0117 70.8601C28.3379 71.0503 28.8666 71.0503 29.1927 70.8601L54.6124 56.1869C54.7698 56.0974 54.8486 55.9799 54.8542 55.8624V55.2359L54.348 55.359V55.3534Z" fill="#C5C9D8"/>
<path d="M54.6125 54.8891L44.7652 49.2279C44.439 49.0377 43.9104 49.0377 43.5842 49.2279L18.1646 63.9011C17.8384 64.0913 17.8384 64.3934 18.1646 64.5836L28.0119 70.2448C28.338 70.435 28.8667 70.435 29.1928 70.2448L54.6125 55.5715C54.9387 55.3813 54.9387 55.0793 54.6125 54.8891Z" fill="#DADAE8"/>
<path d="M22.9392 64.55V64.4158H22.8323L21.7132 63.7725C21.6007 63.7053 21.4151 63.7053 21.3026 63.7725L20.1835 64.4214H20.0879V64.55V64.5556C20.0879 64.5948 20.1216 64.6339 20.1722 64.6675L21.3139 65.322C21.4264 65.3891 21.6119 65.3891 21.73 65.322L22.8661 64.6675C22.9223 64.6339 22.9504 64.5892 22.9504 64.55H22.9392Z" fill="#E7E7F0"/>
<path d="M30.1374 68.684V68.5498H30.0306L28.9114 67.9065C28.7989 67.8393 28.6134 67.8393 28.5009 67.9065L27.3817 68.5554H27.2861V68.684V68.6896C27.2861 68.7288 27.3199 68.7679 27.3705 68.8015L28.5121 69.456C28.6246 69.5231 28.8102 69.5231 28.9283 69.456L30.0643 68.8015C30.1205 68.7679 30.1487 68.7232 30.1487 68.684H30.1374Z" fill="#E7E7F0"/>
<path d="M31.9147 67.6606V67.5263H31.8079L30.6888 66.883C30.5763 66.8159 30.3907 66.8159 30.2782 66.883L29.1591 67.5319H29.0635V67.6606V67.6662C29.0635 67.7053 29.0972 67.7445 29.1478 67.778L30.2895 68.4325C30.4019 68.4997 30.5875 68.4997 30.7056 68.4325L31.8416 67.778C31.8979 67.7445 31.926 67.6997 31.926 67.6606H31.9147Z" fill="#E7E7F0"/>
<path d="M33.6921 66.631V66.4968H33.5852L32.4661 65.8534C32.3536 65.7863 32.168 65.7863 32.0556 65.8534L30.9364 66.5024H30.8408V66.631V66.6366C30.8408 66.6758 30.8746 66.7149 30.9252 66.7485L32.0668 67.403C32.1793 67.4701 32.3649 67.4701 32.483 67.403L33.619 66.7485C33.6752 66.7149 33.7033 66.6702 33.7033 66.631H33.6921Z" fill="#E7E7F0"/>
<path d="M35.4694 65.6017V65.4674H35.3626L34.2434 64.8241C34.131 64.757 33.9454 64.757 33.8329 64.8241L32.7138 65.473H32.6182V65.6017V65.6073C32.6182 65.6464 32.6519 65.6856 32.7025 65.7192L33.8442 66.3737C33.9566 66.4408 34.1422 66.4408 34.2603 66.3737L35.3963 65.7192C35.4526 65.6856 35.4807 65.6409 35.4807 65.6017H35.4694Z" fill="#E7E7F0"/>
<path d="M24.7165 63.5207V63.3864H24.6097L23.4905 62.7431C23.378 62.676 23.1925 62.676 23.08 62.7431L21.9608 63.392H21.8652V63.5207V63.5263C21.8652 63.5655 21.899 63.6046 21.9496 63.6382L23.0912 64.2927C23.2037 64.3598 23.3893 64.3598 23.5074 64.2927L24.6434 63.6382C24.6996 63.6046 24.7278 63.5599 24.7278 63.5207H24.7165Z" fill="#E7E7F0"/>
<path d="M27.5056 63.9682V63.834H27.3987L26.2796 63.1907C26.1671 63.1235 25.9815 63.1235 25.869 63.1907L24.7499 63.8396H24.6543V63.9682V63.9738C24.6543 64.013 24.688 64.0522 24.7387 64.0857L25.8803 64.7402C25.9928 64.8074 26.1783 64.8074 26.2964 64.7402L27.4325 64.0857C27.4887 64.0522 27.5168 64.0074 27.5168 63.9682H27.5056Z" fill="#E7E7F0"/>
<path d="M29.2829 62.9389V62.8047H29.1761L28.0569 62.1613C27.9444 62.0942 27.7589 62.0942 27.6464 62.1613L26.5272 62.8102H26.4316V62.9389V62.9445C26.4316 62.9837 26.4654 63.0228 26.516 63.0564L27.6576 63.7109C27.7701 63.778 27.9557 63.778 28.0738 63.7109L29.2098 63.0564C29.266 63.0228 29.2942 62.9781 29.2942 62.9389H29.2829Z" fill="#E7E7F0"/>
<path d="M30.2048 64.4941V64.3598H30.0979L28.9788 63.7165C28.8663 63.6494 28.6807 63.6494 28.5683 63.7165L27.4491 64.3654H27.3535V64.4941V64.4997C27.3535 64.5388 27.3873 64.578 27.4379 64.6115L28.5795 65.266C28.692 65.3332 28.8776 65.3332 28.9957 65.266L30.1317 64.6115C30.1879 64.578 30.216 64.5332 30.216 64.4941H30.2048Z" fill="#E7E7F0"/>
<path d="M32.0212 65.5346V65.4003H31.9143L30.7952 64.757C30.6827 64.6899 30.4971 64.6899 30.3847 64.757L29.2655 65.4059H29.1699V65.5346V65.5402C29.1699 65.5793 29.2037 65.6185 29.2543 65.6521L30.3959 66.3066C30.5084 66.3737 30.694 66.3737 30.8121 66.3066L31.9481 65.6521C32.0043 65.6185 32.0324 65.5737 32.0324 65.5346H32.0212Z" fill="#E7E7F0"/>
<path d="M33.7985 64.5108V64.3766H33.6917L32.5725 63.7333C32.4601 63.6661 32.2745 63.6661 32.162 63.7333L31.0429 64.3822H30.9473V64.5108V64.5164C30.9473 64.5556 30.981 64.5948 31.0316 64.6283L32.1733 65.2828C32.2857 65.35 32.4713 65.35 32.5894 65.2828L33.7254 64.6283C33.7817 64.5948 33.8098 64.55 33.8098 64.5108H33.7985Z" fill="#E7E7F0"/>
<path d="M35.5759 63.4816V63.3473H35.469L34.3499 62.704C34.2374 62.6368 34.0518 62.6368 33.9394 62.704L32.8202 63.3529H32.7246V63.4816V63.4871C32.7246 63.5263 32.7584 63.5655 32.809 63.599L33.9506 64.2535C34.0631 64.3207 34.2487 64.3207 34.3668 64.2535L35.5028 63.599C35.559 63.5655 35.5871 63.5207 35.5871 63.4816H35.5759Z" fill="#E7E7F0"/>
<path d="M37.3532 62.4523V62.318H37.2464L36.1272 61.6747C36.0148 61.6075 35.8292 61.6075 35.7167 61.6747L34.5976 62.3236H34.502V62.4523V62.4578C34.502 62.497 34.5357 62.5362 34.5863 62.5697L35.7279 63.2242C35.8404 63.2914 36.026 63.2914 36.1441 63.2242L37.2801 62.5697C37.3364 62.5362 37.3645 62.4914 37.3645 62.4523H37.3532Z" fill="#E7E7F0"/>
<path d="M39.1306 61.4285V61.2943H39.0237L37.9046 60.6509C37.7921 60.5838 37.6065 60.5838 37.494 60.6509L36.3749 61.2998H36.2793V61.4285V61.4341C36.2793 61.4733 36.313 61.5124 36.3637 61.546L37.5053 62.2005C37.6178 62.2676 37.8033 62.2676 37.9214 62.2005L39.0575 61.546C39.1137 61.5124 39.1418 61.4677 39.1418 61.4285H39.1306Z" fill="#E7E7F0"/>
<path d="M40.9069 60.3992V60.265H40.8001L39.6809 59.6216C39.5685 59.5545 39.3829 59.5545 39.2704 59.6216L38.1513 60.2705H38.0557V60.3992V60.4048C38.0557 60.444 38.0894 60.4831 38.14 60.5167L39.2817 61.1712C39.3941 61.2383 39.5797 61.2383 39.6978 61.1712L40.8338 60.5167C40.8901 60.4831 40.9182 60.4384 40.9182 60.3992H40.9069Z" fill="#E7E7F0"/>
<path d="M42.6843 59.3755V59.2412H42.5774L41.4583 58.5979C41.3458 58.5308 41.1602 58.5308 41.0477 58.5979L39.9286 59.2468H39.833V59.3755V59.3811C39.833 59.4203 39.8668 59.4594 39.9174 59.493L41.059 60.1475C41.1715 60.2146 41.3571 60.2146 41.4752 60.1475L42.6112 59.493C42.6674 59.4594 42.6955 59.4147 42.6955 59.3755H42.6843Z" fill="#E7E7F0"/>
<path d="M44.4616 58.3462V58.2119H44.3548L43.2356 57.5686C43.1232 57.5015 42.9376 57.5015 42.8251 57.5686L41.706 58.2175H41.6104V58.3462V58.3518C41.6104 58.391 41.6441 58.4301 41.6947 58.4637L42.8363 59.1182C42.9488 59.1853 43.1344 59.1853 43.2525 59.1182L44.3885 58.4637C44.4448 58.4301 44.4729 58.3854 44.4729 58.3462H44.4616Z" fill="#E7E7F0"/>
<path d="M46.239 57.3169V57.1826H46.1321L45.013 56.5393C44.9005 56.4722 44.7149 56.4722 44.6024 56.5393L43.4833 57.1882H43.3877V57.3169V57.3225C43.3877 57.3616 43.4214 57.4008 43.4721 57.4344L44.6137 58.0889C44.7262 58.156 44.9117 58.156 45.0298 58.0889L46.1659 57.4344C46.2221 57.4008 46.2502 57.356 46.2502 57.3169H46.239Z" fill="#E7E7F0"/>
<path d="M48.1394 58.2791V58.1448H48.0325L46.9134 57.5015C46.8009 57.4344 46.6153 57.4344 46.5028 57.5015L45.3837 58.1504H45.2881V58.2791V58.2847C45.2881 58.3238 45.3218 58.363 45.3724 58.3965L46.5141 59.051C46.6266 59.1182 46.8121 59.1182 46.9302 59.051L48.0662 58.3965C48.1225 58.363 48.1506 58.3182 48.1506 58.2791H48.1394Z" fill="#E7E7F0"/>
<path d="M49.9167 57.2497V57.1155H49.8098L48.6907 56.4722C48.5782 56.405 48.3926 56.405 48.2802 56.4722L47.161 57.1211H47.0654V57.2497V57.2553C47.0654 57.2945 47.0992 57.3337 47.1498 57.3672L48.2914 58.0217C48.4039 58.0889 48.5895 58.0889 48.7076 58.0217L49.8436 57.3672C49.8998 57.3337 49.9279 57.2889 49.9279 57.2497H49.9167Z" fill="#E7E7F0"/>
<path d="M53.5153 55.1744V55.0401H53.4085L52.2893 54.3968C52.1769 54.3297 51.9913 54.3297 51.8788 54.3968L50.7597 55.0457H50.6641V55.1744V55.18C50.6641 55.2191 50.6978 55.2583 50.7484 55.2918L51.8901 55.9463C52.0025 56.0135 52.1881 56.0135 52.3062 55.9463L53.4422 55.2918C53.4985 55.2583 53.5266 55.2135 53.5266 55.1744H53.5153Z" fill="#E7E7F0"/>
<path d="M51.6206 54.0108L50.5015 53.3675C50.389 53.3003 50.2034 53.3003 50.091 53.3675L49.9335 53.457L48.9718 54.0164H48.8762V54.0723L48.8144 54.1059H48.7188V54.2345V54.2401C48.7188 54.2793 48.7525 54.3184 48.8031 54.352L49.9447 55.0065C50.0572 55.0736 50.2428 55.0736 50.3609 55.0065L51.6544 54.2569C51.7106 54.2233 51.7387 54.1786 51.7387 54.1394V54.0052H51.6319L51.6206 54.0108Z" fill="#E7E7F0"/>
<path d="M48.0153 56.2932V56.1589H47.9085L46.7893 55.5156C46.6769 55.4485 46.4913 55.4485 46.3788 55.5156L45.2597 56.1645H45.1641V56.2932V56.2988C45.1641 56.3379 45.1978 56.3771 45.2484 56.4106L46.3901 57.0651C46.5025 57.1323 46.6881 57.1323 46.8062 57.0651L47.9422 56.4106C47.9985 56.3771 48.0266 56.3323 48.0266 56.2932H48.0153Z" fill="#E7E7F0"/>
<path d="M49.7927 55.2639V55.1296H49.6858L48.5667 54.4863C48.4542 54.4192 48.2686 54.4192 48.1561 54.4863L47.037 55.1352H46.9414V55.2639V55.2695C46.9414 55.3086 46.9751 55.3478 47.0258 55.3813L48.1674 56.0358C48.2799 56.103 48.4655 56.103 48.5836 56.0358L49.7196 55.3813C49.7758 55.3478 49.8039 55.303 49.8039 55.2639H49.7927Z" fill="#E7E7F0"/>
<path d="M31.9821 63.4703V63.3361H31.8753L30.7561 62.6928C30.6437 62.6256 30.4581 62.6256 30.3456 62.6928L29.2265 63.3417H29.1309V63.4703V63.4759C29.1309 63.5151 29.1646 63.5543 29.2152 63.5878L30.3569 64.2423C30.4693 64.3095 30.6549 64.3095 30.773 64.2423L31.909 63.5878C31.9653 63.5543 31.9934 63.5095 31.9934 63.4703H31.9821Z" fill="#E7E7F0"/>
<path d="M33.7595 62.4411V62.3068H33.6526L32.5335 61.6635C32.421 61.5963 32.2354 61.5963 32.1229 61.6635L31.0038 62.3124H30.9082V62.4411V62.4466C30.9082 62.4858 30.9419 62.525 30.9926 62.5585L32.1342 63.213C32.2467 63.2802 32.4323 63.2802 32.5504 63.213L33.6864 62.5585C33.7426 62.525 33.7707 62.4802 33.7707 62.4411H33.7595Z" fill="#E7E7F0"/>
<path d="M35.5368 61.4117V61.2775H35.43L34.3108 60.6341C34.1984 60.567 34.0128 60.567 33.9003 60.6341L32.7812 61.2831H32.6855V61.4117V61.4173C32.6855 61.4565 32.7193 61.4956 32.7699 61.5292L33.9115 62.1837C34.024 62.2508 34.2096 62.2508 34.3277 62.1837L35.4637 61.5292C35.5199 61.4956 35.5481 61.4509 35.5481 61.4117H35.5368Z" fill="#E7E7F0"/>
<path d="M37.3132 60.388V60.2538H37.2063L36.0872 59.6105C35.9747 59.5433 35.7891 59.5433 35.6767 59.6105L34.5575 60.2594H34.4619V60.388V60.3936C34.4619 60.4328 34.4957 60.472 34.5463 60.5055L35.6879 61.16C35.8004 61.2272 35.986 61.2272 36.1041 61.16L37.2401 60.5055C37.2963 60.472 37.3244 60.4272 37.3244 60.388H37.3132Z" fill="#E7E7F0"/>
<path d="M39.0905 59.3587V59.2245H38.9837L37.8645 58.5811C37.7521 58.514 37.5665 58.514 37.454 58.5811L36.3349 59.23H36.2393V59.3587V59.3643C36.2393 59.4035 36.273 59.4426 36.3236 59.4762L37.4652 60.1307C37.5777 60.1978 37.7633 60.1978 37.8814 60.1307L39.0174 59.4762C39.0737 59.4426 39.1018 59.3979 39.1018 59.3587H39.0905Z" fill="#E7E7F0"/>
<path d="M40.8679 58.3294V58.1952H40.761L39.6419 57.5518C39.5294 57.4847 39.3438 57.4847 39.2313 57.5518L38.1122 58.2008H38.0166V58.3294V58.335C38.0166 58.3742 38.0503 58.4133 38.101 58.4469L39.2426 59.1014C39.3551 59.1685 39.5407 59.1685 39.6588 59.1014L40.7948 58.4469C40.851 58.4133 40.8791 58.3686 40.8791 58.3294H40.8679Z" fill="#E7E7F0"/>
<path d="M42.6452 57.3057V57.1714H42.5384L41.4192 56.5281C41.3067 56.461 41.1212 56.461 41.0087 56.5281L39.8895 57.177H39.7939V57.3057V57.3113C39.7939 57.3505 39.8277 57.3896 39.8783 57.4232L41.0199 58.0777C41.1324 58.1448 41.318 58.1448 41.4361 58.0777L42.5721 57.4232C42.6283 57.3896 42.6565 57.3449 42.6565 57.3057H42.6452Z" fill="#E7E7F0"/>
<path d="M44.4226 56.2764V56.1421H44.3157L43.1966 55.4988C43.0841 55.4317 42.8985 55.4317 42.786 55.4988L41.6669 56.1477H41.5713V56.2764V56.282C41.5713 56.3211 41.605 56.3603 41.6556 56.3939L42.7973 57.0484C42.9098 57.1155 43.0953 57.1155 43.2134 57.0484L44.3495 56.3939C44.4057 56.3603 44.4338 56.3155 44.4338 56.2764H44.4226Z" fill="#E7E7F0"/>
<path d="M46.1989 55.2527V55.1184H46.0921L44.9729 54.4751C44.8605 54.408 44.6749 54.408 44.5624 54.4751L43.4433 55.124H43.3477V55.2527V55.2583C43.3477 55.2974 43.3814 55.3366 43.432 55.3701L44.5736 56.0247C44.6861 56.0918 44.8717 56.0918 44.9898 56.0247L46.1258 55.3701C46.1821 55.3366 46.2102 55.2918 46.2102 55.2527H46.1989Z" fill="#E7E7F0"/>
<path d="M31.0603 61.9152V61.7809H30.9534L29.8343 61.1376C29.7218 61.0705 29.5362 61.0705 29.4237 61.1376L28.3046 61.7865H28.209V61.9152V61.9208C28.209 61.96 28.2427 61.9991 28.2933 62.0327L29.435 62.6872C29.5475 62.7543 29.733 62.7543 29.8511 62.6872L30.9871 62.0327C31.0434 61.9991 31.0715 61.9544 31.0715 61.9152H31.0603Z" fill="#E7E7F0"/>
<path d="M32.8366 60.8859V60.7516H32.7298L31.6106 60.1083C31.4982 60.0412 31.3126 60.0412 31.2001 60.1083L30.081 60.7572H29.9854V60.8859V60.8915C29.9854 60.9307 30.0191 60.9698 30.0697 61.0034L31.2113 61.6579C31.3238 61.725 31.5094 61.725 31.6275 61.6579L32.7635 61.0034C32.8198 60.9698 32.8479 60.9251 32.8479 60.8859H32.8366Z" fill="#E7E7F0"/>
<path d="M34.614 59.8622V59.7279H34.5071L33.388 59.0846C33.2755 59.0175 33.0899 59.0175 32.9774 59.0846L31.8583 59.7335H31.7627V59.8622V59.8678C31.7627 59.9069 31.7964 59.9461 31.8471 59.9797L32.9887 60.6342C33.1012 60.7013 33.2867 60.7013 33.4048 60.6342L34.5409 59.9797C34.5971 59.9461 34.6252 59.9014 34.6252 59.8622H34.614Z" fill="#E7E7F0"/>
<path d="M36.3913 58.8329V58.6986H36.2845L35.1653 58.0553C35.0528 57.9882 34.8673 57.9882 34.7548 58.0553L33.6356 58.7042H33.54V58.8329V58.8385C33.54 58.8776 33.5738 58.9168 33.6244 58.9503L34.766 59.6049C34.8785 59.672 35.0641 59.672 35.1822 59.6049L36.3182 58.9503C36.3744 58.9168 36.4026 58.872 36.4026 58.8329H36.3913Z" fill="#E7E7F0"/>
<path d="M38.1687 57.8036V57.6693H38.0618L36.9427 57.026C36.8302 56.9589 36.6446 56.9589 36.5321 57.026L35.413 57.6749H35.3174V57.8036V57.8092C35.3174 57.8483 35.3511 57.8875 35.4017 57.921L36.5434 58.5756C36.6559 58.6427 36.8414 58.6427 36.9595 58.5756L38.0955 57.921C38.1518 57.8875 38.1799 57.8427 38.1799 57.8036H38.1687Z" fill="#E7E7F0"/>
<path d="M39.946 56.7798V56.6456H39.8391L38.72 56.0023C38.6075 55.9351 38.4219 55.9351 38.3095 56.0023L37.1903 56.6512H37.0947V56.7798V56.7854C37.0947 56.8246 37.1285 56.8637 37.1791 56.8973L38.3207 57.5518C38.4332 57.6189 38.6188 57.6189 38.7369 57.5518L39.8729 56.8973C39.9291 56.8637 39.9572 56.819 39.9572 56.7798H39.946Z" fill="#E7E7F0"/>
<path d="M41.7224 55.7505V55.6163H41.6155L40.4964 54.973C40.3839 54.9058 40.1983 54.9058 40.0858 54.973L38.9667 55.6219H38.8711V55.7505V55.7561C38.8711 55.7953 38.9048 55.8344 38.9554 55.868L40.0971 56.5225C40.2096 56.5896 40.3951 56.5896 40.5132 56.5225L41.6493 55.868C41.7055 55.8344 41.7336 55.7897 41.7336 55.7505H41.7224Z" fill="#E7E7F0"/>
<path d="M43.4997 54.7212V54.587H43.3929L42.2737 53.9437C42.1612 53.8765 41.9757 53.8765 41.8632 53.9437L40.744 54.5926H40.6484V54.7212V54.7268C40.6484 54.766 40.6822 54.8051 40.7328 54.8387L41.8744 55.4932C41.9869 55.5603 42.1725 55.5603 42.2906 55.4932L43.4266 54.8387C43.4828 54.8051 43.511 54.7604 43.511 54.7212H43.4997Z" fill="#E7E7F0"/>
<path d="M45.2771 53.6975V53.5633H45.1702L44.0511 52.9199C43.9386 52.8528 43.753 52.8528 43.6405 52.9199L42.5214 53.5689H42.4258V53.6975V53.7031C42.4258 53.7423 42.4595 53.7814 42.5101 53.815L43.6518 54.4695C43.7642 54.5366 43.9498 54.5366 44.0679 54.4695L45.2039 53.815C45.2602 53.7814 45.2883 53.7367 45.2883 53.6975H45.2771Z" fill="#E7E7F0"/>
<path d="M26.4938 62.497V62.3627H26.387L25.2679 61.7194C25.1554 61.6523 24.9698 61.6523 24.8573 61.7194L23.7382 62.3683H23.6426V62.497V62.5026C23.6426 62.5417 23.6763 62.5809 23.7269 62.6145L24.8686 63.269C24.981 63.3361 25.1666 63.3361 25.2847 63.269L26.4207 62.6145C26.477 62.5809 26.5051 62.5361 26.5051 62.497H26.4938Z" fill="#E7E7F0"/>
<path d="M28.2702 61.4677V61.3334H28.1634L27.0442 60.6901C26.9317 60.623 26.7462 60.623 26.6337 60.6901L25.5145 61.339H25.4189V61.4677V61.4733C25.4189 61.5124 25.4527 61.5516 25.5033 61.5852L26.6449 62.2397C26.7574 62.3068 26.943 62.3068 27.0611 62.2397L28.1971 61.5852C28.2533 61.5516 28.2815 61.5069 28.2815 61.4677H28.2702Z" fill="#E7E7F0"/>
<path d="M30.0476 60.4384V60.3041H29.9407L28.8216 59.6608C28.7091 59.5937 28.5235 59.5937 28.411 59.6608L27.2919 60.3097H27.1963V60.4384V60.444C27.1963 60.4831 27.23 60.5223 27.2806 60.5558L28.4223 61.2103C28.5348 61.2775 28.7203 61.2775 28.8384 61.2103L29.9745 60.5558C30.0307 60.5223 30.0588 60.4775 30.0588 60.4384H30.0476Z" fill="#E7E7F0"/>
<path d="M31.8249 59.4147V59.2804H31.7181L30.5989 58.6371C30.4864 58.5699 30.3009 58.5699 30.1884 58.6371L29.0692 59.286H28.9736V59.4147V59.4202C28.9736 59.4594 29.0074 59.4986 29.058 59.5321L30.1996 60.1866C30.3121 60.2538 30.4977 60.2538 30.6158 60.1866L31.7518 59.5321C31.808 59.4986 31.8362 59.4538 31.8362 59.4147H31.8249Z" fill="#E7E7F0"/>
<path d="M33.6022 58.3854V58.2511H33.4954L32.3763 57.6078C32.2638 57.5407 32.0782 57.5407 31.9657 57.6078L30.8466 58.2567H30.751V58.3854V58.3909C30.751 58.4301 30.7847 58.4693 30.8353 58.5028L31.977 59.1573C32.0894 59.2245 32.275 59.2245 32.3931 59.1573L33.5291 58.5028C33.5854 58.4693 33.6135 58.4245 33.6135 58.3854H33.6022Z" fill="#E7E7F0"/>
<path d="M35.3786 57.356V57.2218H35.2718L34.1526 56.5785C34.0401 56.5113 33.8546 56.5113 33.7421 56.5785L32.6229 57.2274H32.5273V57.356V57.3616C32.5273 57.4008 32.5611 57.4399 32.6117 57.4735L33.7533 58.128C33.8658 58.1951 34.0514 58.1951 34.1695 58.128L35.3055 57.4735C35.3617 57.4399 35.3899 57.3952 35.3899 57.356H35.3786Z" fill="#E7E7F0"/>
<path d="M37.156 56.3323V56.1981H37.0491L35.93 55.5547C35.8175 55.4876 35.6319 55.4876 35.5194 55.5547L34.4003 56.2037H34.3047V56.3323V56.3379C34.3047 56.3771 34.3384 56.4162 34.389 56.4498L35.5307 57.1043C35.6432 57.1714 35.8287 57.1714 35.9468 57.1043L37.0829 56.4498C37.1391 56.4162 37.1672 56.3715 37.1672 56.3323H37.156Z" fill="#E7E7F0"/>
<path d="M38.9333 55.303V55.1688H38.8264L37.7073 54.5254C37.5948 54.4583 37.4092 54.4583 37.2968 54.5254L36.1776 55.1744H36.082V55.303V55.3086C36.082 55.3478 36.1158 55.3869 36.1664 55.4205L37.308 56.075C37.4205 56.1421 37.6061 56.1421 37.7242 56.075L38.8602 55.4205C38.9164 55.3869 38.9445 55.3422 38.9445 55.303H38.9333Z" fill="#E7E7F0"/>
<path d="M40.7106 54.2737V54.1394H40.6038L39.4847 53.4961C39.3722 53.429 39.1866 53.429 39.0741 53.4961L37.955 54.145H37.8594V54.2737V54.2793C37.8594 54.3184 37.8931 54.3576 37.9437 54.3912L39.0854 55.0457C39.1978 55.1128 39.3834 55.1128 39.5015 55.0457L40.6375 54.3912C40.6938 54.3576 40.7219 54.3129 40.7219 54.2737H40.7106Z" fill="#E7E7F0"/>
<path d="M42.488 53.25V53.1157H42.3811L41.262 52.4724C41.1495 52.4053 40.9639 52.4053 40.8515 52.4724L39.7323 53.1213H39.6367V53.25V53.2556C39.6367 53.2947 39.6705 53.3339 39.7211 53.3675L40.8627 54.022C40.9752 54.0891 41.1608 54.0891 41.2789 54.022L42.4149 53.3675C42.4711 53.3339 42.4992 53.2891 42.4992 53.25H42.488Z" fill="#E7E7F0"/>
<path d="M44.2644 52.2207V52.0864H44.1575L43.0384 51.4431C42.9259 51.376 42.7403 51.376 42.6278 51.4431L41.5087 52.092H41.4131V52.2207V52.2263C41.4131 52.2654 41.4468 52.3046 41.4974 52.3382L42.6391 52.9927C42.7516 53.0598 42.9371 53.0598 43.0552 52.9927L44.1912 52.3382C44.2475 52.3046 44.2756 52.2598 44.2756 52.2207H44.2644Z" fill="#E7E7F0"/>
<path d="M46.3121 50.8949H46.1997L45.0862 50.2627C44.9737 50.1956 44.7881 50.1956 44.67 50.2627L43.2922 51.0627H43.1797V51.1914C43.1797 51.1914 43.1797 51.2026 43.1797 51.2081V51.2137C43.1853 51.2529 43.2134 51.2865 43.264 51.32L44.4057 51.9745C44.5182 52.0417 44.7037 52.0417 44.8218 51.9745L46.2278 51.1634C46.2897 51.1298 46.3121 51.0851 46.3121 51.0403V50.9061V50.8949Z" fill="#E7E7F0"/>
<path d="M46.3622 59.3028V59.1741H46.2554L45.1362 58.5308C45.0519 58.4805 44.9225 58.4693 44.8213 58.4916C44.7876 58.4972 44.7538 58.514 44.7257 58.5308L43.6066 59.1797H43.511V59.2357L35.6151 63.8004L34.496 64.4493H34.4004V64.578V64.5836C34.4004 64.5892 34.4004 64.6004 34.406 64.606C34.406 64.606 34.406 64.606 34.406 64.6116C34.406 64.6172 34.4116 64.6283 34.4173 64.6339C34.4173 64.6339 34.4229 64.6395 34.4285 64.6451C34.4285 64.6451 34.4398 64.6563 34.4454 64.6619C34.4566 64.6731 34.4679 64.6787 34.4791 64.6843L35.6208 65.3388C35.6489 65.3556 35.6826 65.3668 35.7164 65.378C35.7501 65.3835 35.7895 65.3891 35.8288 65.3891C35.9019 65.3891 35.9807 65.3724 36.0369 65.3388L37.1729 64.6843L46.2891 59.4147C46.3454 59.3811 46.3735 59.3363 46.3735 59.2916L46.3622 59.3028Z" fill="#E7E7F0"/>
<path d="M23.1982 62.3403V62.2117L23.1251 62.2285C23.1251 62.2285 23.1194 62.2229 23.1138 62.2173L22.8045 62.0383C22.692 61.9711 22.5064 61.9711 22.3883 62.0383L21.3367 62.6424L21.168 62.6816V62.8158C21.168 62.855 21.2017 62.8997 21.2523 62.9277L21.5616 63.1067C21.6741 63.1739 21.8597 63.1739 21.9778 63.1067L23.1138 62.4522C23.17 62.4187 23.1982 62.3795 23.1982 62.3347V62.3403Z" fill="#E7E7F0"/>
<path d="M24.9745 61.3111V61.188L24.9014 61.2048C24.9014 61.2048 24.8958 61.1992 24.8902 61.1936L24.5809 61.0146C24.4684 60.9475 24.2828 60.9475 24.1647 61.0146L23.113 61.6187L22.9443 61.6579V61.7922C22.9443 61.8313 22.9781 61.8761 23.0287 61.904L23.338 62.0831C23.4505 62.1502 23.6361 62.1502 23.7542 62.0831L24.8902 61.4285C24.9464 61.395 24.9745 61.3558 24.9745 61.3111Z" fill="#E7E7F0"/>
<path d="M26.7519 60.2817V60.1587L26.6788 60.1754C26.6788 60.1754 26.6731 60.1699 26.6675 60.1643L26.3582 59.9853C26.2457 59.9181 26.0601 59.9181 25.942 59.9853L24.8904 60.5894L24.7217 60.6286V60.7628C24.7217 60.802 24.7554 60.8467 24.806 60.8747L25.1153 61.0537C25.2278 61.1208 25.4134 61.1208 25.5315 61.0537L26.6675 60.3992C26.7238 60.3656 26.7519 60.3265 26.7519 60.2817Z" fill="#E7E7F0"/>
<path d="M28.5292 59.258V59.135L28.4561 59.1517C28.4561 59.1517 28.4505 59.1461 28.4449 59.1406L28.1356 58.9615C28.0231 58.8944 27.8375 58.8944 27.7194 58.9615L26.6677 59.5657L26.499 59.6049V59.7391C26.499 59.7783 26.5328 59.823 26.5834 59.851L26.8927 60.03C27.0052 60.0971 27.1908 60.0971 27.3089 60.03L28.4449 59.3755C28.5011 59.3419 28.5292 59.3028 28.5292 59.258Z" fill="#E7E7F0"/>
<path d="M30.3066 58.2287V58.1L30.2335 58.1168C30.2335 58.1168 30.2278 58.1112 30.2222 58.1056L29.9129 57.9266C29.8004 57.8595 29.6148 57.8595 29.4967 57.9266L28.4451 58.5308L28.2764 58.5699V58.7042C28.2764 58.7434 28.3101 58.7881 28.3607 58.8161L28.67 58.9951C28.7825 59.0622 28.9681 59.0622 29.0862 58.9951L30.2222 58.3406C30.2784 58.307 30.3066 58.2679 30.3066 58.2231V58.2287Z" fill="#E7E7F0"/>
<path d="M32.0839 57.1994V57.0707L32.0108 57.0875C32.0108 57.0875 32.0052 57.0819 31.9996 57.0763L31.6902 56.8973C31.5778 56.8302 31.3922 56.8302 31.2741 56.8973L30.2224 57.5015L30.0537 57.5407V57.6749C30.0537 57.7141 30.0875 57.7588 30.1381 57.7868L30.4474 57.9658C30.5599 58.0329 30.7454 58.0329 30.8635 57.9658L31.9996 57.3113C32.0558 57.2777 32.0839 57.2386 32.0839 57.1938V57.1994Z" fill="#E7E7F0"/>
<path d="M33.8603 56.1757V56.0526L33.7872 56.0694C33.7872 56.0694 33.7815 56.0638 33.7759 56.0582L33.4666 55.8792C33.3541 55.8121 33.1685 55.8121 33.0504 55.8792L31.9988 56.4834L31.8301 56.5225V56.6568C31.8301 56.6959 31.8638 56.7407 31.9144 56.7687L32.2237 56.9477C32.3362 57.0148 32.5218 57.0148 32.6399 56.9477L33.7759 56.2932C33.8322 56.2596 33.8603 56.2204 33.8603 56.1757Z" fill="#E7E7F0"/>
<path d="M35.6376 55.1464V55.0233L35.5645 55.0401C35.5645 55.0401 35.5589 55.0345 35.5533 55.0289L35.244 54.8499C35.1315 54.7828 34.9459 54.7828 34.8278 54.8499L33.7761 55.4541L33.6074 55.4932V55.6275C33.6074 55.6666 33.6412 55.7114 33.6918 55.7394L34.0011 55.9184C34.1136 55.9855 34.2992 55.9855 34.4173 55.9184L35.5533 55.2639C35.6095 55.2303 35.6376 55.1911 35.6376 55.1464Z" fill="#E7E7F0"/>
<path d="M37.415 54.1226V53.9996L37.3419 54.0164C37.3419 54.0164 37.3362 54.0108 37.3306 54.0052L37.0213 53.8262C36.9088 53.759 36.7232 53.759 36.6051 53.8262L35.5535 54.4303L35.3848 54.4695V54.6037C35.3848 54.6429 35.4185 54.6877 35.4691 54.7156L35.7784 54.8946C35.8909 54.9618 36.0765 54.9618 36.1946 54.8946L37.3306 54.2401C37.3868 54.2066 37.415 54.1674 37.415 54.1226Z" fill="#E7E7F0"/>
<path d="M39.1923 53.0933V52.9647L39.1192 52.9814C39.1192 52.9814 39.1136 52.9759 39.1079 52.9703L38.7986 52.7913C38.6862 52.7241 38.5006 52.7241 38.3825 52.7913L37.3308 53.3954L37.1621 53.4346V53.5688C37.1621 53.608 37.1959 53.6527 37.2465 53.6807L37.5558 53.8597C37.6683 53.9268 37.8538 53.9268 37.9719 53.8597L39.1079 53.2052C39.1642 53.1716 39.1923 53.1325 39.1923 53.0877V53.0933Z" fill="#E7E7F0"/>
<path d="M40.9687 52.064V51.9354L40.8956 51.9522C40.8956 51.9522 40.8899 51.9466 40.8843 51.941L40.575 51.762C40.4625 51.6948 40.2769 51.6948 40.1588 51.762L39.1072 52.3661L38.9385 52.4053V52.5395C38.9385 52.5787 38.9722 52.6234 39.0228 52.6514L39.3321 52.8304C39.4446 52.8976 39.6302 52.8976 39.7483 52.8304L40.8843 52.1759C40.9406 52.1424 40.9687 52.1032 40.9687 52.0584V52.064Z" fill="#E7E7F0"/>
<path d="M42.746 51.0403V50.9172L42.6729 50.934C42.6729 50.934 42.6673 50.9284 42.6617 50.9228L42.3523 50.7438C42.2399 50.6767 42.0543 50.6767 41.9362 50.7438L40.8845 51.348L40.7158 51.3871V51.5214C40.7158 51.5606 40.7496 51.6053 40.8002 51.6333L41.1095 51.8123C41.222 51.8794 41.4075 51.8794 41.5256 51.8123L42.6617 51.1578C42.7179 51.1242 42.746 51.0851 42.746 51.0403Z" fill="#E7E7F0"/>
<path d="M44.5234 50.011V49.8879L44.4503 49.9047C44.4503 49.9047 44.4446 49.8991 44.439 49.8935L44.1297 49.7145C44.0172 49.6474 43.8316 49.6474 43.7135 49.7145L42.6619 50.3187L42.4932 50.3578V50.4921C42.4932 50.5313 42.5269 50.576 42.5775 50.604L42.8868 50.783C42.9993 50.8501 43.1849 50.8501 43.303 50.783L44.439 50.1285C44.4952 50.0949 44.5234 50.0558 44.5234 50.011Z" fill="#E7E7F0"/>
<path d="M25.74 64.8745L25.6613 64.8857L24.5196 64.2312C24.4072 64.164 24.2216 64.164 24.1091 64.2312L22.0002 65.4507L21.8877 65.4675V65.5849V65.5905C21.8877 65.6297 21.9158 65.6744 21.9721 65.7024L23.1137 66.3569C23.2262 66.424 23.4117 66.424 23.5242 66.3569L25.6613 65.1206C25.7175 65.0871 25.7456 65.0423 25.7456 65.0031V64.8745H25.74Z" fill="#E7E7F0"/>
<path d="M28.4338 65.3891L28.355 65.4059C28.355 65.4059 28.355 65.4059 28.3494 65.4059L27.2078 64.7514C27.0953 64.6843 26.9097 64.6843 26.7916 64.7514L23.8335 66.4632L23.6816 66.4967V66.6198C23.6816 66.6646 23.7098 66.7037 23.766 66.7373L24.9076 67.3918C25.0201 67.4589 25.2057 67.4589 25.3182 67.3918L28.3438 65.6409C28.4 65.6073 28.4281 65.5625 28.4281 65.5234V65.3947L28.4338 65.3891Z" fill="#E7E7F0"/>
<path d="M30.2443 66.4352L30.1656 66.452C30.1656 66.452 30.1656 66.452 30.1599 66.452L29.0183 65.7975C28.9058 65.7304 28.7203 65.7304 28.6022 65.7975L25.644 67.5093L25.4922 67.5429V67.6659C25.4922 67.7107 25.5203 67.7498 25.5765 67.7834L26.7182 68.4379C26.8307 68.505 27.0162 68.505 27.1287 68.4379L30.1543 66.687C30.2106 66.6534 30.2387 66.6086 30.2387 66.5695V66.4408L30.2443 66.4352Z" fill="#E7E7F0"/>
<path d="M48.1166 51.941L48.0322 51.9522L46.8906 51.2977C46.7781 51.2305 46.5925 51.2305 46.4744 51.2977L44.3317 52.5395L44.208 52.5563V52.6738V52.6794C44.208 52.7186 44.2418 52.7633 44.2924 52.7913L45.434 53.4458C45.5465 53.5129 45.7321 53.5129 45.8445 53.4458L48.0266 52.1871C48.0828 52.1536 48.1109 52.1088 48.1109 52.0641V51.9354L48.1166 51.941Z" fill="#E7E7F0"/>
<path d="M49.827 52.9871L48.6854 52.3326C48.5729 52.2654 48.3873 52.2654 48.2692 52.3326L45.1986 54.1059C45.0861 54.173 45.0861 54.2793 45.1986 54.3464L46.3402 55.0009C46.4527 55.0681 46.6383 55.0681 46.7508 55.0009L49.8214 53.2276C49.9339 53.1605 49.9339 53.0542 49.8214 52.9871H49.827Z" fill="#E7E7F0"/>
<path d="M50.8613 55.7505V55.6219L50.7881 55.6386C50.7881 55.6386 50.7825 55.6331 50.7769 55.6275L50.4676 55.4484C50.3551 55.3813 50.1695 55.3813 50.0514 55.4484L48.9998 56.0526L48.8311 56.0918V56.226C48.8311 56.2652 48.8648 56.3099 48.9154 56.3379L49.2247 56.5169C49.3372 56.584 49.5228 56.584 49.6409 56.5169L50.7769 55.8624C50.8331 55.8288 50.8613 55.7897 50.8613 55.7449V55.7505Z" fill="#E7E7F0"/>
<path d="M51.6933 56.226V56.103L51.6202 56.1198C51.6202 56.1198 51.6145 56.1142 51.6089 56.1086L51.2996 55.9296C51.1871 55.8624 51.0016 55.8624 50.8835 55.9296L49.8318 56.5337L49.6631 56.5729V56.7071C49.6631 56.7463 49.6968 56.791 49.7474 56.819L50.0568 56.998C50.1692 57.0652 50.3548 57.0652 50.4729 56.998L51.6089 56.3435C51.6652 56.31 51.6933 56.2708 51.6933 56.226Z" fill="#E7E7F0"/>
<path d="M31.9373 65.4171L30.7957 64.7626C30.6832 64.6955 30.4976 64.6955 30.3795 64.7626L29.2435 65.4171C29.1311 65.4842 29.1311 65.5905 29.2435 65.6577L30.3852 66.3122C30.4976 66.3793 30.6832 66.3793 30.7957 66.3122L31.9317 65.6577C32.0442 65.5905 32.0442 65.4842 31.9317 65.4171H31.9373Z" fill="#E7E7F0"/>
<path d="M21.4203 63.3585V63.2242L21.3359 63.2466L21.0266 63.0676C20.9141 63.0005 20.7285 63.0005 20.6104 63.0676L19.3057 63.8228L19.1201 63.8731V64.013C19.1257 64.0521 19.1539 64.0913 19.2045 64.1193L19.5138 64.2983C19.6263 64.3654 19.8118 64.3654 19.9299 64.2983L21.3415 63.4816C21.4034 63.448 21.4259 63.4032 21.4259 63.3585H21.4203Z" fill="#E7E7F0"/>
<path d="M22.8497 64.3039L21.7081 63.6494C21.5956 63.5822 21.41 63.5822 21.2975 63.6494L20.1615 64.3039C20.049 64.371 20.049 64.4773 20.1615 64.5444L21.3031 65.1989C21.4156 65.2661 21.6012 65.2661 21.7193 65.1989L22.8553 64.5444C22.9678 64.4773 22.9678 64.371 22.8553 64.3039H22.8497Z" fill="#F4F5FA"/>
<path d="M24.627 63.2746L23.4854 62.62C23.3729 62.5529 23.1873 62.5529 23.0749 62.62L21.9388 63.2746C21.8264 63.3417 21.8264 63.448 21.9388 63.5151L23.0805 64.1696C23.193 64.2367 23.3785 64.2367 23.4966 64.1696L24.6327 63.5151C24.7451 63.448 24.7451 63.3417 24.6327 63.2746H24.627Z" fill="#F4F5FA"/>
<path d="M26.4034 62.2509L25.2618 61.5964C25.1493 61.5292 24.9637 61.5292 24.8512 61.5964L23.7152 62.2509C23.6027 62.318 23.6027 62.4243 23.7152 62.4914L24.8569 63.1459C24.9693 63.2131 25.1549 63.2131 25.273 63.1459L26.409 62.4914C26.5215 62.4243 26.5215 62.318 26.409 62.2509H26.4034Z" fill="#F4F5FA"/>
<path d="M28.1805 61.2215L27.0389 60.567C26.9264 60.4999 26.7408 60.4999 26.6227 60.567L25.4867 61.2215C25.3742 61.2887 25.3742 61.395 25.4867 61.4621L26.6283 62.1166C26.7408 62.1837 26.9264 62.1837 27.0445 62.1166L28.1805 61.4621C28.293 61.395 28.293 61.2887 28.1805 61.2215Z" fill="#F4F5FA"/>
<path d="M29.9579 60.1978L28.8162 59.5433C28.7037 59.4762 28.5182 59.4762 28.4001 59.5433L27.264 60.1978C27.1516 60.265 27.1516 60.3712 27.264 60.4384L28.4057 61.0929C28.5182 61.16 28.7037 61.16 28.8218 61.0929L29.9579 60.4384C30.0703 60.3712 30.0703 60.265 29.9579 60.1978Z" fill="#F4F5FA"/>
<path d="M31.7352 59.1685L30.5936 58.514C30.4811 58.4469 30.2955 58.4469 30.1774 58.514L29.0414 59.1685C28.9289 59.2356 28.9289 59.3419 29.0414 59.4091L30.183 60.0636C30.2955 60.1307 30.4811 60.1307 30.5992 60.0636L31.7352 59.4091C31.8477 59.3419 31.8477 59.2356 31.7352 59.1685Z" fill="#F4F5FA"/>
<path d="M33.5125 58.1392L32.3709 57.4847C32.2584 57.4176 32.0728 57.4176 31.9547 57.4847L30.8187 58.1392C30.7063 58.2063 30.7063 58.3126 30.8187 58.3798L31.9604 59.0343C32.0728 59.1014 32.2584 59.1014 32.3765 59.0343L33.5125 58.3798C33.625 58.3126 33.625 58.2063 33.5125 58.1392Z" fill="#F4F5FA"/>
<path d="M35.2891 57.1155L34.1475 56.461C34.035 56.3939 33.8494 56.3939 33.737 56.461L32.601 57.1155C32.4885 57.1826 32.4885 57.2889 32.601 57.356L33.7426 58.0105C33.8551 58.0777 34.0407 58.0777 34.1588 58.0105L35.2948 57.356C35.4072 57.2889 35.4072 57.1826 35.2948 57.1155H35.2891Z" fill="#F4F5FA"/>
<path d="M37.0665 56.0862L35.9249 55.4317C35.8124 55.3645 35.6268 55.3645 35.5143 55.4317L34.3783 56.0862C34.2658 56.1533 34.2658 56.2596 34.3783 56.3267L35.5199 56.9812C35.6324 57.0484 35.818 57.0484 35.9361 56.9812L37.0721 56.3267C37.1846 56.2596 37.1846 56.1533 37.0721 56.0862H37.0665Z" fill="#F4F5FA"/>
<path d="M38.8438 55.0569L37.7022 54.4024C37.5897 54.3352 37.4041 54.3352 37.2917 54.4024L36.1556 55.0569C36.0432 55.124 36.0432 55.2303 36.1556 55.2974L37.2973 55.9519C37.4098 56.0191 37.5953 56.0191 37.7134 55.9519L38.8495 55.2974C38.9619 55.2303 38.9619 55.124 38.8495 55.0569H38.8438Z" fill="#F4F5FA"/>
<path d="M40.6202 54.0332L39.4786 53.3787C39.3661 53.3115 39.1805 53.3115 39.068 53.3787L37.932 54.0332C37.8195 54.1003 37.8195 54.2066 37.932 54.2737L39.0737 54.9282C39.1861 54.9953 39.3717 54.9953 39.4898 54.9282L40.6258 54.2737C40.7383 54.2066 40.7383 54.1003 40.6258 54.0332H40.6202Z" fill="#F4F5FA"/>
<path d="M29.1983 62.6984L28.0567 62.0439C27.9442 61.9767 27.7586 61.9767 27.6461 62.0439L26.5101 62.6984C26.3977 62.7655 26.3977 62.8718 26.5101 62.9389L27.6518 63.5934C27.7642 63.6606 27.9498 63.6606 28.0679 63.5934L29.2039 62.9389C29.3164 62.8718 29.3164 62.7655 29.2039 62.6984H29.1983Z" fill="#F4F5FA"/>
<path d="M30.9757 61.6691L29.834 61.0146C29.7216 60.9475 29.536 60.9475 29.4235 61.0146L28.2875 61.6691C28.175 61.7362 28.175 61.8425 28.2875 61.9096L29.4291 62.5641C29.5416 62.6313 29.7272 62.6313 29.8453 62.5641L30.9813 61.9096C31.0938 61.8425 31.0938 61.7362 30.9813 61.6691H30.9757Z" fill="#F4F5FA"/>
<path d="M32.7528 60.6398L31.6111 59.9853C31.4987 59.9181 31.3131 59.9181 31.195 59.9853L30.059 60.6398C29.9465 60.7069 29.9465 60.8132 30.059 60.8803L31.2006 61.5348C31.3131 61.6019 31.4987 61.6019 31.6168 61.5348L32.7528 60.8803C32.8652 60.8132 32.8652 60.7069 32.7528 60.6398Z" fill="#F4F5FA"/>
<path d="M34.5301 59.616L33.3885 58.9615C33.276 58.8944 33.0904 58.8944 32.9723 58.9615L31.8363 59.616C31.7238 59.6832 31.7238 59.7895 31.8363 59.8566L32.9779 60.5111C33.0904 60.5782 33.276 60.5782 33.3941 60.5111L34.5301 59.8566C34.6426 59.7895 34.6426 59.6832 34.5301 59.616Z" fill="#F4F5FA"/>
<path d="M36.3075 58.5868L35.1658 57.9322C35.0533 57.8651 34.8678 57.8651 34.7497 57.9322L33.6137 58.5868C33.5012 58.6539 33.5012 58.7602 33.6137 58.8273L34.7553 59.4818C34.8678 59.5489 35.0533 59.5489 35.1714 59.4818L36.3075 58.8273C36.4199 58.7602 36.4199 58.6539 36.3075 58.5868Z" fill="#F4F5FA"/>
<path d="M38.0848 57.5574L36.9432 56.9029C36.8307 56.8358 36.6451 56.8358 36.527 56.9029L35.391 57.5574C35.2785 57.6246 35.2785 57.7308 35.391 57.798L36.5326 58.4525C36.6451 58.5196 36.8307 58.5196 36.9488 58.4525L38.0848 57.798C38.1973 57.7308 38.1973 57.6246 38.0848 57.5574Z" fill="#F4F5FA"/>
<path d="M39.8614 56.5337L38.7198 55.8792C38.6073 55.8121 38.4217 55.8121 38.3092 55.8792L37.1732 56.5337C37.0607 56.6008 37.0607 56.7071 37.1732 56.7743L38.3149 57.4288C38.4273 57.4959 38.6129 57.4959 38.731 57.4288L39.867 56.7743C39.9795 56.7071 39.9795 56.6008 39.867 56.5337H39.8614Z" fill="#F4F5FA"/>
<path d="M41.6387 55.5044L40.4971 54.8499C40.3846 54.7828 40.1991 54.7828 40.0866 54.8499L38.9506 55.5044C38.8381 55.5715 38.8381 55.6778 38.9506 55.745L40.0922 56.3995C40.2047 56.4666 40.3903 56.4666 40.5084 56.3995L41.6444 55.745C41.7568 55.6778 41.7568 55.5715 41.6444 55.5044H41.6387Z" fill="#F4F5FA"/>
<path d="M43.4161 54.4807L42.2745 53.8262C42.162 53.759 41.9764 53.759 41.8639 53.8262L40.7279 54.4807C40.6154 54.5478 40.6154 54.6541 40.7279 54.7212L41.8695 55.3757C41.982 55.4429 42.1676 55.4429 42.2857 55.3757L43.4217 54.7212C43.5342 54.6541 43.5342 54.5478 43.4217 54.4807H43.4161Z" fill="#F4F5FA"/>
<path d="M45.1925 53.4514L44.0508 52.7969C43.9384 52.7297 43.7528 52.7297 43.6403 52.7969L42.5043 53.4514C42.3918 53.5185 42.3918 53.6248 42.5043 53.6919L43.6459 54.3464C43.7584 54.4136 43.944 54.4136 44.0621 54.3464L45.1981 53.6919C45.3106 53.6248 45.3106 53.5185 45.1981 53.4514H45.1925Z" fill="#F4F5FA"/>
<path d="M42.3975 53.0039L41.2559 52.3494C41.1434 52.2822 40.9578 52.2822 40.8454 52.3494L39.7094 53.0039C39.5969 53.071 39.5969 53.1773 39.7094 53.2444L40.851 53.8989C40.9635 53.966 41.1491 53.966 41.2672 53.8989L42.4032 53.2444C42.5156 53.1773 42.5156 53.071 42.4032 53.0039H42.3975Z" fill="#F4F5FA"/>
<path d="M44.1749 51.9801L43.0332 51.3256C42.9208 51.2585 42.7352 51.2585 42.6227 51.3256L41.4867 51.9801C41.3742 52.0472 41.3742 52.1535 41.4867 52.2207L42.6283 52.8752C42.7408 52.9423 42.9264 52.9423 43.0445 52.8752L44.1805 52.2207C44.293 52.1535 44.293 52.0472 44.1805 51.9801H44.1749Z" fill="#F4F5FA"/>
<path d="M30.0538 68.4379L28.9122 67.7834C28.7997 67.7162 28.6141 67.7162 28.5016 67.7834L27.3656 68.4379C27.2531 68.505 27.2531 68.6113 27.3656 68.6784L28.5072 69.3329C28.6197 69.4001 28.8053 69.4001 28.9234 69.3329L30.0594 68.6784C30.1719 68.6113 30.1719 68.505 30.0594 68.4379H30.0538Z" fill="#F4F5FA"/>
<path d="M31.8311 67.4142L30.6895 66.7597C30.577 66.6926 30.3914 66.6926 30.279 66.7597L29.143 67.4142C29.0305 67.4813 29.0305 67.5876 29.143 67.6548L30.2846 68.3093C30.3971 68.3764 30.5826 68.3764 30.7007 68.3093L31.8368 67.6548C31.9492 67.5876 31.9492 67.4813 31.8368 67.4142H31.8311Z" fill="#F4F5FA"/>
<path d="M33.6075 66.3849L32.4659 65.7304C32.3534 65.6632 32.1678 65.6632 32.0553 65.7304L30.9193 66.3849C30.8068 66.452 30.8068 66.5583 30.9193 66.6254L32.061 67.2799C32.1734 67.3471 32.359 67.3471 32.4771 67.2799L33.6131 66.6254C33.7256 66.5583 33.7256 66.452 33.6131 66.3849H33.6075Z" fill="#F4F5FA"/>
<path d="M35.3846 65.3612L34.243 64.7067C34.1305 64.6395 33.9449 64.6395 33.8268 64.7067L32.6908 65.3612C32.5783 65.4283 32.5783 65.5346 32.6908 65.6017L33.8324 66.2562C33.9449 66.3233 34.1305 66.3233 34.2486 66.2562L35.3846 65.6017C35.4971 65.5346 35.4971 65.4283 35.3846 65.3612Z" fill="#F4F5FA"/>
<path d="M27.422 63.7221L26.2803 63.0676C26.1678 63.0005 25.9823 63.0005 25.8698 63.0676L24.7338 63.7221C24.6213 63.7892 24.6213 63.8955 24.7338 63.9626L25.8754 64.6172C25.9879 64.6843 26.1735 64.6843 26.2916 64.6172L27.4276 63.9626C27.5401 63.8955 27.5401 63.7892 27.4276 63.7221H27.422Z" fill="#F4F5FA"/>
<path d="M46.2278 50.7886L45.0862 50.1341C44.9737 50.067 44.7881 50.067 44.67 50.1341L43.264 50.9508C43.1516 51.018 43.1516 51.1242 43.264 51.1914L44.4057 51.8459C44.5182 51.913 44.7037 51.913 44.8218 51.8459L46.2278 51.0347C46.3403 50.9676 46.3403 50.8613 46.2278 50.7942V50.7886Z" fill="#F4F5FA"/>
<path d="M46.2781 59.0622L45.1365 58.4077C45.024 58.3406 44.8384 58.3406 44.7203 58.4077L34.4681 64.3319C34.3557 64.399 34.3557 64.5053 34.4681 64.5724L35.6098 65.2269C35.7223 65.294 35.9078 65.294 36.0259 65.2269L46.2781 59.3028C46.3906 59.2357 46.3906 59.1294 46.2781 59.0622Z" fill="#F4F5FA"/>
<path d="M23.1138 62.0886L22.8045 61.9096C22.692 61.8425 22.5064 61.8425 22.3883 61.9096L21.2523 62.5641C21.1398 62.6313 21.1398 62.7376 21.2523 62.8047L21.5616 62.9837C21.6741 63.0508 21.8597 63.0508 21.9778 62.9837L23.1138 62.3292C23.2263 62.2621 23.2263 62.1558 23.1138 62.0886Z" fill="#F4F5FA"/>
<path d="M24.8911 61.0649L24.5818 60.8859C24.4694 60.8188 24.2838 60.8188 24.1657 60.8859L23.0297 61.5404C22.9172 61.6076 22.9172 61.7138 23.0297 61.781L23.339 61.96C23.4515 62.0271 23.637 62.0271 23.7551 61.96L24.8911 61.3055C25.0036 61.2383 25.0036 61.1321 24.8911 61.0649Z" fill="#F4F5FA"/>
<path d="M26.6685 60.0356L26.3592 59.8566C26.2467 59.7895 26.0611 59.7895 25.943 59.8566L24.807 60.5111C24.6945 60.5782 24.6945 60.6845 24.807 60.7516L25.1163 60.9307C25.2288 60.9978 25.4144 60.9978 25.5325 60.9307L26.6685 60.2761C26.781 60.209 26.781 60.1027 26.6685 60.0356Z" fill="#F4F5FA"/>
<path d="M28.4449 59.0119L28.1356 58.8329C28.0231 58.7657 27.8375 58.7657 27.7194 58.8329L26.5834 59.4874C26.4709 59.5545 26.4709 59.6608 26.5834 59.7279L26.8927 59.9069C27.0052 59.9741 27.1908 59.9741 27.3089 59.9069L28.4449 59.2524C28.5573 59.1853 28.5573 59.079 28.4449 59.0119Z" fill="#F4F5FA"/>
<path d="M30.2222 57.9826L29.9129 57.8036C29.8004 57.7365 29.6148 57.7365 29.4967 57.8036L28.3607 58.4581C28.2482 58.5252 28.2482 58.6315 28.3607 58.6986L28.67 58.8776C28.7825 58.9448 28.9681 58.9448 29.0862 58.8776L30.2222 58.2231C30.3347 58.156 30.3347 58.0497 30.2222 57.9826Z" fill="#F4F5FA"/>
<path d="M31.9996 56.9533L31.6902 56.7743C31.5778 56.7071 31.3922 56.7071 31.2741 56.7743L30.1381 57.4288C30.0256 57.4959 30.0256 57.6022 30.1381 57.6693L30.4474 57.8483C30.5599 57.9154 30.7454 57.9154 30.8635 57.8483L31.9996 57.1938C32.112 57.1267 32.112 57.0204 31.9996 56.9533Z" fill="#F4F5FA"/>
<path d="M33.7769 55.9296L33.4676 55.7505C33.3551 55.6834 33.1695 55.6834 33.0514 55.7505L31.9154 56.405C31.8029 56.4722 31.8029 56.5785 31.9154 56.6456L32.2247 56.8246C32.3372 56.8917 32.5228 56.8917 32.6409 56.8246L33.7769 56.1701C33.8894 56.103 33.8894 55.9967 33.7769 55.9296Z" fill="#F4F5FA"/>
<path d="M35.5533 54.9003L35.2439 54.7212C35.1315 54.6541 34.9459 54.6541 34.8278 54.7212L33.6918 55.3758C33.5793 55.4429 33.5793 55.5492 33.6918 55.6163L34.0011 55.7953C34.1136 55.8624 34.2992 55.8624 34.4173 55.7953L35.5533 55.1408C35.6657 55.0737 35.6657 54.9674 35.5533 54.9003Z" fill="#F4F5FA"/>
<path d="M37.3306 53.8709L37.0213 53.6919C36.9088 53.6248 36.7232 53.6248 36.6051 53.6919L35.4691 54.3464C35.3566 54.4136 35.3566 54.5198 35.4691 54.587L35.7784 54.766C35.8909 54.8331 36.0765 54.8331 36.1946 54.766L37.3306 54.1115C37.4431 54.0443 37.4431 53.9381 37.3306 53.8709Z" fill="#F4F5FA"/>
<path d="M39.1079 52.8472L38.7986 52.6682C38.6862 52.6011 38.5006 52.6011 38.3825 52.6682L37.2465 53.3227C37.134 53.3898 37.134 53.4961 37.2465 53.5633L37.5558 53.7423C37.6682 53.8094 37.8538 53.8094 37.9719 53.7423L39.1079 53.0878C39.2204 53.0206 39.2204 52.9143 39.1079 52.8472Z" fill="#F4F5FA"/>
<path d="M40.8853 51.8179L40.576 51.6389C40.4635 51.5718 40.2779 51.5718 40.1598 51.6389L39.0238 52.2934C38.9113 52.3605 38.9113 52.4668 39.0238 52.534L39.3331 52.713C39.4456 52.7801 39.6312 52.7801 39.7493 52.713L40.8853 52.0585C40.9978 51.9913 40.9978 51.885 40.8853 51.8179Z" fill="#F4F5FA"/>
<path d="M42.6617 50.7886L42.3523 50.6096C42.2399 50.5425 42.0543 50.5425 41.9362 50.6096L40.8002 51.2641C40.6877 51.3312 40.6877 51.4375 40.8002 51.5046L41.1095 51.6836C41.222 51.7508 41.4075 51.7508 41.5256 51.6836L42.6617 51.0291C42.7741 50.962 42.7741 50.8557 42.6617 50.7886Z" fill="#F4F5FA"/>
<path d="M44.439 49.7649L44.1297 49.5859C44.0172 49.5187 43.8316 49.5187 43.7135 49.5859L42.5775 50.2404C42.465 50.3075 42.465 50.4138 42.5775 50.4809L42.8868 50.6599C42.9993 50.7271 43.1849 50.7271 43.303 50.6599L44.439 50.0054C44.5515 49.9383 44.5515 49.832 44.439 49.7649Z" fill="#F4F5FA"/>
<path d="M21.3366 63.1179L21.0273 62.9389C20.9149 62.8718 20.7293 62.8718 20.6112 62.9389L19.1996 63.7557C19.0871 63.8228 19.0871 63.9291 19.1996 63.9962L19.5089 64.1752C19.6214 64.2423 19.807 64.2423 19.9251 64.1752L21.3366 63.3585C21.4491 63.2914 21.4491 63.1851 21.3366 63.1179Z" fill="#F4F5FA"/>
<path d="M25.6554 64.757L24.5138 64.1025C24.4013 64.0353 24.2157 64.0353 24.1032 64.1025L21.9662 65.3388C21.8537 65.4059 21.8537 65.5122 21.9662 65.5793L23.1078 66.2338C23.2203 66.3009 23.4059 66.3009 23.5184 66.2338L25.6554 64.9975C25.7679 64.9304 25.7679 64.8241 25.6554 64.757Z" fill="#F4F5FA"/>
<path d="M28.3435 65.2772L27.2019 64.6227C27.0894 64.5556 26.9038 64.5556 26.7857 64.6227L23.7601 66.3737C23.6477 66.4408 23.6477 66.5471 23.7601 66.6142L24.9018 67.2687C25.0142 67.3359 25.1998 67.3359 25.3123 67.2687L28.3379 65.5178C28.4504 65.4507 28.4504 65.3444 28.3379 65.2772H28.3435Z" fill="#F4F5FA"/>
<path d="M30.1602 66.3177L29.0186 65.6632C28.9061 65.5961 28.7205 65.5961 28.608 65.6632L25.5824 67.4142C25.4699 67.4813 25.4699 67.5876 25.5824 67.6547L26.724 68.3092C26.8365 68.3764 27.0221 68.3764 27.1346 68.3092L30.1602 66.5583C30.2727 66.4912 30.2727 66.3849 30.1602 66.3177Z" fill="#F4F5FA"/>
<path d="M48.0273 51.8235L46.8857 51.169C46.7732 51.1019 46.5876 51.1019 46.4695 51.169L44.2875 52.4277C44.175 52.4948 44.175 52.6011 44.2875 52.6682L45.4291 53.3227C45.5416 53.3898 45.7272 53.3898 45.8397 53.3227L48.0217 52.0641C48.1342 51.9969 48.1342 51.8906 48.0217 51.8235H48.0273Z" fill="#F4F5FA"/>
<path d="M49.827 52.8584L48.6854 52.2039C48.5729 52.1368 48.3873 52.1368 48.2692 52.2039L45.1986 53.9772C45.0861 54.0444 45.0861 54.1506 45.1986 54.2178L46.3402 54.8723C46.4527 54.9394 46.6383 54.9394 46.7508 54.8723L49.8214 53.099C49.9339 53.0318 49.9339 52.9255 49.8214 52.8584H49.827Z" fill="#F4F5FA"/>
<path d="M50.7771 55.4988L50.4678 55.3198C50.3553 55.2527 50.1698 55.2527 50.0573 55.3198L48.9213 55.9743C48.8088 56.0414 48.8088 56.1477 48.9213 56.2148L49.2306 56.3938C49.3431 56.461 49.5286 56.461 49.6411 56.3938L50.7771 55.7393C50.8896 55.6722 50.8896 55.5659 50.7771 55.4988Z" fill="#F4F5FA"/>
<path d="M51.6099 55.9799L51.3006 55.8009C51.1881 55.7338 51.0025 55.7338 50.8844 55.8009L49.7484 56.4554C49.6359 56.5225 49.6359 56.6288 49.7484 56.6959L50.0577 56.875C50.1702 56.9421 50.3558 56.9421 50.4739 56.875L51.6099 56.2205C51.7224 56.1533 51.7224 56.047 51.6099 55.9799Z" fill="#F4F5FA"/>
<path d="M44.3377 56.0358L43.1961 55.3813C43.0836 55.3142 42.898 55.3142 42.7799 55.3813L41.6439 56.0358C41.5315 56.103 41.5315 56.2093 41.6439 56.2764L42.7856 56.9309C42.898 56.998 43.0836 56.998 43.1961 56.9309L44.3321 56.2764C44.4446 56.2093 44.4446 56.103 44.3321 56.0358H44.3377Z" fill="#F4F5FA"/>
<path d="M46.1151 55.0065L44.9734 54.352C44.861 54.2849 44.6754 54.2849 44.5573 54.352L43.4213 55.0065C43.3088 55.0736 43.3088 55.1799 43.4213 55.2471L44.5629 55.9016C44.6754 55.9687 44.861 55.9687 44.9734 55.9016L46.1095 55.2471C46.2219 55.1799 46.2219 55.0736 46.1095 55.0065H46.1151Z" fill="#F4F5FA"/>
<path d="M46.1485 57.0763L45.0069 56.4218C44.8944 56.3547 44.7088 56.3547 44.5963 56.4218L43.4603 57.0763C43.3479 57.1435 43.3479 57.2498 43.4603 57.3169L44.602 57.9714C44.7144 58.0385 44.9 58.0385 45.0125 57.9714L46.1485 57.3169C46.261 57.2498 46.261 57.1435 46.1485 57.0763Z" fill="#F4F5FA"/>
<path d="M47.9259 56.047L46.7842 55.3925C46.6717 55.3254 46.4862 55.3254 46.3737 55.3925L45.2377 56.047C45.1252 56.1141 45.1252 56.2204 45.2377 56.2876L46.3793 56.9421C46.4918 57.0092 46.6774 57.0092 46.7898 56.9421L47.9259 56.2876C48.0383 56.2204 48.0383 56.1141 47.9259 56.047Z" fill="#F4F5FA"/>
<path d="M49.7032 55.0177L48.5616 54.3632C48.4491 54.2961 48.2635 54.2961 48.151 54.3632L47.015 55.0177C46.9025 55.0848 46.9025 55.1911 47.015 55.2583L48.1567 55.9128C48.2691 55.9799 48.4547 55.9799 48.5672 55.9128L49.7032 55.2583C49.8157 55.1911 49.8157 55.0848 49.7032 55.0177Z" fill="#F4F5FA"/>
<path d="M51.6436 53.8989L50.502 53.2444C50.3895 53.1772 50.2039 53.1772 50.0858 53.2444L48.7924 53.994C48.6799 54.0611 48.6799 54.1674 48.7924 54.2345L49.934 54.889C50.0465 54.9562 50.2321 54.9562 50.3445 54.889L51.638 54.1394C51.7505 54.0723 51.7505 53.966 51.638 53.8989H51.6436Z" fill="#F4F5FA"/>
<path d="M40.784 58.0889L39.6424 57.4343C39.5299 57.3672 39.3443 57.3672 39.2262 57.4343L38.0902 58.0889C37.9777 58.156 37.9777 58.2623 38.0902 58.3294L39.2318 58.9839C39.3443 59.051 39.5299 59.051 39.6424 58.9839L40.7784 58.3294C40.8909 58.2623 40.8909 58.156 40.7784 58.0889H40.784Z" fill="#F4F5FA"/>
<path d="M42.5614 57.0596L41.4197 56.4051C41.3073 56.3379 41.1217 56.3379 41.0036 56.4051L39.8676 57.0596C39.7551 57.1267 39.7551 57.233 39.8676 57.3001L41.0092 57.9546C41.1217 58.0217 41.3073 58.0217 41.4197 57.9546L42.5557 57.3001C42.6682 57.233 42.6682 57.1267 42.5557 57.0596H42.5614Z" fill="#F4F5FA"/>
<path d="M42.5948 59.1294L41.4532 58.4748C41.3407 58.4077 41.1551 58.4077 41.0426 58.4748L39.9066 59.1294C39.7941 59.1965 39.7941 59.3028 39.9066 59.3699L41.0483 60.0244C41.1607 60.0915 41.3463 60.0915 41.4588 60.0244L42.5948 59.3699C42.7073 59.3028 42.7073 59.1965 42.5948 59.1294Z" fill="#F4F5FA"/>
<path d="M44.3721 58.1001L43.2305 57.4455C43.118 57.3784 42.9325 57.3784 42.82 57.4455L41.684 58.1001C41.5715 58.1672 41.5715 58.2735 41.684 58.3406L42.8256 58.9951C42.9381 59.0622 43.1237 59.0622 43.2361 58.9951L44.3721 58.3406C44.4846 58.2735 44.4846 58.1672 44.3721 58.1001Z" fill="#F4F5FA"/>
<path d="M37.2293 60.1419L36.0877 59.4874C35.9752 59.4203 35.7896 59.4203 35.6715 59.4874L34.5355 60.1419C34.4231 60.209 34.4231 60.3153 34.5355 60.3824L35.6772 61.037C35.7896 61.1041 35.9752 61.1041 36.0877 61.037L37.2237 60.3824C37.3362 60.3153 37.3362 60.209 37.2237 60.1419H37.2293Z" fill="#F4F5FA"/>
<path d="M39.0067 59.1126L37.865 58.4581C37.7526 58.3909 37.567 58.3909 37.4489 58.4581L36.3129 59.1126C36.2004 59.1797 36.2004 59.286 36.3129 59.3531L37.4545 60.0076C37.567 60.0747 37.7526 60.0747 37.865 60.0076L39.0011 59.3531C39.1135 59.286 39.1135 59.1797 39.0011 59.1126H39.0067Z" fill="#F4F5FA"/>
<path d="M39.0457 61.1824L37.9041 60.5279C37.7916 60.4608 37.606 60.4608 37.4879 60.5279L36.3519 61.1824C36.2395 61.2495 36.2395 61.3558 36.3519 61.4229L37.4936 62.0774C37.606 62.1446 37.7916 62.1446 37.9041 62.0774L39.0401 61.4229C39.1526 61.3558 39.1526 61.2495 39.0401 61.1824H39.0457Z" fill="#F4F5FA"/>
<path d="M40.8231 60.1587L39.6814 59.5042C39.569 59.437 39.3834 59.437 39.2653 59.5042L38.1293 60.1587C38.0168 60.2258 38.0168 60.3321 38.1293 60.3992L39.2709 61.0537C39.3834 61.1209 39.569 61.1209 39.6814 61.0537L40.8175 60.3992C40.9299 60.3321 40.9299 60.2258 40.8175 60.1587H40.8231Z" fill="#F4F5FA"/>
<path d="M33.6756 62.1949L32.534 61.5404C32.4215 61.4733 32.2359 61.4733 32.1178 61.5404L30.9818 62.1949C30.8693 62.262 30.8693 62.3683 30.9818 62.4354L32.1235 63.09C32.2359 63.1571 32.4215 63.1571 32.534 63.09L33.67 62.4354C33.7825 62.3683 33.7825 62.262 33.67 62.1949H33.6756Z" fill="#F4F5FA"/>
<path d="M35.452 61.1712L34.3104 60.5167C34.1979 60.4496 34.0123 60.4496 33.8942 60.5167L32.7582 61.1712C32.6457 61.2383 32.6457 61.3446 32.7582 61.4117L33.8998 62.0662C34.0123 62.1334 34.1979 62.1334 34.3104 62.0662L35.4464 61.4117C35.5588 61.3446 35.5588 61.2383 35.4464 61.1712H35.452Z" fill="#F4F5FA"/>
<path d="M35.492 63.2354L34.3504 62.5809C34.2379 62.5138 34.0523 62.5138 33.9342 62.5809L32.7982 63.2354C32.6857 63.3026 32.6857 63.4088 32.7982 63.476L33.9399 64.1305C34.0523 64.1976 34.2379 64.1976 34.3504 64.1305L35.4864 63.476C35.5989 63.4088 35.5989 63.3026 35.4864 63.2354H35.492Z" fill="#F4F5FA"/>
<path d="M37.2694 62.2117L36.1277 61.5572C36.0153 61.4901 35.8297 61.4901 35.7116 61.5572L34.5756 62.2117C34.4631 62.2788 34.4631 62.3851 34.5756 62.4522L35.7172 63.1067C35.8297 63.1739 36.0153 63.1739 36.1277 63.1067L37.2638 62.4522C37.3762 62.3851 37.3762 62.2788 37.2638 62.2117H37.2694Z" fill="#F4F5FA"/>
<path d="M30.1209 64.2535L28.9793 63.599C28.8668 63.5319 28.6812 63.5319 28.5631 63.599L27.4271 64.2535C27.3147 64.3207 27.3147 64.4269 27.4271 64.4941L28.5688 65.1486C28.6812 65.2157 28.8668 65.2157 28.9793 65.1486L30.1153 64.4941C30.2278 64.4269 30.2278 64.3207 30.1153 64.2535H30.1209Z" fill="#F4F5FA"/>
<path d="M31.8983 63.2242L30.7566 62.5697C30.6442 62.5026 30.4586 62.5026 30.3405 62.5697L29.2045 63.2242C29.092 63.2914 29.092 63.3976 29.2045 63.4648L30.3461 64.1193C30.4586 64.1864 30.6442 64.1864 30.7566 64.1193L31.8927 63.4648C32.0051 63.3976 32.0051 63.2914 31.8927 63.2242H31.8983Z" fill="#F4F5FA"/>
<path d="M31.9373 65.294L30.7957 64.6395C30.6832 64.5724 30.4976 64.5724 30.3795 64.6395L29.2435 65.294C29.1311 65.3612 29.1311 65.4674 29.2435 65.5346L30.3852 66.1891C30.4976 66.2562 30.6832 66.2562 30.7957 66.1891L31.9317 65.5346C32.0442 65.4674 32.0442 65.3612 31.9317 65.294H31.9373Z" fill="#F4F5FA"/>
<path d="M33.7147 64.2647L32.5731 63.6102C32.4606 63.5431 32.275 63.5431 32.1569 63.6102L31.0209 64.2647C30.9084 64.3319 30.9084 64.4381 31.0209 64.5053L32.1625 65.1598C32.275 65.2269 32.4606 65.2269 32.5731 65.1598L33.7091 64.5053C33.8215 64.4381 33.8215 64.3319 33.7091 64.2647H33.7147Z" fill="#F4F5FA"/>
<path d="M48.0555 58.0329L46.9139 57.3784C46.8014 57.3113 46.6158 57.3113 46.4977 57.3784L45.3617 58.0329C45.2492 58.1 45.2492 58.2063 45.3617 58.2735L46.5033 58.928C46.6158 58.9951 46.8014 58.9951 46.9195 58.928L48.0555 58.2735C48.168 58.2063 48.168 58.1 48.0555 58.0329Z" fill="#F4F5FA"/>
<path d="M49.8321 57.0092L48.6905 56.3547C48.578 56.2876 48.3924 56.2876 48.2799 56.3547L47.1439 57.0092C47.0315 57.0763 47.0315 57.1826 47.1439 57.2497L48.2856 57.9043C48.398 57.9714 48.5836 57.9714 48.7017 57.9043L49.8377 57.2497C49.9502 57.1826 49.9502 57.0763 49.8377 57.0092H49.8321Z" fill="#F4F5FA"/>
<path d="M53.4315 54.9282L52.2899 54.2737C52.1774 54.2066 51.9918 54.2066 51.8737 54.2737L50.7377 54.9282C50.6252 54.9953 50.6252 55.1016 50.7377 55.1688L51.8793 55.8233C51.9918 55.8904 52.1774 55.8904 52.2955 55.8233L53.4315 55.1688C53.544 55.1016 53.544 54.9953 53.4315 54.9282Z" fill="#F4F5FA"/>
<path d="M58.144 53.9828L64.6901 50.2236C65.1512 49.9607 65.095 49.4964 64.5607 49.1943L55.692 44.1037C55.1577 43.796 54.3535 43.7625 53.898 44.031L47.3519 47.7902C46.8907 48.0531 46.947 48.5174 47.4812 48.8195L56.35 53.9101C56.8842 54.2178 57.6884 54.2513 58.144 53.9828Z" fill="#57565E"/>
<path d="M56.2481 50.6711C56.2481 50.6711 53.38 48.9929 53.1325 48.8083C52.5477 48.3608 52.677 48.1314 52.9188 47.8126C53.1606 47.4937 54.5216 46.5427 56.1413 46.8392C57.7609 47.1357 59.1613 48.8754 59.2737 49.267C59.3862 49.6586 59.2737 49.9495 58.672 50.2684C58.0759 50.5872 57.1648 51.1019 56.2369 50.6711H56.2481Z" fill="#C5C9D8"/>
<path d="M56.2598 50.3243C56.2598 50.3243 53.2623 48.5734 53.0036 48.372C52.3906 47.9077 52.5255 47.6615 52.7786 47.3315C53.0317 47.0014 54.4545 46.0057 56.1529 46.3134C57.8513 46.621 59.3135 48.4447 59.4316 48.8531C59.5497 49.2614 59.4316 49.5691 58.8073 49.8992C58.1831 50.2348 57.2327 50.7662 56.2654 50.3187L56.2598 50.3243Z" fill="#E5E8F5"/>
<path d="M39.6813 48.2713L31.195 43.3708C30.6776 43.0744 25.0369 42.8953 24.5195 43.1918C24.3396 43.231 24.1709 43.2869 24.0303 43.3708L0.382148 56.9029C-0.129618 57.1994 -0.129618 57.6805 0.387772 57.977L8.8741 62.8774C8.97533 62.9333 9.09905 62.9781 9.22278 63.0005C9.59957 63.2242 15.1559 63.09 15.5327 62.8774L39.6813 49.0544C40.0581 48.8363 40.0525 48.4838 39.6813 48.2657V48.2713Z" fill="#F5F2E8"/>
<path d="M33.028 49.2502L25.194 44.7526C24.3842 44.2883 23.9456 43.3708 24.0974 42.4534L25.9308 30.1297L21.4542 32.7029L13.9858 48.3328C13.5134 49.3453 13.9014 50.5536 14.8743 51.1074L21.9716 55.1855C23.5463 56.0918 25.4921 56.0918 27.0668 55.1855L33.028 51.762C34.0009 51.2025 34.0009 49.8096 33.028 49.2502Z" fill="#C4C8D8"/>
<path d="M32.9775 50.9564L27.0163 54.38C25.4416 55.2862 23.4958 55.2862 21.9211 54.38L15.3413 50.5984C14.6102 50.1788 14.3234 49.2782 14.6777 48.523L22.3542 32.44L26.8363 29.8668L25.003 42.1905C24.8568 43.1079 25.2954 44.0198 26.1052 44.4841L32.9888 48.4391C33.9617 48.9985 33.9617 50.3914 32.9888 50.9508L32.9775 50.9564Z" fill="#E7E7F0"/>
<path d="M39.7601 27.5396L38.9671 1.46564L39.5858 0.553805L38.4722 0.0615264C38.2417 -0.0335729 37.938 -0.00560254 37.6174 0.179002L4.31322 19.2996C3.59899 19.7079 3.04224 20.7093 3.07036 21.5372L3.88018 48.1426L3.90268 48.8698C3.92518 49.5299 4.20074 49.9663 4.6169 50.1229L5.69668 50.604L6.37716 49.6027L38.028 31.4275C39.0346 30.8513 39.822 29.436 39.7882 28.2669L39.7657 27.5396H39.7601Z" fill="url(#paint0_linear_1064_2282)"/>
<path d="M4.18945 22.0351L5.02178 49.3677C5.05552 50.5369 5.90472 51.0124 6.90575 50.4362L39.1414 31.9254C40.1481 31.3492 40.9354 29.9339 40.9017 28.7647L40.8792 28.0375L4.99928 48.6405L4.18945 22.0351Z" fill="#D3D3E3"/>
<path d="M38.7368 0.671278L5.43822 19.7974C4.72399 20.2058 4.16724 21.2071 4.19536 22.035L5.00518 48.6405L40.8851 28.0319L40.0753 1.42648C40.0528 0.598555 39.451 0.257316 38.7424 0.671278H38.7368Z" fill="#494855"/>
<path d="M39.2987 1.35376L4.93164 21.0897L5.7021 46.291L40.0636 26.5551L39.2987 1.35376Z" fill="#393F42"/>
<path d="M40.0187 25.0503L5.65723 44.7862L5.70222 46.291L40.0637 26.5551L40.0187 25.0503Z" fill="#C4C8D8"/>
<path d="M32.9781 50.9564L27.0168 54.38C25.4422 55.2863 23.4963 55.2863 21.9217 54.38L15.3418 50.5984L26.1001 44.4897L32.9837 48.4447C33.9566 49.0041 33.9566 50.397 32.9837 50.9564H32.9781Z" fill="#EFF0F5"/>
<path d="M33.2534 10.942L12.7939 22.6952L13.2495 37.7041L33.7145 25.9509L33.2534 10.942Z" fill="#EFF0F5"/>
<path d="M33.2534 10.942L12.7939 22.6952L12.8727 25.2349L33.349 13.4761L33.2534 10.942Z" fill="#D9DBE6"/>
<path d="M14.8464 22.5553L13.5586 23.2937L13.5923 24.2391L14.8802 23.5007L14.8464 22.5553Z" fill="#FC797E"/>
<path d="M8.58776 27.0473L7.56985 27.6291C7.49674 27.6683 7.43488 27.6571 7.41238 27.59L7.39551 27.5396C7.37301 27.4725 7.30553 27.4613 7.23804 27.5005L6.32136 28.0263C6.24825 28.0711 6.18077 28.1662 6.15827 28.2613L6.11891 28.4347C6.11891 28.4347 6.11328 28.4738 6.11328 28.4906V30.2751C6.11328 30.3534 6.16952 30.387 6.23701 30.3478L8.62712 28.9717C8.69461 28.9325 8.75085 28.8374 8.75085 28.7535V27.1313C8.75085 27.025 8.67774 26.9802 8.58213 27.0362L8.58776 27.0473Z" fill="#FFE568"/>
<path d="M8.62712 27.1928L6.23701 28.5689C6.16952 28.6081 6.11328 28.7032 6.11328 28.7871V30.2863C6.11328 30.3646 6.16952 30.3982 6.23701 30.359L8.62712 28.9829C8.69461 28.9437 8.75085 28.8486 8.75085 28.7647V27.2655C8.75085 27.1872 8.69461 27.1536 8.62712 27.1928Z" fill="#FFEC8B"/>
<path d="M8.58776 23.014L7.56985 23.5958C7.49674 23.635 7.43488 23.6238 7.41238 23.5566L7.39551 23.5063C7.37301 23.4392 7.30553 23.428 7.23804 23.4671L6.32136 23.993C6.24825 24.0377 6.18077 24.1328 6.15827 24.2279L6.11891 24.4014C6.11891 24.4014 6.11328 24.4405 6.11328 24.4573V26.2418C6.11328 26.3201 6.16952 26.3537 6.23701 26.3145L8.62712 24.9384C8.69461 24.8992 8.75085 24.8041 8.75085 24.7202V23.0979C8.75085 22.9916 8.67774 22.9469 8.58213 23.0028L8.58776 23.014Z" fill="#FFE568"/>
<path d="M8.62712 23.1595L6.23701 24.5356C6.16952 24.5748 6.11328 24.6699 6.11328 24.7538V26.253C6.11328 26.3313 6.16952 26.3649 6.23701 26.3257L8.62712 24.9496C8.69461 24.9104 8.75085 24.8153 8.75085 24.7314V23.2322C8.75085 23.1539 8.69461 23.1203 8.62712 23.1595Z" fill="#FFEC8B"/>
<path d="M37.3983 5.04027L36.3804 5.62205C36.3073 5.66121 36.2454 5.65002 36.2229 5.58289L36.2061 5.53254C36.1836 5.46541 36.1161 5.45423 36.0486 5.49338L35.1319 6.01923C35.0588 6.06398 34.9913 6.15908 34.9688 6.25418L34.9295 6.4276C34.9295 6.4276 34.9238 6.46675 34.9238 6.48354V8.26805C34.9238 8.34636 34.9801 8.37993 35.0476 8.34077L37.4377 6.96463C37.5052 6.92547 37.5614 6.83037 37.5614 6.74646V5.12418C37.5614 5.01789 37.4883 4.97314 37.3927 5.02908L37.3983 5.04027Z" fill="#FFE568"/>
<path d="M37.4435 5.18572L35.0534 6.56186C34.9859 6.60102 34.9297 6.69612 34.9297 6.78003V8.27924C34.9297 8.35756 34.9859 8.39112 35.0534 8.35197L37.4435 6.97582C37.511 6.93666 37.5673 6.84156 37.5673 6.75765V5.25844C37.5673 5.18012 37.511 5.14656 37.4435 5.18572Z" fill="#FFEC8B"/>
<g style="mix-blend-mode:screen">
<path d="M13.1816 43.947L26.8081 36.1209L30.4636 5.42624L16.8371 13.2524L13.1816 43.947Z" fill="#323333"/>
</g>
</g>
<defs>
<linearGradient id="paint0_linear_1064_2282" x1="6.29842" y1="51.1019" x2="36.3871" y2="-1.28494" gradientUnits="userSpaceOnUse">
<stop offset="0.01" stop-color="#A0A6C0"/>
<stop offset="0.4" stop-color="#A2A8C1"/>
<stop offset="0.41" stop-color="#C4C7D9"/>
<stop offset="0.42" stop-color="#C9CCDC"/>
<stop offset="0.43" stop-color="#E7E7F0"/>
</linearGradient>
<clipPath id="clip0_1064_2282">
<rect width="65" height="71" fill="white"/>
</clipPath>
</defs>
</svg>
