<svg width="70" height="42" viewBox="0 0 70 42" fill="none" xmlns="http://www.w3.org/2000/svg">
<g clip-path="url(#clip0_1064_2808)">
<path d="M20.5371 40.637L1.03785 29.4474C-0.493357 28.5672 -0.304678 27.0161 1.466 25.9988L41.1685 3.20822C42.9392 2.19097 45.646 2.08276 47.1772 2.96292L66.6837 14.1598C68.2149 15.04 68.0262 16.5911 66.2556 17.6084L26.5531 40.399C24.7824 41.4162 22.0756 41.5244 20.5444 40.6443L20.5371 40.637Z" fill="#F5F2E8"/>
<path d="M22.9387 41.2286H25.5003L23.4974 22.1679L18.6426 37.91L22.9387 41.2286Z" fill="#F5F2E8"/>
<path d="M69.9997 13.525L68.7732 14.0444L49.4626 2.96292C47.9314 2.08276 45.2246 2.19097 43.4539 3.20822L3.74421 25.9988C3.66439 26.0421 3.59182 26.0926 3.52651 26.1359L2.27832 25.7752V27.9828C2.29283 28.5383 2.62665 29.0578 3.3088 29.4546L22.8153 40.6515C24.3465 41.5316 27.0534 41.4234 28.824 40.4062L68.5265 17.6156C69.4772 17.0673 69.9706 16.3675 69.9851 15.6965V13.5322L69.9997 13.525Z" fill="url(#paint0_linear_1064_2808)"/>
<path d="M22.8154 38.5088L3.31617 27.3191C1.78496 26.4389 1.97364 24.8878 3.74432 23.8705L43.4468 1.07994C45.2175 0.0626922 47.9243 -0.0455252 49.4555 0.834644L68.962 12.0315C70.4932 12.9117 70.3046 14.4628 68.5339 15.4801L28.8314 38.2707C27.0607 39.2879 24.3539 39.3961 22.8227 38.516L22.8154 38.5088Z" fill="url(#paint1_linear_1064_2808)"/>
<path d="M67.7717 15.1987L55.8123 22.0597L28.3377 37.8234C26.8573 38.6747 24.5932 38.7685 23.3087 38.0326L4.14323 27.0305C2.85876 26.2946 3.02567 24.996 4.50607 24.1447L31.9807 8.38101L43.94 1.51281C45.4204 0.661498 47.6846 0.567709 48.9691 1.30359L68.1345 12.3057C69.419 13.0416 69.2521 14.3402 67.7717 15.1915V15.1987Z" fill="#EFF0F5"/>
<path d="M67.7717 15.1987L57.583 21.0497C56.4945 21.6773 55.1447 21.6773 54.0562 21.0497L33.5337 9.2684C32.8443 8.8716 32.8443 7.88321 33.5337 7.48641L43.94 1.51281C45.4204 0.661498 47.6846 0.567709 48.9691 1.30359L68.1345 12.3057C69.419 13.0416 69.2521 14.3402 67.7717 15.1915V15.1987Z" fill="#393F42"/>
<path d="M45.8269 3.55451C46.3204 3.83588 47.1332 3.83588 47.6266 3.55451C48.1201 3.27315 48.1274 2.8042 47.6266 2.52284C47.1259 2.24147 46.3204 2.24147 45.8269 2.52284C45.3335 2.8042 45.3262 3.27315 45.8269 3.55451Z" fill="#EFF0F5"/>
<path d="M45.9142 3.50401C46.3641 3.76374 47.097 3.76374 47.5542 3.50401C48.0042 3.24429 48.0114 2.82585 47.5542 2.56613C47.1043 2.30641 46.3714 2.30641 45.9142 2.56613C45.457 2.82585 45.457 3.24429 45.9142 3.50401Z" fill="#838383"/>
<path d="M46.0807 3.41022C46.4436 3.61944 47.0241 3.61223 47.387 3.41022C47.7498 3.20822 47.7498 2.86913 47.387 2.65991C47.0241 2.45069 46.4436 2.45791 46.0807 2.65991C45.7179 2.86913 45.7179 3.201 46.0807 3.41022Z" fill="#B6B3F6"/>
<path d="M47.1914 2.93407C46.9446 2.78978 46.5382 2.78978 46.2842 2.93407C46.0303 3.07836 46.0303 3.30922 46.2842 3.45351C46.531 3.5978 46.9374 3.5978 47.1914 3.45351C47.4453 3.30922 47.4453 3.07836 47.1914 2.93407Z" fill="#D9D8FA"/>
<path d="M46.9445 3.07114C46.8284 3.00621 46.6397 3.00621 46.5236 3.07114C46.4075 3.13607 46.4075 3.24429 46.5236 3.30922C46.6397 3.37415 46.8284 3.37415 46.9445 3.30922C47.0606 3.24429 47.0606 3.13607 46.9445 3.07114Z" fill="#AFACF5"/>
<path d="M43.9114 4.65834C44.2307 4.8387 44.7459 4.8387 45.0652 4.65834C45.3845 4.47797 45.3845 4.17496 45.0652 3.9946C44.7459 3.81424 44.2307 3.81424 43.9114 3.9946C43.592 4.17496 43.592 4.47797 43.9114 4.65834Z" fill="#FFE56F"/>
<path d="M43.9108 4.20381C44.2301 4.02344 44.7453 4.01623 45.0646 4.20381C45.1735 4.26874 45.246 4.3481 45.2823 4.42746C45.3404 4.27595 45.2751 4.11002 45.0646 3.99459C44.7453 3.81422 44.2301 3.81422 43.9108 3.99459C43.7003 4.11723 43.635 4.28317 43.6931 4.43467C43.7294 4.3481 43.7947 4.26874 43.9108 4.20381Z" fill="#BA8900"/>
<path d="M42.4455 5.4375C42.5616 5.50243 42.743 5.50243 42.8591 5.4375C42.9752 5.37257 42.9752 5.26435 42.8591 5.19942C42.743 5.13449 42.5616 5.13449 42.4455 5.19942C42.3294 5.26435 42.3294 5.37257 42.4455 5.4375Z" fill="#121822"/>
<path d="M65.4936 18.9214L62.6416 20.5591C62.4094 20.689 62.2207 20.5519 62.2207 20.2417C62.2207 19.9314 62.4094 19.5707 62.6416 19.4409L65.4936 17.8032C65.7258 17.6733 65.9145 17.8104 65.9145 18.1206C65.9145 18.4308 65.7258 18.7915 65.4936 18.9214Z" fill="#EFF0F5"/>
<path d="M65.7113 19.0585L62.8594 20.6962C62.6272 20.826 62.4385 20.689 62.4385 20.3787C62.4385 20.0685 62.6272 19.7078 62.8594 19.5779L65.7113 17.9402C65.9436 17.8104 66.1322 17.9474 66.1322 18.2577C66.1322 18.5679 65.9436 18.9286 65.7113 19.0585Z" fill="#DFE0EA"/>
<path d="M47.3578 29.3247L44.5059 30.9624C44.2736 31.0922 44.085 30.9552 44.085 30.645C44.085 30.3347 44.2736 29.974 44.5059 29.8441L47.3578 28.2064C47.59 28.0766 47.7787 28.2137 47.7787 28.5239C47.7787 28.8341 47.59 29.1948 47.3578 29.3247Z" fill="#494E55"/>
<path d="M47.5756 29.4618L44.7236 31.0995C44.4914 31.2293 44.3027 31.0922 44.3027 30.782C44.3027 30.4718 44.4914 30.1111 44.7236 29.9812L47.5756 28.3435C47.8078 28.2137 47.9965 28.3507 47.9965 28.661C47.9965 28.9712 47.8078 29.3319 47.5756 29.4618Z" fill="#393F42"/>
<path d="M11.7046 33.6822L14.1502 35.0891C14.3534 35.2045 14.5131 35.0819 14.5131 34.8149C14.5131 34.548 14.3534 34.2378 14.1502 34.1223L11.7046 32.7155C11.5087 32.6001 11.3418 32.7227 11.3418 32.9897C11.3418 33.2566 11.5087 33.5668 11.7046 33.6822Z" fill="#A0A6C0"/>
<path d="M14.4915 34.6274L12.2854 33.3576C12.133 33.271 12.0024 33.069 11.9443 32.8598L14.1504 34.1223C14.3028 34.2089 14.4335 34.4181 14.4915 34.6274Z" fill="#191F28"/>
<path d="M36.2477 18.2432C37.4161 18.9142 39.3101 18.907 40.4858 18.236C41.6614 17.5651 41.6614 16.4757 40.5003 15.8047C39.3319 15.1338 37.4379 15.141 36.2622 15.8119C35.0866 16.4829 35.0794 17.5723 36.2477 18.2432Z" fill="#838383"/>
<path d="M36.2477 18.2432C37.4161 18.9142 39.3101 18.907 40.4858 18.236C41.6614 17.5651 41.6614 16.4757 40.5003 15.8047C39.3319 15.1338 37.4379 15.141 36.2622 15.8119C35.0866 16.4829 35.0794 17.5723 36.2477 18.2432Z" fill="#D9DBE6"/>
<path d="M36.2621 16.4612C37.4378 15.7903 39.3318 15.7831 40.5002 16.454C40.9356 16.7065 41.2113 17.0096 41.3129 17.3342C41.4944 16.7931 41.2186 16.216 40.5002 15.7975C39.3318 15.1266 37.4378 15.1338 36.2621 15.8047C35.5292 16.2232 35.2534 16.8075 35.4349 17.3558C35.5437 17.024 35.8195 16.7138 36.2621 16.4612Z" fill="#C4C8D8"/>
<path d="M68.9473 13.2364H40.435L33.5337 9.27561C32.8443 8.87881 32.8443 7.89043 33.5337 7.49363L35.3551 6.44753H57.9168L68.1345 12.3129C68.5845 12.5654 68.853 12.8901 68.9473 13.2364Z" fill="#393F42"/>
<path d="M65.5657 16.4612L58.6716 20.4148H52.9532L46.0664 16.4612H65.5657Z" fill="#393F42"/>
</g>
<defs>
<linearGradient id="paint0_linear_1064_2808" x1="2.27832" y1="21.8072" x2="69.9997" y2="21.8072" gradientUnits="userSpaceOnUse">
<stop stop-color="#B4B9CD"/>
<stop offset="0.01" stop-color="#A0A6C0"/>
<stop offset="0.3" stop-color="#A0A6C0"/>
<stop offset="0.31" stop-color="#A3A9C2"/>
<stop offset="0.33" stop-color="#B5BACE"/>
<stop offset="0.35" stop-color="#C0C4D5"/>
<stop offset="0.37" stop-color="#C4C8D8"/>
<stop offset="0.95" stop-color="#C4C8D8"/>
<stop offset="1" stop-color="#C4C8D8"/>
</linearGradient>
<linearGradient id="paint1_linear_1064_2808" x1="35.1812" y1="42.6715" x2="36.3431" y2="14.4478" gradientUnits="userSpaceOnUse">
<stop stop-color="#C4C7D8"/>
<stop offset="0.54" stop-color="#D9DBE6"/>
<stop offset="1" stop-color="#E5E6EE"/>
</linearGradient>
<clipPath id="clip0_1064_2808">
<rect width="70" height="41" fill="white" transform="translate(0 0.23584)"/>
</clipPath>
</defs>
</svg>
