<svg width="83" height="50" viewBox="0 0 83 50" fill="none" xmlns="http://www.w3.org/2000/svg">
<g clip-path="url(#clip0_1064_823)">
<path d="M27.8818 49.3348H30.8474V38.559L27.8818 49.3348Z" fill="#F5F2E8"/>
<mask id="mask0_1064_823" style="mask-type:luminance" maskUnits="userSpaceOnUse" x="3" y="3" width="80" height="47">
<path d="M82.8928 16.3286L81.4568 16.9473L58.8457 3.74819C57.0528 2.69983 53.8833 2.82872 51.81 4.04036L5.31312 31.1861C5.21965 31.2377 5.13468 31.2978 5.0582 31.3494L3.59668 30.9197V33.5492C3.61367 34.2109 4.00455 34.8296 4.80329 35.3022L27.6438 48.6388C29.4368 49.6872 32.6062 49.5583 34.6796 48.3466L81.1679 21.2009C82.281 20.5478 82.8589 19.7143 82.8758 18.9151V16.3372L82.8928 16.3286Z" fill="white"/>
</mask>
<g mask="url(#mask0_1064_823)">
<path d="M3.63067 2.69983H3.59668V49.6786H3.63067V2.69983Z" fill="#C4C8D8"/>
<path d="M3.66485 2.69983H3.63086V49.6786H3.66485V2.69983Z" fill="#C4C8D8"/>
<path d="M3.69024 2.69983H3.65625V49.6786H3.69024V2.69983Z" fill="#C4C8D8"/>
<path d="M3.72442 2.69983H3.69043V49.6786H3.72442V2.69983Z" fill="#C4C8D8"/>
<path d="M3.74981 2.69983H3.71582V49.6786H3.74981V2.69983Z" fill="#C4C8D8"/>
<path d="M3.78399 2.69983H3.75V49.6786H3.78399V2.69983Z" fill="#C3C7D8"/>
<path d="M3.81719 2.69983H3.7832V49.6786H3.81719V2.69983Z" fill="#C3C7D7"/>
<path d="M3.84356 2.69983H3.80957V49.6786H3.84356V2.69983Z" fill="#C3C7D7"/>
<path d="M3.87676 2.69983H3.84277V49.6786H3.87676V2.69983Z" fill="#C2C6D7"/>
<path d="M3.90215 2.69983H3.86816V49.6786H3.90215V2.69983Z" fill="#C2C6D6"/>
<path d="M3.93633 2.69983H3.90234V49.6786H3.93633V2.69983Z" fill="#C1C5D6"/>
<path d="M3.97051 2.69983H3.93652V49.6786H3.97051V2.69983Z" fill="#C1C5D6"/>
<path d="M3.9959 2.69983H3.96191V49.6786H3.9959V2.69983Z" fill="#C0C4D5"/>
<path d="M4.03008 2.69983H3.99609V49.6786H4.03008V2.69983Z" fill="#BFC3D5"/>
<path d="M4.05547 2.69983H4.02148V49.6786H4.05547V2.69983Z" fill="#BEC3D4"/>
<path d="M4.08965 2.69983H4.05566V49.6786H4.08965V2.69983Z" fill="#BEC2D4"/>
<path d="M4.11504 2.69983H4.08105V49.6786H4.11504V2.69983Z" fill="#BDC1D3"/>
<path d="M4.14922 2.69983H4.11523V49.6786H4.14922V2.69983Z" fill="#BCC0D2"/>
<path d="M4.1834 2.69983H4.14941V49.6786H4.1834V2.69983Z" fill="#BBBFD2"/>
<path d="M4.20879 2.69983H4.1748V49.6786H4.20879V2.69983Z" fill="#BABED1"/>
<path d="M4.242 2.69983H4.20801V49.6786H4.242V2.69983Z" fill="#B8BDD0"/>
<path d="M4.26836 2.69983H4.23438V49.6786H4.26836V2.69983Z" fill="#B7BCCF"/>
<path d="M4.30157 2.69983H4.26758V49.6786H4.30157V2.69983Z" fill="#B6BBCF"/>
<path d="M4.33575 2.69983H4.30176V49.6786H4.33575V2.69983Z" fill="#B5B9CE"/>
<path d="M4.36114 2.69983H4.32715V49.6786H4.36114V2.69983Z" fill="#B3B8CD"/>
<path d="M4.39532 2.69983H4.36133V49.6786H4.39532V2.69983Z" fill="#B2B7CC"/>
<path d="M4.42071 2.69983H4.38672V49.6786H4.42071V2.69983Z" fill="#B0B5CB"/>
<path d="M4.45489 2.69983H4.4209V49.6786H4.45489V2.69983Z" fill="#AFB4CA"/>
<path d="M4.48907 2.69983H4.45508V49.6786H4.48907V2.69983Z" fill="#ADB2C9"/>
<path d="M4.51446 2.69983H4.48047V49.6786H4.51446V2.69983Z" fill="#ABB1C8"/>
<path d="M4.54864 2.69983H4.51465V49.6786H4.54864V2.69983Z" fill="#AAAFC6"/>
<path d="M4.57403 2.69983H4.54004V49.6786H4.57403V2.69983Z" fill="#A8ADC5"/>
<path d="M4.60821 2.69983H4.57422V49.6786H4.60821V2.69983Z" fill="#A6ACC4"/>
<path d="M4.64141 2.69983H4.60742V49.6786H4.64141V2.69983Z" fill="#A4AAC3"/>
<path d="M4.66778 2.69983H4.63379V49.6786H4.66778V2.69983Z" fill="#A2A8C1"/>
<path d="M4.70098 2.69983H4.66699V49.6786H4.70098V2.69983Z" fill="#A0A6C0"/>
<path d="M27.7369 2.69983H4.69238V49.6786H27.7369V2.69983Z" fill="#A0A6C0"/>
<path d="M27.8905 2.69983H27.7461V49.6786H27.8905V2.69983Z" fill="#A0A6C0"/>
<path d="M28.0351 2.69983H27.8906V49.6786H28.0351V2.69983Z" fill="#A2A8C1"/>
<path d="M28.1874 2.69983H28.043V49.6786H28.1874V2.69983Z" fill="#A4AAC3"/>
<path d="M28.332 2.69983H28.1875V49.6786H28.332V2.69983Z" fill="#A6ACC4"/>
<path d="M28.4765 2.69983H28.332V49.6786H28.4765V2.69983Z" fill="#A8AEC6"/>
<path d="M28.6298 2.69983H28.4854V49.6786H28.6298V2.69983Z" fill="#AAB0C7"/>
<path d="M28.7743 2.69983H28.6299V49.6786H28.7743V2.69983Z" fill="#ACB2C8"/>
<path d="M28.9189 2.69983H28.7744V49.6786H28.9189V2.69983Z" fill="#AEB3C9"/>
<path d="M29.0712 2.69983H28.9268V49.6786H29.0712V2.69983Z" fill="#B0B5CA"/>
<path d="M29.2157 2.69983H29.0713V49.6786H29.2157V2.69983Z" fill="#B1B6CC"/>
<path d="M29.3603 2.69983H29.2158V49.6786H29.3603V2.69983Z" fill="#B3B8CD"/>
<path d="M29.5136 2.69983H29.3691V49.6786H29.5136V2.69983Z" fill="#B4B9CE"/>
<path d="M29.6581 2.69983H29.5137V49.6786H29.6581V2.69983Z" fill="#B6BACE"/>
<path d="M29.8017 2.69983H29.6572V49.6786H29.8017V2.69983Z" fill="#B7BCCF"/>
<path d="M29.955 2.69983H29.8105V49.6786H29.955V2.69983Z" fill="#B8BDD0"/>
<path d="M30.0995 2.69983H29.9551V49.6786H30.0995V2.69983Z" fill="#B9BED1"/>
<path d="M30.2528 2.69983H30.1084V49.6786H30.2528V2.69983Z" fill="#BBBFD2"/>
<path d="M30.3974 2.69983H30.2529V49.6786H30.3974V2.69983Z" fill="#BCC0D2"/>
<path d="M30.5409 2.69983H30.3965V49.6786H30.5409V2.69983Z" fill="#BDC1D3"/>
<path d="M30.6943 2.69983H30.5498V49.6786H30.6943V2.69983Z" fill="#BEC2D4"/>
<path d="M30.8388 2.69983H30.6943V49.6786H30.8388V2.69983Z" fill="#BEC3D4"/>
<path d="M30.9833 2.69983H30.8389V49.6786H30.9833V2.69983Z" fill="#BFC3D5"/>
<path d="M31.1366 2.69983H30.9922V49.6786H31.1366V2.69983Z" fill="#C0C4D5"/>
<path d="M31.2802 2.69983H31.1357V49.6786H31.2802V2.69983Z" fill="#C1C5D6"/>
<path d="M31.4247 2.69983H31.2803V49.6786H31.4247V2.69983Z" fill="#C1C5D6"/>
<path d="M31.578 2.69983H31.4336V49.6786H31.578V2.69983Z" fill="#C2C6D6"/>
<path d="M31.7226 2.69983H31.5781V49.6786H31.7226V2.69983Z" fill="#C2C6D7"/>
<path d="M31.8759 2.69983H31.7314V49.6786H31.8759V2.69983Z" fill="#C3C7D7"/>
<path d="M32.0195 2.69983H31.875V49.6786H32.0195V2.69983Z" fill="#C3C7D7"/>
<path d="M32.164 2.69983H32.0195V49.6786H32.164V2.69983Z" fill="#C3C7D8"/>
<path d="M32.3173 2.69983H32.1729V49.6786H32.3173V2.69983Z" fill="#C3C8D8"/>
<path d="M32.4618 2.69983H32.3174V49.6786H32.4618V2.69983Z" fill="#C4C8D8"/>
<path d="M32.6064 2.69983H32.4619V49.6786H32.6064V2.69983Z" fill="#C4C8D8"/>
<path d="M32.7587 2.69983H32.6143V49.6786H32.7587V2.69983Z" fill="#C4C8D8"/>
<path d="M32.9032 2.69983H32.7588V49.6786H32.9032V2.69983Z" fill="#C4C8D8"/>
<path d="M33.0478 2.69983H32.9033V49.6786H33.0478V2.69983Z" fill="#C4C8D8"/>
<path d="M82.8929 2.69983H33.0566V49.6786H82.8929V2.69983Z" fill="#C4C8D8"/>
</g>
<path d="M27.6435 46.0866L4.81141 32.7587C3.0185 31.7103 3.23943 29.8628 5.31275 28.6511L51.8011 1.50538C53.8744 0.29375 57.0439 0.164852 58.8368 1.21322L81.6773 14.5498C83.4703 15.5981 83.2493 17.4457 81.176 18.6573L34.6877 45.8031C32.6143 47.0147 29.4449 47.1436 27.652 46.0952L27.6435 46.0866Z" fill="#EFF0F5"/>
<path d="M81.1762 18.3909L34.6879 45.5367C32.6145 46.7483 29.4451 46.8772 27.6521 45.8288L4.8116 32.5008C4.05534 32.054 3.65597 31.4697 3.60499 30.851C3.55401 31.5642 3.94488 32.2516 4.8116 32.7586L27.6521 46.0952C29.4451 47.1436 32.6145 47.0147 34.6879 45.803L81.1762 18.6573C82.3743 17.9612 82.9521 17.0504 82.8841 16.1996C82.8247 16.973 82.2553 17.7722 81.1762 18.3995V18.3909Z" fill="#FDFDFE"/>
<path d="M81.423 17.2824C81.185 17.6519 80.8027 18.0042 80.2758 18.3136L68.9575 24.9217L54.5547 33.3344L34.1104 45.2703C32.3769 46.2842 29.7258 46.396 28.2218 45.5195L7.36109 33.3344L5.7891 32.4149C4.28509 31.5384 4.48053 29.9916 6.21396 28.9777L13.1562 24.9303L26.2419 17.291L44.1711 6.81593L52.3794 2.02095C54.1129 1.00696 56.764 0.895252 58.268 1.77175L66.8927 6.80734L80.7092 14.8763C81.7628 15.495 81.9838 16.4317 81.4314 17.2824H81.423Z" fill="#3A3F47"/>
<path d="M81.1255 17.0847C81.083 17.1535 81.032 17.2136 80.9811 17.2824C80.7771 17.5402 80.4797 17.7808 80.1058 18.0042L68.2522 24.9217L53.8409 33.3344L33.9319 44.9523C33.0737 45.4593 31.9265 45.7515 30.7794 45.7515C29.8532 45.7515 29.0035 45.5538 28.4087 45.2015L8.07481 33.3344L5.96749 32.1056C5.42367 31.7876 5.13477 31.3751 5.13477 30.9283C5.13477 30.3526 5.59362 29.7596 6.39236 29.287L13.8699 24.9217L26.9557 17.2824L44.9018 6.80734L52.5578 2.33891C53.416 1.83191 54.5632 1.54834 55.7103 1.54834C56.645 1.54834 57.4862 1.73739 58.0895 2.08971L66.1704 6.80734L80.5222 15.1857C80.9726 15.452 81.253 15.7786 81.3294 16.1309C81.4059 16.4403 81.3294 16.7668 81.1255 17.0847Z" fill="#393F42"/>
<path d="M81.1249 17.0848C81.0824 17.1535 81.0315 17.2137 80.9805 17.2824H26.9551L44.9012 6.80737H66.1698L80.5216 15.1857C80.972 15.4521 81.2524 15.7786 81.3289 16.1309C81.4053 16.4403 81.3289 16.7668 81.1249 17.0848Z" fill="#393F42"/>
<path d="M68.2522 24.9217L53.8409 33.3344H8.07481L5.96749 32.1056C5.42367 31.7876 5.13477 31.3751 5.13477 30.9283C5.13477 30.3526 5.59362 29.7596 6.39236 29.287L13.8699 24.9217H68.2522Z" fill="#393F42"/>
<path d="M69.9262 11.3531L64.3011 8.07055C64.1991 8.0104 64.2076 7.90728 64.3266 7.83854C64.4455 7.76979 64.624 7.7612 64.7259 7.82135L70.3511 11.1039C70.4531 11.1641 70.4446 11.2672 70.3256 11.3359C70.2066 11.4047 70.0282 11.4133 69.9262 11.3531Z" fill="#2A2A2C"/>
<path d="M64.2582 8.02758C64.2582 8.02758 64.3007 7.98461 64.3347 7.95883C64.4536 7.89009 64.6321 7.88149 64.734 7.94164L70.3592 11.2242C70.3592 11.2242 70.3932 11.25 70.4017 11.2672C70.4442 11.207 70.4357 11.1383 70.3592 11.0953L64.734 7.81275C64.6321 7.7526 64.4536 7.76119 64.3347 7.82993C64.2412 7.88149 64.2157 7.96742 64.2582 8.02758Z" fill="#404992"/>
<path d="M62.2022 6.59254C61.8623 6.79018 61.3184 6.79018 60.9785 6.59254C60.6387 6.3949 60.6387 6.07695 60.9785 5.87931C61.3184 5.68167 61.8623 5.68167 62.2022 5.87931C62.542 6.07695 62.542 6.3949 62.2022 6.59254Z" fill="#3A3F47"/>
<path d="M61.9726 6.45503C61.7602 6.57533 61.4118 6.57533 61.1994 6.45503C60.9869 6.33472 60.9869 6.12849 61.1994 5.99959C61.4118 5.87929 61.7602 5.87929 61.9726 5.99959C62.185 6.12849 62.185 6.32613 61.9726 6.45503Z" fill="#516F83"/>
<path d="M63.6975 7.469C63.4596 7.60649 63.0687 7.60649 62.8308 7.469C62.5929 7.33151 62.5929 7.09949 62.8308 6.962C63.0687 6.82451 63.4596 6.82451 63.6975 6.962C63.9354 7.09949 63.9354 7.33151 63.6975 7.469Z" fill="#2A2A2C"/>
<path d="M77.6164 22.7562L74.277 24.7069C74.0051 24.8702 73.7842 24.6983 73.7842 24.3288C73.7842 23.9593 74.0051 23.5296 74.277 23.375L77.6164 21.4243C77.8883 21.2696 78.1093 21.4329 78.1093 21.8024C78.1093 22.1719 77.8883 22.6016 77.6164 22.7562Z" fill="#EFF0F5"/>
<path d="M77.8713 22.9195L74.5319 24.8701C74.26 25.0334 74.0391 24.8616 74.0391 24.492C74.0391 24.1225 74.26 23.6929 74.5319 23.5382L77.8713 21.5876C78.1432 21.4243 78.3641 21.5962 78.3641 21.9657C78.3641 22.3352 78.1432 22.7648 77.8713 22.9195Z" fill="#C4C8D8"/>
<path d="M56.3811 35.1475L53.0417 37.0982C52.7698 37.2529 52.5488 37.0896 52.5488 36.7201C52.5488 36.3506 52.7698 35.9209 53.0417 35.7662L56.3811 33.8156C56.653 33.6609 56.8739 33.8242 56.8739 34.1937C56.8739 34.5632 56.653 34.9929 56.3811 35.1475Z" fill="#EFF0F5"/>
<path d="M56.636 35.3108L53.2966 37.2615C53.0246 37.4247 52.8037 37.2529 52.8037 36.8834C52.8037 36.5139 53.0246 36.0842 53.2966 35.9295L56.636 33.9789C56.9079 33.8242 57.1288 33.9875 57.1288 34.357C57.1288 34.7265 56.9079 35.1561 56.636 35.3108Z" fill="#C4C8D8"/>
<path d="M17.9233 41.6869C17.9233 42.0048 17.7278 42.1423 17.4984 42.0048L14.6348 40.3378C14.4054 40.2003 14.21 39.8308 14.21 39.5128C14.21 39.1949 14.4054 39.0488 14.6348 39.1863L14.9152 39.3496L17.4984 40.8534C17.6768 40.9565 17.8298 41.2057 17.8978 41.4549C17.9148 41.5322 17.9233 41.6096 17.9233 41.6783V41.6869Z" fill="#A0A6C0"/>
<path d="M17.8976 41.4635L15.3144 39.9511C15.136 39.848 14.983 39.6074 14.915 39.3582L17.4982 40.862C17.6766 40.9651 17.8296 41.2143 17.8976 41.4635Z" fill="#191F28"/>
<path d="M60.7408 23.521L43.279 13.321C42.6757 12.9686 42.7522 12.3413 43.4489 11.9375L49.3375 8.5002C50.0343 8.09632 51.1049 8.04476 51.7083 8.39708L69.1701 18.5972C69.7734 18.9495 69.6969 19.5768 69.0001 19.9806L63.1115 23.4179C62.4148 23.8218 61.3441 23.8733 60.7408 23.521Z" fill="#D0CECE"/>
<path d="M22.4857 32.097C22.3243 32.1915 22.0609 32.1915 21.8994 32.097C21.738 32.0025 21.738 31.8478 21.8994 31.7533C22.0609 31.6587 22.3243 31.6587 22.4857 31.7533C22.6472 31.8478 22.6472 32.0025 22.4857 32.097Z" fill="#B9B8F8"/>
<path d="M24.0922 33.0336C23.9307 33.1282 23.6673 33.1282 23.5059 33.0336C23.3444 32.9391 23.3444 32.7844 23.5059 32.6899C23.6673 32.5954 23.9307 32.5954 24.0922 32.6899C24.2536 32.7844 24.2536 32.9391 24.0922 33.0336Z" fill="#D2D1FA"/>
<path d="M25.7064 33.9789C25.545 34.0734 25.2816 34.0734 25.1201 33.9789C24.9587 33.8844 24.9587 33.7297 25.1201 33.6352C25.2816 33.5406 25.545 33.5406 25.7064 33.6352C25.8679 33.7297 25.8679 33.8844 25.7064 33.9789Z" fill="#B9B8F8"/>
<path d="M27.3207 34.9241C27.1592 35.0187 26.8958 35.0187 26.7344 34.9241C26.5729 34.8296 26.5729 34.6749 26.7344 34.5804C26.8958 34.4859 27.1592 34.4859 27.3207 34.5804C27.4821 34.6749 27.4821 34.8296 27.3207 34.9241Z" fill="#B9B8F8"/>
<path d="M26.7001 23.8733L23.9895 22.2922C23.3947 21.9399 23.4712 21.3297 24.1594 20.9259L26.5047 19.5596C27.1929 19.1557 28.2466 19.1127 28.8499 19.465L31.5605 21.0462C32.1553 21.3985 32.0873 22.0086 31.3906 22.4125L29.0453 23.7788C28.3571 24.1827 27.3034 24.2256 26.7001 23.8733Z" fill="#393F42"/>
<path d="M17.0819 36.9865L14.3713 35.4053C13.7765 35.053 13.853 34.4429 14.5413 34.039L16.8865 32.6727C17.5748 32.2688 18.6284 32.2259 19.2317 32.5782L21.9423 34.1593C22.5372 34.5116 22.4607 35.1218 21.7724 35.5256L19.4272 36.8919C18.7389 37.2958 17.6852 37.3388 17.0819 36.9865Z" fill="#393F42"/>
<path d="M10.6747 33.2227L7.96409 31.6415C7.36928 31.2892 7.44576 30.6791 8.13403 30.2752L10.4793 28.9089C11.1675 28.505 12.2212 28.4621 12.8245 28.8144L15.5351 30.3955C16.1299 30.7479 16.0535 31.358 15.3652 31.7618L13.0199 33.1282C12.3317 33.532 11.278 33.575 10.6747 33.2227Z" fill="#393F42"/>
<path d="M53.1522 31.0142L50.4416 29.4331C49.8468 29.0808 49.9233 28.4707 50.6116 28.0668L52.9568 26.7005C53.6451 26.2966 54.6987 26.2536 55.302 26.606L58.0127 28.1871C58.6075 28.5394 58.531 29.1495 57.8427 29.5534L55.4975 30.9197C54.8092 31.3236 53.7555 31.3666 53.1522 31.0142Z" fill="#393F42"/>
<path d="M30.0233 44.5227L27.3127 42.9415C26.7179 42.5892 26.7944 41.9791 27.4827 41.5752L29.8279 40.2089C30.5162 39.805 31.5698 39.7621 32.1731 40.1144L34.8838 41.6955C35.4786 42.0478 35.4106 42.658 34.7138 43.0618L32.3686 44.4281C31.6803 44.832 30.6266 44.875 30.0233 44.5227Z" fill="#393F42"/>
<path d="M40.245 23.4608L37.5344 21.8797C36.9396 21.5274 37.0161 20.9173 37.7043 20.5134L40.0496 19.1471C40.7379 18.7432 41.7915 18.7002 42.3948 19.0526L45.1054 20.6337C45.7002 20.986 45.6238 21.5961 44.9355 22L42.5903 23.3663C41.902 23.7702 40.8483 23.8132 40.245 23.4608Z" fill="#393F42"/>
<path d="M46.0741 35.1475L43.3635 33.5664C42.7687 33.2141 42.8452 32.604 43.5334 32.2001L45.8787 30.8338C46.567 30.4299 47.6206 30.3869 48.2239 30.7393L50.9345 32.3204C51.5293 32.6727 51.4529 33.2828 50.7646 33.6867L48.4194 35.053C47.7311 35.4569 46.6774 35.4999 46.0741 35.1475Z" fill="#393F42"/>
<path d="M30.8895 30.1893L28.1958 31.7618C27.601 32.1056 26.6239 32.1056 26.0291 31.7618L23.3184 30.1807C22.7236 29.8284 22.7151 29.2612 23.3184 28.9175L26.0121 27.345C26.6069 27.0012 27.584 27.0012 28.1789 27.345L30.8895 28.9261C31.3738 29.2097 31.4673 29.6393 31.1699 29.9745C31.1104 30.0432 31.0254 30.1119 30.9235 30.1721C30.915 30.1721 30.9065 30.1807 30.8895 30.1893Z" fill="#393F42"/>
<path d="M19.5888 28.0238L16.8782 26.4427C16.2833 26.0904 16.3598 25.4803 17.0481 25.0764L19.3933 23.7101C20.0816 23.3062 21.1353 23.2632 21.7386 23.6155L24.4492 25.1967C25.044 25.549 24.976 26.1591 24.2792 26.563L21.934 27.9293C21.2457 28.3332 20.1921 28.3761 19.5888 28.0238Z" fill="#393F42"/>
<path d="M46.7118 27.2505L44.0012 25.6693C43.4064 25.317 43.4829 24.7069 44.1711 24.303L46.5164 22.9367C47.2047 22.5328 48.2583 22.4898 48.8616 22.8422L51.5722 24.4233C52.167 24.7756 52.0906 25.3857 51.4023 25.7896L49.0571 27.1559C48.3688 27.5598 47.3151 27.6028 46.7118 27.2505Z" fill="#393F42"/>
<path d="M23.5478 40.7674L20.8371 39.1863C20.2423 38.834 20.3188 38.2238 21.0071 37.82L23.3523 36.4537C24.0406 36.0498 25.0942 36.0068 25.6976 36.3591L28.4082 37.9403C29.003 38.2926 28.9265 38.9027 28.2382 39.3066L25.893 40.6729C25.2047 41.0768 24.1511 41.1197 23.5478 40.7674Z" fill="#393F42"/>
<path d="M35.2824 23.1944L37.993 24.7756C38.5878 25.1279 38.5963 25.695 37.993 26.0388L35.2994 27.6113C34.7046 27.955 33.7274 27.955 33.1326 27.6113L30.422 26.0302C29.8271 25.6779 29.8186 25.1107 30.422 24.767L33.1156 23.1944C33.7104 22.8507 34.6876 22.8507 35.2824 23.1944Z" fill="#393F42"/>
<path d="M39.5819 31.4009L36.8712 29.8198C36.2764 29.4674 36.3444 28.8573 37.0412 28.4535L39.3864 27.0871C40.0747 26.6833 41.1284 26.6403 41.7317 26.9926L44.4423 28.5738C45.0371 28.9261 44.9606 29.5362 44.2723 29.9401L41.9271 31.3064C41.2388 31.7103 40.1852 31.7532 39.5819 31.4009Z" fill="#393F42"/>
<path d="M32.4784 35.5256L29.7678 33.9445C29.173 33.5921 29.2495 32.982 29.9377 32.5781L32.283 31.2118C32.9713 30.808 34.0249 30.765 34.6282 31.1173L37.3388 32.6985C37.9336 33.0508 37.8657 33.6609 37.1689 34.0648L34.8237 35.4311C34.1354 35.835 33.0817 35.8779 32.4784 35.5256Z" fill="#393F42"/>
<path d="M33.7957 19.697L31.0851 18.1159C30.4903 17.7636 30.5583 17.1535 31.2551 16.7496L33.6003 15.3833C34.2886 14.9794 35.3422 14.9364 35.9455 15.2888L38.6561 16.8699C39.251 17.2222 39.1745 17.8323 38.4862 18.2362L36.141 19.6025C35.4527 20.0064 34.399 20.0494 33.7957 19.697Z" fill="#393F42"/>
<path d="M38.9198 39.2894L36.2092 37.7083C35.6144 37.3559 35.6909 36.7458 36.3792 36.3419L38.7244 34.9756C39.4127 34.5718 40.4663 34.5288 41.0696 34.8811L43.7802 36.4622C44.375 36.8146 44.2986 37.4247 43.6103 37.8286L41.2651 39.1949C40.5768 39.5987 39.5231 39.6417 38.9198 39.2894Z" fill="#393F42"/>
<path d="M26.7011 23.4351L23.9905 21.8539C23.3957 21.5016 23.4721 20.8915 24.1604 20.4876L26.5056 19.1213C27.1939 18.7174 28.2476 18.6745 28.8509 19.0268L31.5615 20.6079C32.1563 20.9603 32.0883 21.5704 31.3915 21.9742L29.0463 23.3406C28.358 23.7444 27.3044 23.7874 26.7011 23.4351Z" fill="#00DD90"/>
<path d="M28.2053 22.4469H27.415L27.432 21.9742H28.1798L28.2053 22.4469Z" fill="#C1C5D5"/>
<path d="M28.2052 22.4469H27.4149L27.3555 23.1515C27.3555 23.2976 27.5594 23.4265 27.8143 23.4265C28.0692 23.4265 28.2732 23.3062 28.2647 23.1601L28.2052 22.4469Z" fill="#FFB33D"/>
<path d="M29.9218 20.8142C29.9218 21.5016 28.9786 22.0516 27.8059 22.0516C26.6333 22.0516 25.6816 21.4931 25.6816 20.8142C25.6816 20.1353 26.6248 19.5768 27.7975 19.5768C28.9701 19.5768 29.9218 20.1353 29.9218 20.8142Z" fill="#F1F2F6"/>
<path d="M29.505 20.8142C29.505 21.3641 28.7488 21.8024 27.8056 21.8024C26.8624 21.8024 26.0977 21.3556 26.0977 20.8056C26.0977 20.2556 26.8539 19.8174 27.7971 19.8174C28.7403 19.8174 29.505 20.2642 29.505 20.8142Z" fill="#81D1EF"/>
<path d="M28.7323 20.3845C28.6473 20.5306 28.2819 20.5908 27.9081 20.5134C27.5342 20.4361 27.3048 20.2642 27.3897 20.1182C27.4747 19.9721 27.8401 19.9119 28.214 19.9893C28.5878 20.0666 28.8173 20.2385 28.7323 20.3845Z" fill="#B8E5F6"/>
<path d="M17.0819 36.5482L14.3713 34.9671C13.7765 34.6148 13.853 34.0047 14.5413 33.6008L16.8865 32.2345C17.5748 31.8306 18.6284 31.7876 19.2317 32.14L21.9423 33.7211C22.5372 34.0734 22.4607 34.6835 21.7724 35.0874L19.4272 36.4537C18.7389 36.8576 17.6852 36.9006 17.0819 36.5482Z" fill="#81D1EF"/>
<path d="M21.4669 33.9443L18 34.1075L18.2039 34.6317L21.4669 33.9443Z" fill="#F7393B"/>
<path d="M14.7363 34.7952L18.2032 34.632L17.9993 34.1078L14.7363 34.7952Z" fill="#F1F2F6"/>
<path d="M18.6879 34.5289C18.5009 34.7007 18.1016 34.7523 17.8042 34.6406C17.5068 34.5289 17.4218 34.2968 17.6087 34.125C17.7957 33.9531 18.195 33.9016 18.4924 34.0133C18.7898 34.125 18.8748 34.357 18.6879 34.5289Z" fill="#F1F2F6"/>
<path d="M18.4248 34.4343C18.3314 34.5203 18.1274 34.546 17.9745 34.4945C17.8215 34.4429 17.7791 34.314 17.8725 34.2281C17.966 34.1422 18.1699 34.1164 18.3229 34.1679C18.4758 34.2195 18.5183 34.3484 18.4248 34.4343Z" fill="#F7393B"/>
<path d="M10.6747 32.7844L7.96409 31.2033C7.36928 30.851 7.44576 30.2409 8.13403 29.837L10.4793 28.4707C11.1675 28.0668 12.2212 28.0238 12.8245 28.3762L15.5351 29.9573C16.1299 30.3096 16.0535 30.9197 15.3652 31.3236L13.0199 32.6899C12.3317 33.0938 11.278 33.1368 10.6747 32.7844Z" fill="#7CD14F"/>
<path d="M14.2007 29.8026C14.0308 29.5878 14.0223 29.5706 14.0223 29.5706L13.8778 29.605L12.7052 29.9143C12.7052 29.9143 12.7987 30.1034 12.8752 30.1378C13.2745 30.3096 12.8752 30.5416 11.8045 30.8252C10.7424 31.1088 10.173 31.1346 10.2155 30.8424C10.2155 30.7823 10.0456 30.619 10.0456 30.619L8.87297 30.9283L8.72852 30.9627C8.72852 30.9627 8.73701 30.9799 8.90696 31.1947C9.44228 31.8822 10.9633 31.633 12.1869 31.315C13.4105 30.9971 14.7276 30.4901 14.1922 29.8026H14.2007Z" fill="#F1F2F6"/>
<path d="M53.1522 30.576L50.4416 28.9949C49.8468 28.6426 49.9233 28.0324 50.6116 27.6286L52.9568 26.2623C53.6451 25.8584 54.6987 25.8154 55.302 26.1677L58.0127 27.7489C58.6075 28.1012 58.531 28.7113 57.8427 29.1152L55.4975 30.4815C54.8092 30.8854 53.7555 30.9283 53.1522 30.576Z" fill="#F1F2F6"/>
<path d="M56.2363 29.5362C55.1317 30.1807 53.3472 30.1721 52.2341 29.5362C51.1295 28.8917 51.121 27.8434 52.2256 27.1989C53.3302 26.5544 55.1147 26.563 56.2278 27.1989C57.3409 27.8348 57.3409 28.8917 56.2363 29.5362Z" fill="#F7393B"/>
<path d="M56.6526 28.1957L52.3955 27.663L53.0583 28.4535L53.3557 28.6512L53.2707 28.6941L53.6701 29.6222L56.6526 28.1957Z" fill="#F1F2F6"/>
<path d="M55.2847 28.3504L53.0585 28.4535L52.5146 28.9863L53.3134 28.7972L53.2794 28.7113L55.2847 28.3504Z" fill="#C4C8D8"/>
<path d="M30.0233 44.0844L27.3127 42.5033C26.7179 42.151 26.7944 41.5409 27.4827 41.137L29.8279 39.7707C30.5162 39.3668 31.5698 39.3238 32.1731 39.6762L34.8838 41.2573C35.4786 41.6096 35.4106 42.2197 34.7138 42.6236L32.3686 43.9899C31.6803 44.3938 30.6266 44.4368 30.0233 44.0844Z" fill="#F7393B"/>
<path d="M33.9152 41.6612L31.6889 40.7503L29.3691 42.108L29.5901 42.2369L31.298 41.2315L33.0824 41.9276L31.2555 42.9931L31.4425 43.1048L33.9152 41.6612Z" fill="#F1F2F6"/>
<path d="M29.7093 42.1166C29.6074 42.3057 29.1995 42.3916 28.8001 42.3143C28.4008 42.2369 28.1628 42.0221 28.2648 41.8416C28.3668 41.6526 28.7746 41.5667 29.174 41.644C29.5734 41.7213 29.8113 41.9362 29.7093 42.1166Z" fill="#F1F2F6"/>
<path d="M31.5707 42.9845C31.4687 43.1736 31.0608 43.2595 30.6614 43.1822C30.2621 43.1048 30.0242 42.89 30.1261 42.7096C30.2281 42.5205 30.636 42.4346 31.0353 42.5119C31.4347 42.5893 31.6726 42.8041 31.5707 42.9845Z" fill="#F1F2F6"/>
<path d="M40.245 23.0226L37.5344 21.4415C36.9396 21.0892 37.0161 20.479 37.7043 20.0752L40.0496 18.7088C40.7379 18.305 41.7915 18.262 42.3948 18.6143L45.1054 20.1955C45.7002 20.5478 45.6238 21.1579 44.9355 21.5618L42.5903 22.9281C41.902 23.332 40.8483 23.3749 40.245 23.0226Z" fill="#F7393B"/>
<path d="M43.3213 21.9828C42.2166 22.6273 40.4322 22.6187 39.3191 21.9828C38.2144 21.3383 38.2059 20.29 39.3106 19.6455C40.4152 19.001 42.1996 19.0096 43.3128 19.6455C44.4259 20.2814 44.4259 21.3383 43.3213 21.9828Z" fill="#F1F2F6"/>
<path d="M41.8422 21.0118C41.6552 21.1837 41.2559 21.2353 40.9585 21.1235C40.661 21.0118 40.5761 20.7798 40.763 20.608C40.95 20.4361 41.3493 20.3845 41.6467 20.4962C41.9441 20.608 42.0291 20.84 41.8422 21.0118Z" fill="#D9CCDB"/>
<path d="M41.3748 20.8142L41.2559 20.797L42.1311 19.3619L42.25 19.3877L41.3748 20.8142Z" fill="#F7393B"/>
<path d="M41.3075 20.7369V20.8744H38.6309V20.7283L41.3075 20.7369Z" fill="#383838"/>
<path d="M41.2734 20.8571L41.3414 20.754L43.5762 21.2267L43.5082 21.3384L41.2734 20.8571Z" fill="#383838"/>
<path d="M41.5791 20.9087C41.4857 20.9946 41.2817 21.0204 41.1288 20.9688C40.9758 20.9087 40.9334 20.7884 41.0268 20.7025C41.1203 20.6165 41.3242 20.5907 41.4772 20.6423C41.6301 20.7025 41.6726 20.8228 41.5791 20.9087Z" fill="#666666"/>
<path d="M46.0741 34.7093L43.3635 33.1282C42.7687 32.7759 42.8452 32.1657 43.5334 31.7619L45.8787 30.3956C46.567 29.9917 47.6206 29.9487 48.2239 30.301L50.9345 31.8822C51.5293 32.2345 51.4529 32.8446 50.7646 33.2485L48.4194 34.6148C47.7311 35.0187 46.6774 35.0616 46.0741 34.7093Z" fill="#F1F2F6"/>
<path d="M46.7458 30.6018L45.7772 31.1689C45.4458 31.3666 45.6837 31.7017 46.1595 31.7017H48.0969C48.5727 31.7017 48.8107 31.3666 48.4708 31.1775L47.5021 30.6104C47.2897 30.4901 46.9583 30.4901 46.7458 30.6104V30.6018Z" fill="#FF8E8C"/>
<path d="M47.5187 34.3914L48.4874 33.8242C48.8188 33.6266 48.5808 33.2914 48.105 33.2914H46.1676C45.6918 33.2914 45.4539 33.6266 45.7938 33.8156L46.7624 34.3828C46.9749 34.5031 47.3063 34.5031 47.5187 34.3828V34.3914Z" fill="#FF8E8C"/>
<path d="M46.7458 30.6018L45.7772 31.1689C45.4458 31.3666 45.6837 31.7017 46.1595 31.7017H48.0969C48.5727 31.7017 48.8107 31.3666 48.4708 31.1775L47.5021 30.6104C47.2897 30.4901 46.9583 30.4901 46.7458 30.6104V30.6018Z" fill="#FF8E8C"/>
<path d="M47.5187 34.3914L48.4874 33.8242C48.8188 33.6266 48.5808 33.2914 48.105 33.2914H46.1676C45.6918 33.2914 45.4539 33.6266 45.7938 33.8156L46.7624 34.3828C46.9749 34.5031 47.3063 34.5031 47.5187 34.3828V34.3914Z" fill="#FF8E8C"/>
<path d="M43.89 32.7071L44.8586 33.2743C45.1985 33.4719 45.7679 33.3344 45.7679 33.0594V31.9251C45.7679 31.6502 45.1815 31.5041 44.8501 31.7017L43.8815 32.2689C43.6775 32.3892 43.6775 32.5868 43.8815 32.7071H43.89Z" fill="#FECB4C"/>
<path d="M50.3818 32.2774L49.4131 31.7103C49.0732 31.5127 48.5039 31.6501 48.5039 31.9251V33.0594C48.5039 33.3344 49.0902 33.4805 49.4216 33.2828L50.3903 32.7157C50.5942 32.5954 50.5942 32.3977 50.3903 32.2774H50.3818Z" fill="#FECB4C"/>
<path d="M30.8895 29.7498L28.1958 31.3223C27.601 31.666 26.6239 31.666 26.0291 31.3223L23.3184 29.7412C22.7236 29.3889 22.7151 28.8217 23.3184 28.478L26.0121 26.9054C26.6069 26.5617 27.584 26.5617 28.1789 26.9054L30.8895 28.4866C31.3738 28.7702 31.4673 29.1998 31.1699 29.5349C31.1104 29.6037 31.0254 29.6724 30.9235 29.7326C30.915 29.7326 30.9065 29.7412 30.8895 29.7498Z" fill="#81D1EF"/>
<path d="M26.8533 30.1979L24.746 30.5674L23.3184 29.7338C22.7236 29.3815 22.7151 28.8144 23.3184 28.4706L23.6838 28.2558L26.8618 30.1979H26.8533Z" fill="#F1F2F6"/>
<path d="M29.0884 28.7542L26.7347 30.0002L23.7012 28.23L25.9954 26.8895C26.5902 26.5458 27.5674 26.5458 28.1622 26.8895L30.8728 28.4706C31.3572 28.7542 31.4506 29.1839 31.1532 29.519C31.0938 29.5878 29.1819 28.6769 29.0799 28.7456L29.0884 28.7542Z" fill="#7CD14F"/>
<path d="M30.8892 29.751L29.4532 30.5846L27.7197 29.5706L30.2349 28.1011L30.8807 28.4792C31.365 28.7628 31.4585 29.1925 31.1611 29.5276C31.1016 29.5963 31.0167 29.6651 30.9147 29.7252C30.9062 29.7252 30.8977 29.7338 30.8807 29.7424L30.8892 29.751Z" fill="#7CD14F"/>
<path d="M23.9051 28.127L27.0405 29.9573L26.4372 30.3096L23.3018 28.4793L23.9051 28.127Z" fill="#FFB33D"/>
<path d="M28.1705 27.0872C27.6267 26.7692 26.7515 26.7692 26.2162 27.0872C25.4854 27.5168 25.1455 28.8573 25.1455 28.8573C25.1455 28.8573 27.4483 28.6597 28.179 28.23C28.7143 27.9121 28.7143 27.4051 28.179 27.0872H28.1705Z" fill="#FF4C4A"/>
<path d="M27.7624 27.9809C27.448 28.1613 26.9467 28.1613 26.6323 27.9809C26.3179 27.8004 26.3179 27.4996 26.6323 27.3192C26.9467 27.1387 27.448 27.1387 27.7624 27.3192C28.0768 27.4996 28.0768 27.8004 27.7624 27.9809Z" fill="white"/>
<path d="M30.3373 28.1699L29.598 27.7402L24.7461 30.576L25.4769 30.997L30.3373 28.1699Z" fill="#FFE43D"/>
<path d="M19.5888 27.5856L16.8782 26.0045C16.2833 25.6521 16.3598 25.042 17.0481 24.6381L19.3933 23.2718C20.0816 22.868 21.1353 22.825 21.7386 23.1773L24.4492 24.7585C25.044 25.1108 24.976 25.7209 24.2792 26.1248L21.934 27.4911C21.2457 27.8949 20.1921 27.9379 19.5888 27.5856Z" fill="#CE7836"/>
<path d="M20.8292 26.7263L18.0846 25.1194C17.9147 25.0163 17.9317 24.8444 18.1356 24.7327L19.5376 23.9163C19.7331 23.8046 20.0305 23.7874 20.2089 23.8906L22.9535 25.4975C23.1235 25.6006 23.1065 25.7725 22.9026 25.8842L21.5005 26.7005C21.3051 26.8122 21.0077 26.8294 20.8292 26.7263Z" fill="#F1F2F6"/>
<path d="M20.9653 26.4771L18.5096 25.042C18.4162 24.9905 18.4332 24.8959 18.5351 24.8358L19.7163 24.1483C19.8182 24.0882 19.9797 24.0796 20.0646 24.1311L22.5203 25.5662C22.6138 25.6178 22.5968 25.7123 22.4948 25.7724L21.3137 26.4599C21.2118 26.52 21.0503 26.5286 20.9653 26.4771Z" fill="#CE7836"/>
<path d="M22.1379 26.7521L21.9 26.6146C21.9 26.6146 21.8745 26.5716 21.9 26.5544L22.6223 26.1334C22.6223 26.1334 22.6987 26.1162 22.7242 26.1334L22.9622 26.2709C22.9622 26.2709 22.9876 26.3138 22.9622 26.331L22.2399 26.7521C22.2399 26.7521 22.1634 26.7693 22.1379 26.7521Z" fill="#F1F2F6"/>
<path d="M19.1044 25.2826L18.6285 25.0077C18.6285 25.0077 18.603 24.9647 18.6285 24.9475L19.9031 24.2085C19.9031 24.2085 19.9796 24.1913 19.9966 24.2085L20.4724 24.4835C20.4724 24.4835 20.4979 24.5265 20.4724 24.5436L19.1978 25.2826C19.1978 25.2826 19.1214 25.2998 19.1044 25.2826Z" fill="#F1F2F6"/>
<path d="M19.7753 25.6779L19.2994 25.4029C19.2994 25.4029 19.2739 25.36 19.2994 25.3428L20.574 24.6038C20.574 24.6038 20.6505 24.5866 20.6675 24.6038L21.1433 24.8788C21.1433 24.8788 21.1688 24.9217 21.1433 24.9389L19.8687 25.6779C19.8687 25.6779 19.7923 25.6951 19.7753 25.6779Z" fill="#F1F2F6"/>
<path d="M20.4549 26.0732L19.9791 25.7983C19.9791 25.7983 19.9536 25.7553 19.9791 25.7381L21.2537 24.9991C21.2537 24.9991 21.3302 24.9819 21.3472 24.9991L21.823 25.2741C21.823 25.2741 21.8485 25.317 21.823 25.3342L20.5484 26.0732C20.5484 26.0732 20.4719 26.0904 20.4549 26.0732Z" fill="#F1F2F6"/>
<path d="M57.9105 4.00599L56.4745 3.16386C56.381 3.1123 56.398 3.01778 56.5 2.95763L57.2392 2.52797C57.3412 2.46782 57.5027 2.45922 57.5876 2.51078L59.0237 3.35291C59.1171 3.40447 59.1001 3.49899 58.9982 3.55915L58.2589 3.9888C58.1569 4.04896 57.9955 4.05755 57.9105 4.00599Z" fill="#F1F2F6"/>
<path d="M58.599 4.02317L58.4715 3.95442C58.4715 3.95442 58.4631 3.92864 58.4715 3.92005L58.8539 3.69663C58.8539 3.69663 58.8964 3.68804 58.9049 3.69663L59.0324 3.76537C59.0324 3.76537 59.0409 3.79115 59.0324 3.79975L58.65 4.02317C58.65 4.02317 58.6075 4.03176 58.599 4.02317Z" fill="#F1F2F6"/>
<path d="M46.7118 26.8122L44.0012 25.2311C43.4064 24.8788 43.4829 24.2686 44.1711 23.8648L46.5164 22.4985C47.2047 22.0946 48.2583 22.0516 48.8616 22.4039L51.5722 23.9851C52.167 24.3374 52.0906 24.9475 51.4023 25.3514L49.0571 26.7177C48.3688 27.1216 47.3151 27.1645 46.7118 26.8122Z" fill="#D5D8E7"/>
<path d="M50.0684 25.9357C48.8108 26.6662 46.7715 26.6662 45.5054 25.9357C44.2393 25.1967 44.2393 24.0023 45.4884 23.2719C46.746 22.5415 48.7853 22.5415 50.0514 23.2719C51.3175 24.0023 51.3175 25.2053 50.0684 25.9357Z" fill="#6DB6F3"/>
<path d="M49.9071 25.8412C48.743 26.5201 46.8396 26.5201 45.667 25.8412C44.4944 25.1623 44.4859 24.0452 45.65 23.3664C46.8142 22.6875 48.7175 22.6875 49.8901 23.3664C51.0628 24.0538 51.0713 25.1623 49.9071 25.8412Z" fill="#81D1EF"/>
<path d="M49.7201 25.7381C48.6579 26.3568 46.916 26.3568 45.8453 25.7381C44.7747 25.1108 44.7662 24.0968 45.8368 23.4781C46.9075 22.8594 48.6409 22.8594 49.7116 23.4781C50.7822 24.1054 50.7907 25.1194 49.7201 25.7381Z" fill="#B3E7FC"/>
<path d="M49.2268 25.1108C49.2268 25.1108 49.1164 25.2655 48.9294 25.5233C48.7425 25.7725 48.564 25.8756 48.9039 25.91C49.0909 25.9272 49.1503 25.9615 49.2098 25.9701C49.3628 25.9186 49.5157 25.8498 49.6517 25.7725C49.5837 25.7381 49.5072 25.6865 49.5582 25.6436C49.6347 25.5662 49.7451 25.5576 49.8726 25.6178C49.8726 25.6178 49.8896 25.6178 49.8981 25.6178C50.4504 25.2311 50.6289 24.7155 50.4419 24.2429C50.4334 24.2429 50.4249 24.2429 50.4164 24.2429C50.4164 24.2429 50.3654 24.2687 50.2295 24.2085C50.0935 24.1484 50.0765 24.071 50.0765 24.071C50.0765 24.071 50.34 23.9507 50.2125 23.9164C50.0935 23.8906 49.9236 24.0109 49.9236 24.0109C49.9236 24.0109 49.3798 23.8046 49.3543 23.8906C49.3288 23.9765 49.1758 24.071 49.1503 24.0453C49.1164 24.0195 49.1333 23.8562 48.9039 23.9249C48.6745 23.9937 48.564 23.9593 48.547 24.071L48.53 24.1827C48.53 24.1827 48.2836 24.2945 47.9267 24.1827C47.5699 24.071 47.128 24.3116 46.9496 24.4319C46.7711 24.5522 46.6861 24.7327 46.9241 24.8616C47.162 24.9905 47.4424 25.0507 47.0515 25.2655C46.6607 25.4803 46.7541 25.6006 46.3633 25.6608C46.0234 25.7123 45.9809 25.7639 46.0234 25.8498C46.3887 26.0303 46.8051 26.142 47.247 26.1935C47.2725 26.1935 47.2895 26.1935 47.3064 26.1849C47.6293 26.1076 47.7993 26.0818 48.0457 26.1076C48.2921 26.1334 48.8274 26.0732 48.7935 26.0303C48.7595 25.9873 48.5895 25.91 48.5215 25.8412C48.4536 25.7811 48.5385 25.8326 48.7 25.6092C48.8614 25.3858 48.8274 25.128 48.9889 25.0335C49.1503 24.9303 49.2778 25.0163 49.2778 25.0163C49.2778 25.0163 49.3373 24.8272 49.1333 24.7671C48.9294 24.7069 48.9039 24.7241 49.0059 24.5351C49.1079 24.3374 49.5327 24.5007 49.5242 24.7155C49.5157 24.9303 49.7536 25.0335 49.7536 25.0335C49.7536 25.0335 49.7536 25.1108 49.5327 25.1108C49.3118 25.1108 49.2098 25.1366 49.2098 25.1366L49.2268 25.1108Z" fill="#7CD14F"/>
<path d="M46.3463 23.2375L46.3123 23.2632C46.3038 23.3148 46.4737 23.3578 46.4737 23.3578C46.4737 23.3578 45.9724 23.5898 46.0999 23.6242C46.2273 23.6585 46.3633 23.6156 46.4907 23.5468C46.6182 23.4781 46.4907 23.3664 46.8136 23.3578C47.145 23.3406 47.3235 23.3492 47.3235 23.3492L47.6209 23.3062L47.7228 23.4265C47.7228 23.4265 47.3999 23.4093 47.4509 23.4609C47.5019 23.5124 47.9183 23.5039 47.9183 23.5039C47.9183 23.5039 48.2327 23.5468 48.1732 23.4437C48.1137 23.3492 47.9862 23.375 47.7908 23.2804C47.5954 23.1859 47.8333 23.2031 47.8333 23.2031L48.1562 23.375C48.1562 23.375 48.3856 23.4437 48.5471 23.3835C48.7085 23.3234 48.598 23.1773 48.598 23.1773L48.7765 23.1258C47.9777 22.9367 47.0685 22.9797 46.3293 23.2375H46.3463Z" fill="#6EBA46"/>
<path d="M45.3603 24.9905C45.3603 24.9905 45.5897 24.9819 45.6832 24.8788C45.7766 24.7756 45.8276 24.6553 45.8701 24.621C45.9126 24.5866 45.8616 24.4921 45.8616 24.4921C45.8871 24.4491 45.9721 24.4663 46.0401 24.389C46.108 24.303 46.2015 24.2429 46.2015 24.2429C46.2015 24.2429 46.5074 24.2085 46.4904 24.0796C46.4734 23.9421 46.4224 23.8132 46.4224 23.8132C46.4224 23.8132 46.329 23.7187 46.0995 23.7187C45.8701 23.7187 45.6917 23.8304 45.6492 23.7445C45.6067 23.6585 45.4707 23.7702 45.4707 23.7702C45.4707 23.7702 45.4283 23.8734 45.3263 23.9077C45.3263 23.9077 45.3093 23.9163 45.3008 23.9249C44.9864 24.3202 44.9609 24.7842 45.2413 25.1881C45.4198 25.1022 45.3603 24.9905 45.3603 24.9905Z" fill="#6EBA46"/>
<path d="M23.5478 40.3378L20.8371 38.7567C20.2423 38.4043 20.3188 37.7942 21.0071 37.3903L23.3523 36.024C24.0406 35.6202 25.0942 35.5772 25.6976 35.9295L28.4082 37.5106C29.003 37.863 28.9265 38.4731 28.2382 38.877L25.893 40.2433C25.2047 40.6471 24.1511 40.6901 23.5478 40.3378Z" fill="#7CD14F"/>
<path d="M27.5248 38.6364L25.7658 39.659C25.443 39.848 24.9076 39.848 24.5762 39.659L22.9363 38.7051L21.1943 38.5934L22.1375 38.37L22.299 38.3356L23.1997 38.1294L22.0526 38.1895L21.9931 38.1552C21.6617 37.9661 21.6617 37.6482 21.9931 37.4591L23.752 36.4365C24.0834 36.2475 24.6102 36.2475 24.9416 36.4365L27.5248 37.9403C27.8562 38.1294 27.8562 38.4473 27.5248 38.6364Z" fill="#F1F2F6"/>
<path d="M35.2824 22.7562L37.993 24.3373C38.5878 24.6897 38.5963 25.2568 37.993 25.6005L35.2994 27.1731C34.7046 27.5168 33.7274 27.5168 33.1326 27.1731L30.422 25.5919C29.8271 25.2396 29.8186 24.6725 30.422 24.3288L33.1156 22.7562C33.7104 22.4125 34.6876 22.4125 35.2824 22.7562Z" fill="#CE7836"/>
<path d="M35.4522 22.8593L37.9844 24.3373C38.5792 24.6897 38.5877 25.2568 37.9844 25.6005L35.2908 27.1731C34.696 27.5168 33.7188 27.5168 33.124 27.1731L30.5918 25.6951L35.4437 22.8593H35.4522Z" fill="#FFE56F"/>
<path d="M36.5147 23.478L34.8662 24.4405L35.7329 24.5608L35.9199 25.0248L37.5513 24.0795L36.5147 23.478Z" fill="#FF4C4A"/>
<path d="M39.5828 30.9627L36.8722 29.3815C36.2774 29.0292 36.3454 28.4191 37.0422 28.0152L39.3874 26.6489C40.0757 26.245 41.1293 26.2021 41.7326 26.5544L44.4433 28.1355C45.0381 28.4878 44.9616 29.098 44.2733 29.5018L41.9281 30.8681C41.2398 31.272 40.1861 31.315 39.5828 30.9627Z" fill="#D2D6E1"/>
<path d="M42.667 29.9315C41.5623 30.576 39.7779 30.5674 38.6648 29.9315C37.5601 29.287 37.5516 28.2386 38.6563 27.5942C39.7609 26.9497 41.5453 26.9583 42.6585 27.5942C43.7631 28.2386 43.7716 29.287 42.667 29.9315Z" fill="#586891"/>
<path d="M42.4035 29.7768C41.4433 30.3354 39.8799 30.3354 38.9112 29.7768C37.9425 29.2097 37.9425 28.2988 38.9027 27.7403C39.8629 27.1817 41.4264 27.1817 42.395 27.7403C43.3637 28.3074 43.3637 29.2183 42.4035 29.7768Z" fill="#746EEE"/>
<path d="M42.0474 29.5706C41.2826 30.0174 40.0505 30.0089 39.2773 29.5706C38.504 29.1323 38.504 28.4019 39.2688 27.9551C40.0335 27.5082 41.2656 27.5168 42.0389 27.9551C42.8036 28.4019 42.8121 29.1238 42.0474 29.5706Z" fill="#455492"/>
<path d="M41.6478 29.33C41.104 29.648 40.2287 29.648 39.6764 29.33C39.1326 29.0121 39.1326 28.4965 39.6764 28.1785C40.2202 27.8606 41.0955 27.8606 41.6478 28.1785C42.1916 28.4965 42.1916 29.0121 41.6478 29.33Z" fill="#313C6D"/>
<path d="M41.4858 28.4277C41.4178 28.5394 41.1034 28.5824 40.7805 28.5136C40.4576 28.4449 40.2537 28.2988 40.3217 28.1871C40.3896 28.0754 40.704 28.0324 41.0269 28.1012C41.3498 28.1699 41.5538 28.316 41.4858 28.4277Z" fill="#8B96B3"/>
<path d="M32.4784 35.0874L29.7678 33.5063C29.173 33.154 29.2495 32.5439 29.9377 32.14L32.283 30.7737C32.9713 30.3698 34.0249 30.3268 34.6282 30.6791L37.3388 32.2603C37.9336 32.6126 37.8657 33.2227 37.1689 33.6266L34.8237 34.9929C34.1354 35.3968 33.0817 35.4397 32.4784 35.0874Z" fill="#CE7836"/>
<path d="M36.0893 33.2227L34.7127 32.415C34.6108 32.3548 34.5853 32.2689 34.6533 32.2001L34.6957 32.1486C34.7552 32.0798 34.7297 31.9853 34.6363 31.9338L33.3957 31.2119C33.2937 31.1518 33.1323 31.1346 33.0048 31.1776L32.7754 31.2549C32.7754 31.2549 32.7244 31.2721 32.7074 31.2893L30.5916 32.5267C30.4981 32.5782 30.4981 32.6728 30.5916 32.7243L33.8375 34.6234C33.931 34.675 34.0839 34.675 34.1774 34.6234L36.0978 33.5063C36.2252 33.429 36.2252 33.3172 36.0978 33.2399L36.0893 33.2227Z" fill="#FFE568"/>
<path d="M35.9455 33.3774L32.6996 31.4783C32.6061 31.4267 32.4532 31.4267 32.3597 31.4783L30.5838 32.5095C30.4903 32.561 30.4903 32.6556 30.5838 32.7071L33.8297 34.6062C33.9232 34.6578 34.0761 34.6578 34.1696 34.6062L35.9455 33.575C36.039 33.5235 36.039 33.4289 35.9455 33.3774Z" fill="#FFEC8B"/>
<path d="M33.7957 19.2588L31.0851 17.6777C30.4903 17.3254 30.5583 16.7152 31.2551 16.3114L33.6003 14.9451C34.2886 14.5412 35.3422 14.4982 35.9455 14.8505L38.6561 16.4317C39.251 16.784 39.1745 17.3941 38.4862 17.798L36.141 19.1643C35.4527 19.5682 34.399 19.6111 33.7957 19.2588Z" fill="#F1F2F6"/>
<path d="M38.3077 17.523L37.2371 18.1503C36.7442 18.4338 35.937 18.4338 35.4441 18.1503L34.9003 17.8323L34.9938 17.7722C35.4866 17.4886 35.4866 17.016 34.9938 16.7238L34.0166 16.1567L34.9938 15.5895C35.4866 15.3059 36.2939 15.3059 36.7867 15.5895L38.3077 16.4746C38.8005 16.7668 38.809 17.2394 38.3077 17.523Z" fill="#81D1EF"/>
<path d="M36.0053 15.959L36.4131 16.1997L35.1385 16.9473L34.8496 16.784L34.7137 16.8613L34.5947 16.7926L36.0138 15.9676L36.0053 15.959ZM35.7673 16.8012C35.7673 16.8012 35.8183 16.8785 35.8523 16.9129C35.5719 17.0074 35.283 17.1191 34.9771 17.2308L34.8751 17.1105C35.181 17.016 35.4784 16.9129 35.7673 16.8012ZM36.1582 16.1997L35.9968 16.1051L34.9686 16.7066L35.1301 16.8012L36.1582 16.1997ZM36.0053 16.8012L36.1667 16.8957L36.6426 16.6637C36.5661 16.6637 36.4811 16.6809 36.4046 16.6809C36.4131 16.6379 36.4216 16.5949 36.4216 16.5606C36.6935 16.5606 36.9655 16.5176 37.2374 16.4403L37.3478 16.5348C37.2714 16.552 37.1949 16.5692 37.1099 16.5863L37.7557 16.9644L37.6367 17.0332L36.923 16.6207C36.8465 16.6379 36.7615 16.6465 36.6765 16.6551L37.3818 17.0676C37.2034 17.1621 37.0419 17.248 36.906 17.3254L37.0589 17.4113L36.94 17.48L36.787 17.3941C36.6426 17.4714 36.5236 17.5316 36.4216 17.5917L36.5661 17.6777L36.4471 17.7464L36.3027 17.6605C36.1157 17.7636 35.9373 17.7722 35.7843 17.6777C35.6654 17.6089 35.5719 17.5574 35.5209 17.523C35.5719 17.4886 35.6059 17.4543 35.6399 17.4199C35.7079 17.4714 35.7928 17.523 35.8863 17.5746C35.9713 17.6261 36.0647 17.6175 36.1667 17.5746L35.5464 17.2136L35.6569 17.1535L36.0478 16.9559L35.9033 16.8699L36.0223 16.8012H36.0053ZM36.6426 17.3168L36.1667 17.0418L35.7843 17.2308L36.2772 17.5144C36.3961 17.4543 36.5151 17.3855 36.6426 17.3168ZM36.1752 16.4403C36.2007 16.5348 36.2177 16.6293 36.2347 16.7238C36.1497 16.7238 36.0732 16.7238 36.0223 16.7238C36.0223 16.6293 36.0138 16.5348 35.9968 16.4403H36.1837H36.1752ZM36.1752 17.1449L36.3452 17.1707C36.3197 17.248 36.2942 17.3254 36.2602 17.3941L36.0817 17.3597C36.1242 17.291 36.1497 17.2136 36.1752 17.1449ZM36.6681 16.7926L36.2942 16.973L36.7615 17.248C36.872 17.1879 36.9909 17.1191 37.1184 17.0504L36.6681 16.7926ZM36.702 16.2082C36.7275 16.3028 36.7445 16.3887 36.753 16.4746C36.6765 16.4746 36.6171 16.4746 36.5491 16.4746C36.5491 16.3887 36.5406 16.3028 36.5236 16.2168H36.702V16.2082ZM36.6681 16.8957L36.838 16.9215C36.8125 16.9988 36.787 17.0676 36.753 17.1277L36.5746 17.1019C36.6171 17.0246 36.6511 16.9559 36.6681 16.8957Z" fill="white"/>
<path d="M34.9936 17.7722L34.9001 17.8324L33.9314 17.2652C33.4386 16.973 33.4301 16.5004 33.9314 16.2168L34.0249 16.1653L35.0021 16.7324C35.4949 17.0246 35.5034 17.4972 35.0021 17.7808L34.9936 17.7722Z" fill="#A184C2"/>
<path d="M34.9007 17.8238L34.3654 18.1331C33.8725 18.4167 33.0653 18.4167 32.5725 18.1331L31.5613 17.5402C31.0685 17.2481 31.06 16.7754 31.5613 16.4919L32.1901 16.1223C32.6829 15.8388 33.4902 15.8388 33.983 16.1223L34.017 16.1395L33.9235 16.1911C33.4307 16.4747 33.4307 16.9473 33.9235 17.2395L34.8922 17.8066L34.9007 17.8238Z" fill="#FF4C4A"/>
<path d="M31.8239 16.7754L32.7841 16.5692L32.8606 16.6121L32.5122 17.1793L32.3423 17.0761L32.3847 16.9988L32.1128 16.8441L31.9854 16.8699L31.8154 16.7668L31.8239 16.7754ZM32.3338 16.8012L32.4697 16.8785L32.5462 16.7582L32.3338 16.8012Z" fill="white"/>
<path d="M32.6055 17.2308L33.2598 16.8441L33.5487 17.016C33.6506 17.0761 33.6506 17.1792 33.5487 17.248C33.5062 17.2738 33.4467 17.291 33.3872 17.291C33.3872 17.3339 33.3702 17.3855 33.3107 17.4199C33.2088 17.48 33.0303 17.48 32.9284 17.4199L32.6055 17.2308ZM33.0388 17.3167C33.0388 17.3167 33.1238 17.3339 33.1493 17.3167C33.1748 17.2996 33.1833 17.2652 33.1493 17.248L33.0303 17.1792L32.9199 17.248L33.0388 17.3167ZM33.2683 17.1449C33.2683 17.1449 33.3532 17.1621 33.3787 17.1449C33.4127 17.1277 33.4127 17.0933 33.3787 17.0761L33.2937 17.0246L33.1833 17.0933L33.2683 17.1449Z" fill="white"/>
<path d="M34.0758 17.5746C34.0758 17.5746 34.0503 17.5144 34.0078 17.4886C33.9144 17.4371 33.7869 17.4371 33.7019 17.4886C33.6169 17.5402 33.6085 17.6175 33.7019 17.6691C33.7444 17.6949 33.8039 17.712 33.8549 17.7035V17.8495C33.7359 17.8495 33.6169 17.8238 33.5235 17.7722C33.345 17.6691 33.345 17.4972 33.5235 17.3855C33.7019 17.2824 33.9993 17.2824 34.1778 17.3855C34.2712 17.4371 34.3137 17.5058 34.3137 17.5746H34.0673H34.0758Z" fill="white"/>
<path d="M38.9198 38.8512L36.2092 37.2701C35.6144 36.9178 35.6909 36.3077 36.3792 35.9038L38.7244 34.5375C39.4127 34.1336 40.4663 34.0906 41.0696 34.4429L43.7802 36.0241C44.375 36.3764 44.2986 36.9865 43.6103 37.3904L41.2651 38.7567C40.5768 39.1606 39.5231 39.2035 38.9198 38.8512Z" fill="#D2D6E1"/>
<path d="M39.7611 37.3045C39.7441 37.2529 39.7951 37.2013 39.8886 37.1841L40.3984 37.1068L40.4579 36.806L39.9905 36.66C39.9141 36.6342 39.8801 36.5826 39.9141 36.5311L40.1265 36.2475L39.7526 36.0327L39.2683 36.153C39.1833 36.1702 39.0898 36.153 39.0473 36.11L38.8009 35.835L38.2826 35.8694L38.1466 36.1702C38.1211 36.2217 38.0362 36.2561 37.9512 36.2389L37.4329 36.1787L37.1525 36.4365L37.4669 36.6857C37.5178 36.7287 37.5093 36.7889 37.4414 36.8232L37.042 37.0209L37.2119 37.313L37.7388 37.3302C37.8322 37.3302 37.9002 37.3732 37.9087 37.4248L37.9342 37.7341L38.427 37.8372L38.7754 37.6052C38.8349 37.5622 38.9369 37.5622 39.0133 37.588L39.4382 37.7685L39.8801 37.6052L39.7781 37.3045H39.7611Z" fill="#6D7A9D"/>
<path d="M42.7178 36.7029L43.0492 36.6084L43.0322 36.299L42.6923 36.2217C42.5564 36.1873 42.4714 36.11 42.4884 36.0241L42.5139 35.8092L42.055 35.6631L41.7661 35.792C41.6557 35.8436 41.4942 35.8436 41.3753 35.792L41.0694 35.6717L40.6275 35.835L40.6785 36.0498C40.6955 36.1358 40.6275 36.2131 40.4916 36.2475L40.1602 36.342L40.1772 36.6514L40.517 36.7287C40.653 36.7631 40.738 36.8404 40.721 36.9263L40.6955 37.1412L41.1543 37.2873L41.4432 37.1584C41.5537 37.1068 41.7152 37.1068 41.8341 37.1584L42.14 37.2787L42.5819 37.1154L42.5309 36.9006C42.5139 36.8146 42.5819 36.7373 42.7178 36.7029Z" fill="#6D7A9D"/>
<path d="M39.2091 37.0982C38.9457 37.2529 38.5293 37.2529 38.2659 37.0982C38.0025 36.9435 38.0025 36.7029 38.2659 36.5483C38.5293 36.3936 38.9457 36.3936 39.2091 36.5483C39.4725 36.7029 39.4725 36.9435 39.2091 37.0982Z" fill="#D2D6E1"/>
<path d="M41.996 36.7115C41.7836 36.8404 41.4267 36.8404 41.2143 36.7115C41.0019 36.5826 40.9934 36.3764 41.2143 36.2561C41.4267 36.1272 41.7836 36.1272 41.996 36.2561C42.217 36.385 42.217 36.5912 41.996 36.7115Z" fill="#D2D6E1"/>
<path d="M52.0823 11.8344C52.5836 11.5422 53.3993 11.5422 53.9092 11.8344C54.419 12.1265 54.419 12.6077 53.9092 12.8999C53.7137 13.0116 53.4588 13.089 53.1784 13.1061L49.8985 13.4327L51.445 14.335L51.36 14.3865L49.6436 13.3811L53.1444 13.0288C53.3908 13.0116 53.6288 12.9515 53.8157 12.8398C54.266 12.5734 54.266 12.1523 53.8157 11.8859C53.3568 11.6195 52.6261 11.6195 52.1757 11.8859L52.0823 11.8344Z" fill="white"/>
<path d="M56.3392 13.2522L56.4327 13.3038L52.9743 15.3231L52.8809 15.2716L56.3392 13.2522Z" fill="white"/>
<path d="M54.4703 15.9934C54.5213 16.0192 54.5213 16.0793 54.4703 16.1051C54.4193 16.1309 54.3343 16.1309 54.2834 16.1051C54.2324 16.0793 54.2324 16.0278 54.2834 15.9934C54.3343 15.9676 54.4193 15.959 54.4703 15.9934ZM56.1103 15.0396C56.1612 15.0654 56.1612 15.1255 56.1103 15.1513C56.0593 15.1771 55.9743 15.1771 55.9233 15.1513C55.8723 15.1255 55.8723 15.074 55.9233 15.0396C55.9743 15.0138 56.0593 15.0052 56.1103 15.0396Z" fill="white"/>
<path d="M59.177 14.9107L60.596 15.7442L60.4346 15.7614L57.622 16.045C57.8004 16.0794 57.9704 16.1395 58.1148 16.2255C58.6247 16.5176 58.6247 16.9988 58.1148 17.291C57.6135 17.5832 56.7978 17.5832 56.2964 17.291C56.05 17.1449 55.9226 16.9645 55.9141 16.784H56.05C56.0585 16.9473 56.1775 17.1106 56.3899 17.2394C56.8488 17.5058 57.571 17.5058 58.0214 17.2394C58.4717 16.9731 58.4717 16.552 58.0214 16.2856C57.8005 16.1567 57.5285 16.088 57.2481 16.088V16.0106L60.3241 15.7013L59.075 14.9709L59.1685 14.9193L59.177 14.9107Z" fill="white"/>
<path d="M60.5709 18.9151L58.625 17.7808L63.29 17.3082L63.4004 17.3769L60.7663 18.9151L61.4121 19.2932L61.3186 19.3533L60.6728 18.9752L59.9421 19.4049L59.8486 19.3533L60.5794 18.9237L60.5709 18.9151ZM60.6643 18.8549L63.1625 17.3941L58.8884 17.8238L60.6558 18.8549H60.6643Z" fill="white"/>
<path d="M48.2068 14.0599L48.6912 14.3435L48.5212 14.438L48.2408 14.2748L48.1134 14.3521L48.3598 14.4982L48.1898 14.6013L47.9434 14.4552L47.6375 14.6357L47.4336 14.5154L48.2068 14.0599Z" fill="white"/>
<path d="M48.5129 15.1427L48.5978 14.9536L48.4704 14.8763L48.2664 14.9966L48.0625 14.8763L48.8357 14.4208L49.1586 14.6099C49.3116 14.7044 49.3116 14.8505 49.1586 14.945C49.0737 14.9966 48.9632 15.0138 48.8612 15.0138L48.7423 15.2716L48.5044 15.1341L48.5129 15.1427ZM48.6488 14.7732L48.7763 14.8505C48.8357 14.8849 48.9377 14.8849 48.9972 14.8505C49.0567 14.8161 49.0567 14.756 48.9972 14.7216L48.8697 14.6443L48.6488 14.7732Z" fill="white"/>
<path d="M49.6258 14.8849L49.8297 15.0052L49.0565 15.4606L48.8525 15.3403L49.6258 14.8849Z" fill="white"/>
<path d="M49.991 15.0997L50.2799 15.2716C50.4924 15.4005 50.4924 15.5981 50.2799 15.727C50.0675 15.8473 49.7191 15.8473 49.5067 15.727L49.2178 15.5552L49.991 15.0997ZM49.6256 15.5552L49.7106 15.6067C49.8126 15.6669 49.974 15.6669 50.076 15.6067C50.178 15.5466 50.178 15.4521 50.076 15.3919L49.991 15.3403L49.6256 15.5552Z" fill="white"/>
<path d="M49.9492 15.9848L51.0878 15.7442L51.1813 15.7958L50.7735 16.4574L50.5695 16.3371L50.6205 16.2512L50.3061 16.0621L50.1616 16.0965L49.9577 15.9762L49.9492 15.9848ZM50.5525 16.0192L50.714 16.1137L50.8074 15.9676L50.5525 16.0192Z" fill="white"/>
<path d="M51.5205 16.5691L51.2401 16.7324L51.0361 16.6121L51.3165 16.4488L51.5205 16.002L51.7584 16.1394L51.6479 16.3801L52.0558 16.3199L52.2937 16.4574L51.5205 16.5777V16.5691Z" fill="white"/>
<path d="M52.8291 17.1449C52.8716 17.1449 52.9141 17.1363 52.9396 17.1191C52.9821 17.0933 52.9906 17.0417 52.9396 17.016C52.8886 16.9902 52.8121 16.9902 52.7611 17.016L52.5912 16.9214C52.7271 16.8441 52.9481 16.8355 53.1095 16.9214C53.2625 17.0074 53.2285 17.1449 53.1095 17.2222C53.033 17.2652 52.9226 17.2738 52.9226 17.2738L52.5657 17.3081L52.7866 17.437L52.6252 17.5315L52.0898 17.2222L52.8461 17.1449H52.8291Z" fill="white"/>
<path d="M54.0866 17.4886L53.9167 17.5831L52.9565 17.7292L52.7695 17.6175L53.7297 17.4628L53.3219 17.2222L53.4833 17.1277L54.0866 17.48V17.4886Z" fill="white"/>
<path d="M54.7926 18.2362L55.3959 18.2534L55.4894 18.305L54.7161 18.7604L54.5122 18.6401L54.9116 18.4081H54.5207L54.5037 18.1761L54.1043 18.4081L53.9004 18.2878L54.6736 17.8323L54.7671 17.8839L54.7926 18.2362Z" fill="white"/>
<path d="M54.8174 18.8291L55.956 18.5885L56.0495 18.6401L55.6416 19.3017L55.4377 19.1814L55.4887 19.0955L55.1743 18.9064L55.0298 18.9408L54.8259 18.8205L54.8174 18.8291ZM55.4207 18.8635L55.5821 18.958L55.6756 18.8119L55.4292 18.8635H55.4207Z" fill="white"/>
<path d="M56.1945 19.6283L56.2795 19.4393L56.152 19.3619L55.9481 19.4822L55.7441 19.3619L56.5174 18.9065L56.8403 19.0955C57.0017 19.1901 57.0017 19.3362 56.8403 19.4307C56.7553 19.4822 56.6448 19.4994 56.5429 19.4994L56.4239 19.7572L56.186 19.6197L56.1945 19.6283ZM56.3304 19.2588L56.4579 19.3362C56.5174 19.3705 56.6194 19.3705 56.6788 19.3362C56.7383 19.3018 56.7383 19.2416 56.6788 19.2073L56.5514 19.1299L56.3304 19.2588Z" fill="white"/>
<path d="M57.5287 19.8001C57.5287 19.8001 57.5033 19.7228 57.4523 19.697C57.3503 19.6369 57.1974 19.6369 57.0869 19.697C56.9849 19.7572 56.9849 19.8517 57.0869 19.9118C57.1379 19.9462 57.2058 19.9548 57.2738 19.9548V20.1181C57.1379 20.1181 56.9934 20.0837 56.883 20.0235C56.6705 19.8946 56.6705 19.697 56.883 19.5681C57.0954 19.4392 57.4438 19.4392 57.6562 19.5681C57.7667 19.6283 57.8176 19.7142 57.8176 19.7915H57.5287V19.8001Z" fill="white"/>
<path d="M58.2926 19.9462L58.0207 20.1095L58.2671 20.2556L58.539 20.0923L58.743 20.2126L57.9697 20.6681L57.7658 20.5478L58.0632 20.3759L57.8168 20.2298L57.5194 20.4017L57.3154 20.2814L58.0887 19.8259L58.2926 19.9462Z" fill="white"/>
</g>
<defs>
<clipPath id="clip0_1064_823">
<rect width="81.9643" height="49.1786" fill="white" transform="translate(0.928711 0.5)"/>
</clipPath>
</defs>
</svg>
