<svg width="64" height="73" viewBox="0 0 64 73" fill="none" xmlns="http://www.w3.org/2000/svg">
<g clip-path="url(#clip0_1064_2479)">
<path d="M30.7098 44.1345L2.0134 60.7049L0 63.6859C0 63.6859 4.81181 66.8415 6.79614 67.5613L21.8639 73.0073L33.3192 72.0911L62.0375 55.5062L62.7135 53.7902L60.4093 52.765L50.5313 46.5629C47.7547 43.2838 43.3863 41.815 39.1923 42.753L38.2183 42.9711C37.1789 43.2038 31.6257 43.5964 30.7026 44.1272L30.7098 44.1345Z" fill="#F5F2E8"/>
<path d="M7.1377 62.7771L7.15223 62.8425C7.54474 64.2967 8.62049 65.4673 10.0379 65.9763L24.7858 71.3131V69.888L7.20311 60.414L7.14496 62.7771H7.1377Z" fill="#8990B0"/>
<path d="M14.1008 50.8309C14.1008 50.8309 12.1746 49.7839 11.535 49.7839C10.8953 49.7839 10.0449 49.8276 10.0449 51.3108C10.0449 52.7941 11.3242 53.1067 11.3242 53.1067L14.5369 54.2701C14.5369 54.2701 16.4631 51.5144 14.1081 50.8382L14.1008 50.8309Z" fill="#393F42"/>
<path d="M12.1311 50.1402C12.9088 50.591 13.7156 51.3617 13.3886 51.5508C13.0615 51.7398 11.7313 51.2745 10.9463 50.8237C10.1686 50.3729 10.4957 50.2566 10.8227 50.0675C11.1498 49.8785 11.3533 49.6894 12.1311 50.1402Z" fill="#393F42"/>
<path d="M10.4668 50.402V36.4491L13.4615 37.4816V51.4417L10.4668 50.402Z" fill="#393F42"/>
<path d="M12.1311 36.2164C12.9088 36.6672 13.7157 37.4379 13.3886 37.627C13.0615 37.816 11.7313 37.3507 10.9463 36.8999C10.1613 36.4491 10.4957 36.3328 10.8228 36.1437C11.1498 35.9547 11.3534 35.7656 12.1311 36.2164Z" fill="#6F7279"/>
<path d="M11.9785 36.2673C12.5309 36.5872 13.2215 37.2053 12.9889 37.3361C12.7563 37.467 11.6878 37.0744 11.1354 36.7545C10.5829 36.4345 10.8155 36.3546 11.0481 36.2164C11.2807 36.0855 11.4261 35.9474 11.9785 36.2673Z" fill="#393F42"/>
<path d="M10.7939 14.3164V36.4273L13.0327 37.2562L12.5093 15.0653C12.5093 15.0653 11.012 14.0474 10.7939 14.3164Z" fill="#393F42"/>
<path d="M11.9929 14.3382C12.5598 14.7963 12.618 15.2107 12.3781 15.3198C12.1455 15.4289 11.7094 15.1817 11.1425 14.7236C10.5755 14.2655 10.8154 14.2219 11.048 14.1128C11.2806 14.0038 11.4259 13.8874 11.9929 14.3382Z" fill="#6F7279"/>
<path d="M26.2321 43.8291C26.2321 43.8291 24.3059 42.7821 23.6663 42.7821C23.0266 42.7821 22.1689 42.8257 22.1689 44.309C22.1689 45.7922 23.4482 46.1049 23.4482 46.1049L26.6609 47.2682C26.6609 47.2682 28.5871 44.5126 26.2321 43.8364V43.8291Z" fill="#393F42"/>
<path d="M24.262 43.1383C25.0397 43.5891 25.8465 44.3598 25.5194 44.5489C25.1923 44.7379 23.8622 44.2726 23.0772 43.8218C22.2922 43.371 22.6265 43.2547 22.9536 43.0656C23.2807 42.8766 23.4842 42.6875 24.262 43.1383Z" fill="#393F42"/>
<path d="M22.5977 43.3928V29.4472L25.5923 30.4797V44.4398L22.5977 43.3928Z" fill="#393F42"/>
<path d="M24.2619 29.2073C25.0397 29.6581 25.8465 30.4288 25.5194 30.6178C25.1923 30.8069 23.8622 30.3415 23.0772 29.8907C22.2994 29.4399 22.6265 29.3236 22.9536 29.1346C23.2807 28.9455 23.4842 28.7565 24.2619 29.2073Z" fill="#6F7279"/>
<path d="M24.1094 29.2582C24.6618 29.5781 25.3523 30.1961 25.1197 30.327C24.8871 30.4579 23.8186 30.0652 23.2662 29.7453C22.7138 29.4254 22.9464 29.3454 23.179 29.2073C23.4116 29.0691 23.557 28.9382 24.1094 29.2582Z" fill="#393F42"/>
<path d="M22.9248 7.31452V29.4254L25.1635 30.2543L24.6402 8.06343C24.6402 8.06343 23.1429 7.0455 22.9248 7.31452Z" fill="#393F42"/>
<path d="M24.1237 7.32907C24.6907 7.78714 24.7488 8.20158 24.509 8.31065C24.2764 8.41971 23.8403 8.1725 23.2733 7.71443C22.7064 7.25637 22.9462 7.21274 23.1788 7.10368C23.4114 6.99461 23.5568 6.87828 24.1237 7.32907Z" fill="#6F7279"/>
<path d="M38.3639 36.8199C38.3639 36.8199 36.4377 35.7729 35.7981 35.7729C35.1585 35.7729 34.3008 35.8165 34.3008 37.2998C34.3008 38.783 35.5801 39.0957 35.5801 39.0957L38.7928 40.259C38.7928 40.259 40.719 37.5034 38.3639 36.8272V36.8199Z" fill="#393F42"/>
<path d="M36.3938 36.1292C37.1715 36.58 37.9783 37.3507 37.6512 37.5397C37.3242 37.7288 35.994 37.2634 35.209 36.8126C34.4313 36.3618 34.7583 36.2455 35.0854 36.0565C35.4125 35.8674 35.616 35.6784 36.3938 36.1292Z" fill="#393F42"/>
<path d="M34.7295 36.3837V22.438L37.7242 23.4705V37.4307L34.7295 36.3837Z" fill="#393F42"/>
<path d="M36.3938 22.1981C37.1715 22.6489 37.9783 23.4196 37.6512 23.6086C37.3242 23.7977 35.994 23.3323 35.209 22.8815C34.4313 22.4308 34.7583 22.3144 35.0854 22.1254C35.4125 21.9363 35.616 21.7473 36.3938 22.1981Z" fill="#6F7279"/>
<path d="M36.2412 22.2563C36.7936 22.5762 37.4841 23.1942 37.2515 23.3251C37.019 23.456 35.9505 23.0633 35.3981 22.7434C34.8456 22.4235 35.0782 22.3435 35.3108 22.2054C35.5434 22.0672 35.6888 21.9363 36.2412 22.2563Z" fill="#393F42"/>
<path d="M35.0566 0.305369V22.4162L37.2954 23.2451L36.772 1.05427C36.772 1.05427 35.2747 0.0363453 35.0566 0.305369Z" fill="#393F42"/>
<path d="M36.2556 0.327183C36.8225 0.78525 36.8807 1.19969 36.6408 1.30876C36.4082 1.41782 35.9721 1.17061 35.4051 0.712541C34.8382 0.254473 35.0781 0.210848 35.3107 0.101784C35.5433 -0.0072796 35.6886 -0.123614 36.2556 0.327183Z" fill="#6F7279"/>
<path d="M11.9712 51.8925L9.65248 54.83L7.20296 60.414C7.16662 62.3263 8.3514 64.0422 10.154 64.6821L24.793 69.888L24.4295 63.1479L11.9784 51.8853L11.9712 51.8925Z" fill="#B8BCCF"/>
<path d="M55.9467 37.7506C53.7443 35.1549 50.5461 33.6934 47.2316 33.6643C46.3594 33.6571 45.4799 33.7443 44.6077 33.9406L43.6337 34.1588C42.587 34.3914 41.5839 34.784 40.6608 35.3148L11.9717 51.8925L10.6197 53.8847C9.44221 55.6298 10.22 58.0219 12.2043 58.7417L24.4228 63.1479L32.9416 61.9046L58.7596 46.9919L60.0389 42.5785L55.9467 37.7506Z" fill="#E8E7EC"/>
<path d="M45.1964 34.6677L24.212 60.7412L24.4228 63.1479L12.2043 58.7417C10.22 58.0219 9.44221 55.6298 10.6197 53.8847L11.9717 51.8925L40.6608 35.3148C41.5839 34.784 42.587 34.3914 43.6337 34.1588L44.6077 33.9406C45.4799 33.7443 46.3594 33.6571 47.2317 33.6643C45.9015 34.057 45.1964 34.6677 45.1964 34.6677Z" fill="#CFCFDA"/>
<path d="M12.6108 52.2706L12.8652 51.8925L41.1328 35.5693C42.0559 35.0385 43.059 34.6459 44.0984 34.4133C48.3578 33.4608 52.7916 34.9877 55.561 38.3686L58.4902 41.9459L57.7415 45.1379L32.4977 59.716L25.6943 60.7122L24.2042 60.7558L14.1808 57.1421C12.1965 56.4296 11.4188 54.0302 12.5963 52.2852L12.6108 52.2706Z" fill="#F2F1F4"/>
<path d="M55.5679 38.3613C54.3395 36.8635 52.7913 35.7365 51.0687 35.0167C52.3988 35.722 53.6054 36.689 54.5939 37.896L57.5232 41.4733L56.7745 44.6652L31.5307 59.2434L24.7273 60.2395L23.2372 60.2832L13.4609 56.7568C13.679 56.9095 13.9261 57.0331 14.1951 57.1349L24.2185 60.7485L25.7085 60.7049L32.5119 59.7088L57.7558 45.1306L58.5044 41.9386L55.5752 38.3613H55.5679Z" fill="#F6F6F8"/>
<path d="M63.9999 48.926L60.0458 42.5785L58.7593 46.9919L32.9412 61.9046L24.4297 63.1479L24.7858 69.8881L35.1872 68.7611L62.7352 52.8523L63.9999 48.926Z" fill="#DADAE6"/>
<path d="M58.7595 46.9919L62.7354 52.8523L35.1874 68.761L32.9414 61.9046L58.7595 46.9919Z" fill="#E8E7EC"/>
<path d="M37.0699 60.5086L55.8011 49.6894C56.5934 49.2314 57.611 49.4858 58.098 50.2638L58.4033 50.7582C59.29 52.1688 58.8248 54.0374 57.3784 54.8663L39.4395 65.2274C38.1748 65.9617 36.5539 65.3364 36.0959 63.9477L35.936 63.446C35.5726 62.3263 36.0378 61.0975 37.0627 60.5086H37.0699Z" fill="#3A3F47"/>
<path d="M64.0002 50.3511V48.926L62.7355 52.8523L35.1875 68.7611L24.7861 69.888V71.3131L35.1875 70.1862L62.7355 54.2774L64.0002 50.3511Z" fill="#A0A6C0"/>
<path d="M40.6531 60.6685C40.595 60.5667 40.4496 60.5376 40.3333 60.6103L39.5846 61.0466C39.4611 61.1193 39.4102 61.2574 39.4683 61.3592L39.5119 61.4392C39.5701 61.541 39.7155 61.5701 39.8318 61.4974L40.5804 61.0611C40.704 60.9884 40.7549 60.8503 40.6967 60.7485L40.6531 60.6685Z" fill="#93DA42"/>
<path d="M43.4295 59.0616C43.3713 58.9598 43.226 58.9308 43.1097 59.0035L42.361 59.4397C42.2374 59.5124 42.1866 59.6506 42.2447 59.7524L42.2883 59.8323C42.3465 59.9341 42.4918 59.9632 42.6081 59.8905L43.3568 59.4543C43.4804 59.3815 43.5312 59.2434 43.4731 59.1416L43.4295 59.0616Z" fill="#3D6627"/>
<path d="M46.2137 57.4548C46.1555 57.353 46.0101 57.3239 45.8938 57.3966L45.1452 57.8328C45.0216 57.9056 44.9707 58.0437 45.0289 58.1455L45.0725 58.2255C45.1306 58.3273 45.276 58.3564 45.3923 58.2836L46.141 57.8474C46.2645 57.7747 46.3154 57.6365 46.2573 57.5347L46.2137 57.4548Z" fill="#3D6627"/>
<path d="M48.9978 55.8479C48.9397 55.7461 48.7943 55.717 48.678 55.7897L47.9294 56.226C47.8058 56.2987 47.7549 56.4368 47.8131 56.5386L47.8567 56.6186C47.9148 56.7204 48.0602 56.7495 48.1765 56.6768L48.9252 56.2405C49.0487 56.1678 49.0996 56.0297 49.0415 55.9279L48.9978 55.8479Z" fill="#FFE56F"/>
<path d="M51.7742 54.241C51.7161 54.1392 51.5707 54.1101 51.4544 54.1828L50.7057 54.6191C50.5822 54.6918 50.5313 54.83 50.5894 54.9318L50.633 55.0117C50.6912 55.1135 50.8366 55.1426 50.9529 55.0699L51.7015 54.6336C51.8251 54.5609 51.876 54.4228 51.8178 54.321L51.7742 54.241Z" fill="#93DA42"/>
<path d="M54.602 52.7141L54.5584 52.6341C54.5002 52.5323 54.3549 52.5033 54.2386 52.576L53.4899 53.0122C53.3663 53.0849 53.3155 53.2231 53.3736 53.3249L53.4172 53.4049C53.4754 53.5066 53.6207 53.5357 53.737 53.463L54.4857 53.0268C54.6093 52.9541 54.6602 52.8159 54.602 52.7141Z" fill="#3D6627"/>
<path d="M11.9717 51.8925H12.873L41.1333 35.562L40.6608 35.3148L11.9717 51.8925Z" fill="#3A3F47"/>
<path d="M12.873 51.8925L13.5926 52.1543C14.4794 52.4742 15.4607 52.387 16.2748 51.9216L41.5695 37.3216C42.1364 36.9944 42.1437 36.1801 41.584 35.8456L41.1406 35.5766L12.873 51.8998V51.8925Z" fill="#4B5059"/>
</g>
<defs>
<clipPath id="clip0_1064_2479">
<rect width="64" height="73" fill="white"/>
</clipPath>
</defs>
</svg>
