<svg width="80" height="72" viewBox="0 0 80 72" fill="none" xmlns="http://www.w3.org/2000/svg">
<g clip-path="url(#clip0_1064_1588)">
<path d="M62.8823 40.824L48.4784 32.6127C45.4981 30.9129 40.9528 30.7303 38.3708 32.1983L2.49276 52.6528C-0.0892689 54.1208 0.23793 56.7198 3.21828 58.4126L16.982 66.2587L31.9335 68.113C34.857 68.4572 37.944 68.4081 39.9712 67.2561L63.3517 53.8188C65.0091 52.8776 65.9764 51.0794 65.8413 49.1969L62.8823 40.824Z" fill="#F5F2E8"/>
<path d="M78.5314 58.0966L55.1438 71.4285C50.3496 68.8646 46.3734 67.7267 44.1328 64.4113V60.4567L65.7564 48.1292C67.8192 48.5858 72.0585 55.1745 78.5242 58.0895L78.5314 58.0966Z" fill="#F5F2E8"/>
<path d="M74.6756 35.0151C74.6756 38.0284 74.6756 41.9971 74.6756 41.9971V42.9945C74.6756 44.7576 73.7225 46.3943 72.1718 47.2723L70.3082 48.34L69.4333 47.8412L68.6651 47.4057L44.7369 61.0467V62.9152L40.5758 65.2893C39.0607 66.1533 37.3038 66.5186 35.5611 66.343C35.5611 66.343 28.0711 65.4088 23.3267 63.3085L11.9388 56.8182C10.2601 55.8629 9.4279 54.6266 9.47769 53.4606V38.3235L17.1811 41.6389L47.0913 26.5369C49.6734 25.0688 51.5014 23.6991 54.4818 25.3989L65.3433 31.5872L71.6099 26.3542L74.6827 32.676C74.6827 32.7181 74.6827 33.6875 74.6827 35.0151H74.6756Z" fill="#41464F"/>
<path d="M74.6764 35.0151C74.6764 38.0284 74.6764 41.9971 74.6764 41.9971C74.6764 42.2921 74.648 42.5871 74.5982 42.8751C74.3421 44.294 73.4601 45.5443 72.1726 46.2748L70.309 47.3425L69.4341 47.8412L68.6659 47.4057L44.7377 61.0467V61.9177L40.5766 64.2919C39.0616 65.1559 37.3046 65.5211 35.5619 65.3455C35.5619 65.3455 28.0719 64.4113 23.3276 62.3111L11.9396 55.8207C10.3321 54.9076 9.49985 53.7345 9.47852 52.6107V37.326L17.1819 40.6414L47.0921 25.5394C49.6742 24.0714 51.5022 22.7016 54.4826 24.4015L65.3441 30.5898L71.6107 25.3568L74.6835 31.6786C74.6835 31.7348 74.6835 33.2028 74.6835 35.0221L74.6764 35.0151Z" fill="url(#paint0_linear_1064_1588)"/>
<path d="M71.5961 23.2636L57.1923 15.0523C54.2119 13.3524 49.6667 13.1698 47.0847 14.6378L11.2066 35.0923C8.6246 36.5604 8.9518 39.1593 11.9322 40.8521L26.336 49.0634L71.5961 23.2636Z" fill="#F1F1F3"/>
<path d="M12.2523 40.3042C10.8938 39.5246 10.1113 38.5412 10.1113 37.5929C10.1113 36.6446 10.8795 36.0125 11.5268 35.6472L47.3978 15.1927C48.422 14.6097 49.866 14.2866 51.4593 14.2866C53.4154 14.2866 55.3857 14.7713 56.8581 15.6072L70.2946 23.2706L26.329 48.3329L12.2452 40.3042H12.2523Z" fill="#393F42"/>
<path d="M54.7949 18.7118L50.9894 20.8823L50.5982 21.1001L46.9848 23.1652L46.5936 23.3829L19.7349 38.7027L19.5357 38.8151L13.8808 35.591L13.3047 35.2608L13.6959 35.0361L17.3022 32.978L17.6934 32.7532L44.5593 17.4405L44.9505 17.2157L48.5639 15.1576L49.1401 15.4877L54.7949 18.7118Z" fill="#323741"/>
<path d="M48.5641 15.1576L48.4787 14.9048L47.362 11.6526C46.295 8.54085 42.6176 7.17113 39.7368 8.81479L14.4998 23.2004C11.9107 24.6754 10.737 27.752 11.6902 30.5547L13.2124 34.994L13.3048 35.2609L19.2513 38.6466L17.3095 32.978L15.9865 29.1218C15.7233 28.3491 16.0505 27.4921 16.7618 27.0777L40.2347 13.6966C41.5506 12.945 43.2293 13.5702 43.7201 14.9961L44.5594 17.4405L46.5938 23.39L50.5984 21.1071L48.5641 15.1576Z" fill="#41464F"/>
<path d="M50.9893 20.8824L50.5981 21.1071L46.9846 23.1652L45.1353 17.7706L44.9432 17.2157L44.2959 15.3192C43.8051 13.9003 42.1264 13.2681 40.8105 14.0197L17.3447 27.4078C16.6263 27.8153 16.2991 28.6722 16.5694 29.4519L17.7003 32.7603L17.8924 33.3152L19.7418 38.7098L19.5426 38.8222L13.8878 35.5981L13.7953 35.3311L13.6957 35.0502L12.2731 30.8989C11.3129 28.1032 12.4865 25.0266 15.0828 23.5445L40.3126 9.14493C43.1934 7.50127 46.8779 8.87099 47.9378 11.9827L49.0545 15.2349L49.1399 15.4878L50.9893 20.8824Z" fill="#71757C"/>
<path d="M19.7348 38.7027L18.7816 35.9352L16.6406 37.1574L19.5356 38.8151L19.7348 38.7027Z" fill="#41464F"/>
<path d="M50.5985 21.1001L50.9897 20.8823L50.0437 18.1148L47.0562 19.8217L46.665 20.0394L46.0391 20.3977L46.9851 23.1652L50.5985 21.1001Z" fill="#41464F"/>
<path d="M72.0652 36.2653L42.3115 53.2358C40.2914 54.3878 37.8659 54.6477 35.6466 53.9452L26.3428 49.0705L71.6029 23.2706L74.5619 31.6434C74.6971 33.5259 73.7297 35.3241 72.0724 36.2653H72.0652Z" fill="#F1F1F3"/>
<path d="M38.1577 53.6923C37.3895 53.6923 36.6284 53.58 35.8887 53.3552L27.666 49.0494L71.2332 24.2118L73.9077 31.7698C73.986 33.3713 73.1395 34.9096 71.7383 35.7104L41.9845 52.6809C40.8251 53.3411 39.5021 53.6923 38.1577 53.6923Z" fill="#393F42"/>
<path d="M53.2943 39.2366C53.4579 39.8336 53.0382 40.4026 52.3554 40.515C51.6725 40.6203 50.9897 40.227 50.8332 39.6299C50.6696 39.0329 51.0893 38.4639 51.7721 38.3515C52.455 38.2462 53.1378 38.6395 53.2943 39.2366Z" fill="#71757C"/>
<path d="M52.9176 39.2928C53.0314 39.7072 52.7397 40.1076 52.2632 40.1778C51.7937 40.2551 51.3171 39.9741 51.2033 39.5597C51.0895 39.1453 51.3811 38.7449 51.8577 38.6747C52.3272 38.5974 52.8037 38.8784 52.9176 39.2928Z" fill="#41464F"/>
<path d="M70.3018 41.4141V48.3399L69.4269 47.8412L68.6587 47.4057L44.7305 61.0467V55.9893L67.3997 43.0718L70.3018 41.4141Z" fill="#595E66"/>
<path d="M70.3013 41.4141V48.3399L69.4264 47.8412L68.6582 47.4057L69.4762 41.8847L70.3013 41.4141Z" fill="#41464F"/>
<path d="M71.2404 24.2048L70.8421 23.692L70.3015 23.2635L26.3359 48.3329L27.0259 48.6771L27.6732 49.0424L71.2404 24.2048Z" fill="#D0CECE"/>
<path d="M37.2192 0.392761C37.2192 0.392761 27.0475 6.97444 13.8316 13.7247C12.3592 19.7795 22.6588 37.0591 22.6588 37.0591L46.0464 23.7272C46.0464 23.7272 35.7468 6.44762 37.2192 0.392761Z" fill="#A7A6B4"/>
<path d="M22.6589 37.0591L46.0465 23.7272C46.0465 23.7272 45.6411 23.0388 45.0009 21.9009L21.6133 35.2328C22.2535 36.3707 22.6589 37.0591 22.6589 37.0591Z" fill="#CFD1DC"/>
<path d="M79.0721 56.4037L55.6845 69.7356C50.62 68.6679 46.9711 64.6852 44.7305 61.3768V57.4222L66.354 45.0947C68.0825 48.3891 72.3219 54.9778 79.065 56.4037H79.0721Z" fill="#F6F6F8"/>
<path d="M44.7305 59.3398L67.2289 46.64C66.8946 46.0781 66.5959 45.5513 66.354 45.0947L44.7305 57.4222V59.3398Z" fill="#CFD1DC"/>
<path d="M64.4047 25.2865C64.1771 25.2865 63.9495 25.2374 63.7788 25.139L63.1244 24.7668C62.9394 24.6614 62.8398 24.5139 62.8398 24.3593C62.8398 24.2048 62.9394 24.0573 63.1244 23.9519L64.5754 23.1301C64.9168 22.9334 65.4788 22.9334 65.8202 23.1301L66.4746 23.5024C66.6595 23.6078 66.7591 23.7553 66.7591 23.9098C66.7591 24.0643 66.6595 24.2118 66.4746 24.3172L65.0307 25.139C64.8599 25.2374 64.6323 25.2865 64.4118 25.2865H64.4047ZM65.1871 23.1582C64.9951 23.1582 64.803 23.2004 64.6537 23.2846L63.2026 24.1065C63.0817 24.1767 63.0106 24.268 63.0106 24.3593C63.0106 24.4507 63.0817 24.542 63.2097 24.6122L63.8641 24.9845C64.1558 25.1531 64.6466 25.1531 64.9311 24.9845L66.375 24.1627C66.4959 24.0924 66.5671 24.0011 66.5671 23.9098C66.5671 23.8185 66.4959 23.7272 66.3679 23.6569L65.7135 23.2846C65.5641 23.2004 65.3721 23.1582 65.1729 23.1582H65.1871Z" fill="#3B3F47"/>
<path d="M61.1254 23.4181C60.8978 23.4181 60.6702 23.3689 60.4995 23.2706L59.8451 22.8983C59.6601 22.7929 59.5605 22.6454 59.5605 22.4909C59.5605 22.3363 59.6601 22.1888 59.8451 22.0835L61.289 21.2616C61.6304 21.065 62.1924 21.065 62.5338 21.2616L63.1882 21.6339C63.3731 21.7393 63.4727 21.8868 63.4727 22.0413C63.4727 22.1959 63.3731 22.3434 63.1882 22.4487L61.7442 23.2706C61.5735 23.3689 61.3459 23.4181 61.1254 23.4181ZM61.9078 21.2897C61.7158 21.2897 61.5237 21.3319 61.3744 21.4092L59.9304 22.231C59.8095 22.3012 59.7384 22.3925 59.7384 22.4839C59.7384 22.5752 59.8095 22.6665 59.9375 22.7367L60.5919 23.109C60.8836 23.2776 61.3744 23.2776 61.6589 23.109L63.1028 22.2872C63.2238 22.2169 63.2949 22.1256 63.2949 22.0343C63.2949 21.943 63.2238 21.8517 63.0957 21.7814L62.4413 21.4092C62.2919 21.3249 62.0999 21.2827 61.9007 21.2827L61.9078 21.2897Z" fill="#3B3F47"/>
<path d="M57.8471 21.5497C57.6195 21.5497 57.3919 21.5005 57.2211 21.4022L56.5667 21.0299C56.3818 20.9245 56.2822 20.777 56.2822 20.6225C56.2822 20.4679 56.3818 20.3204 56.5667 20.2151L58.0107 19.3932C58.3521 19.1966 58.914 19.1966 59.2555 19.3932L59.9099 19.7655C60.0948 19.8709 60.1944 20.0184 60.1944 20.1729C60.1944 20.3275 60.0948 20.475 59.9099 20.5803L58.4659 21.4022C58.2952 21.5005 58.0676 21.5497 57.8471 21.5497ZM58.6295 19.4213C58.4375 19.4213 58.2454 19.4635 58.096 19.5407L56.6521 20.3626C56.5312 20.4328 56.4601 20.5241 56.4601 20.6154C56.4601 20.7068 56.5312 20.7981 56.6592 20.8683L57.3136 21.2406C57.6052 21.4092 58.096 21.4092 58.3806 21.2406L59.8245 20.4188C59.9454 20.3485 60.0166 20.2572 60.0166 20.1659C60.0166 20.0746 59.9454 19.9833 59.8174 19.913L59.163 19.5407C59.0207 19.4565 58.8216 19.4143 58.6224 19.4143L58.6295 19.4213Z" fill="#619347"/>
<path d="M28.2992 46.1695C28.0716 46.1695 27.844 46.1203 27.6733 46.022L27.0189 45.6497C26.834 45.5443 26.7344 45.3968 26.7344 45.2423C26.7344 45.0877 26.834 44.9402 27.0189 44.8349L28.47 44.013C28.8114 43.8164 29.3733 43.8164 29.7147 44.013L30.3691 44.3853C30.5541 44.4907 30.6536 44.6382 30.6536 44.7927C30.6536 44.9473 30.5541 45.0948 30.3691 45.2001L28.9181 46.022C28.7474 46.1203 28.5197 46.1695 28.2992 46.1695ZM29.0817 44.0411C28.8896 44.0411 28.6976 44.0833 28.5482 44.1676L27.0971 44.9894C26.9762 45.0597 26.9051 45.151 26.9051 45.2423C26.9051 45.3336 26.9762 45.4249 27.1043 45.4952L27.7587 45.8674C28.0503 46.036 28.5411 46.036 28.8256 45.8674L30.2767 45.0456C30.3976 44.9754 30.4687 44.884 30.4687 44.7927C30.4687 44.7014 30.3976 44.6101 30.2695 44.5399L29.6151 44.1676C29.4729 44.0833 29.2737 44.0411 29.0746 44.0411H29.0817Z" fill="#3B3F47"/>
<path d="M25.0199 44.301C24.7923 44.301 24.5647 44.2518 24.394 44.1535L23.7396 43.7812C23.5547 43.6759 23.4551 43.5283 23.4551 43.3738C23.4551 43.2193 23.5547 43.0718 23.7396 42.9664L25.1907 42.1446C25.5321 41.9479 26.094 41.9479 26.4354 42.1446L27.0898 42.5169C27.2748 42.6222 27.3744 42.7697 27.3744 42.9243C27.3744 43.0788 27.2748 43.2263 27.0898 43.3317L25.6388 44.1535C25.4681 44.2518 25.2404 44.301 25.0199 44.301ZM25.8024 42.1727C25.6103 42.1727 25.4183 42.2148 25.2689 42.2921L23.8178 43.1139C23.6969 43.1842 23.6258 43.2755 23.6258 43.3668C23.6258 43.4581 23.6969 43.5494 23.825 43.6197L24.4794 43.9919C24.771 44.1605 25.2618 44.1605 25.5463 43.9919L26.9974 43.1701C27.1183 43.0999 27.1894 43.0086 27.1894 42.9172C27.1894 42.8259 27.1183 42.7346 26.9902 42.6644L26.3359 42.2921C26.1865 42.2078 25.9944 42.1657 25.7953 42.1657L25.8024 42.1727Z" fill="#3B3F47"/>
<path d="M21.7338 42.4256C21.5062 42.4256 21.2786 42.3764 21.1079 42.2781L20.4535 41.9058C20.2685 41.8004 20.1689 41.6529 20.1689 41.4984C20.1689 41.3439 20.2685 41.1963 20.4535 41.091L21.9045 40.2692C22.2459 40.0725 22.8079 40.0725 23.1493 40.2692L23.8037 40.6414C23.9886 40.7468 24.0882 40.8943 24.0882 41.0488C24.0882 41.2034 23.9886 41.3509 23.8037 41.4562L22.3526 42.2781C22.1819 42.3764 21.9543 42.4256 21.7338 42.4256ZM22.5162 40.2972C22.3242 40.2972 22.1321 40.3394 21.9828 40.4237L20.5317 41.2455C20.4108 41.3158 20.3397 41.4071 20.3397 41.4984C20.3397 41.5897 20.4108 41.681 20.5388 41.7513L21.1932 42.1235C21.4849 42.2921 21.9757 42.2921 22.2602 42.1235L23.7112 41.3017C23.8321 41.2315 23.9033 41.1402 23.9033 41.0488C23.9033 40.9575 23.8321 40.8662 23.7041 40.796L23.0497 40.4237C22.9003 40.3394 22.7083 40.2972 22.5091 40.2972H22.5162Z" fill="#3B3F47"/>
<path d="M72.9407 31.1517L71.2407 25.4059L72.0231 30.5758C72.2365 32.0157 71.5465 33.4346 70.2804 34.1651L41.4229 50.8265C39.8438 51.7397 37.9731 52.0557 36.1735 51.6905C35.448 51.543 34.7722 51.3814 34.3881 51.2199C33.2785 50.7492 30.3408 49.6324 30.3408 49.6324L34.9714 52.0628C34.9714 52.0628 35.576 52.6177 37.3258 52.8354C39.0756 53.0532 41.117 52.3086 41.117 52.3086C41.117 52.3086 71.5679 35.2328 72.6633 33.7366C73.7587 32.2475 72.9265 31.1377 72.9265 31.1377L72.9407 31.1517Z" fill="#D0CECE"/>
</g>
<defs>
<linearGradient id="paint0_linear_1064_1588" x1="9.46429" y1="44.5047" x2="74.6764" y2="44.5047" gradientUnits="userSpaceOnUse">
<stop stop-color="#B4B9CD"/>
<stop offset="0.01" stop-color="#A0A6C0"/>
<stop offset="0.25" stop-color="#A0A6C0"/>
<stop offset="0.26" stop-color="#ABB0C7"/>
<stop offset="0.27" stop-color="#BDC0D1"/>
<stop offset="0.29" stop-color="#C7C9D7"/>
<stop offset="0.31" stop-color="#CBCDDA"/>
<stop offset="0.42" stop-color="#D0D2DD"/>
<stop offset="0.43" stop-color="#D2D4DE"/>
<stop offset="0.45" stop-color="#E2E2E8"/>
<stop offset="0.46" stop-color="#E8E7EC"/>
<stop offset="0.94" stop-color="#E8E7EC"/>
<stop offset="0.98" stop-color="#E8E7EC"/>
<stop offset="0.99" stop-color="#DCDDE5"/>
<stop offset="1" stop-color="#D0D3DF"/>
</linearGradient>
<clipPath id="clip0_1064_1588">
<rect width="78.3214" height="71.0357" fill="white" transform="translate(0.75 0.392761)"/>
</clipPath>
</defs>
</svg>
