<svg width="52" height="60" viewBox="0 0 52 60" fill="none" xmlns="http://www.w3.org/2000/svg">
<path d="M6.17573 39.7478C6.17573 39.7478 6.09708 42.5878 8.29927 43.3088C10.5015 44.0298 9.27803 40.1611 9.27803 40.1611L6.16699 39.739L6.17573 39.7478Z" fill="#D0CECE"/>
<path d="M7.96691 40.7853L22.788 32.1774L21.8967 7.86609L8.43007 12.4646L6.7959 17.8104L7.96691 40.7853Z" fill="#393F42"/>
<path d="M34.1671 48.7162L29.0724 45.7531C25.6118 43.7396 22.7979 38.8597 22.7979 34.8679V15.8585L24.5893 16.896V35.9142C24.5893 38.7718 26.5993 42.2537 29.0724 43.6956L34.1671 46.6587C36.6402 48.0919 38.6501 46.9401 38.6501 44.0913V37.2947L40.4416 38.3322V45.1288C40.4416 49.1206 37.6277 50.7385 34.1671 48.725V48.7162Z" fill="#393F42"/>
<path d="M7.98535 24.4576L22.7977 15.8497L24.1522 17.7577L23.9775 36.4154C23.9775 36.4154 24.5717 40.3545 26.8263 43.0538C29.0722 45.7531 35.8798 47.6435 35.8798 47.6435L22.3346 56.8493L14.7929 53.9213L10.3973 49.5778L8.78059 44.6804L7.98535 24.4576Z" fill="#393F42"/>
<path d="M7.98535 24.4576C7.98535 24.4576 8.8505 18.4083 16.1474 13.4581C23.156 8.70134 28.4692 10.8995 28.4692 14.3198C28.4692 17.7401 18.1312 22.4968 18.1312 22.4968L9.77682 25.4951L7.98535 24.4576Z" fill="#D0CECE"/>
<path d="M9.77637 25.5039C9.77637 25.5039 10.6415 19.4546 17.9385 14.5044C24.947 9.74766 30.2603 11.9458 30.2603 15.3661C30.2603 18.7864 19.9222 23.5432 19.9222 23.5432L12.7126 26.2161L9.77637 25.5039Z" fill="#393F42"/>
<path d="M10.5804 33.8744C10.0823 33.8744 9.59294 33.7776 9.13852 33.5842C8.01121 33.1094 7.17228 32.0895 6.83146 30.7706C6.17605 28.2471 7.43444 25.2489 9.68907 23.9388L21.906 16.8432C23.0857 16.1574 24.4141 16.0343 25.5501 16.5179C26.6774 16.9927 27.5164 18.0214 27.8572 19.3315C28.5126 21.855 27.2542 24.8532 24.9996 26.1633L12.7826 33.2589C12.0748 33.6721 11.3232 33.8744 10.5892 33.8744H10.5804ZM24.0995 18.7248C23.8023 18.7248 23.479 18.8215 23.1469 19.0062L10.93 26.1018C9.66285 26.8403 8.86762 28.7219 9.23465 30.1375C9.38321 30.7003 9.68033 31.0959 10.0911 31.2718C10.5105 31.4476 11.0174 31.3773 11.533 31.0871L23.7499 23.9916C25.017 23.253 25.8123 21.3714 25.4452 19.9558C25.3054 19.3931 24.9996 18.9886 24.5888 18.8215C24.4403 18.76 24.2742 18.7248 24.0995 18.7248Z" fill="#D0CECE"/>
<path d="M9.77649 29.7771C9.77649 29.7771 9.61919 24.3257 10.5018 23.1651C11.3844 22.0045 19.9573 17.0191 19.9573 17.0191C19.9573 17.0191 23.9072 17.2917 23.278 20.5801C22.6488 23.8685 9.77649 29.7771 9.77649 29.7771Z" fill="#393F42"/>
<path d="M38.7287 49.0943L23.6367 57.8604L25.1136 46.5796L39.6026 43.4583C39.6026 43.4583 39.9871 45.8586 38.7287 49.1031V49.0943Z" fill="#393F42"/>
<path d="M19.3536 57.3241L14.2589 54.361C10.7983 52.3475 7.98438 47.4676 7.98438 43.4758V24.4576L9.77584 25.4951V44.5134C9.77584 47.3709 11.7858 50.8528 14.2589 52.2947L19.3536 55.2578C21.8267 56.691 23.8367 55.5392 23.8367 52.6904V45.8938L25.6281 46.9313V53.7279C25.6281 57.7197 22.8142 59.3376 19.3536 57.3241Z" fill="#D0CECE"/>
<path d="M19.7037 50.6506C19.7037 50.6506 18.7861 49.9648 18.7861 40.1611C18.7861 30.3574 18.9085 28.6077 21.5127 26.6469C24.1168 24.6862 21.9234 35.6769 21.9234 35.6769L19.695 50.6506H19.7037Z" fill="#C4C8D8"/>
<path d="M20.0186 28.1505C20.0186 28.1505 20.3419 27.0514 23.7413 24.4664C27.1407 21.8814 36.9894 16.3333 39.7859 16.3509C36.736 19.8239 20.0273 28.1592 20.0273 28.1592L20.0186 28.1505Z" fill="#C4C8D8"/>
<mask id="mask0_1064_1082" style="mask-type:luminance" maskUnits="userSpaceOnUse" x="19" y="16" width="26" height="38">
<path d="M44.2251 18.7337C44.2251 18.7337 41.1577 16.3861 39.777 16.3421C39.3575 16.3245 38.8681 16.4476 38.3613 16.7466L22.474 25.9787C20.8311 26.9283 19.4854 29.2671 19.4854 31.1575V49.4987C19.4854 50.1406 19.6427 50.6506 19.9048 51.0111C19.9048 51.0111 20.8399 52.5498 24.3354 53.6752C24.685 53.2971 25.9521 51.1957 27.6911 48.1799L38.3526 41.9899C39.9955 41.0403 41.3412 38.7015 41.3412 36.8111V23.9388C43.0803 20.8087 44.2251 18.7337 44.2251 18.7337Z" fill="white"/>
</mask>
<g mask="url(#mask0_1064_1082)">
<path d="M19.4854 51.2397L23.6713 53.6752H19.4854V51.2397Z" fill="#BFC1D1"/>
<path d="M19.4854 51.1781L23.7849 53.6752H23.6713L19.4854 51.2396V51.1781Z" fill="#BFC1D1"/>
<path d="M19.4854 51.1166L23.8897 53.6752H23.7849L19.4854 51.1781V51.1166Z" fill="#BEC0D0"/>
<path d="M19.4854 51.0551L23.9946 53.6752H23.8897L19.4854 51.1166V51.0551Z" fill="#BDBFD0"/>
<path d="M19.4854 50.9935L24.0995 53.6752H23.9946L19.4854 51.055V50.9935Z" fill="#BCBECF"/>
<path d="M19.4854 50.9319L24.2043 53.6752H24.0995L19.4854 50.9935V50.9319Z" fill="#BBBDCF"/>
<path d="M19.4854 50.8704L24.3179 53.6752H24.2043L19.4854 50.932V50.8704Z" fill="#BABDCE"/>
<path d="M19.4854 50.8088L24.4228 53.6752H24.3179L19.4854 50.8704V50.8088Z" fill="#B9BCCE"/>
<path d="M19.4854 50.7473L24.5277 53.6752H24.4228L19.4854 50.8089V50.7473Z" fill="#B8BBCD"/>
<path d="M19.4854 50.6769L24.6325 53.6752H24.5277L19.4854 50.7473V50.6769Z" fill="#B7BACC"/>
<path d="M19.4854 50.6154L24.7374 53.6752H24.6325L19.4854 50.677V50.6154Z" fill="#B6B9CC"/>
<path d="M19.4854 50.5538L24.851 53.6752H24.7374L19.4854 50.6154V50.5538Z" fill="#B5B8CB"/>
<path d="M19.4854 50.4923L24.9559 53.6752H24.851L19.4854 50.5539V50.4923Z" fill="#B4B7CB"/>
<path d="M19.4854 50.4308L25.0607 53.6752H24.9559L19.4854 50.4923V50.4308Z" fill="#B3B6CA"/>
<path d="M19.4854 50.3692L25.1656 53.6752H25.0607L19.4854 50.4307V50.3692Z" fill="#B2B5CA"/>
<path d="M19.4854 50.3077L25.2705 53.6752H25.1656L19.4854 50.3692V50.3077Z" fill="#B1B4C9"/>
<path d="M19.4854 50.2462L25.3841 53.6752H25.2705L19.4854 50.3077V50.2462Z" fill="#B0B4C9"/>
<path d="M19.4854 50.1846L25.489 53.6752H25.3841L19.4854 50.2461V50.1846Z" fill="#AEB3C8"/>
<path d="M19.4854 50.123L25.5938 53.6752H25.489L19.4854 50.1846V50.123Z" fill="#ADB2C7"/>
<path d="M19.4854 50.0615L25.6987 53.6752H25.5938L19.4854 50.123V50.0615Z" fill="#ACB1C7"/>
<path d="M19.4854 49.9999L25.8035 53.6752H25.6987L19.4854 50.0615V49.9999Z" fill="#ABB0C6"/>
<path d="M19.4854 49.9384L25.9084 53.6752H25.8035L19.4854 50V49.9384Z" fill="#AAAFC6"/>
<path d="M19.4854 49.8768L26.022 53.6752H25.9084L19.4854 49.9384V49.8768Z" fill="#A9AEC5"/>
<path d="M19.4854 49.8153L26.1269 53.6752H26.022L19.4854 49.8769V49.8153Z" fill="#A8ADC5"/>
<path d="M19.4854 49.7537L26.2318 53.6752H26.1269L19.4854 49.8153V49.7537Z" fill="#A7ACC4"/>
<path d="M19.4854 49.6922L26.3366 53.6752H26.2318L19.4854 49.7538V49.6922Z" fill="#A6ABC3"/>
<path d="M19.4854 49.6306L26.4415 53.6752H26.3366L19.4854 49.6922V49.6306Z" fill="#A5ABC3"/>
<path d="M19.4854 49.5691L26.5551 53.6752H26.4415L19.4854 49.6306V49.5691Z" fill="#A4AAC2"/>
<path d="M19.4854 49.5076L26.66 53.6752H26.5551L19.4854 49.5691V49.5076Z" fill="#A3A9C2"/>
<path d="M19.4854 49.446L26.7648 53.6752H26.66L19.4854 49.5075V49.446Z" fill="#A2A8C1"/>
<path d="M19.4854 49.3845L26.8697 53.6752H26.7648L19.4854 49.446V49.3845Z" fill="#A1A7C1"/>
<path d="M19.4854 49.3229L26.9746 53.6752H26.8697L19.4854 49.3844V49.3229Z" fill="#A0A6C0"/>
<path d="M19.4854 30.63L40.8693 43.0539L34.7696 53.6752H26.9746L19.4854 49.3229V30.63Z" fill="#A0A6C0"/>
<path d="M19.4854 30.5421L40.9043 42.9835L40.8693 43.0538L19.4854 30.63V30.5421Z" fill="#A0A6C0"/>
<path d="M19.4854 30.4541L40.9393 42.9131L40.9043 42.9835L19.4854 30.542V30.4541Z" fill="#A1A7C1"/>
<path d="M19.4854 30.3662L40.983 42.8516L40.9393 42.9132L19.4854 30.4541V30.3662Z" fill="#A2A8C1"/>
<path d="M19.4854 30.2695L41.0179 42.7812L40.983 42.8516L19.4854 30.3662V30.2695Z" fill="#A3A9C2"/>
<path d="M19.4854 30.1816L41.0616 42.7109L41.0179 42.7813L19.4854 30.2695V30.1816Z" fill="#A4AAC2"/>
<path d="M19.4854 30.0936L41.0966 42.6494L41.0616 42.7109L19.4854 30.1816V30.0936Z" fill="#A5AAC3"/>
<path d="M19.4854 30.0057L41.1403 42.5791L41.0966 42.6494L19.4854 30.0937V30.0057Z" fill="#A6ABC3"/>
<path d="M19.4854 29.909L41.1752 42.5087L41.1403 42.579L19.4854 30.0057V29.909Z" fill="#A7ACC4"/>
<path d="M19.4854 29.821L41.2102 42.4471L41.1752 42.5087L19.4854 29.909V29.821Z" fill="#A8ADC5"/>
<path d="M19.4854 29.7332L41.2539 42.3768L41.2102 42.4472L19.4854 29.8211V29.7332Z" fill="#A9AEC5"/>
<path d="M19.4854 29.6452L41.2888 42.3065L41.2539 42.3768L19.4854 29.7331V29.6452Z" fill="#AAAFC6"/>
<path d="M19.4854 29.5573L41.3325 42.2449L41.2888 42.3065L19.4854 29.6452V29.5573Z" fill="#ABB0C6"/>
<path d="M19.4854 29.4606L41.3675 42.1746L41.3325 42.2449L19.4854 29.5573V29.4606Z" fill="#ACB1C7"/>
<path d="M19.4854 29.3726L41.4112 42.1042L41.3675 42.1746L19.4854 29.4605V29.3726Z" fill="#ADB2C7"/>
<path d="M19.4854 29.2847L41.4461 42.0427L41.4112 42.1042L19.4854 29.3727V29.2847Z" fill="#AEB2C8"/>
<path d="M19.4854 29.1968L41.4811 41.9723L41.4461 42.0427L19.4854 29.2847V29.1968Z" fill="#AFB3C8"/>
<path d="M19.4854 29.1001L41.5248 41.902L41.4811 41.9724L19.4854 29.1968V29.1001Z" fill="#B0B4C9"/>
<path d="M19.4854 29.0121L41.5597 41.8405L41.5248 41.902L19.4854 29.1001V29.0121Z" fill="#B1B5CA"/>
<path d="M19.4854 28.9243L41.6034 41.7702L41.5597 41.8405L19.4854 29.0122V28.9243Z" fill="#B2B6CA"/>
<path d="M19.4854 28.8363L41.6384 41.6998L41.6034 41.7701L19.4854 28.9242V28.8363Z" fill="#B3B7CB"/>
<path d="M19.4854 28.7484L41.6821 41.6382L41.6384 41.6998L19.4854 28.8363V28.7484Z" fill="#B4B8CB"/>
<path d="M19.4854 28.6517L41.717 41.5679L41.6821 41.6382L19.4854 28.7484V28.6517Z" fill="#B5B9CC"/>
<path d="M19.4854 28.5637L41.752 41.4975L41.717 41.5679L19.4854 28.6516V28.5637Z" fill="#B6BACC"/>
<path d="M19.4854 28.4758L41.7957 41.436L41.752 41.4976L19.4854 28.5638V28.4758Z" fill="#B8BBCD"/>
<path d="M19.4854 28.3879L41.8306 41.3657L41.7957 41.436L19.4854 28.4758V28.3879Z" fill="#B9BBCE"/>
<path d="M19.4854 28.2911L41.8743 41.2953L41.8306 41.3656L19.4854 28.3879V28.2911Z" fill="#BABCCE"/>
<path d="M19.4854 28.2032L41.9093 41.2338L41.8743 41.2953L19.4854 28.2912V28.2032Z" fill="#BBBDCF"/>
<path d="M19.4854 28.1153L41.953 41.1634L41.9093 41.2338L19.4854 28.2032V28.1153Z" fill="#BCBECF"/>
<path d="M19.4854 28.0274L41.9879 41.0931L41.953 41.1635L19.4854 28.1153V28.0274Z" fill="#BDBFD0"/>
<path d="M19.4854 27.9307L42.0229 41.0315L41.9879 41.0931L19.4854 28.0274V27.9307Z" fill="#BEC0D0"/>
<path d="M19.4854 27.8428L42.0666 40.9612L42.0229 41.0316L19.4854 27.9307V27.8428Z" fill="#BFC1D1"/>
<path d="M19.4854 27.7548L42.1015 40.8909L42.0666 40.9612L19.4854 27.8427V27.7548Z" fill="#C0C2D2"/>
<path d="M19.4854 27.6669L42.1452 40.8293L42.1015 40.8908L19.4854 27.7548V27.6669Z" fill="#C1C3D2"/>
<path d="M19.4854 27.579L42.1802 40.759L42.1452 40.8293L19.4854 27.6669V27.579Z" fill="#C2C3D3"/>
<path d="M19.4854 27.4822L42.2239 40.6886L42.1802 40.759L19.4854 27.579V27.4822Z" fill="#C3C4D3"/>
<path d="M19.4854 27.3943L42.2588 40.6271L42.2239 40.6887L19.4854 27.4823V27.3943Z" fill="#C4C5D4"/>
<path d="M19.4854 27.3064L42.2938 40.5567L42.2588 40.6271L19.4854 27.3943V27.3064Z" fill="#C5C6D4"/>
<path d="M19.4854 27.2184L42.3375 40.4864L42.2938 40.5567L19.4854 27.3064V27.2184Z" fill="#C6C7D5"/>
<path d="M19.4854 27.1218L42.3724 40.4249L42.3375 40.4864L19.4854 27.2185V27.1218Z" fill="#C7C8D5"/>
<path d="M19.4854 27.0338L42.4161 40.3545L42.3724 40.4248L19.4854 27.1217V27.0338Z" fill="#C8C9D6"/>
<path d="M19.4854 26.9459L42.4511 40.2842L42.4161 40.3545L19.4854 27.0338V26.9459Z" fill="#C9CAD7"/>
<path d="M19.4854 26.858L42.4948 40.2226L42.4511 40.2842L19.4854 26.9459V26.858Z" fill="#CACBD7"/>
<path d="M19.4854 26.7701L42.5297 40.1523L42.4948 40.2227L19.4854 26.858V26.7701Z" fill="#CBCBD8"/>
<path d="M19.4854 26.6733L42.5647 40.082L42.5297 40.1523L19.4854 26.7701V26.6733Z" fill="#CCCCD8"/>
<path d="M19.4854 26.5854L42.6084 40.0204L42.5647 40.0819L19.4854 26.6733V26.5854Z" fill="#CDCDD9"/>
<path d="M19.4854 26.4975L42.6433 39.9501L42.6084 40.0204L19.4854 26.5854V26.4975Z" fill="#CECED9"/>
<path d="M19.4854 26.4095L42.687 39.8797L42.6433 39.95L19.4854 26.4975V26.4095Z" fill="#CFCFDA"/>
<path d="M19.4854 25.7501L20.0009 24.8533L43.4823 38.4905L42.687 39.8797L19.4854 26.4096V25.7501Z" fill="#CFCFDA"/>
<path d="M20.0539 24.7523L19.9971 24.8513L43.4808 38.4929L43.5376 38.3939L20.0539 24.7523Z" fill="#CFCFDA"/>
<path d="M20.1144 24.6506L20.0576 24.7496L43.5414 38.3912L43.5982 38.2922L20.1144 24.6506Z" fill="#CECEDA"/>
<path d="M20.172 24.5522L20.1152 24.6512L43.599 38.2928L43.6558 38.1938L20.172 24.5522Z" fill="#CDCDDA"/>
<path d="M20.2326 24.4505L20.1758 24.5495L43.6595 38.1911L43.7163 38.0921L20.2326 24.4505Z" fill="#CBCDD9"/>
<path d="M20.2863 24.3444L20.2295 24.4434L43.7132 38.085L43.77 37.9861L20.2863 24.3444Z" fill="#CACCD9"/>
<path d="M20.3429 24.2504L20.2861 24.3494L43.7699 37.991L43.8267 37.8921L20.3429 24.2504Z" fill="#C9CBD9"/>
<path d="M20.4054 24.1444L20.3486 24.2433L43.8324 37.885L43.8892 37.786L20.4054 24.1444Z" fill="#C8CAD9"/>
<path d="M20.466 24.0427L20.4092 24.1417L43.8929 37.7833L43.9497 37.6843L20.466 24.0427Z" fill="#C7CAD9"/>
<path d="M20.5148 23.9442L20.458 24.0432L43.9417 37.6848L43.9986 37.5858L20.5148 23.9442Z" fill="#C6C9D8"/>
<path d="M20.5851 23.8426L20.5283 23.9416L44.0121 37.5832L44.0689 37.4842L20.5851 23.8426Z" fill="#C5C9D8"/>
<path d="M20.634 23.7441L20.5771 23.8431L44.0609 37.4848L44.1177 37.3858L20.634 23.7441Z" fill="#C4C8D8"/>
<path d="M20.6387 23.7366L24.8945 16.3245H34.5509L44.2249 21.943V37.198L44.12 37.3826L20.6387 23.7366Z" fill="#C4C8D8"/>
<path d="M34.8916 16.3245L44.2247 21.7407V21.943L34.5508 16.3245H34.8916Z" fill="#C4C8D8"/>
<path d="M35.2412 16.3245L44.2247 21.5385V21.7407L34.8916 16.3245H35.2412Z" fill="#C4C8D8"/>
<path d="M35.5908 16.3245L44.2248 21.3363V21.5385L35.2412 16.3245H35.5908Z" fill="#C3C7D8"/>
<path d="M35.9316 16.3245L44.2248 21.1428V21.3363L35.5908 16.3245H35.9316Z" fill="#C3C7D7"/>
<path d="M36.2812 16.3245L44.2248 20.9406V21.1428L35.9316 16.3245H36.2812Z" fill="#C2C6D7"/>
<path d="M36.6221 16.3245L44.2249 20.7384V20.9406L36.2812 16.3245H36.6221Z" fill="#C1C5D6"/>
<path d="M36.9716 16.3245L44.2249 20.5361V20.7384L36.6221 16.3245H36.9716Z" fill="#C1C5D5"/>
<path d="M37.3125 16.3245L44.2249 20.3339V20.5361L36.9717 16.3245H37.3125Z" fill="#C0C4D5"/>
<path d="M37.6621 16.3245L44.2249 20.1317V20.3339L37.3125 16.3245H37.6621Z" fill="#BEC2D4"/>
<path d="M38.0029 16.3245L44.225 19.9383V20.1317L37.6621 16.3245H38.0029Z" fill="#BDC1D3"/>
<path d="M38.3525 16.3245L44.225 19.736V19.9383L38.0029 16.3245H38.3525Z" fill="#BCC0D2"/>
<path d="M38.6934 16.3245L44.2251 19.5338V19.736L38.3525 16.3245H38.6934Z" fill="#BBBFD1"/>
<path d="M39.0429 16.3245L44.2251 19.3316V19.5338L38.6934 16.3245H39.0429Z" fill="#B9BDD0"/>
<path d="M39.3925 16.3245L44.2251 19.1293V19.3316L39.043 16.3245H39.3925Z" fill="#B8BCCF"/>
<path d="M39.7334 16.3245L44.2252 18.9271V19.1293L39.3926 16.3245H39.7334Z" fill="#B6BACE"/>
<path d="M40.083 16.3245L44.2252 18.7337V18.9271L39.7334 16.3245H40.083Z" fill="#B5B9CC"/>
<path d="M40.4238 16.3245L44.2252 18.5315V18.7337L40.083 16.3245H40.4238Z" fill="#B3B7CB"/>
<path d="M44.2252 18.5315L40.4238 16.3245H44.2252V18.5315Z" fill="#B3B7CB"/>
</g>
<path d="M20.8742 42.6318C20.5159 42.4208 20.2275 41.8668 20.2275 41.3833V35.3955C20.2275 34.9207 20.5159 34.6921 20.8742 34.9032C21.2325 35.1142 21.5209 35.6681 21.5209 36.1517V42.1394C21.5209 42.6142 21.2325 42.8428 20.8742 42.6318Z" fill="#EFF0F5"/>
<path d="M20.6037 42.7989C20.2454 42.5878 19.957 42.0339 19.957 41.5503V35.5626C19.957 35.0878 20.2454 34.8592 20.6037 35.0702C20.962 35.2812 21.2504 35.8352 21.2504 36.3188V42.3065C21.2504 42.7813 20.962 43.0099 20.6037 42.7989Z" fill="#C4C8D8"/>
<path d="M21.2503 45.5861C21.2503 45.7268 21.1542 45.7883 21.0231 45.718C20.9008 45.6476 20.7959 45.4718 20.7959 45.3311C20.7959 45.1904 20.892 45.1289 21.0231 45.1992C21.1455 45.2695 21.2503 45.4454 21.2503 45.5861Z" fill="#3A3F47"/>
<path d="M21.2503 46.5445C21.2503 46.6851 21.1542 46.7467 21.0231 46.6763C20.9008 46.606 20.7959 46.4302 20.7959 46.2895C20.7959 46.1488 20.892 46.0872 21.0231 46.1576C21.1455 46.2279 21.2503 46.4038 21.2503 46.5445Z" fill="#3A3F47"/>
<path d="M21.2503 47.5029C21.2503 47.6436 21.1542 47.7051 21.0231 47.6348C20.9008 47.5644 20.7959 47.3886 20.7959 47.2479C20.7959 47.1072 20.892 47.0457 21.0231 47.116C21.1455 47.1864 21.2503 47.3622 21.2503 47.5029Z" fill="#3A3F47"/>
<path d="M26.0922 28.0801L41.9795 18.848C43.6224 17.8984 44.9681 18.6633 44.9681 20.5625V38.9037C44.9681 40.8029 43.6224 43.133 41.9795 44.0826L26.0922 53.3147C24.4493 54.2643 23.1035 53.4994 23.1035 51.6002V33.2589C23.1035 31.3598 24.4493 29.0297 26.0922 28.0801Z" fill="#EFF0F5"/>
<path d="M26.1885 29.0385L41.8747 19.9295C43.0894 19.2261 44.0857 19.7976 44.0857 21.1956V39.3082C44.0857 40.7062 43.0894 42.4384 41.8747 43.1418L26.1885 52.2508C24.9738 52.9542 23.9775 52.3827 23.9775 50.9847V32.8721C23.9775 31.4741 24.9738 29.7419 26.1885 29.0385Z" fill="#3A3F47"/>
<path d="M26.8435 29.4693L41.6646 20.8615C42.8094 20.1932 43.7532 20.7296 43.7532 22.0572V39.1675C43.7532 40.4952 42.8181 42.1218 41.6646 42.79L26.8435 51.3979C25.6987 52.0662 24.7549 51.5298 24.7549 50.2021V33.0919C24.7549 31.7642 25.6899 30.1376 26.8435 29.4693Z" fill="#3A3F47"/>
<path d="M26.118 30.0497L42.3897 20.5977C42.8791 20.3163 43.2724 20.5449 43.2724 21.1077C43.2724 21.6704 42.8704 22.365 42.3897 22.6464L26.118 32.0983C25.6286 32.3797 25.2354 32.1511 25.2354 31.5884C25.2354 31.0257 25.6373 30.331 26.118 30.0497Z" fill="#565A62"/>
<mask id="mask1_1064_1082" style="mask-type:luminance" maskUnits="userSpaceOnUse" x="7" y="2" width="34" height="25">
<path d="M40.4408 18.0302C40.4408 14.0384 37.6269 9.14977 34.1663 7.14507L27.2626 3.13568C25.6546 2.19488 24.1952 2.06299 23.0854 2.57296H23.0417L22.832 2.69605C22.832 2.69605 22.797 2.71364 22.7795 2.73122L7.8623 11.3831L9.67999 11.5413L22.6747 19.3667L23.3913 21.1868L25.6197 26.6469L40.432 18.039V18.0214L40.4408 18.0302Z" fill="white"/>
</mask>
<g mask="url(#mask1_1064_1082)">
<path d="M14.6089 26.6557L14.3555 26.2073L40.441 11.0577V26.6557H14.6089Z" fill="#393F42"/>
<path d="M14.3552 26.2073L14.3027 26.1193L40.4407 10.9346V11.0577L14.3552 26.2073Z" fill="#393F42"/>
<path d="M14.3024 26.1194L14.25 26.0315L40.4404 10.8204V10.9347L14.3024 26.1194Z" fill="#393F42"/>
<path d="M14.2507 26.0314L14.207 25.9435L40.4411 10.6973V10.8204L14.2507 26.0314Z" fill="#393F42"/>
<path d="M14.2067 25.9435L14.1543 25.8556L40.4408 10.5829V10.6972L14.2067 25.9435Z" fill="#393F42"/>
<path d="M14.154 25.8556L14.1016 25.7588L40.4143 10.4774L40.4405 10.5214V10.5829L14.154 25.8556Z" fill="#393F42"/>
<path d="M40.366 10.3881L14.0518 25.6739L14.1042 25.7653L40.4184 10.4794L40.366 10.3881Z" fill="#393F42"/>
<path d="M40.3123 10.3032L13.998 25.589L14.0505 25.6804L40.3647 10.3945L40.3123 10.3032Z" fill="#393F42"/>
<path d="M40.2576 10.2094L13.9434 25.4952L13.9958 25.5866L40.31 10.3008L40.2576 10.2094Z" fill="#393F42"/>
<path d="M40.2039 10.1245L13.8896 25.4103L13.9421 25.5017L40.2563 10.2158L40.2039 10.1245Z" fill="#393F42"/>
<path d="M40.1658 10.0351L13.8516 25.3209L13.904 25.4123L40.2182 10.1265L40.1658 10.0351Z" fill="#393F42"/>
<path d="M40.1121 9.94141L13.7979 25.2272L13.8503 25.3186L40.1645 10.0328L40.1121 9.94141Z" fill="#393F42"/>
<path d="M40.0535 9.84888L13.7393 25.1347L13.7917 25.2261L40.1059 9.94026L40.0535 9.84888Z" fill="#393F42"/>
<path d="M40.0076 9.76392L13.6934 25.0497L13.7458 25.1411L40.06 9.8553L40.0076 9.76392Z" fill="#393F42"/>
<path d="M39.9539 9.67896L13.6396 24.9648L13.6921 25.0562L40.0063 9.77033L39.9539 9.67896Z" fill="#393F42"/>
<path d="M39.8992 9.58527L13.585 24.8711L13.6374 24.9625L39.9516 9.67665L39.8992 9.58527Z" fill="#393F42"/>
<path d="M39.8533 9.49592L13.5391 24.7817L13.5915 24.8731L39.9057 9.58729L39.8533 9.49592Z" fill="#393F42"/>
<path d="M39.8074 9.41096L13.4932 24.6968L13.5456 24.7882L39.8598 9.50233L39.8074 9.41096Z" fill="#393F42"/>
<path d="M39.7537 9.31727L13.4395 24.6031L13.4919 24.6945L39.8061 9.40864L39.7537 9.31727Z" fill="#393F42"/>
<path d="M39.4333 8.76752L13.1191 24.0533L13.4337 24.6016L39.7479 9.31577L39.4333 8.76752Z" fill="#393F42"/>
<path d="M39.1208 8.21747L12.8066 23.5033L13.1212 24.0515L39.4354 8.76572L39.1208 8.21747Z" fill="#393F42"/>
<path d="M39.0388 8.08533L12.7246 23.3712L12.8033 23.5082L39.1175 8.22239L39.0388 8.08533Z" fill="#393F42"/>
<path d="M38.9744 7.9535L12.6602 23.2393L12.7388 23.3764L39.053 8.09056L38.9744 7.9535Z" fill="#393F42"/>
<path d="M38.8923 7.81733L12.5781 23.1031L12.6568 23.2402L38.971 7.95439L38.8923 7.81733Z" fill="#393F42"/>
<path d="M38.8074 7.68232L12.4932 22.9681L12.5718 23.1052L38.886 7.81938L38.8074 7.68232Z" fill="#393F42"/>
<path d="M38.7351 7.55488L12.4209 22.8407L12.4995 22.9778L38.8138 7.69194L38.7351 7.55488Z" fill="#393F42"/>
<path d="M38.6609 7.41431L12.3467 22.7001L12.4253 22.8372L38.7395 7.55137L38.6609 7.41431Z" fill="#393F42"/>
<path d="M38.5886 7.28687L12.2744 22.5727L12.3531 22.7098L38.6673 7.42393L38.5886 7.28687Z" fill="#393F42"/>
<path d="M38.5076 7.1507L12.1934 22.4365L12.272 22.5736L38.5862 7.28776L38.5076 7.1507Z" fill="#393F42"/>
<path d="M38.4343 7.02326L12.1201 22.3091L12.1988 22.4461L38.513 7.16032L38.4343 7.02326Z" fill="#393F42"/>
<path d="M38.3494 6.88825L12.0352 22.1741L12.1138 22.3111L38.428 7.02531L38.3494 6.88825Z" fill="#393F42"/>
<path d="M38.2751 6.74769L11.9609 22.0335L12.0396 22.1706L38.3538 6.88475L38.2751 6.74769Z" fill="#393F42"/>
<path d="M38.2029 6.62024L11.8887 21.9061L11.9673 22.0431L38.2815 6.75731L38.2029 6.62024Z" fill="#393F42"/>
<path d="M38.1218 6.48408L11.8076 21.7699L11.8863 21.907L38.2005 6.62114L38.1218 6.48408Z" fill="#393F42"/>
<path d="M38.0496 6.35663L11.7354 21.6425L11.814 21.7795L38.1282 6.4937L38.0496 6.35663Z" fill="#393F42"/>
<path d="M37.9753 6.21607L11.6611 21.5019L11.7398 21.639L38.054 6.35313L37.9753 6.21607Z" fill="#393F42"/>
<path d="M37.8904 6.081L11.5762 21.3668L11.6548 21.5039L37.969 6.21806L37.8904 6.081Z" fill="#393F42"/>
<path d="M37.8181 5.95362L11.5039 21.2394L11.5826 21.3765L37.8968 6.09068L37.8181 5.95362Z" fill="#393F42"/>
<path d="M11.5064 21.2395L7.8623 14.9001V2.06299H35.5907L37.8191 5.94929L11.5064 21.2395Z" fill="#393F42"/>
</g>
<path d="M36.6136 40.5039L37.7758 39.8269C38.0292 39.6774 38.239 39.8005 38.239 40.0907V41.4359C38.239 41.7349 38.0292 42.0954 37.7758 42.2449L36.6136 42.9219C36.3601 43.0714 36.1504 42.9483 36.1504 42.6581V41.3128C36.1504 41.0139 36.3601 40.6534 36.6136 40.5039Z" fill="#FFC1E3"/>
<path d="M37.9415 40.7413C37.9415 40.46 37.7405 40.3369 37.4958 40.4864C37.3734 40.5567 37.2598 40.6798 37.1812 40.8205C37.1025 40.7765 36.9889 40.7853 36.8666 40.8557C36.6219 40.9963 36.4209 41.348 36.4209 41.6294C36.4209 41.6382 36.4209 41.647 36.4209 41.6558C36.4209 41.6734 36.4209 41.6909 36.4209 41.7085C36.4209 42.1569 37.1812 42.324 37.1812 42.324C37.1812 42.324 37.9415 41.2777 37.9415 40.8205C37.9415 40.8029 37.9415 40.7853 37.9415 40.7765C37.9415 40.7677 37.9415 40.7589 37.9415 40.7501V40.7413Z" fill="#FF4C4A"/>
<path d="M7.96725 40.7853L6.17578 39.7478V15.3397C6.17578 11.3479 8.98969 9.73009 12.4503 11.7436L19.354 15.753C22.8146 17.7665 25.6285 22.6463 25.6285 26.6381V26.6557L23.837 25.6182V25.6006C23.837 22.743 21.8271 19.2612 19.354 17.8192L12.4503 13.8098C9.97719 12.3766 7.96725 13.5285 7.96725 16.3772V40.7853Z" fill="#D0CECE"/>
<path d="M41.8911 33.7777L40.0123 34.868C39.6016 35.1054 39.2607 34.8504 39.2607 34.2964V32.4148C39.2607 31.8609 39.6016 31.2103 40.0123 30.9641L41.8911 29.8738C42.3019 29.6364 42.6427 29.8914 42.6427 30.4453V32.3269C42.6427 32.8808 42.3019 33.5315 41.8911 33.7777Z" fill="#00DD90"/>
<path d="M41.8211 32.5291L41.5502 33.0039L41.2705 32.8369L41.5327 32.3796L41.8211 32.5291Z" fill="#C1C5D5"/>
<path d="M41.8207 32.5291L41.5498 33.0039L41.9518 33.2853C42.0392 33.338 42.179 33.2589 42.2664 33.1006C42.3538 32.9512 42.3538 32.7841 42.2664 32.7313L41.8207 32.5291Z" fill="#FFB33D"/>
<path d="M41.4451 30.9289C41.8558 31.1663 41.8558 31.9224 41.4451 32.6258C41.0344 33.3292 40.379 33.7161 39.977 33.4787C39.5663 33.2413 39.5663 32.4852 39.977 31.7817C40.3877 31.0783 41.0431 30.6915 41.4451 30.9289Z" fill="#F1F2F6"/>
<path d="M41.3051 31.1839C41.6284 31.3685 41.6284 31.984 41.3051 32.5467C40.9817 33.1094 40.4487 33.4172 40.1253 33.2325C39.802 33.0479 39.802 32.4324 40.1253 31.8697C40.4487 31.307 40.9817 30.9992 41.3051 31.1839Z" fill="#81D1EF"/>
<path d="M40.7805 31.5004C40.8417 31.5971 40.7455 31.8433 40.5707 32.0455C40.396 32.2477 40.2125 32.3269 40.1513 32.2214C40.0901 32.1159 40.1862 31.8785 40.361 31.6762C40.5358 31.474 40.7193 31.3949 40.7805 31.5004Z" fill="#B8E5F6"/>
<path d="M34.7079 31.8433L32.8727 32.9072C32.4707 33.1446 32.1387 32.8896 32.1387 32.3445V30.498C32.1387 29.9529 32.4707 29.3198 32.8727 29.0824L34.7079 28.0185C35.1099 27.7811 35.442 28.0361 35.442 28.5813V30.4277C35.442 30.9728 35.1099 31.6059 34.7079 31.8433Z" fill="#81D1EF"/>
<path d="M34.6813 28.3878L33.5977 30.4804L33.9734 30.542L34.6813 28.3878Z" fill="#F7393B"/>
<path d="M32.8906 32.6346L33.9742 30.542L33.5985 30.4805L32.8906 32.6346Z" fill="#F1F2F6"/>
<path d="M34.0784 30.2255C34.1134 30.3925 34.0085 30.6475 33.8425 30.7882C33.6765 30.9289 33.5104 30.9025 33.4755 30.7267C33.4405 30.5596 33.5454 30.3046 33.7114 30.1639C33.8775 30.0233 34.0435 30.0496 34.0784 30.2255Z" fill="#F1F2F6"/>
<path d="M33.9303 30.3397C33.9477 30.4277 33.8953 30.5596 33.8079 30.6299C33.7205 30.7002 33.6419 30.6915 33.6157 30.6035C33.5982 30.5156 33.6506 30.3837 33.738 30.3134C33.8254 30.243 33.904 30.2518 33.9303 30.3397Z" fill="#F7393B"/>
<path d="M30.7927 44.0649L29.0624 45.0672C28.6779 45.2871 28.3721 45.0497 28.3721 44.5397V42.8076C28.3721 42.2976 28.6867 41.6997 29.0624 41.4711L30.7927 40.4688C31.1772 40.2489 31.4831 40.4863 31.4831 40.9963V42.7284C31.4831 43.2384 31.1685 43.8363 30.7927 44.0649Z" fill="#CE7836"/>
<path d="M30.6874 41.0139L30.7748 41.1633C30.7748 41.1633 30.801 41.1897 30.8273 41.1809L31.0195 41.1018C31.0807 41.0754 31.0982 41.1458 31.0545 41.2161L30.9146 41.4535C30.9146 41.4535 30.8884 41.515 30.8972 41.5414L30.9321 41.7437C30.9409 41.8052 30.8797 41.8931 30.8273 41.8843H30.6525C30.6525 41.8843 30.6088 41.8931 30.5913 41.9195L30.4165 42.1217C30.3641 42.1833 30.3029 42.1657 30.3117 42.0953L30.3466 41.858C30.3466 41.858 30.3466 41.8052 30.3291 41.7964L30.1893 41.7173C30.1893 41.7173 30.1718 41.603 30.2243 41.559L30.4165 41.4183C30.4165 41.4183 30.4602 41.3744 30.469 41.3392L30.5564 41.093C30.5826 41.0139 30.6525 40.9699 30.6787 41.0227L30.6874 41.0139Z" fill="#FFE43D"/>
<path d="M29.7617 42.2976L29.919 42.5702C29.919 42.5702 29.9715 42.6141 30.0152 42.5966L30.3647 42.4559C30.4696 42.4119 30.5133 42.535 30.4346 42.6669L30.1812 43.0889C30.155 43.1417 30.1375 43.1945 30.1462 43.2384L30.2074 43.5989C30.2249 43.7044 30.12 43.8627 30.0239 43.8627H29.718C29.718 43.8627 29.6394 43.8803 29.5957 43.9242L29.2898 44.2935C29.1937 44.4078 29.0888 44.3727 29.1063 44.2496L29.1675 43.8187C29.1675 43.766 29.1675 43.722 29.1325 43.7132L28.8791 43.5813C28.8005 43.5374 28.8442 43.3703 28.949 43.2912L29.2986 43.0362C29.2986 43.0362 29.3772 42.9571 29.3947 42.9043L29.552 42.4559C29.5957 42.324 29.7355 42.2449 29.7792 42.324L29.7617 42.2976Z" fill="#FFE43D"/>
<path d="M26.8257 45.2255L25.6721 45.8937C25.4187 46.0432 25.209 45.885 25.209 45.542V44.3814C25.209 44.0385 25.4187 43.6429 25.6721 43.4934L26.8257 42.8252C27.0791 42.6757 27.2888 42.8339 27.2888 43.1769V44.3375C27.2888 44.6804 27.0791 45.076 26.8257 45.2255Z" fill="#F1F2F6"/>
<path d="M27.1054 43.8627C27.1054 44.4078 26.7209 45.0672 26.249 45.3398C25.7771 45.6124 25.3926 45.3926 25.3926 44.8474C25.3926 44.3023 25.7771 43.6428 26.249 43.3703C26.7209 43.0977 27.1054 43.3175 27.1054 43.8627Z" fill="#F7393B"/>
<path d="M26.7036 43.423L25.6025 44.8826L26.0307 44.8035L26.1706 44.7419L26.1618 44.7771L26.59 44.8298L26.7036 43.423Z" fill="#F1F2F6"/>
<path d="M26.4672 43.9594L26.0303 44.8034L26.1089 45.12L26.2138 44.7858L26.1701 44.7771L26.4672 43.9594Z" fill="#C4C8D8"/>
<path d="M42.3718 37.5497L40.8862 38.4113C40.5542 38.6048 40.292 38.3937 40.292 37.9541V36.4594C40.292 36.0198 40.5629 35.501 40.8862 35.3076L42.3718 34.4459C42.7039 34.2525 42.9661 34.4635 42.9661 34.9031V36.3978C42.9661 36.8375 42.6952 37.3562 42.3718 37.5497Z" fill="#F7393B"/>
<path d="M42.3016 35.0174L41.2617 35.8439V37.321L41.3753 37.2507V36.1604L42.1968 35.4922V36.6528L42.3016 36.6001V35.0174Z" fill="#F1F2F6"/>
<path d="M41.3579 37.154C41.4191 37.2507 41.3492 37.4705 41.2006 37.6464C41.0521 37.8134 40.886 37.875 40.8249 37.7695C40.7637 37.6727 40.8336 37.4529 40.9822 37.2771C41.1307 37.11 41.2968 37.0485 41.3492 37.154H41.3579Z" fill="#F1F2F6"/>
<path d="M42.2759 36.5033C42.3371 36.6001 42.2672 36.8199 42.1186 36.9957C41.97 37.1628 41.804 37.2243 41.7428 37.1188C41.6817 37.0221 41.7516 36.8023 41.9001 36.6264C42.0487 36.4594 42.2147 36.3978 42.2759 36.5033Z" fill="#F1F2F6"/>
<path d="M36.9539 38.7367L33.7817 40.5743C33.0826 40.9788 32.5059 40.5479 32.5059 39.6071V36.4242C32.5059 35.4834 33.0826 34.3844 33.7817 33.9799L36.9539 32.1423C37.653 31.7378 38.2298 32.1687 38.2298 33.1095V36.2924C38.2298 37.2332 37.6618 38.3322 36.9539 38.7367Z" fill="#F7393B"/>
<path d="M37.723 34.991C37.723 36.4858 36.6743 38.3146 35.3722 39.062C34.0789 39.8181 33.0215 39.2115 33.0215 37.7167C33.0215 36.222 34.0701 34.3932 35.3722 33.6458C36.6743 32.8984 37.723 33.4963 37.723 34.991Z" fill="#F1F2F6"/>
<path d="M35.8789 35.9319C35.9401 36.2308 35.7566 36.6616 35.4769 36.899C35.1885 37.1364 34.9089 37.0925 34.8477 36.7935C34.7865 36.4946 34.9701 36.0637 35.2497 35.8263C35.5293 35.5889 35.8177 35.6329 35.8789 35.9319Z" fill="#D9CCDB"/>
<path d="M35.4073 36.3012L35.3111 36.4067L34.3936 34.6833L34.4897 34.5778L35.4073 36.3012Z" fill="#F7393B"/>
<path d="M35.285 36.3275L35.4248 36.4066L33.8605 39.1323L33.7207 39.0444L35.285 36.3275Z" fill="#383838"/>
<path d="M35.3892 36.433L35.3193 36.3011L37.1108 34.3052L37.172 34.4283L35.3892 36.433Z" fill="#383838"/>
<path d="M35.6252 36.1429C35.6602 36.2924 35.564 36.5122 35.4155 36.6353C35.2669 36.7584 35.1271 36.732 35.0922 36.5825C35.0572 36.433 35.1533 36.2132 35.3019 36.0901C35.4504 35.967 35.5903 35.9934 35.6252 36.1429Z" fill="#666666"/>
<path d="M28.7574 48.8744L27.3679 49.6833C27.062 49.8592 26.8086 49.6745 26.8086 49.2613V47.8633C26.8086 47.45 27.062 46.9664 27.3679 46.7906L28.7574 45.9817C29.0632 45.8058 29.3166 45.9905 29.3166 46.4037V47.8017C29.3166 48.215 29.0632 48.6986 28.7574 48.8744Z" fill="#F1F2F6"/>
<path d="M27.123 47.5204V48.0919C27.123 48.2941 27.3328 48.2677 27.4551 48.0567L27.9532 47.195C28.0756 46.984 27.9882 46.7906 27.8134 46.8961L27.3153 47.1863C27.2104 47.2478 27.123 47.3973 27.123 47.5204Z" fill="#FF8E8C"/>
<path d="M28.9937 48.1446V47.5731C28.9937 47.3709 28.7839 47.3973 28.6616 47.6083L28.1635 48.47C28.0411 48.681 28.1285 48.8744 28.3033 48.7689L28.8014 48.4787C28.9063 48.4172 28.9937 48.2677 28.9937 48.1446Z" fill="#FF8E8C"/>
<path d="M27.123 47.5204V48.0919C27.123 48.2941 27.3328 48.2677 27.4551 48.0567L27.9532 47.195C28.0756 46.984 27.9882 46.7906 27.8134 46.8961L27.3153 47.1863C27.2104 47.2478 27.123 47.3973 27.123 47.5204Z" fill="#FF8E8C"/>
<path d="M28.9937 48.1446V47.5731C28.9937 47.3709 28.7839 47.3973 28.6616 47.6083L28.1635 48.47C28.0411 48.681 28.1285 48.8744 28.3033 48.7689L28.8014 48.4787C28.9063 48.4172 28.9937 48.2677 28.9937 48.1446Z" fill="#FF8E8C"/>
<path d="M27.3153 49.3404L27.8134 49.0503C27.9882 48.9535 28.0756 48.6546 27.9532 48.5843L27.4551 48.2941C27.3328 48.2238 27.123 48.4436 27.123 48.6458V49.2173C27.123 49.3404 27.2104 49.3932 27.3153 49.3316V49.3404Z" fill="#FECB4C"/>
<path d="M28.7926 46.3246L28.2945 46.6148C28.1197 46.7115 28.0323 47.0104 28.1547 47.0808L28.6528 47.3709C28.7751 47.4413 28.9849 47.2215 28.9849 47.0192V46.4477C28.9849 46.3246 28.8975 46.2719 28.7926 46.3334V46.3246Z" fill="#FECB4C"/>
<path d="M30.9329 35.6153V38.086C30.9329 38.6311 30.5484 39.2994 30.0765 39.5807L27.9355 40.8293C27.4636 41.1018 27.0791 40.882 27.0791 40.3369V37.8662C27.0791 37.3211 27.4636 36.6528 27.9355 36.3715L30.0765 35.1317C30.461 34.9119 30.7844 35.0086 30.898 35.3515C30.9242 35.4219 30.9329 35.5098 30.9329 35.5977C30.9329 35.5977 30.9329 35.6153 30.9329 35.6241V35.6153Z" fill="#81D1EF"/>
<path d="M29.6396 38.5696L29.0628 40.1698L27.9355 40.8293C27.4636 41.1018 27.0791 40.882 27.0791 40.3369V40.0028L29.6483 38.5784L29.6396 38.5696Z" fill="#F1F2F6"/>
<path d="M29.5434 36.4596L29.456 38.5698L27.0615 39.959V37.8576C27.0615 37.3125 27.446 36.6442 27.9179 36.3629L30.059 35.1231C30.4435 34.9033 30.7668 35 30.8804 35.3429C30.9066 35.4133 29.5346 36.3716 29.5346 36.4596H29.5434Z" fill="#7CD14F"/>
<path d="M30.9325 35.6153V36.9342L29.5605 37.7255V35.4131L30.0674 35.1141C30.4519 34.8943 30.7752 34.991 30.8889 35.3339C30.9151 35.4043 30.9238 35.4922 30.9238 35.5801C30.9238 35.5801 30.9238 35.5977 30.9238 35.6065L30.9325 35.6153Z" fill="#7CD14F"/>
<path d="M27.0703 39.783L29.5434 38.341V38.8949L27.0703 40.3369V39.783Z" fill="#FFB33D"/>
<path d="M28.0492 36.433C27.621 36.6792 27.2715 37.2859 27.2715 37.7783C27.2715 38.4465 28.0492 39.2115 28.0492 39.2115C28.0492 39.2115 28.827 37.5497 28.827 36.8727C28.827 36.3803 28.4774 36.1781 28.0492 36.4242V36.433Z" fill="#FF4C4A"/>
<path d="M28.5037 37.0661C28.5037 37.3563 28.3027 37.6992 28.058 37.8487C27.8133 37.9893 27.6123 37.875 27.6123 37.5937C27.6123 37.3123 27.8133 36.9606 28.058 36.8111C28.3027 36.6617 28.5037 36.7848 28.5037 37.0661Z" fill="white"/>
<path d="M29.6392 35.3691L29.0537 35.7033V40.1611L29.6392 39.827V35.3691Z" fill="#FFE43D"/>
<path d="M27.5422 34.3844L26.2402 35.1405C25.9518 35.3076 25.7158 35.1317 25.7158 34.7449V33.4348C25.7158 33.0479 25.9518 32.5907 26.2402 32.4236L27.5422 31.6675C27.8306 31.5004 28.0666 31.6763 28.0666 32.0631V33.3732C28.0666 33.7601 27.8306 34.2173 27.5422 34.3844Z" fill="#D5D8E7"/>
<path d="M27.9883 32.7665C27.9883 33.4699 27.499 34.3228 26.8872 34.6833C26.2755 35.0438 25.7861 34.7537 25.7861 34.0503C25.7861 33.3469 26.2755 32.494 26.8872 32.1335C27.499 31.773 27.9883 32.0631 27.9883 32.7665Z" fill="#6DB6F3"/>
<path d="M27.9092 32.8105C27.9092 33.4612 27.446 34.2613 26.8867 34.5866C26.3274 34.9119 25.8643 34.6482 25.8643 33.9975C25.8643 33.3469 26.3274 32.5468 26.8867 32.2214C27.446 31.8961 27.9092 32.1599 27.9092 32.8105Z" fill="#81D1EF"/>
<path d="M27.5461 33.7877C27.9139 33.1547 27.9182 32.4687 27.5557 32.2555C27.1932 32.0423 26.6011 32.3826 26.2333 33.0156C25.8655 33.6486 25.8612 34.3346 26.2237 34.5479C26.5862 34.7611 27.1783 34.4207 27.5461 33.7877Z" fill="#B3E7FC"/>
<path d="M27.4458 32.916C27.4458 32.916 27.4808 33.0039 27.542 33.1358C27.6031 33.2765 27.6031 33.3732 27.6905 33.2413C27.743 33.171 27.7692 33.1534 27.7867 33.127C27.8041 33.0479 27.8129 32.9688 27.8129 32.8896C27.7779 32.9072 27.743 32.9248 27.7342 32.8984C27.7168 32.8457 27.743 32.8017 27.7954 32.7577C27.7954 32.7577 27.7954 32.7577 27.8041 32.7489C27.7779 32.4236 27.6119 32.2214 27.3672 32.1862C27.3672 32.1862 27.3672 32.1862 27.3585 32.195C27.3585 32.195 27.3585 32.2214 27.2973 32.2654C27.2361 32.3093 27.2099 32.3005 27.2099 32.3005C27.2099 32.3005 27.2186 32.1598 27.1837 32.2038C27.14 32.2478 27.1487 32.3445 27.1487 32.3445C27.1487 32.3445 26.9303 32.5203 26.9652 32.5555C27.0002 32.5907 27.0002 32.6698 26.9827 32.6786C26.9652 32.6786 26.8953 32.6346 26.8691 32.7489C26.8429 32.8632 26.7992 32.8984 26.8429 32.9336L26.8866 32.9688C26.8866 32.9688 26.8691 33.1006 26.738 33.2149C26.6069 33.338 26.5982 33.5842 26.6069 33.6809C26.6157 33.7777 26.6681 33.8656 26.773 33.7953C26.8866 33.7249 26.974 33.6194 26.974 33.8392C26.974 34.0502 27.0439 34.0414 26.974 34.2261C26.9128 34.3844 26.9303 34.4107 26.974 34.4107C27.1312 34.3052 27.2798 34.1557 27.4109 33.9799C27.4109 33.9711 27.4109 33.9623 27.4196 33.9535C27.4633 33.7953 27.4983 33.7249 27.5682 33.6282C27.6381 33.5315 27.743 33.2941 27.7168 33.2941C27.6905 33.2941 27.6119 33.3468 27.5769 33.3644C27.5332 33.3732 27.5769 33.3556 27.5245 33.2325C27.4721 33.1094 27.3585 33.0655 27.3585 32.9688C27.3585 32.872 27.4196 32.8457 27.4196 32.8457C27.4196 32.8457 27.3585 32.7753 27.2798 32.8457C27.2012 32.916 27.2099 32.9336 27.1575 32.8457C27.105 32.7577 27.2711 32.6171 27.3585 32.6698C27.4459 32.7226 27.542 32.6522 27.542 32.6522C27.542 32.6522 27.5769 32.6698 27.5245 32.7665C27.4721 32.8632 27.4546 32.9072 27.4546 32.9072L27.4458 32.916Z" fill="#7CD14F"/>
<path d="M25.9785 33.681V33.6985C25.996 33.7161 26.0572 33.6546 26.0572 33.6546C26.0572 33.6546 26.0309 33.9184 26.0746 33.8744C26.1183 33.8304 26.1358 33.7601 26.1358 33.6898C26.1358 33.6194 26.0572 33.6458 26.1358 33.5051C26.2145 33.3644 26.2582 33.2853 26.2582 33.2853L26.3106 33.1534L26.3892 33.1358C26.3892 33.1358 26.3019 33.2677 26.3368 33.2589C26.3718 33.2501 26.4679 33.0743 26.4679 33.0743C26.4679 33.0743 26.564 32.9512 26.5028 32.9512C26.4504 32.9512 26.4329 33.0127 26.3455 33.0743C26.2582 33.1358 26.3193 33.0391 26.3193 33.0391L26.4679 32.9424C26.4679 32.9424 26.5553 32.8633 26.564 32.7841C26.5815 32.705 26.4941 32.7138 26.4941 32.7138L26.5203 32.6259C26.2494 32.916 26.0484 33.3029 25.9785 33.681Z" fill="#6EBA46"/>
<path d="M26.4677 34.5163C26.4677 34.5163 26.5201 34.4196 26.5026 34.358C26.4852 34.2965 26.4415 34.2437 26.4415 34.2173C26.4415 34.191 26.389 34.191 26.389 34.191C26.3803 34.1646 26.4065 34.1382 26.389 34.0942C26.3716 34.0503 26.3716 33.9887 26.3716 33.9887C26.3716 33.9887 26.4327 33.8568 26.3716 33.8305C26.3104 33.8041 26.2405 33.7953 26.2405 33.7953C26.2405 33.7953 26.1793 33.8129 26.1181 33.9096C26.0657 34.0063 26.0657 34.103 26.022 34.103C25.9783 34.103 25.987 34.1822 25.987 34.1822C25.987 34.1822 26.022 34.2261 26.0133 34.2789C26.0133 34.2789 26.0133 34.2877 26.0133 34.2965C26.1006 34.5251 26.2842 34.6482 26.5201 34.6218C26.5201 34.5251 26.4677 34.5251 26.4677 34.5251V34.5163Z" fill="#6EBA46"/>
<path d="M41.5158 42.0075L40.0826 42.834C39.768 43.0186 39.5059 42.8252 39.5059 42.3943V40.9612C39.5059 40.5391 39.768 40.0379 40.0826 39.8621L41.5158 39.0356C41.8304 38.8509 42.0926 39.0444 42.0926 39.4752V40.9084C42.0926 41.3304 41.8304 41.8316 41.5158 42.0075Z" fill="#7CD14F"/>
<path d="M41.7952 39.739V40.8205C41.7952 41.0227 41.6554 41.2689 41.4806 41.3656L40.6154 41.8668L40.1086 42.6406L40.2572 42.1482L40.2834 42.0602L40.4232 41.5942L40.1523 42.1394L40.1173 42.157C39.9426 42.2537 39.8027 42.1745 39.8027 41.9723V40.8908C39.8027 40.6886 39.9426 40.4424 40.1173 40.3457L41.4806 39.5544C41.6554 39.4577 41.7952 39.5368 41.7952 39.739Z" fill="#F1F2F6"/>
<path d="M29.2462 32.1073L30.4697 31.3951C30.7406 31.2368 30.959 31.3687 30.959 31.6765V33.0833C30.959 33.391 30.7406 33.7779 30.4697 33.9361L29.2462 34.6483C28.9753 34.8066 28.7568 34.6747 28.7568 34.367V32.9602C28.7568 32.6524 28.9753 32.2656 29.2462 32.1073Z" fill="#CE7836"/>
<path d="M29.3252 32.0544L30.47 31.3861C30.7409 31.2279 30.9594 31.3597 30.9594 31.6675V33.0743C30.9594 33.382 30.7409 33.7689 30.47 33.9272L29.3252 34.5954V32.0544Z" fill="#FFE56F"/>
<path d="M29.7969 31.7818V32.6435L30.0416 32.3269L30.2688 32.3621V31.5092L29.7969 31.7818Z" fill="#FF4C4A"/>
<path d="M40.7117 29.2232L38.6319 30.4277C38.1687 30.6915 37.793 30.4101 37.793 29.7947V27.702C37.793 27.0866 38.1687 26.3656 38.6319 26.1018L40.7117 24.8972C41.1749 24.6334 41.5507 24.9148 41.5507 25.5303V27.6229C41.5507 28.2384 41.1749 28.9594 40.7117 29.2232Z" fill="#F1F2F6"/>
<path d="M41.3057 25.5479V26.5063C41.3057 26.9459 40.9911 27.4823 40.6153 27.7021L40.1959 27.9483V27.8604C40.1959 27.4207 39.8813 27.2449 39.5055 27.4647L38.7627 27.8955V27.0251C38.7627 26.5854 39.0773 26.0491 39.4531 25.8293L40.6153 25.1522C40.9998 24.9324 41.3057 25.1083 41.3057 25.5479Z" fill="#81D1EF"/>
<path d="M39.418 26.5151L39.7326 26.3304V27.4647L39.5141 27.5878V27.7109L39.418 27.7636V26.4975V26.5151ZM39.6364 26.4975L39.5141 26.5678V27.4823L39.6364 27.4119V26.4975ZM39.7937 26.5766C39.8637 26.5942 39.9336 26.6206 40.0035 26.647C39.9685 26.7085 39.9423 26.7525 39.9248 26.7964C39.8636 26.7613 39.7937 26.7349 39.7326 26.7085L39.8025 26.5766H39.7937ZM39.8811 26.9899C39.8811 26.9899 39.951 26.9899 39.986 26.9811C39.9423 27.2009 39.8986 27.4383 39.8549 27.6845L39.7413 27.7021C39.7937 27.4647 39.8374 27.2273 39.8811 26.9899ZM39.8462 26.1282C39.9161 26.1458 39.9773 26.1722 40.0384 26.1986C40.0122 26.2513 39.986 26.2953 39.9598 26.3304C39.9073 26.2953 39.8462 26.2689 39.7763 26.2425L39.8374 26.1194L39.8462 26.1282ZM39.9685 26.8316L40.0909 26.7613L40.1171 26.3568C40.0909 26.4096 40.0646 26.4711 40.0384 26.5239C40.0122 26.4975 39.986 26.4799 39.9685 26.4623C40.0646 26.2777 40.1433 26.0842 40.2045 25.8732L40.3093 25.8381C40.2919 25.8996 40.2744 25.9612 40.2569 26.0139L40.755 25.7238V25.8293L40.2045 26.1458C40.187 26.2073 40.1608 26.2601 40.1346 26.3216L40.6764 26.0051C40.6764 26.1634 40.6764 26.3041 40.6676 26.4272L40.7812 26.3568V26.4623L40.6589 26.5327C40.6589 26.6558 40.6589 26.7613 40.6501 26.8492L40.7638 26.7877V26.8932L40.6501 26.9635C40.6501 27.1306 40.5802 27.2537 40.4666 27.3152C40.3705 27.368 40.3093 27.4119 40.2656 27.4295C40.2656 27.3855 40.2569 27.3416 40.2482 27.3152C40.3093 27.2888 40.3705 27.2537 40.4492 27.2097C40.5103 27.1745 40.5453 27.113 40.554 27.025L40.0734 27.3064V27.2097L40.0996 26.8756L39.986 26.9371V26.8316H39.9685ZM40.554 26.603L40.1957 26.814L40.1695 27.1394L40.5453 26.9195C40.5453 26.8228 40.5453 26.7173 40.554 26.603ZM40.2219 26.3832L40.1957 26.6997L40.554 26.4887C40.554 26.392 40.554 26.2865 40.554 26.181L40.2132 26.3832H40.2219ZM40.2656 26.8492L40.3443 26.7437C40.388 26.7877 40.4229 26.8404 40.4579 26.8844L40.3705 26.9899C40.3355 26.9371 40.3006 26.8844 40.2656 26.8404V26.8492ZM40.2919 26.4184L40.3705 26.3129C40.4055 26.3568 40.4404 26.4008 40.4754 26.4535L40.388 26.559C40.353 26.4975 40.3181 26.4535 40.2919 26.4184Z" fill="white"/>
<path d="M40.1959 27.8603V27.9482L39.4531 28.3791C39.0686 28.5989 38.7627 28.423 38.7627 27.9834V27.8955L39.5055 27.4646C39.8813 27.2448 40.1959 27.4207 40.1959 27.8603Z" fill="#A184C2"/>
<path d="M40.1966 27.9395V28.4143C40.1966 28.8539 39.882 29.3902 39.5062 29.6101L38.7285 30.0585C38.3439 30.2783 38.0381 30.1024 38.0381 29.6628V29.1001C38.0381 28.6605 38.3527 28.1241 38.7285 27.9043L38.7547 27.8867V27.9746C38.7547 28.4143 39.0693 28.5901 39.445 28.3703L40.1878 27.9395H40.1966Z" fill="#FF4C4A"/>
<path d="M38.3525 29.6188L38.5885 28.8978L38.6497 28.8627L38.8856 29.3111L38.7545 29.3902L38.7196 29.3287L38.5186 29.4518L38.4836 29.5485L38.3525 29.6276V29.6188ZM38.5623 29.2935L38.6671 29.232L38.6147 29.1352L38.5623 29.2935Z" fill="white"/>
<path d="M38.9551 29.2671V28.6868L39.1735 28.5549C39.2522 28.5109 39.3221 28.5549 39.3221 28.6428C39.3221 28.6868 39.3134 28.7308 39.2872 28.7659C39.3221 28.7747 39.3483 28.8099 39.3483 28.8626C39.3483 28.9506 39.2784 29.0737 39.1998 29.1176L38.9551 29.2583V29.2671ZM39.1473 28.8011C39.1473 28.8011 39.191 28.7571 39.191 28.722C39.191 28.6868 39.1735 28.6868 39.1473 28.6956L39.0862 28.7308V28.8363L39.1473 28.8011ZM39.1735 29.0121C39.1735 29.0121 39.2172 28.9682 39.2172 28.933C39.2172 28.8978 39.1998 28.8978 39.1735 28.9066L39.0862 28.9594V29.0649L39.1735 29.0121Z" fill="white"/>
<path d="M39.7422 28.423C39.7422 28.423 39.6898 28.423 39.6548 28.4318C39.5849 28.467 39.5412 28.5549 39.5412 28.6341C39.5412 28.7132 39.5937 28.7396 39.6548 28.7044C39.6898 28.6868 39.716 28.6516 39.7422 28.6165L39.8384 28.6692C39.7947 28.7484 39.7335 28.8187 39.6636 28.8627C39.5238 28.9418 39.4102 28.8802 39.4102 28.7132C39.4102 28.5461 39.5238 28.3527 39.6636 28.2736C39.7335 28.2296 39.7947 28.2296 39.8384 28.256L39.7422 28.4142V28.423Z" fill="white"/>
<path d="M34.5678 45.8674L32.5579 47.0368C32.1122 47.2918 31.7539 47.0192 31.7539 46.4213V44.4079C31.7539 43.81 32.1209 43.1154 32.5579 42.8604L34.5678 41.691C35.0135 41.436 35.3718 41.7085 35.3718 42.3064V44.3199C35.3718 44.9178 35.0048 45.6124 34.5678 45.8674Z" fill="#D2D6E1"/>
<path d="M33.8864 44.7508C33.8864 44.7508 33.834 44.6892 33.8602 44.6277L34 44.2672L33.8252 44.1177L33.5631 44.3639C33.5194 44.4079 33.467 44.4079 33.4495 44.3639L33.3446 44.1265L33.0737 44.2848L32.9688 44.6453C32.9514 44.7068 32.8989 44.7596 32.8552 44.7684L32.5931 44.8299L32.4183 45.1816L32.5581 45.3839C32.5581 45.3839 32.5669 45.4894 32.5319 45.5421L32.3047 45.8587L32.3659 46.1312L32.6368 46.0169C32.6805 45.9993 32.7154 46.0257 32.7154 46.0873L32.6979 46.4214H32.9426L33.1436 46.0785C33.1786 46.0169 33.231 45.9905 33.266 46.0081L33.467 46.1048L33.7116 45.8235L33.6942 45.5157C33.6942 45.463 33.7204 45.3927 33.7728 45.3575L34.0525 45.1465L34.1136 44.8036L33.8864 44.7596V44.7508Z" fill="#6D7A9D"/>
<path d="M34.6028 42.623L34.6639 42.3768L34.4629 42.2713L34.2882 42.4647C34.2183 42.5439 34.1396 42.5615 34.0872 42.5263L33.9648 42.4296L33.7027 42.6758L33.6765 42.9132C33.6677 43.0099 33.6065 43.1066 33.5366 43.1681L33.3444 43.3176L33.2832 43.6605L33.4405 43.7045C33.5017 43.7221 33.5279 43.8012 33.5017 43.8979L33.4405 44.1441L33.6415 44.2496L33.8163 44.0562C33.8862 43.9771 33.9648 43.9595 34.0173 43.9946L34.1396 44.0914L34.4018 43.8452L34.428 43.6078C34.4367 43.511 34.4979 43.4143 34.5678 43.3528L34.7601 43.2033L34.8212 42.8604L34.6639 42.8164C34.6028 42.7989 34.5766 42.7197 34.6028 42.623Z" fill="#6D7A9D"/>
<path d="M33.5624 45.0321C33.5624 45.252 33.4051 45.5245 33.2128 45.6388C33.0206 45.7531 32.8633 45.6652 32.8633 45.4366C32.8633 45.208 33.0206 44.9442 33.2128 44.8299C33.4051 44.7156 33.5624 44.8035 33.5624 45.0321Z" fill="#D2D6E1"/>
<path d="M34.3404 43.089C34.3404 43.2736 34.2094 43.5022 34.0521 43.5901C33.8948 43.6781 33.7637 43.6077 33.7637 43.4231C33.7637 43.2384 33.8948 43.0098 34.0521 42.9219C34.2094 42.834 34.3404 42.9043 34.3404 43.089Z" fill="#D2D6E1"/>
</svg>
