<svg width="78" height="57" viewBox="0 0 78 57" fill="none" xmlns="http://www.w3.org/2000/svg">
<g clip-path="url(#clip0_1064_1555)">
<path d="M58.3235 43.7432L55.2461 42.5982C55.2461 42.5982 55.2911 41.0512 56.7848 40.9223C58.2785 40.801 59.8997 42.4313 58.3235 43.7432Z" fill="#A0A6C0"/>
<path d="M5.99238 29.3125C5.99238 29.3125 4.4912 29.2594 3.97329 27.1816C3.45539 25.1038 3.42536 22.1767 5.33186 20.4705C7.23835 18.7643 29.4032 5.86533 29.4032 5.86533C29.4032 5.86533 35.8208 1.78558 40.0091 1.26992C44.1898 0.754268 49.0386 0.860433 51.6056 1.89933C54.1727 2.93822 62.249 7.82937 62.249 7.82937L56.0867 13.3347C56.0867 13.3347 53.7373 11.219 49.2263 10.7034C44.7152 10.1877 41.878 9.23984 34.5898 12.5537C27.3016 15.8675 5.99238 29.3125 5.99238 29.3125Z" fill="#393F42"/>
<path d="M55.6143 8.17059V22.1312L61.7691 17.2552L58.3539 8.46634L55.6143 8.17059Z" fill="#B0B5CE"/>
<path d="M56.4846 9.54315C56.4846 9.54315 56.0117 10.802 55.9292 12.1063C55.8466 13.4106 56.5372 14.495 55.8316 17.5282C55.1261 20.5615 40.3395 29.0471 35.2279 29.4262C30.1164 29.8054 29.5985 30.8291 27.9097 30.594C26.2209 30.359 23.6389 28.8878 22.2578 29.7902C20.8767 30.6926 34.5224 36.8501 39.6864 34.9544C44.8505 33.0586 59.8097 20.971 60.14 19.697C60.4702 18.423 59.4344 11.2645 56.4771 9.55073L56.4846 9.54315Z" fill="#393F42"/>
<path d="M73.7938 33.7486V15.8978L65.77 18.4003C65.77 18.4003 65.117 34.0595 73.7938 33.7486Z" fill="#DADEF0"/>
<path d="M56.1396 42.1053L56.2748 42.0219L56.1396 42.1053Z" fill="url(#paint0_linear_1064_1555)"/>
<path d="M73.6505 32.6567C73.3428 31.6936 72.5547 33.4605 71.2862 32.7249L62.3317 27.5077C61.6261 27.0982 60.4852 27.0982 59.7796 27.5077L57.8732 28.6224C57.3628 28.9182 57.2051 29.358 57.4603 29.7523C60.6353 34.5904 58.8714 37.6388 52.1762 41.5441L48.1755 43.8722C41.4803 47.7775 29.9212 47.7927 21.6272 45.9424C20.9592 45.7907 20.2011 45.8893 19.6982 46.185L18.137 47.095L18.0995 47.1178L17.7917 47.2998C17.0862 47.7092 17.0787 48.3766 17.7842 48.7861L28.4726 55.0194C31.8427 56.9835 37.3671 56.9759 40.7597 54.9967L49.0763 50.151L51.6208 48.6647C53.3396 47.6637 54.533 45.9348 54.8783 43.9556L54.8933 43.8646C55.0209 43.1366 55.4563 42.5072 56.0943 42.1356L56.2069 42.0674L56.2669 42.0295C56.7248 41.764 57.3027 42.0219 57.4153 42.5375C57.678 43.7357 59.0065 44.3272 60.0649 43.7281H60.0724L63.3675 41.802L71.2411 37.2066C72.8774 36.2511 73.7256 35.0074 73.7931 33.7562C73.7931 33.7031 73.7931 33.6576 73.7931 33.6045C73.7931 33.2861 73.7406 32.9676 73.643 32.6567H73.6505Z" fill="url(#paint1_linear_1064_1555)"/>
<path d="M58.6762 21.6687C58.4961 21.7066 58.3309 21.7672 58.1808 21.8355C58.1358 21.8582 58.0908 21.881 58.0532 21.9037L56.1467 23.0185C55.6363 23.3142 55.4787 23.754 55.7339 24.1408C55.7639 24.1863 55.794 24.2394 55.824 24.2849L52.4088 27.4167L34.9501 32.4368L17.2812 30.4348V46.6021L18.1219 47.0874L28.2023 52.9265L28.4875 53.0933C31.8577 55.0574 37.382 55.0498 40.7747 53.0706L51.4856 46.822C52.649 46.1395 53.4596 44.9717 53.6923 43.6371C53.91 42.3935 54.6531 41.3167 55.7339 40.6872L56.1392 40.4522C57.1675 39.8531 58.4736 40.437 58.7213 41.6048C58.8188 42.0446 59.3067 42.2645 59.6895 42.0371L62.9471 40.1337L71.2486 35.288C71.7289 35.0075 72.1418 34.7041 72.487 34.3781C73.065 33.8321 73.4478 33.2406 73.6505 32.6339C73.7555 32.3154 73.8006 32.0045 73.8006 31.686V18.3472L58.6762 21.6687Z" fill="#5B626F"/>
<path d="M17.2744 48.0277V30.23L21.4402 31.2993L20.2242 48.7709L17.2744 48.0277Z" fill="#A0A6C0"/>
<path d="M19.5332 33.3467V48.2022L24.1343 50.8866V36.0236L19.5332 33.3467Z" fill="#A0A6C0"/>
<path d="M22.6931 47.459L21.8374 47.1784L17.7617 44.8049L17.7992 44.6002L22.6931 47.459Z" fill="#D9DBE6"/>
<path d="M71.2868 14.7073L68.3895 13.0162C66.7232 14.4722 65.0569 15.9282 63.5032 17.5055C60.8836 20.1596 58.5418 22.9654 55.1416 24.6337C55.0891 24.6564 55.0365 24.6716 54.984 24.6943C54.361 25.2706 53.6329 25.809 52.7848 26.3019L48.7916 28.63C42.0964 32.5353 29.9369 32.4519 21.6429 30.6016C20.9748 30.4499 20.2167 30.5485 19.7138 30.8443L17.8073 31.959C17.1018 32.3685 17.0943 33.0358 17.7998 33.4453L28.4882 39.6787C31.8584 41.6427 37.3827 41.6351 40.7754 39.6559L71.2568 21.8734C74.6419 19.8942 74.6644 16.6713 71.2943 14.7073H71.2868Z" fill="url(#paint2_linear_1064_1555)"/>
<path d="M19.7135 28.6148C20.2239 28.3191 21.0045 28.1295 21.6425 28.3721C34.3951 33.3391 44.1902 28.7361 48.7463 26.1958L52.7394 23.8677C55.6742 21.7748 63.3753 14.1613 55.7268 8.49666C55.3515 8.22367 55.6292 7.6701 56.1396 7.36677L58.0461 6.25205C58.7517 5.84256 59.8925 5.83497 60.5981 6.25205L71.2865 12.4854C74.6566 14.4495 74.6341 17.6723 71.2489 19.6515L40.7675 37.434C37.3824 39.4132 31.8506 39.4208 28.4804 37.4568L17.792 31.2234C17.0865 30.8139 17.094 30.1466 17.7995 29.7371L19.706 28.6224L19.7135 28.6148Z" fill="url(#paint3_linear_1064_1555)"/>
<path d="M34.5899 38.2379C32.3381 38.2379 30.2365 37.7374 28.6677 36.8198L17.9794 30.5865C17.7617 30.4652 17.6416 30.3135 17.6416 30.177C17.6416 30.0405 17.7692 29.8812 17.9869 29.7599L19.8934 28.6452C20.2161 28.4556 20.6289 28.3419 20.9892 28.3419C21.1769 28.3419 21.3495 28.3722 21.4996 28.4329C25.3051 29.9192 29.1706 30.6699 32.9836 30.6699C40.9699 30.6699 46.9521 27.3333 48.9186 26.2337L52.9193 23.8981C55.156 22.3057 59.3443 18.2032 59.3818 13.9338C59.4044 11.6286 58.2484 9.59627 55.9441 7.89006C55.9066 7.82181 56.0117 7.57915 56.3194 7.39715L58.2259 6.28243C58.5112 6.1156 58.909 6.0246 59.3218 6.0246C59.7346 6.0246 60.1249 6.1156 60.4026 6.28243L71.091 12.5158C72.5922 13.3879 73.4178 14.5405 73.4178 15.7462C73.4178 16.9519 72.5772 18.1349 71.0535 19.0221L40.5721 36.8047C38.9808 37.7298 36.8567 38.2455 34.5824 38.2455L34.5899 38.2379Z" fill="#5B626F"/>
<path d="M22.6931 35.7733L21.8374 36.6757L17.7617 34.3022L18.6174 33.3922L22.6931 35.7733Z" fill="#D9DBE6"/>
<path d="M17.7617 34.3022V46.5035L21.8374 48.877V36.6757L17.7617 34.3022Z" fill="#A0A6C0"/>
<path d="M18.1895 35.0453V46.3291L21.1843 48.0808V36.7895L18.1895 35.0453Z" fill="#D0CECE"/>
<path d="M18.7305 35.4852V46.0182L21.0498 47.3756V36.8426L18.7305 35.4852Z" fill="#393F42"/>
<path d="M21.8379 36.6757V48.877L22.6936 49.1576V35.7733L21.8379 36.6757Z" fill="#C4C8D8"/>
<path d="M55.6143 12.3565V13.5319L55.1339 13.2513C49.2568 9.82371 39.7318 9.80854 33.8922 13.2134L10.4063 26.9086L9.38552 27.5001L8.55987 27.9778C2.72029 31.3827 2.75031 36.9411 8.62742 40.3687L14.3919 43.7356C15.6229 44.456 17.2592 44.9035 18.9855 45.002L18.8579 45.8438C16.7938 45.73 14.8423 45.1916 13.3711 44.3347L7.60662 40.9678C1.16657 37.2141 1.13654 31.1172 7.53156 27.3787L8.35721 26.901L9.37801 26.3095L32.8639 12.6143C39.0863 8.98198 49.1442 8.89856 55.6143 12.3565Z" fill="#D0CECE"/>
<path d="M2.75781 24.8536V34.4918C2.75781 34.4918 4.07885 37.7146 5.23476 38.7156C6.39066 39.7166 14.6621 44.5319 14.6621 44.5319L18.8654 45.8514V36.5241L15.6829 35.652L5.58003 29.8964L4.04132 26.9389L2.75781 24.8536Z" fill="#393F42"/>
<path d="M18.9925 35.6747L19.9007 36.2056V45.8514H18.8574L17.4463 45.6011L18.4521 36.3041L18.9925 35.6747Z" fill="#D0CECE"/>
<path d="M10.4061 32.0879L9.37778 31.4889L8.62719 31.049C2.75008 27.6214 2.72006 22.063 8.55964 18.6581L33.8845 3.88611C39.7241 0.481271 49.2566 0.496438 55.1337 3.92403L58.714 6.01699C59.352 5.88049 60.0876 5.95632 60.598 6.25206L64.1407 8.32227C63.9381 7.98861 63.6604 7.71562 63.3226 7.51845L56.147 3.33254C49.7069 -0.428709 39.2587 -0.443876 32.8562 3.28704L7.53133 18.0591C1.12881 21.79 1.15883 27.8869 7.60639 31.6481L8.35698 32.0879L9.38529 32.687L13.3784 35.015C14.8496 35.8719 16.8011 36.4103 18.8652 36.5241L18.9928 35.6823C17.259 35.5838 15.6302 35.1364 14.3992 34.416L10.4061 32.0879Z" fill="#D0CECE"/>
<path d="M18.8581 36.5165C18.8581 36.5165 19.7739 36.5392 19.9015 36.2056L18.9932 35.6747L18.4453 36.1449L18.8656 36.5165H18.8581Z" fill="#393F42"/>
<path d="M19.8864 36.5165V46.041C19.8864 46.041 19.8864 46.0637 19.8864 46.0713V46.094C19.9014 46.1926 19.969 46.2912 20.0966 46.367C20.3443 46.5111 20.7121 46.5339 20.9973 46.4353V36.8426L19.8789 36.5089L19.8864 36.5165Z" fill="#393F42"/>
<path d="M19.9911 36.2587C19.8185 36.4255 19.856 36.6454 20.1037 36.7819C20.3514 36.9184 20.7192 36.9487 21.0044 36.8502L19.9911 36.2587Z" fill="#393F42"/>
</g>
<defs>
<linearGradient id="paint0_linear_1064_1555" x1="56.1396" y1="42.0674" x2="56.2748" y2="42.0674" gradientUnits="userSpaceOnUse">
<stop offset="0.09" stop-color="#41464F"/>
<stop offset="0.25" stop-color="#41464F"/>
<stop offset="0.26" stop-color="#4D515A"/>
<stop offset="0.28" stop-color="#545761"/>
<stop offset="0.33" stop-color="#565963"/>
<stop offset="0.36" stop-color="#545761"/>
<stop offset="0.37" stop-color="#4D515A"/>
<stop offset="0.38" stop-color="#464B54"/>
<stop offset="0.82" stop-color="#464B54"/>
<stop offset="0.97" stop-color="#464B54"/>
<stop offset="1" stop-color="#5E626A"/>
</linearGradient>
<linearGradient id="paint1_linear_1064_1555" x1="17.2738" y1="41.8323" x2="73.8007" y2="41.8323" gradientUnits="userSpaceOnUse">
<stop offset="0.01" stop-color="#A0A6C0"/>
<stop offset="0.23" stop-color="#A0A6C0"/>
<stop offset="0.25" stop-color="#B9BED5"/>
<stop offset="0.27" stop-color="#CBD0E4"/>
<stop offset="0.29" stop-color="#D6DAED"/>
<stop offset="0.31" stop-color="#DADEF0"/>
<stop offset="0.63" stop-color="#DADEF0"/>
<stop offset="0.65" stop-color="#DADEF0"/>
<stop offset="1" stop-color="#DADEF0"/>
</linearGradient>
<linearGradient id="paint2_linear_1064_1555" x1="17.0042" y1="27.083" x2="74.7545" y2="27.083" gradientUnits="userSpaceOnUse">
<stop offset="0.01" stop-color="#A0A6C0"/>
<stop offset="0.23" stop-color="#A0A6C0"/>
<stop offset="0.25" stop-color="#B9BED5"/>
<stop offset="0.27" stop-color="#CBD0E4"/>
<stop offset="0.29" stop-color="#D6DAED"/>
<stop offset="0.31" stop-color="#DADEF0"/>
<stop offset="0.63" stop-color="#DADEF0"/>
<stop offset="0.65" stop-color="#DADEF0"/>
<stop offset="1" stop-color="#DADEF0"/>
</linearGradient>
<linearGradient id="paint3_linear_1064_1555" x1="27.272" y1="59.812" x2="43.3839" y2="28.4752" gradientUnits="userSpaceOnUse">
<stop stop-color="#C4C7D8"/>
<stop offset="0.19" stop-color="#B1B5CB"/>
<stop offset="0.54" stop-color="#D9DBE6"/>
<stop offset="1" stop-color="#E5E6EE"/>
</linearGradient>
<clipPath id="clip0_1064_1555">
<rect width="76.5" height="56.4643" fill="white" transform="translate(0.928711 0.5)"/>
</clipPath>
</defs>
</svg>
