<svg width="74" height="44" viewBox="0 0 74 44" fill="none" xmlns="http://www.w3.org/2000/svg">
<g clip-path="url(#clip0_1064_1624)">
<path d="M19.2695 17.9697L29.0223 12.308C33.5726 9.6708 40.5167 9.38027 44.4519 11.6673L56.591 18.7146C60.5337 21.0016 60.0297 25.0319 55.4794 27.669L45.7266 33.3307C41.1762 35.9679 34.2322 36.2584 30.297 33.9714L18.1578 26.9241C14.2152 24.6371 14.7191 20.6068 19.2695 17.9697Z" fill="#F5F2E8"/>
<path d="M20.5878 16.9863L30.0664 11.4885C34.4833 8.92585 41.2347 8.64276 45.0588 10.8627L56.8496 17.7089C60.6737 19.9289 60.192 23.8474 55.775 26.4101L46.2964 31.9079C41.8795 34.4705 35.1281 34.7536 31.304 32.5336L19.5132 25.6875C15.6892 23.4675 16.1709 19.549 20.5878 16.9863Z" fill="#848389"/>
<path d="M19.8099 18.1708L30.0666 10.4009C34.4836 7.8382 41.235 7.55511 45.059 9.7751L57.9986 17.2619C61.8226 19.4819 60.1922 22.7523 55.7753 25.315L46.2967 30.8128C41.8797 33.3754 35.1283 33.6585 31.3043 31.4385L19.5134 24.5924C15.6894 22.3724 15.3929 20.726 19.8099 18.1559V18.1708Z" fill="#46454E"/>
<path d="M19.8916 14.9376L29.7408 9.21634C34.3356 6.54938 41.3463 6.25885 45.326 8.56823L57.5838 15.6826C61.5634 17.992 61.0595 22.0595 56.4647 24.7264L46.6155 30.4477C42.0207 33.1147 35.01 33.4052 31.0303 31.0958L18.7726 23.9815C14.7929 21.6721 15.2968 17.6046 19.8916 14.9376Z" fill="#3A4252"/>
<path d="M20.0693 14.4236L29.8221 8.76194C34.3724 6.12478 41.3165 5.83425 45.2517 8.12127L57.3908 15.1686C61.3335 17.4556 60.8295 21.4859 56.2792 24.123L46.5264 29.7847C41.9761 32.4219 35.032 32.7124 31.0968 30.4254L18.9576 23.3781C15.015 21.091 15.5189 17.0608 20.0693 14.4236Z" fill="#444C5B"/>
<path d="M21.4033 14.2821L30.4373 9.03759C34.6467 6.59412 41.0794 6.32593 44.733 8.44162L55.9754 14.9675C59.6216 17.0832 59.1622 20.8154 54.9527 23.2663L45.9188 28.5109C41.7093 30.9543 35.2766 31.2225 31.623 29.1068L20.3806 22.581C16.7344 20.4653 17.1939 16.733 21.4033 14.2821Z" fill="#5B626F"/>
<path d="M41.5019 20.2343L38.6858 17.5897L37.374 18.3496L41.5019 20.2343Z" fill="#A0A6C0"/>
<path d="M34.8545 16.9863L38.9824 18.8711L37.6707 19.6309L34.8545 16.9863Z" fill="#A0A6C0"/>
<path d="M28.3029 23.758C28.5623 23.609 28.9847 23.609 29.2515 23.758C29.5109 23.907 29.5109 24.1528 29.2515 24.3093C28.9922 24.4657 28.5697 24.4582 28.3029 24.3093C28.0436 24.1603 28.0436 23.9144 28.3029 23.758Z" fill="#708199"/>
<path d="M48.0463 13.4105C47.7869 13.5595 47.3645 13.5595 47.0977 13.4105C46.8383 13.2615 46.8309 13.0157 47.0977 12.8592C47.3645 12.7028 47.7795 12.7103 48.0463 12.8592C48.3057 13.0082 48.3131 13.2541 48.0463 13.4105Z" fill="#708199"/>
<path d="M50.0394 15.0792C49.7207 15.1835 49.3131 15.1239 49.1279 14.9376C48.9426 14.7514 49.0537 14.513 49.3724 14.4087C49.6911 14.3044 50.0987 14.364 50.284 14.5503C50.4692 14.7365 50.3581 14.9749 50.0394 15.0792Z" fill="#708199"/>
<path d="M51.2183 16.9789C50.8625 17.031 50.492 16.9118 50.3956 16.7032C50.2993 16.4946 50.5068 16.286 50.8625 16.2264C51.2183 16.1743 51.5888 16.2935 51.6851 16.5021C51.7815 16.7107 51.574 16.9193 51.2183 16.9789Z" fill="#708199"/>
<path d="M51.5068 18.9977C51.1363 18.9977 50.8398 18.8264 50.8398 18.6103C50.8398 18.3943 51.1363 18.223 51.5068 18.223C51.8774 18.223 52.1738 18.3943 52.1738 18.6103C52.1738 18.8264 51.8774 18.9977 51.5068 18.9977Z" fill="#708199"/>
<path d="M50.8919 20.9867C50.5361 20.9271 50.3212 20.7185 50.4176 20.51C50.5139 20.3014 50.8771 20.1822 51.2328 20.2343C51.5885 20.2939 51.8034 20.5025 51.7071 20.7111C51.6107 20.9197 51.2476 21.0389 50.8919 20.9867Z" fill="#708199"/>
<path d="M49.4095 22.8119C49.0909 22.7076 48.9797 22.4692 49.165 22.283C49.3502 22.0967 49.7578 22.0371 50.0765 22.1414C50.3952 22.2457 50.5063 22.4841 50.3211 22.6704C50.1358 22.8566 49.7282 22.9162 49.4095 22.8119Z" fill="#708199"/>
<path d="M47.4602 24.3465C47.2008 24.1975 47.2008 23.9517 47.4602 23.7952C47.7195 23.6388 48.142 23.6462 48.4088 23.7952C48.6682 23.9442 48.6682 24.19 48.4088 24.3465C48.1494 24.4955 47.727 24.4955 47.4602 24.3465Z" fill="#708199"/>
<path d="M44.2958 25.4937C44.1106 25.3075 44.2217 25.0691 44.5404 24.9648C44.8591 24.8605 45.2667 24.9201 45.4519 25.1063C45.6372 25.2926 45.526 25.531 45.2074 25.6353C44.8887 25.7396 44.4811 25.68 44.2958 25.4937Z" fill="#708199"/>
<path d="M41.0206 26.1642C40.9243 25.9556 41.1318 25.747 41.4875 25.6874C41.8433 25.6278 42.2138 25.7545 42.3101 25.9631C42.4065 26.1717 42.199 26.3802 41.8433 26.4398C41.4875 26.492 41.117 26.3728 41.0206 26.1642Z" fill="#708199"/>
<path d="M37.5449 26.3207C37.5449 26.1046 37.8414 25.9333 38.2119 25.9333C38.5825 25.9333 38.8789 26.1046 38.8789 26.3207C38.8789 26.5367 38.5825 26.708 38.2119 26.708C37.8414 26.708 37.5449 26.5367 37.5449 26.3207Z" fill="#708199"/>
<path d="M34.1207 25.9482C34.217 25.7396 34.5802 25.6204 34.9359 25.6725C35.2916 25.7321 35.5065 25.9407 35.4102 26.1493C35.3139 26.3579 34.9507 26.4771 34.595 26.425C34.2393 26.3654 34.0244 26.1568 34.1207 25.9482Z" fill="#708199"/>
<path d="M30.9638 25.0766C31.1491 24.8903 31.5567 24.8307 31.8753 24.935C32.194 25.0393 32.3052 25.2777 32.1199 25.4639C31.9346 25.6502 31.527 25.7098 31.2084 25.6055C30.8897 25.5012 30.7785 25.2628 30.9638 25.0766Z" fill="#708199"/>
<path d="M26.3168 22.0893C26.6354 21.985 27.043 22.0446 27.2283 22.2308C27.4136 22.417 27.3024 22.6554 26.9837 22.7597C26.6651 22.864 26.2575 22.8044 26.0722 22.6182C25.8869 22.4319 25.9981 22.1935 26.3168 22.0893Z" fill="#708199"/>
<path d="M25.1389 20.1822C25.4946 20.13 25.8652 20.2492 25.9615 20.4578C26.0579 20.6664 25.8504 20.875 25.4946 20.9346C25.1389 20.9942 24.7684 20.8676 24.672 20.659C24.5757 20.4504 24.7832 20.2418 25.1389 20.1822Z" fill="#708199"/>
<path d="M24.8496 18.1708C25.2201 18.1708 25.5166 18.3421 25.5166 18.5582C25.5166 18.7742 25.2201 18.9455 24.8496 18.9455C24.4791 18.9455 24.1826 18.7742 24.1826 18.5582C24.1826 18.3421 24.4791 18.1708 24.8496 18.1708Z" fill="#708199"/>
<path d="M25.4652 16.1818C25.8209 16.2414 26.0358 16.4499 25.9395 16.6585C25.8432 16.8671 25.48 16.9863 25.1243 16.9342C24.7686 16.8746 24.5537 16.666 24.65 16.4574C24.7463 16.2488 25.1095 16.1296 25.4652 16.1818Z" fill="#708199"/>
<path d="M26.9544 14.3566C27.2731 14.4609 27.3843 14.6993 27.199 14.8855C27.0137 15.0718 26.6061 15.1313 26.2875 15.0271C25.9688 14.9228 25.8576 14.6844 26.0429 14.4981C26.2282 14.3119 26.6358 14.2523 26.9544 14.3566Z" fill="#708199"/>
<path d="M29.1998 12.822C29.4592 12.9709 29.4592 13.2168 29.1998 13.3732C28.9404 13.5222 28.518 13.5222 28.2512 13.3732C27.9918 13.2242 27.9918 12.9784 28.2512 12.822C28.5106 12.6655 28.933 12.673 29.1998 12.822Z" fill="#708199"/>
<path d="M32.0603 11.6822C32.2456 11.8684 32.1344 12.1068 31.8158 12.2111C31.4971 12.3154 31.0895 12.2558 30.9042 12.0695C30.719 11.8833 30.8301 11.6449 31.1488 11.5406C31.4675 11.4363 31.8751 11.4959 32.0603 11.6822Z" fill="#708199"/>
<path d="M35.3434 11.0043C35.4397 11.2129 35.2322 11.4215 34.8765 11.481C34.5207 11.5332 34.1502 11.414 34.0538 11.2054C33.9575 10.9968 34.165 10.7882 34.5207 10.7286C34.8765 10.6765 35.247 10.7957 35.3434 11.0043Z" fill="#708199"/>
<path d="M38.8115 10.8553C38.8115 11.0713 38.5151 11.2427 38.1445 11.2427C37.774 11.2427 37.4775 11.0639 37.4775 10.8553C37.4775 10.6392 37.774 10.4679 38.1445 10.4679C38.5151 10.4679 38.8115 10.6467 38.8115 10.8553Z" fill="#708199"/>
<path d="M42.2432 11.2203C42.1469 11.4289 41.7837 11.5481 41.428 11.4959C41.0723 11.4363 40.8574 11.2278 40.9537 11.0192C41.05 10.8106 41.4132 10.6914 41.7689 10.7435C42.1246 10.7957 42.3396 11.0117 42.2432 11.2203Z" fill="#708199"/>
<path d="M45.3924 12.0994C45.2071 12.2856 44.7995 12.3452 44.4808 12.2409C44.1621 12.1366 44.051 11.8982 44.2363 11.712C44.4215 11.5258 44.8291 11.4662 45.1478 11.5705C45.4665 11.6748 45.5776 11.9131 45.3924 12.0994Z" fill="#708199"/>
<path d="M58.3916 17.992C58.3916 17.992 58.7029 20.808 55.7829 22.6108C52.863 24.4136 45.1704 28.8088 45.1704 28.8088C45.1704 28.8088 40.546 30.6489 37.0332 30.5073C37.0332 30.5073 38.219 30.6712 39.7975 30.6116C43.6882 30.4775 46.875 28.7492 47.9347 28.0713C48.9945 27.3934 55.2197 23.8101 56.2276 23.1695C57.2355 22.5288 59.2438 20.726 58.3916 17.9846V17.992Z" fill="#6C727E"/>
<path d="M56.6649 14.744C56.6649 14.744 55.8719 14.8409 55.3753 14.744C54.8714 14.6472 53.9599 13.7532 53.3003 13.8054C52.6407 13.8575 46.46 17.5749 46.46 17.5749L46.9046 15.8317C46.9046 15.8317 51.366 13.0753 52.6333 13.0306C53.908 12.9859 54.0784 13.269 54.0784 13.269L56.6649 14.7366V14.744Z" fill="#404C63"/>
<path d="M28.9179 16.7852C28.9179 16.7852 28.6807 18.6401 28.9994 19.2361C29.0957 19.4223 29.2662 19.5937 29.5107 19.7352L37.1959 24.1975C37.9889 24.6594 39.2858 24.6594 40.0788 24.1975L47.7195 19.765C47.9863 19.6086 48.1567 19.4224 48.2456 19.2212C48.2456 19.2212 48.6606 18.4614 48.2827 16.7107C48.0455 16.6585 46.8598 16.6287 45.1849 16.6213L40.0269 13.6266C39.2339 13.1647 37.937 13.1647 37.144 13.6266L31.7859 16.7405C30.0591 16.7628 28.9253 16.7852 28.9253 16.7852H28.9179Z" fill="#6C798B"/>
<path d="M29.7996 29.673C29.7996 29.673 30.0961 28.8535 30.2888 28.3321C30.5778 27.5573 30.7186 26.9092 31.4078 26.3207C32.097 25.7322 36.7067 23.2589 36.7067 23.2589V22.0893L31.0521 23.2589L28.1025 28.6971L29.7922 29.6804L29.7996 29.673Z" fill="#404C63"/>
<path d="M55.457 14.0363L54.4936 13.4776L54.4788 13.4627C54.3454 13.3807 54.212 13.3137 54.0786 13.269C54.0267 13.2466 53.9674 13.2317 53.9156 13.2168C53.8933 13.2168 53.8711 13.202 53.8489 13.202C53.797 13.1871 53.7451 13.1796 53.6932 13.1647C53.4857 13.1275 53.2856 13.1275 53.1152 13.1349C53.0707 13.1349 53.0262 13.1349 52.9966 13.1498H52.9818C52.9225 13.1498 52.8706 13.1647 52.8187 13.1722H52.8039L52.4704 13.0083L52.2333 12.8891L51.67 12.6134L47.9053 10.7287L48.424 10.17L48.5056 10.0806L48.8909 10.237L49.6617 10.5499L50.4398 10.8702L53.3746 12.0696L55.2199 12.8295L55.3607 13.5521L55.3829 13.6638L55.4496 14.0289L55.457 14.0363Z" fill="#393F42"/>
<path d="M73.4066 4.56038C73.3251 5.18615 72.9768 5.77467 72.3617 6.1397L61.0377 12.7102L57.9844 13.9767L55.1386 13.6414L53.0784 12.673L52.152 12.9114L46.7346 15.921L46.3492 15.6901L40.376 12.1962C40.376 12.1962 44.7855 9.69316 45.4525 9.48457L45.2969 9.34303L46.9569 9.10464L50.1584 10.9819C50.8551 10.8255 52.278 9.42497 52.278 9.42497L65.1212 1.98282C67.1444 0.80578 69.6419 0.813229 71.6651 1.99772L72.3617 2.40744C73.1695 2.87677 73.5178 3.74837 73.4066 4.56038Z" fill="#393F42"/>
<path d="M73.4281 4.26243V3.20459H71.4346L71.857 5.16384L73.4281 4.26243Z" fill="#393F42"/>
<path d="M72.3611 1.43898L71.6645 1.0367C70.6269 0.425829 69.4634 0.127845 68.2999 0.142744C67.5885 0.142744 66.8844 0.284286 66.2026 0.530123C66.2174 0.477976 57.1168 5.6629 57.1168 5.6629L52.2848 8.4714L51.1435 9.13442C50.7582 9.3579 50.4173 9.45475 50.106 9.46965H49.9281C49.9281 9.46965 49.8688 9.46965 49.8466 9.46965L47.7864 8.24046H47.7641C46.7711 7.70409 45.6001 7.78604 44.3847 8.4863L39.1822 11.5034L38.1299 12.1143V13.0827L40.7904 11.5406L46.734 15.9285L53.1223 12.6804L53.3298 12.6059L55.39 13.5744L57.5466 14.297L61.0298 11.7492L72.3389 5.17868C73.7692 4.35177 73.7766 2.28078 72.3463 1.43898H72.3611Z" fill="#393F42"/>
<path d="M73.4061 4.56036C73.3245 5.18613 72.9762 5.77465 72.3611 6.13968L61.0372 12.7102L58.3025 14.297C57.6874 14.6546 57.1538 14.7812 56.6647 14.7365L55.4567 14.0363L54.4933 13.4775L54.4785 13.4626C54.3451 13.3807 54.2117 13.3137 54.0783 13.269C54.0264 13.2466 53.9671 13.2317 53.9152 13.2168C53.893 13.2168 53.8708 13.2019 53.8485 13.2019C53.7967 13.187 53.7448 13.1721 53.6929 13.1647C53.4854 13.1274 53.2853 13.1274 53.1149 13.1349C53.0778 13.1349 53.0333 13.1349 52.9963 13.1498H52.9815C52.9222 13.1498 52.8703 13.1647 52.8184 13.1721C52.7962 13.1721 52.774 13.1721 52.7517 13.187C52.7147 13.187 52.6702 13.2019 52.6406 13.2094C52.6035 13.2094 52.5813 13.2243 52.5516 13.2317C52.2181 13.3136 51.8846 13.4552 51.5586 13.6489L48.3348 15.5187L48.3126 15.5336L45.3037 17.2768V16.3084L46.3561 15.6975L46.4005 15.6677L47.1416 15.2431L47.2083 15.2058L47.5048 15.0345L47.942 14.7738L51.5512 12.6804C51.5882 12.6581 51.6327 12.6357 51.6697 12.6208C52.2626 12.3005 52.8332 12.1217 53.3817 12.0919C54.1895 12.0472 54.9454 12.3154 55.5901 12.9114C56.3609 13.6265 57.139 14.0139 58.3025 13.3434L61.0372 11.7567L72.3537 5.18613L73.3987 4.57526L73.4061 4.56036Z" fill="#D0CECE"/>
<path d="M41.3679 20.6218C41.3679 20.6218 38.1071 21.7317 37.5439 22.4916C35.3502 21.0687 30.6517 18.1187 28.999 17.776C29.666 18.953 34.3646 21.7615 36.2618 22.5661C38.159 23.3707 38.7 23.244 38.7 23.244C38.7 23.244 38.6926 23.244 38.6851 23.2366C39.7079 23.3036 40.8936 22.6629 43.9988 20.8601C48.0822 18.4912 48.1489 17.9399 48.1489 17.9399L41.3753 20.6218H41.3679Z" fill="url(#paint0_linear_1064_1624)"/>
<path d="M28.9179 15.3325C28.9179 15.3325 28.6807 17.1874 28.9994 17.7834C29.0957 17.9697 29.2662 18.141 29.5107 18.2825L37.1959 22.7448C37.9889 23.2067 39.2858 23.2067 40.0788 22.7448L47.7195 18.3123C47.9863 18.1559 48.1567 17.9697 48.2456 17.7685C48.2456 17.7685 48.6606 17.0087 48.2827 15.258C48.0455 15.2059 46.8598 15.1761 45.1849 15.1686L40.0269 12.1739C39.2339 11.712 37.937 11.712 37.144 12.1739L31.7859 15.2878C30.0591 15.3101 28.9253 15.3325 28.9253 15.3325H28.9179Z" fill="url(#paint1_linear_1064_1624)"/>
<path d="M43.2139 20.1152C43.2139 19.914 43.3769 19.6607 43.577 19.5415L46.0671 18.0963C46.2672 17.9846 46.4302 18.0516 46.4302 18.2528C46.4302 18.4539 46.2672 18.7072 46.0671 18.8264L43.577 20.2716C43.3769 20.3908 43.2139 20.3163 43.2139 20.1152Z" fill="#EFF0F5"/>
<path d="M43.3545 20.1822C43.3545 19.981 43.5175 19.7277 43.7176 19.6086L46.2077 18.1633C46.4078 18.0516 46.5708 18.1186 46.5708 18.3198C46.5708 18.5209 46.4078 18.7742 46.2077 18.8934L43.7176 20.3386C43.5175 20.4504 43.3545 20.3833 43.3545 20.1822Z" fill="#C4C8D8"/>
<path d="M42.2137 21.0612C42.1544 21.0985 42.1025 21.0612 42.1025 21.0016C42.1025 20.942 42.147 20.8452 42.2137 20.8154C42.2804 20.7856 42.3249 20.8154 42.3249 20.875C42.3249 20.9346 42.273 21.0314 42.2137 21.0612Z" fill="#3A3F47"/>
<path d="M41.8133 21.2922C41.754 21.3294 41.7021 21.2922 41.7021 21.2326C41.7021 21.173 41.754 21.0762 41.8133 21.0464C41.8726 21.0166 41.9245 21.0464 41.9245 21.106C41.9245 21.1656 41.88 21.2624 41.8133 21.2922Z" fill="#3A3F47"/>
<path d="M41.4129 21.5232C41.3536 21.5604 41.3018 21.5232 41.3018 21.4636C41.3018 21.404 41.3462 21.3071 41.4129 21.2773C41.4796 21.2475 41.5241 21.2773 41.5241 21.3369C41.5241 21.3965 41.4722 21.4934 41.4129 21.5232Z" fill="#3A3F47"/>
<path d="M37.2035 20.7111L29.5184 16.2488C28.7254 15.7869 28.718 15.0345 29.511 14.5801L37.1517 10.1476C37.9446 9.69316 39.2341 9.69316 40.0345 10.1476L47.7197 14.6099C48.5127 15.0718 48.5201 15.8242 47.7271 16.2786L40.0864 20.7111C39.2934 21.173 38.0039 21.1655 37.2035 20.7111Z" fill="#EFF0F5"/>
<path d="M39.6493 10.4232L47.2381 14.826C47.8236 15.1686 47.831 15.7199 47.2381 16.0626L39.6938 20.443C39.1083 20.7782 38.1523 20.7782 37.5668 20.443L29.978 16.0402C29.3925 15.6976 29.3851 15.1463 29.978 14.8036L37.5224 10.4232C38.1078 10.088 39.0639 10.088 39.6493 10.4232Z" fill="#3A3F47"/>
<path d="M39.7524 10.6243L46.9262 14.7887C47.4821 15.109 47.4821 15.6379 46.9262 15.9583L39.7969 20.0928C39.2485 20.4131 38.3369 20.4131 37.7811 20.0928L30.6073 15.9285C30.0515 15.6081 30.0515 15.0792 30.6073 14.7589L37.7366 10.6243C38.2851 10.304 39.1966 10.304 39.7524 10.6243Z" fill="#3A3F47"/>
<path d="M37.5887 16.8448L38.1519 17.1725C38.2779 17.247 38.2779 17.3588 38.1519 17.4333L37.5961 17.7611C37.4701 17.8355 37.27 17.8355 37.144 17.7611L36.5808 17.4333C36.4548 17.3588 36.4548 17.247 36.5808 17.1725L37.1366 16.8448C37.2626 16.7703 37.4627 16.7703 37.5887 16.8448Z" fill="#FFC1E3"/>
<path d="M37.8109 17.4556C37.9295 17.3886 37.9295 17.2768 37.8109 17.2023C37.7517 17.1651 37.6775 17.1502 37.596 17.1502C37.596 17.1055 37.5664 17.0608 37.5071 17.0236C37.3885 16.9565 37.1958 16.9565 37.0773 17.0236C37.0773 17.0236 37.0773 17.0236 37.0698 17.031C37.0698 17.031 37.055 17.031 37.0476 17.0385C36.8623 17.1502 36.9735 17.5078 36.9735 17.5078C36.9735 17.5078 37.596 17.5748 37.7813 17.4631C37.7887 17.4631 37.7961 17.4556 37.8035 17.4482C37.8035 17.4482 37.8109 17.4482 37.8184 17.4482L37.8109 17.4556Z" fill="#FF4C4A"/>
<path d="M41.6645 17.4333L40.7529 16.9044C40.5528 16.7852 40.5751 16.584 40.8122 16.4499L41.5978 15.9955C41.8275 15.8614 42.1832 15.8465 42.3833 15.9657L43.2949 16.4946C43.495 16.6138 43.4728 16.815 43.2356 16.9491L42.45 17.4035C42.2203 17.5376 41.8646 17.5525 41.6645 17.4333Z" fill="#00DD90"/>
<path d="M42.1682 17.1055H41.9014L41.9088 16.9491H42.1607L42.1682 17.1055Z" fill="#C1C5D5"/>
<path d="M42.1679 17.1055H41.9011L41.8789 17.3439C41.8789 17.3961 41.9456 17.4333 42.0345 17.4333C42.1235 17.4333 42.1902 17.3961 42.1828 17.3439L42.1605 17.1055H42.1679Z" fill="#FFB33D"/>
<path d="M42.7461 16.5617C42.7461 16.7926 42.4275 16.9714 42.0347 16.9714C41.6419 16.9714 41.3232 16.7852 41.3232 16.5617C41.3232 16.3308 41.6419 16.152 42.0347 16.152C42.4275 16.152 42.7461 16.3382 42.7461 16.5617Z" fill="#F1F2F6"/>
<path d="M42.6052 16.5617C42.6052 16.748 42.3532 16.8895 42.0345 16.8895C41.7233 16.8895 41.4639 16.7405 41.4639 16.5543C41.4639 16.368 41.7158 16.2265 42.0345 16.2265C42.3458 16.2265 42.6052 16.3755 42.6052 16.5617Z" fill="#81D1EF"/>
<path d="M42.3456 16.4202C42.316 16.4723 42.1974 16.4872 42.0714 16.4648C41.9454 16.4425 41.8713 16.3829 41.8936 16.3308C41.9232 16.2786 42.0418 16.2637 42.1678 16.2861C42.2938 16.3084 42.3679 16.368 42.3456 16.4202Z" fill="#B8E5F6"/>
<path d="M40.7312 13.9469L39.8419 13.4329C39.6492 13.3211 39.6714 13.12 39.8937 12.9859L40.6645 12.5389C40.8942 12.4048 41.2351 12.3899 41.4352 12.5091L42.3245 13.0231C42.5172 13.1349 42.495 13.336 42.2727 13.4701L41.5019 13.9171C41.2722 14.0512 40.9313 14.0661 40.7312 13.9469Z" fill="#81D1EF"/>
<path d="M42.169 13.0976L41.0352 13.1497L41.1019 13.3211L42.169 13.0976Z" fill="#F7393B"/>
<path d="M39.9678 13.3733L41.1016 13.3211L41.035 13.1498L39.9678 13.3733Z" fill="#F1F2F6"/>
<path d="M41.2573 13.2913C41.1981 13.3509 41.0647 13.3658 40.9683 13.3286C40.872 13.2913 40.8423 13.2168 40.9016 13.1572C40.9609 13.0976 41.0943 13.0827 41.1906 13.12C41.287 13.1572 41.3166 13.2317 41.2573 13.2913Z" fill="#F1F2F6"/>
<path d="M41.1682 13.2541C41.1682 13.2541 41.0718 13.2913 41.02 13.269C40.9681 13.2466 40.9533 13.2094 40.9903 13.1796C41.02 13.1498 41.0867 13.1423 41.1385 13.1647C41.1904 13.187 41.2052 13.2243 41.1682 13.2541Z" fill="#F7393B"/>
<path d="M34.6982 15.2505L33.8608 14.7663C33.6755 14.662 33.6977 14.4683 33.9126 14.3491L34.6389 13.932C34.8538 13.8053 35.1799 13.7979 35.3652 13.9022L36.2026 14.3864C36.3879 14.4907 36.3657 14.6844 36.1508 14.8036L35.4245 15.2207C35.2096 15.3474 34.8835 15.3548 34.6982 15.2505Z" fill="#CE7836"/>
<path d="M35.9435 14.4683L35.899 14.5428C35.899 14.5428 35.899 14.5577 35.899 14.5652L35.9805 14.6248C35.9805 14.6248 35.9805 14.6695 35.9435 14.6695H35.8101C35.8101 14.6695 35.7804 14.6695 35.773 14.6769L35.6989 14.7365C35.6989 14.7365 35.6248 14.7514 35.6174 14.7291L35.5803 14.6546C35.5803 14.6546 35.5655 14.6397 35.5507 14.6397L35.4247 14.6173C35.3877 14.6173 35.3802 14.5801 35.4099 14.5652L35.5136 14.5205C35.5136 14.5205 35.5359 14.5056 35.5359 14.4981V14.4236C35.5359 14.4236 35.5803 14.3864 35.61 14.4013L35.7137 14.446C35.7137 14.446 35.7434 14.446 35.7582 14.446L35.8842 14.4236C35.9213 14.4236 35.9583 14.4385 35.9435 14.4609V14.4683Z" fill="#FFE43D"/>
<path d="M35.1877 14.3864L35.1136 14.5205C35.1136 14.5205 35.1136 14.5503 35.1284 14.5652L35.2692 14.6769C35.3137 14.7067 35.2692 14.7588 35.2025 14.7588H34.9653C34.9653 14.7588 34.9135 14.7588 34.8912 14.7812L34.7578 14.8929C34.7134 14.9302 34.6244 14.9153 34.6022 14.878L34.5281 14.7439C34.5281 14.7439 34.4984 14.7141 34.4688 14.7141L34.2391 14.6694C34.1724 14.6545 34.1575 14.6024 34.2168 14.58L34.4095 14.4981C34.4095 14.4981 34.4466 14.4758 34.4466 14.4534V14.3119C34.4466 14.2672 34.5207 14.2448 34.58 14.2746L34.7727 14.3566C34.7727 14.3566 34.8245 14.3715 34.8542 14.364L35.0765 14.3193C35.1432 14.3044 35.2099 14.3417 35.1877 14.3864Z" fill="#FFE43D"/>
<path d="M33.0903 14.2747L32.5344 13.9543C32.4085 13.8798 32.4233 13.7606 32.5715 13.6712L33.0532 13.3882C33.194 13.3062 33.4089 13.2988 33.5349 13.3658L34.0907 13.6861C34.2167 13.7606 34.2019 13.8873 34.0537 13.9692L33.572 14.2523C33.4312 14.3343 33.2162 14.3417 33.0903 14.2747Z" fill="#F1F2F6"/>
<path d="M33.7205 14.0661C33.4908 14.2001 33.1276 14.2001 32.8979 14.0661C32.6682 13.932 32.6682 13.7234 32.8979 13.5893C33.1276 13.4552 33.4908 13.4552 33.7205 13.5893C33.9502 13.7234 33.9502 13.932 33.7205 14.0661Z" fill="#F7393B"/>
<path d="M33.8091 13.7905L32.9346 13.6787L33.068 13.8426L33.1273 13.8799L33.1124 13.8873L33.194 14.081L33.8091 13.7905Z" fill="#F1F2F6"/>
<path d="M33.5277 13.8203L33.0682 13.8426L32.957 13.9469L33.1201 13.9096L33.1127 13.8947L33.5277 13.8203Z" fill="#C4C8D8"/>
<path d="M40.2122 18.5508L39.4933 18.1336C39.3377 18.0442 39.3525 17.8803 39.5378 17.776L40.1603 17.4184C40.3455 17.3141 40.6272 17.2992 40.7828 17.3961L41.5017 17.8133C41.6573 17.9026 41.6425 18.0665 41.4572 18.1783L40.8347 18.5359C40.6494 18.6402 40.3678 18.6551 40.2122 18.5582V18.5508Z" fill="#F7393B"/>
<path d="M41.25 17.9101L40.6571 17.6717L40.042 18.0293L40.0939 18.0591L40.5534 17.7983L41.0277 17.9771L40.5385 18.2602L40.5904 18.29L41.25 17.9101Z" fill="#F1F2F6"/>
<path d="M40.1307 18.0293C40.1011 18.0814 39.9973 18.1038 39.8862 18.0814C39.7824 18.0591 39.7157 18.0069 39.7454 17.9548C39.775 17.9026 39.8788 17.8803 39.9899 17.9026C40.0937 17.925 40.1604 17.9771 40.1307 18.0293Z" fill="#F1F2F6"/>
<path d="M40.6268 18.2602C40.5972 18.3124 40.4934 18.3347 40.3823 18.3124C40.2785 18.29 40.2118 18.2379 40.2414 18.1857C40.2711 18.1336 40.3748 18.1112 40.486 18.1336C40.5898 18.1559 40.6565 18.2081 40.6268 18.2602Z" fill="#F1F2F6"/>
<path d="M38.411 16.5617L36.877 15.6752C36.536 15.4815 36.5805 15.1314 36.9733 14.9079L38.2999 14.1406C38.6926 13.9171 39.2855 13.8873 39.6264 14.0884L41.1605 14.9749C41.5014 15.1686 41.4569 15.5188 41.0641 15.7422L39.7376 16.5096C39.3448 16.733 38.7519 16.7628 38.411 16.5617Z" fill="#F7393B"/>
<path d="M40.1527 15.9732C39.5302 16.3382 38.5149 16.3308 37.8924 15.9732C37.2624 15.6081 37.2624 15.0196 37.8924 14.662C38.5149 14.297 39.5302 14.3045 40.1527 14.662C40.7826 15.0271 40.7826 15.6156 40.1527 15.9732Z" fill="#F1F2F6"/>
<path d="M39.3151 15.4294C39.2039 15.5262 38.9816 15.556 38.8112 15.489C38.6407 15.4219 38.5962 15.2953 38.7 15.1984C38.8112 15.1016 39.0335 15.0718 39.2039 15.1388C39.3744 15.2059 39.4189 15.3325 39.3151 15.4294Z" fill="#D9CCDB"/>
<path d="M39.0407 15.3176L38.9814 15.3027L39.478 14.4982L39.5447 14.5131L39.0407 15.3176Z" fill="#F7393B"/>
<path d="M39.004 15.2729V15.3549L37.4922 15.3474V15.2729H39.004Z" fill="#383838"/>
<path d="M38.9893 15.34L39.0263 15.2804L40.2936 15.5486L40.2565 15.6082L38.9893 15.34Z" fill="#383838"/>
<path d="M39.1665 15.3698C39.1147 15.4219 38.9961 15.4368 38.9072 15.3996C38.8182 15.3698 38.796 15.3027 38.8479 15.2506C38.8998 15.1984 39.0183 15.1835 39.1073 15.2208C39.1962 15.258 39.2184 15.3176 39.1665 15.3698Z" fill="#666666"/>
<path d="M31.9493 16.2711L31.2749 15.8838C31.1267 15.7944 31.1415 15.6454 31.3194 15.5485L31.8974 15.2133C32.0679 15.1165 32.3272 15.1016 32.4755 15.191L33.1499 15.5783C33.2981 15.6677 33.2758 15.8167 33.1054 15.9136L32.5273 16.2488C32.3569 16.3456 32.0975 16.3605 31.9493 16.2711Z" fill="#F1F2F6"/>
<path d="M32.1127 15.258L31.8756 15.3995C31.794 15.4442 31.8533 15.5336 31.9719 15.5336H32.4536C32.5722 15.5336 32.6315 15.4517 32.55 15.407L32.3054 15.2655C32.2535 15.2357 32.172 15.2357 32.1201 15.2655L32.1127 15.258Z" fill="#FF8E8C"/>
<path d="M32.305 16.1967L32.5422 16.0551C32.6237 16.0104 32.5644 15.921 32.4458 15.921H31.9641C31.8455 15.921 31.7862 16.003 31.8678 16.0477L32.1123 16.1892C32.1642 16.219 32.2457 16.219 32.2976 16.1892L32.305 16.1967Z" fill="#FF8E8C"/>
<path d="M32.1127 15.258L31.8756 15.3995C31.794 15.4442 31.8533 15.5336 31.9719 15.5336H32.4536C32.5722 15.5336 32.6315 15.4517 32.55 15.407L32.3054 15.2655C32.2535 15.2357 32.172 15.2357 32.1201 15.2655L32.1127 15.258Z" fill="#FF8E8C"/>
<path d="M32.305 16.1967L32.5422 16.0551C32.6237 16.0104 32.5644 15.921 32.4458 15.921H31.9641C31.8455 15.921 31.7862 16.003 31.8678 16.0477L32.1123 16.1892C32.1642 16.219 32.2457 16.219 32.2976 16.1892L32.305 16.1967Z" fill="#FF8E8C"/>
<path d="M31.408 15.7795L31.6526 15.921C31.7341 15.9732 31.8824 15.9359 31.8749 15.8689V15.5933C31.8749 15.5262 31.7267 15.489 31.6452 15.5411L31.408 15.6826C31.3562 15.7124 31.3562 15.7646 31.408 15.7944V15.7795Z" fill="#FECB4C"/>
<path d="M33.016 15.6752L32.7714 15.5337C32.6899 15.4815 32.5417 15.5188 32.5491 15.5858V15.8614C32.5491 15.9285 32.6973 15.9657 32.7788 15.9136L33.016 15.772C33.0679 15.7422 33.0679 15.6901 33.016 15.6603V15.6752Z" fill="#FECB4C"/>
<path d="M38.2487 13.269L37.2186 13.8649C36.9888 13.999 36.6183 13.999 36.3886 13.8649L35.351 13.2615C35.1213 13.1274 35.1213 12.9114 35.351 12.7773L36.3811 12.1813C36.6109 12.0472 36.9814 12.0472 37.2112 12.1813L38.2487 12.7847C38.434 12.889 38.471 13.0529 38.3525 13.1796C38.3302 13.2094 38.3006 13.2317 38.2561 13.2541C38.2561 13.2541 38.2487 13.2541 38.2413 13.2541L38.2487 13.269Z" fill="#81D1EF"/>
<path d="M36.7072 13.4328L35.8994 13.5744L35.351 13.254C35.1213 13.1199 35.1213 12.9039 35.351 12.7698L35.4918 12.6879L36.7072 13.4254V13.4328Z" fill="#F1F2F6"/>
<path d="M37.5665 12.889L36.6698 13.3658L35.5137 12.6953L36.3882 12.1888C36.6179 12.0547 36.9885 12.0547 37.2182 12.1888L38.2557 12.7922C38.441 12.8965 38.4781 13.0604 38.3595 13.187C38.3372 13.2168 37.6036 12.8667 37.5665 12.889Z" fill="#7CD14F"/>
<path d="M38.249 13.269L37.7006 13.5893L37.041 13.2019L38.0044 12.6432L38.249 12.7847C38.4343 12.889 38.4713 13.0529 38.3528 13.1796C38.3305 13.2094 38.3009 13.2317 38.2564 13.2541C38.2564 13.2541 38.249 13.2541 38.2416 13.2541L38.249 13.269Z" fill="#7CD14F"/>
<path d="M35.5803 12.6506L36.7809 13.3434L36.5512 13.4775L35.3506 12.7773L35.5803 12.6506Z" fill="#FFB33D"/>
<path d="M37.2108 12.2484C37.0033 12.1292 36.6698 12.1292 36.4623 12.2484C36.1807 12.4123 36.0547 12.9189 36.0547 12.9189C36.0547 12.9189 36.9366 12.8444 37.2182 12.6805C37.4257 12.5613 37.4257 12.3676 37.2182 12.2484H37.2108Z" fill="#FF4C4A"/>
<path d="M37.0549 12.5911C36.9363 12.6581 36.7436 12.6581 36.6251 12.5911C36.5065 12.524 36.5065 12.4123 36.6251 12.3378C36.7436 12.2633 36.9363 12.2707 37.0549 12.3378C37.1735 12.4048 37.1735 12.5166 37.0549 12.5911Z" fill="white"/>
<path d="M38.0412 12.6655L37.7596 12.5016L35.8994 13.5744L36.181 13.7383L38.0412 12.6655Z" fill="#FFE43D"/>
<path d="M37.9444 11.5407L37.3144 11.1757C37.1736 11.0937 37.1959 10.9522 37.3515 10.8553L37.8999 10.535C38.063 10.4381 38.3075 10.4307 38.4483 10.5126L39.0783 10.8777C39.2191 10.9596 39.1968 11.1012 39.0412 11.198L38.4928 11.5183C38.3297 11.6152 38.0852 11.6226 37.9444 11.5407Z" fill="#D5D8E7"/>
<path d="M38.7227 11.3395C38.4337 11.5109 37.9519 11.5109 37.6629 11.3395C37.3739 11.1682 37.3665 10.8926 37.6629 10.7212C37.9519 10.5499 38.4337 10.5499 38.7227 10.7212C39.0117 10.8926 39.0191 11.1682 38.7227 11.3395Z" fill="#6DB6F3"/>
<path d="M38.6855 11.3172C38.4112 11.4736 37.974 11.4736 37.6998 11.3172C37.4256 11.1607 37.4256 10.9 37.6998 10.7436C37.974 10.5871 38.4112 10.5871 38.6855 10.7436C38.9597 10.9 38.9597 11.1607 38.6855 11.3172Z" fill="#81D1EF"/>
<path d="M38.641 11.2949C38.389 11.4364 37.9888 11.4364 37.7368 11.2949C37.4849 11.1533 37.4849 10.9149 37.7368 10.7734C37.9888 10.6319 38.389 10.6319 38.641 10.7734C38.8929 10.9149 38.8929 11.1533 38.641 11.2949Z" fill="#B3E7FC"/>
<path d="M38.5298 11.1459C38.5298 11.1459 38.5076 11.1831 38.4631 11.2427C38.4187 11.3023 38.3816 11.3247 38.4631 11.3321C38.5076 11.3321 38.5224 11.347 38.5373 11.347C38.5743 11.3321 38.6114 11.3172 38.641 11.3023C38.6262 11.2949 38.6114 11.28 38.6188 11.2725C38.6336 11.2576 38.6632 11.2502 38.6929 11.2725C38.8189 11.1831 38.8633 11.0639 38.8189 10.9522C38.8189 10.9522 38.8041 10.9522 38.7744 10.9447C38.7448 10.9373 38.7374 10.9149 38.7374 10.9149C38.7374 10.9149 38.7966 10.8851 38.767 10.8777C38.7374 10.8777 38.7003 10.9 38.7003 10.9C38.7003 10.9 38.5743 10.8553 38.5669 10.8702C38.5669 10.8926 38.5224 10.9149 38.5224 10.9075C38.5224 10.9075 38.5224 10.8628 38.4631 10.8777C38.4039 10.8926 38.3816 10.8851 38.3816 10.9075V10.9298C38.3816 10.9298 38.3223 10.9522 38.2408 10.9298C38.1593 10.9 38.0555 10.9596 38.0111 10.9894C37.9666 11.0192 37.9518 11.0565 38.0111 11.0863C38.063 11.1161 38.1297 11.131 38.0407 11.1831C37.9518 11.2353 37.974 11.2576 37.8777 11.2725C37.7962 11.2874 37.7888 11.2949 37.7962 11.3172C37.8777 11.3619 37.9814 11.3843 38.0778 11.3992C38.0778 11.3992 38.0852 11.3992 38.0926 11.3992C38.1667 11.3843 38.2112 11.3768 38.2631 11.3843C38.3223 11.3843 38.4409 11.3768 38.4409 11.3694C38.4409 11.3619 38.3964 11.3396 38.3742 11.3247C38.352 11.3098 38.3742 11.3247 38.4187 11.2725C38.4631 11.2204 38.4483 11.1608 38.4854 11.1384C38.5224 11.1161 38.5521 11.1384 38.5521 11.1384C38.5521 11.1384 38.5669 11.0937 38.515 11.0788C38.4706 11.0639 38.4631 11.0714 38.4854 11.0267C38.5076 10.982 38.6114 11.0192 38.604 11.0714C38.5965 11.1235 38.6558 11.1459 38.6558 11.1459C38.6558 11.1459 38.6558 11.1608 38.604 11.1608C38.5521 11.1608 38.5298 11.1608 38.5298 11.1608V11.1459Z" fill="#7CD14F"/>
<path d="M37.8551 10.7138H37.8476C37.8476 10.7287 37.8847 10.7361 37.8847 10.7361C37.8847 10.7361 37.7661 10.7883 37.7958 10.7957C37.8254 10.8032 37.8551 10.7957 37.8847 10.7808C37.9143 10.7659 37.8847 10.7361 37.9588 10.7361C38.0329 10.7361 38.0774 10.7361 38.0774 10.7361H38.1441L38.1663 10.751C38.1663 10.751 38.0922 10.751 38.107 10.7585C38.1219 10.7734 38.2182 10.7659 38.2182 10.7659C38.2182 10.7659 38.2923 10.7734 38.2775 10.751C38.2627 10.7287 38.233 10.7361 38.1886 10.7138C38.1441 10.6914 38.196 10.6989 38.196 10.6989L38.2701 10.7361C38.2701 10.7361 38.322 10.751 38.359 10.7361C38.3961 10.7212 38.3738 10.6914 38.3738 10.6914L38.4183 10.6765C38.233 10.6319 38.0181 10.6393 37.8476 10.7063L37.8551 10.7138Z" fill="#6EBA46"/>
<path d="M37.6256 11.1161C37.6256 11.1161 37.6774 11.1161 37.6997 11.0937C37.7219 11.0714 37.7367 11.0416 37.7441 11.0341C37.7516 11.0267 37.7441 11.0043 37.7441 11.0043C37.7441 10.9969 37.7738 11.0043 37.7886 10.982C37.8034 10.9596 37.8257 10.9522 37.8257 10.9522C37.8257 10.9522 37.8998 10.9522 37.8924 10.9149C37.8924 10.8851 37.8775 10.8553 37.8775 10.8553C37.8775 10.8553 37.8553 10.833 37.8034 10.833C37.7516 10.833 37.7071 10.8553 37.6997 10.833C37.6923 10.8106 37.6552 10.833 37.6552 10.833C37.6552 10.833 37.6478 10.8553 37.6182 10.8628C37.5441 10.9522 37.5366 11.0639 37.6033 11.1533C37.6478 11.131 37.633 11.1086 37.633 11.1086L37.6256 11.1161Z" fill="#6EBA46"/>
<path d="M38.1449 19.2659L37.4556 18.8636C37.3 18.7742 37.3222 18.6178 37.5001 18.5135L38.1004 18.1633C38.2783 18.059 38.545 18.0516 38.7007 18.141L39.3899 18.5433C39.5455 18.6327 39.5233 18.7891 39.3454 18.8934L38.7451 19.2435C38.5673 19.3478 38.3005 19.3553 38.1449 19.2659Z" fill="#7CD14F"/>
<path d="M39.1605 18.8338L38.7084 19.0945C38.6269 19.1467 38.4861 19.1392 38.4046 19.0945L37.9896 18.8487L37.5449 18.8189L37.7895 18.7668H37.8339L38.0637 18.7072L37.7747 18.7221H37.7598C37.6783 18.6625 37.6783 18.588 37.7598 18.5358L38.2119 18.2751C38.2934 18.2229 38.4342 18.2304 38.5158 18.2751L39.1753 18.655C39.2569 18.7072 39.2569 18.7817 39.1753 18.8338H39.1605Z" fill="#F1F2F6"/>
<path d="M39.3004 11.7046L39.8933 12.0472C40.0267 12.1217 40.0267 12.2484 39.8933 12.3229L39.3079 12.6656C39.1819 12.74 38.9669 12.74 38.8335 12.6656L38.2407 12.3229C38.1073 12.2484 38.1073 12.1217 38.2407 12.0472L38.8261 11.7046C38.9595 11.6301 39.167 11.6301 39.3004 11.7046Z" fill="#CE7836"/>
<path d="M39.3371 11.7269L39.8929 12.0473C40.0263 12.1218 40.0263 12.2484 39.8929 12.3229L39.3075 12.6656C39.1815 12.7401 38.9666 12.7401 38.8332 12.6656L38.2773 12.3452L39.3371 11.7269Z" fill="#FFE56F"/>
<path d="M39.5751 11.861L39.2119 12.0696L39.4046 12.0994L39.4417 12.1963L39.7974 11.9951L39.5751 11.861Z" fill="#FF4C4A"/>
<path d="M43.2729 15.8391L42.265 15.258C42.0427 15.1314 42.0723 14.9004 42.3243 14.7514L43.1914 14.2449C43.4508 14.0959 43.8361 14.081 44.0585 14.2076L45.0664 14.7887C45.2887 14.9153 45.259 15.1463 45.0071 15.2953L44.14 15.8018C43.8806 15.9508 43.4952 15.9657 43.2729 15.8391Z" fill="#F1F2F6"/>
<path d="M44.9478 15.1984L44.5477 15.4294C44.3624 15.5336 44.0659 15.5336 43.8807 15.4294L43.6806 15.3102L43.7176 15.2878C43.9029 15.1835 43.9029 15.0047 43.7176 14.9004L43.3545 14.6918L43.7176 14.4833C43.9029 14.379 44.1993 14.379 44.3846 14.4833L44.9478 14.811C45.1331 14.9153 45.1331 15.0941 44.9478 15.1984Z" fill="#81D1EF"/>
<path d="M44.0877 14.6397L44.2359 14.7291L43.7616 15.0047L43.6579 14.9451L43.606 14.9749L43.5615 14.9526L44.0877 14.6472V14.6397ZM43.9988 14.9526C43.9988 14.9526 44.0136 14.9824 44.0284 14.9973C43.9247 15.0345 43.8209 15.0718 43.7023 15.1165L43.6653 15.0718C43.7764 15.0345 43.8876 14.9973 43.9988 14.96V14.9526ZM44.147 14.7291L44.0877 14.6919L43.7023 14.9153L43.7616 14.9526L44.147 14.7291ZM44.0877 14.9526L44.147 14.9898L44.3249 14.9004C44.3249 14.9004 44.2656 14.9004 44.2359 14.9004C44.2359 14.8855 44.2359 14.8706 44.2359 14.8557C44.3323 14.8557 44.436 14.8408 44.5398 14.8111L44.5768 14.8483C44.5768 14.8483 44.5175 14.8632 44.4879 14.8706L44.7325 15.0122L44.688 15.0345L44.4212 14.8781C44.4212 14.8781 44.3619 14.8855 44.3323 14.893L44.5916 15.0494C44.525 15.0867 44.4657 15.1165 44.4138 15.1463L44.4731 15.1761L44.4286 15.1984L44.3693 15.1686C44.3174 15.1984 44.273 15.2208 44.2359 15.2431L44.2878 15.2729L44.2433 15.2953L44.1915 15.2655C44.1173 15.3027 44.0581 15.3027 43.9988 15.2655C43.9543 15.2357 43.9247 15.2208 43.9024 15.2059C43.9173 15.191 43.9321 15.1835 43.9469 15.1686C43.9765 15.191 44.0062 15.2059 44.0358 15.2282C44.0655 15.2431 44.1025 15.2431 44.1396 15.2282L43.9098 15.0941L43.9469 15.0718L44.0951 14.9973L44.0432 14.9675L44.0877 14.9451V14.9526ZM44.3249 15.1388L44.147 15.0345L44.0062 15.1016L44.1915 15.2059C44.2359 15.1835 44.2804 15.1612 44.3249 15.1314V15.1388ZM44.1544 14.8111C44.1544 14.8111 44.1692 14.8781 44.1766 14.9153C44.1396 14.9153 44.1173 14.9153 44.0951 14.9153C44.0951 14.8781 44.0951 14.8483 44.0877 14.8111H44.1544ZM44.1544 15.0718H44.2137C44.2063 15.109 44.1915 15.1388 44.184 15.1612L44.1173 15.1463C44.1173 15.1463 44.147 15.0941 44.1544 15.0643V15.0718ZM44.3397 14.9377L44.1989 15.0047L44.3693 15.1016C44.4138 15.0792 44.4582 15.0569 44.5027 15.0271L44.3397 14.9302V14.9377ZM44.3545 14.7217C44.3545 14.7217 44.3693 14.7887 44.3693 14.8185C44.3397 14.8185 44.3174 14.8185 44.2952 14.8185C44.2952 14.7887 44.2952 14.7515 44.2878 14.7217H44.3545ZM44.3397 14.9749H44.399C44.3916 15.0122 44.3767 15.042 44.3693 15.0643L44.3026 15.0494C44.3026 15.0494 44.3323 14.9973 44.3397 14.9749Z" fill="white"/>
<path d="M43.7179 15.2952L43.6808 15.3176L43.3177 15.109C43.1324 15.0047 43.1324 14.8259 43.3177 14.7216L43.3547 14.6993L43.7179 14.9079C43.9031 15.0122 43.9031 15.191 43.7179 15.2952Z" fill="#A184C2"/>
<path d="M43.6877 15.3101L43.4876 15.4219C43.3023 15.5262 43.0059 15.5262 42.8206 15.4219L42.4427 15.2058C42.2574 15.1015 42.2574 14.9227 42.4427 14.8185L42.6798 14.6844C42.8651 14.5801 43.1615 14.5801 43.3468 14.6844H43.3616L43.3246 14.7142C43.1393 14.8185 43.1393 14.9972 43.3246 15.1015L43.6877 15.3101Z" fill="#FF4C4A"/>
<path d="M42.5391 14.9451L42.8948 14.8706L42.9244 14.8855L42.7984 15.0941L42.7317 15.0568L42.7466 15.027L42.6502 14.9674H42.6058L42.5391 14.9377V14.9451ZM42.7243 14.9526L42.7762 14.9823L42.8059 14.9377L42.7243 14.9526Z" fill="white"/>
<path d="M42.8281 15.109L43.0727 14.9675L43.1764 15.0271C43.2135 15.0494 43.2135 15.0867 43.1764 15.109C43.1616 15.1165 43.1394 15.1239 43.1172 15.1239C43.1172 15.1388 43.1172 15.1612 43.0875 15.1686C43.0505 15.191 42.9838 15.191 42.9467 15.1686L42.8281 15.1016V15.109ZM42.9838 15.1388C42.9838 15.1388 43.0134 15.1388 43.0282 15.1388C43.043 15.1388 43.0356 15.1239 43.0282 15.1165L42.9838 15.0941L42.9393 15.1165L42.9838 15.1388ZM43.0653 15.0792C43.0653 15.0792 43.0949 15.0792 43.1097 15.0792C43.1246 15.0792 43.1246 15.0643 43.1097 15.0569L43.0801 15.042L43.0356 15.0643L43.0653 15.0792Z" fill="white"/>
<path d="M43.3765 15.2356C43.3765 15.2356 43.3691 15.2133 43.3543 15.2058C43.3246 15.1835 43.2727 15.1835 43.2431 15.2058C43.2135 15.2282 43.2135 15.2505 43.2431 15.2729C43.2579 15.2803 43.2802 15.2878 43.3024 15.2878V15.3399C43.2579 15.3399 43.2135 15.3325 43.1838 15.3101C43.1171 15.2729 43.1171 15.2058 43.1838 15.1686C43.2505 15.1313 43.3617 15.1313 43.4284 15.1686C43.458 15.1909 43.4803 15.2133 43.4803 15.2356H43.3913H43.3765Z" fill="white"/>
<path d="M34.8612 17.2769L33.8904 16.7107C33.6754 16.5841 33.7051 16.368 33.9497 16.2265L34.7871 15.7423C35.0317 15.6007 35.4096 15.5858 35.6245 15.705L36.5954 16.2712C36.8103 16.3978 36.7806 16.6139 36.5361 16.7554L35.6986 17.2396C35.4541 17.3812 35.0761 17.3961 34.8612 17.2769Z" fill="#D2D6E1"/>
<path d="M35.1579 16.7181C35.1579 16.7181 35.1728 16.6809 35.2024 16.6734L35.3877 16.6436L35.4099 16.5319L35.2395 16.4797C35.2395 16.4797 35.195 16.4499 35.2098 16.435L35.2839 16.3308L35.1505 16.2563L34.9801 16.301C34.9801 16.301 34.9134 16.301 34.8986 16.2861L34.8096 16.1892L34.6243 16.2041L34.5725 16.3084C34.5725 16.3084 34.5354 16.3382 34.4984 16.3308L34.3131 16.3084L34.2167 16.3978L34.3279 16.4872C34.3279 16.4872 34.3427 16.5244 34.3205 16.5393L34.1797 16.6138L34.239 16.7181H34.4317C34.4317 16.7181 34.4909 16.7405 34.4909 16.7554V16.8671L34.6762 16.9044L34.8022 16.8224C34.8022 16.8224 34.8615 16.8075 34.8837 16.8224L35.0394 16.8895L35.195 16.8299L35.1579 16.7181Z" fill="#6D7A9D"/>
<path d="M36.2174 16.5096L36.336 16.4798V16.368L36.21 16.3382C36.1581 16.3233 36.1285 16.301 36.1359 16.2712V16.1967L35.9802 16.1445L35.8765 16.1892C35.832 16.2041 35.7801 16.2116 35.7357 16.1892L35.6245 16.1445L35.4615 16.2041L35.4763 16.2786C35.4763 16.2786 35.4541 16.3382 35.4096 16.3531L35.291 16.3829V16.4947L35.417 16.5245C35.4689 16.5394 35.4985 16.5617 35.4911 16.5915V16.666L35.6467 16.7182L35.7505 16.6735C35.795 16.6586 35.8468 16.6511 35.8913 16.6735L36.0025 16.7182L36.1655 16.6586L36.1507 16.5841C36.1507 16.5841 36.1729 16.5245 36.2174 16.5096Z" fill="#6D7A9D"/>
<path d="M34.9649 16.6511C34.8686 16.7033 34.7204 16.7033 34.624 16.6511C34.5277 16.599 34.5277 16.5096 34.624 16.4574C34.7204 16.4053 34.8686 16.4053 34.9649 16.4574C35.0613 16.5096 35.0613 16.599 34.9649 16.6511Z" fill="#D2D6E1"/>
<path d="M35.9582 16.5095C35.8841 16.5542 35.7581 16.5542 35.6766 16.5095C35.6024 16.4649 35.595 16.3904 35.6766 16.3457C35.7581 16.301 35.8767 16.301 35.9582 16.3457C36.0323 16.3904 36.0397 16.4649 35.9582 16.5095Z" fill="#D2D6E1"/>
<path d="M1.63918 42.5608L2.33581 42.9706C4.359 44.155 6.85649 44.1625 8.87969 42.9855L12.1553 41.0858L23.2273 31.8334C23.2273 31.8334 26.3992 31.3492 26.8216 30.0008C27.2366 28.645 29.1338 24.272 29.7193 23.7282C30.3048 23.177 36.7153 22.2681 36.7153 22.2681L29.5489 18.0665C29.5489 18.0665 24.1611 21.4114 23.8054 21.8286C23.4422 22.2458 21.7599 24.8829 21.7599 24.8829L21.0929 26.8049L19.633 28.4885L17.6765 30.1349L6.06352 36.2808L1.66141 38.836C0.231095 39.6629 0.223684 41.7414 1.654 42.5757L1.63918 42.5608Z" fill="#D0CECE"/>
<path d="M0.571289 40.7953V39.6853L1.80151 39.4841L1.61623 41.0485L0.571289 40.7953Z" fill="#393F42"/>
<path d="M29.5407 17.0906L29.511 17.113L24.5976 19.9587C23.108 20.8229 21.7444 22.6257 21.1218 24.5402C20.6401 26.0376 19.5729 27.4456 18.4094 28.1161L6.09241 35.2751L1.64583 37.8601C1.03072 38.2177 0.674994 38.8137 0.593473 39.4395C0.57124 39.581 0.57124 39.7225 0.578651 39.8641C0.600884 40.2142 0.704637 40.5643 0.897322 40.8772C1.07519 41.1603 1.31975 41.4136 1.63842 41.5998L2.33505 42.0021C4.35083 43.1866 6.85573 43.1941 8.87893 42.017L12.162 40.1099L26.3021 32.3325C26.3021 32.3325 27.8065 31.2151 28.2289 29.8593C28.6514 28.5109 29.7778 26.3654 30.3559 25.8216C30.9414 25.2703 36.7071 21.2848 36.7071 21.2848L29.5407 17.0832V17.0906Z" fill="#393F42"/>
<path d="M8.87891 42.9854L25.5832 33.2935C27.0728 32.4293 28.4364 30.634 29.059 28.712C29.5407 27.2146 30.6078 25.8066 31.7714 25.1362L36.7145 22.2681V21.2996L31.7714 24.1677C30.2818 25.0319 28.9181 26.8272 28.2956 28.7492C27.8139 30.2466 26.7467 31.6546 25.5832 32.325L8.87891 42.017V42.9854Z" fill="#D0CECE"/>
<path d="M52.5439 13.2317C52.5439 13.2317 52.581 13.2168 52.6329 13.2094C52.5958 13.2094 52.5736 13.2242 52.5439 13.2317Z" fill="#444C5B"/>
<path d="M52.8034 13.1721C52.8553 13.1572 52.9146 13.1572 52.9739 13.1498C52.9146 13.1498 52.8627 13.1647 52.8108 13.1721C52.7886 13.1721 52.7664 13.1721 52.7441 13.187C52.759 13.187 52.7812 13.1721 52.8034 13.1721Z" fill="#444C5B"/>
<g style="mix-blend-mode:screen">
<path d="M47.1644 15.5113L39.294 20.0779C39.0568 20.212 38.6714 20.212 38.4417 20.0779C38.2045 19.9438 38.212 19.7203 38.4417 19.5788L46.1639 15.0941C46.1639 15.0941 46.4307 14.7812 45.4821 14.2374C44.5335 13.6936 40.0054 10.8776 40.0054 10.8776C40.0054 10.8776 42.5548 12.3079 44.0444 13.1647C45.5266 14.0214 47.1644 15.0122 47.1644 15.0122C47.4015 15.1462 47.3941 15.3697 47.1644 15.5113Z" fill="#252B35"/>
</g>
</g>
<defs>
<linearGradient id="paint0_linear_1064_1624" x1="38.574" y1="23.3036" x2="38.574" y2="20.4802" gradientUnits="userSpaceOnUse">
<stop offset="0.04" stop-color="#A0A6C0"/>
<stop offset="1" stop-color="#B3B7CB"/>
</linearGradient>
<linearGradient id="paint1_linear_1064_1624" x1="28.8363" y1="17.4631" x2="48.4457" y2="17.4631" gradientUnits="userSpaceOnUse">
<stop stop-color="#BFC1D1"/>
<stop offset="0.04" stop-color="#A0A6C0"/>
<stop offset="0.44" stop-color="#A0A6C0"/>
<stop offset="0.53" stop-color="#CFCFDA"/>
<stop offset="0.57" stop-color="#CFCFDA"/>
<stop offset="0.6" stop-color="#C4C8D8"/>
<stop offset="0.93" stop-color="#C4C8D8"/>
<stop offset="0.96" stop-color="#BEC2D3"/>
<stop offset="1" stop-color="#B3B7CB"/>
</linearGradient>
<clipPath id="clip0_1064_1624">
<rect width="72.8571" height="43.7143" fill="white" transform="translate(0.571289 0.142761)"/>
</clipPath>
</defs>
</svg>
