<svg width="10" height="14" viewBox="0 0 10 14" fill="none" xmlns="http://www.w3.org/2000/svg">
<path d="M9 6C9 9.5 4.5 12.5 4.5 12.5C4.5 12.5 0 9.5 0 6C1.77841e-08 4.80653 0.474106 3.66193 1.31802 2.81802C2.16193 1.97411 3.30653 1.5 4.5 1.5C5.69347 1.5 6.83806 1.97411 7.68198 2.81802C8.52589 3.66193 9 4.80653 9 6Z" stroke="#EF643F" stroke-width="1.5" stroke-linecap="round" stroke-linejoin="round"/>
<path d="M4.5 7.49976C5.32843 7.49976 6 6.82818 6 5.99976C6 5.17133 5.32843 4.49976 4.5 4.49976C3.67157 4.49976 3 5.17133 3 5.99976C3 6.82818 3.67157 7.49976 4.5 7.49976Z" stroke="#EF643F" stroke-width="1.5" stroke-linecap="round" stroke-linejoin="round"/>
</svg>
